G04 #@! TF.GenerationSoftware,KiCad,Pcbnew,5.0.2-bee76a0~70~ubuntu18.04.1*
G04 #@! TF.CreationDate,2019-09-08T18:43:56-04:00*
G04 #@! TF.ProjectId,Mother Board,4d6f7468-6572-4204-926f-6172642e6b69,rev?*
G04 #@! TF.SameCoordinates,Original*
G04 #@! TF.FileFunction,Legend,Top*
G04 #@! TF.FilePolarity,Positive*
%FSLAX46Y46*%
G04 Gerber Fmt 4.6, Leading zero omitted, Abs format (unit mm)*
G04 Created by KiCad (PCBNEW 5.0.2-bee76a0~70~ubuntu18.04.1) date Sun 08 Sep 2019 06:43:56 PM EDT*
%MOMM*%
%LPD*%
G01*
G04 APERTURE LIST*
%ADD10C,0.150000*%
%ADD11C,0.120000*%
G04 APERTURE END LIST*
D10*
G04 #@! TO.C,U3*
X108890000Y-187625000D02*
X108890000Y-186025000D01*
X98815000Y-187625000D02*
X98815000Y-193375000D01*
X109465000Y-187625000D02*
X109465000Y-193375000D01*
X98815000Y-187625000D02*
X99465000Y-187625000D01*
X98815000Y-193375000D02*
X99465000Y-193375000D01*
X109465000Y-193375000D02*
X108815000Y-193375000D01*
X109465000Y-187625000D02*
X108890000Y-187625000D01*
D11*
G04 #@! TO.C,J2*
X82990000Y-186590000D02*
X84940000Y-186590000D01*
X87160000Y-186590000D02*
X90390000Y-186590000D01*
X92310000Y-187310000D02*
X92310000Y-188390000D01*
X92310000Y-192610000D02*
X92310000Y-193690000D01*
X87160000Y-194410000D02*
X90390000Y-194410000D01*
X82990000Y-194410000D02*
X84940000Y-194410000D01*
X92310000Y-188390000D02*
X92740000Y-188390000D01*
X82990000Y-194410000D02*
X82990000Y-186590000D01*
G04 #@! TO.C,D3*
X87135000Y-155210000D02*
X87135000Y-151150000D01*
X84865000Y-155210000D02*
X87135000Y-155210000D01*
X84865000Y-151150000D02*
X84865000Y-155210000D01*
G04 #@! TO.C,D4*
X100215785Y-155000161D02*
X100215785Y-150940161D01*
X97945785Y-155000161D02*
X100215785Y-155000161D01*
X97945785Y-150940161D02*
X97945785Y-155000161D01*
G04 #@! TO.C,R1*
X88760000Y-152951266D02*
X88760000Y-152608732D01*
X87740000Y-152951266D02*
X87740000Y-152608732D01*
G04 #@! TO.C,R2*
X102010000Y-152821267D02*
X102010000Y-152478733D01*
X100990000Y-152821267D02*
X100990000Y-152478733D01*
G04 #@! TO.C,R3*
X160046267Y-163990000D02*
X159703733Y-163990000D01*
X160046267Y-165010000D02*
X159703733Y-165010000D01*
G04 #@! TO.C,R4*
X160046267Y-161990000D02*
X159703733Y-161990000D01*
X160046267Y-163010000D02*
X159703733Y-163010000D01*
G04 #@! TO.C,R5*
X129740000Y-185984645D02*
X129740000Y-186327179D01*
X130760000Y-185984645D02*
X130760000Y-186327179D01*
G04 #@! TO.C,R6*
X177990000Y-199703733D02*
X177990000Y-200046267D01*
X179010000Y-199703733D02*
X179010000Y-200046267D01*
G04 #@! TO.C,R7*
X177990000Y-194703733D02*
X177990000Y-195046267D01*
X179010000Y-194703733D02*
X179010000Y-195046267D01*
G04 #@! TO.C,R8*
X136283141Y-171460912D02*
X135940607Y-171460912D01*
X136283141Y-172480912D02*
X135940607Y-172480912D01*
G04 #@! TO.C,R9*
X136283141Y-169760912D02*
X135940607Y-169760912D01*
X136283141Y-170780912D02*
X135940607Y-170780912D01*
G04 #@! TO.C,R13*
X153240000Y-115328733D02*
X153240000Y-115671267D01*
X154260000Y-115328733D02*
X154260000Y-115671267D01*
G04 #@! TO.C,R14*
X153240000Y-119078733D02*
X153240000Y-119421267D01*
X154260000Y-119078733D02*
X154260000Y-119421267D01*
G04 #@! TO.C,R15*
X153198605Y-122828733D02*
X153198605Y-123171267D01*
X154218605Y-122828733D02*
X154218605Y-123171267D01*
G04 #@! TO.C,R16*
X127490000Y-115328733D02*
X127490000Y-115671267D01*
X128510000Y-115328733D02*
X128510000Y-115671267D01*
G04 #@! TO.C,R17*
X127490000Y-119073960D02*
X127490000Y-119416494D01*
X128510000Y-119073960D02*
X128510000Y-119416494D01*
G04 #@! TO.C,R18*
X127490000Y-122828733D02*
X127490000Y-123171267D01*
X128510000Y-122828733D02*
X128510000Y-123171267D01*
G04 #@! TO.C,R25*
X115010000Y-190886267D02*
X115010000Y-190543733D01*
X113990000Y-190886267D02*
X113990000Y-190543733D01*
G04 #@! TO.C,R26*
X116760000Y-190886267D02*
X116760000Y-190543733D01*
X115740000Y-190886267D02*
X115740000Y-190543733D01*
G04 #@! TO.C,R27*
X113010000Y-190921267D02*
X113010000Y-190578733D01*
X111990000Y-190921267D02*
X111990000Y-190578733D01*
G04 #@! TO.C,R28*
X111260000Y-190886267D02*
X111260000Y-190543733D01*
X110240000Y-190886267D02*
X110240000Y-190543733D01*
G04 #@! TO.C,R29*
X97490000Y-115328733D02*
X97490000Y-115671267D01*
X98510000Y-115328733D02*
X98510000Y-115671267D01*
G04 #@! TO.C,R30*
X97490000Y-119078733D02*
X97490000Y-119421267D01*
X98510000Y-119078733D02*
X98510000Y-119421267D01*
G04 #@! TO.C,R31*
X97490000Y-122828733D02*
X97490000Y-123171267D01*
X98510000Y-122828733D02*
X98510000Y-123171267D01*
G04 #@! TO.C,C5*
X128760000Y-184171267D02*
X128760000Y-183828733D01*
X127740000Y-184171267D02*
X127740000Y-183828733D01*
G04 #@! TO.C,C6*
X128760000Y-188171267D02*
X128760000Y-187828733D01*
X127740000Y-188171267D02*
X127740000Y-187828733D01*
G04 #@! TO.C,C7*
X159921267Y-159990000D02*
X159578733Y-159990000D01*
X159921267Y-161010000D02*
X159578733Y-161010000D01*
G04 #@! TO.C,C8*
X161121874Y-178142179D02*
X161121874Y-177799645D01*
X160101874Y-178142179D02*
X160101874Y-177799645D01*
G04 #@! TO.C,C11*
X133621874Y-189642179D02*
X133621874Y-189299645D01*
X132601874Y-189642179D02*
X132601874Y-189299645D01*
G04 #@! TO.C,C12*
X140190607Y-198230912D02*
X140533141Y-198230912D01*
X140190607Y-197210912D02*
X140533141Y-197210912D01*
G04 #@! TO.C,C13*
X153408141Y-197210912D02*
X153065607Y-197210912D01*
X153408141Y-198230912D02*
X153065607Y-198230912D01*
G04 #@! TO.C,C14*
X159371874Y-178142179D02*
X159371874Y-177799645D01*
X158351874Y-178142179D02*
X158351874Y-177799645D01*
G04 #@! TO.C,C15*
X137283141Y-175210912D02*
X136940607Y-175210912D01*
X137283141Y-176230912D02*
X136940607Y-176230912D01*
G04 #@! TO.C,C16*
X133621874Y-193392179D02*
X133621874Y-193049645D01*
X132601874Y-193392179D02*
X132601874Y-193049645D01*
G04 #@! TO.C,J3*
X160510000Y-170370000D02*
X160510000Y-171500000D01*
X159750000Y-170370000D02*
X160510000Y-170370000D01*
X160445000Y-173077530D02*
X160445000Y-173900000D01*
X160445000Y-172260000D02*
X160445000Y-172462470D01*
X160313471Y-172260000D02*
X160445000Y-172260000D01*
X159043471Y-172260000D02*
X159186529Y-172260000D01*
X158990000Y-172063471D02*
X158990000Y-172206529D01*
X158990000Y-170370000D02*
X158990000Y-170936529D01*
X160445000Y-173900000D02*
X153975000Y-173900000D01*
X158990000Y-170370000D02*
X153975000Y-170370000D01*
X153975000Y-171807530D02*
X153975000Y-172462470D01*
X153975000Y-173077530D02*
X153975000Y-173900000D01*
X153975000Y-170370000D02*
X153975000Y-171192470D01*
G04 #@! TO.C,J5*
X180585000Y-193540001D02*
X181915000Y-193540001D01*
X180585000Y-194870001D02*
X180585000Y-193540001D01*
X180585000Y-196140001D02*
X183245000Y-196140001D01*
X183245000Y-196140001D02*
X183245000Y-201280001D01*
X180585000Y-196140001D02*
X180585000Y-201280001D01*
X180585000Y-201280001D02*
X183245000Y-201280001D01*
G04 #@! TO.C,J6*
X173650001Y-193540001D02*
X174980001Y-193540001D01*
X173650001Y-194870001D02*
X173650001Y-193540001D01*
X173650001Y-196140001D02*
X176310001Y-196140001D01*
X176310001Y-196140001D02*
X176310001Y-201280001D01*
X173650001Y-196140001D02*
X173650001Y-201280001D01*
X173650001Y-201280001D02*
X176310001Y-201280001D01*
G04 #@! TO.C,R41*
X153240000Y-134578733D02*
X153240000Y-134921267D01*
X154260000Y-134578733D02*
X154260000Y-134921267D01*
G04 #@! TO.C,R42*
X97490000Y-134578733D02*
X97490000Y-134921267D01*
X98510000Y-134578733D02*
X98510000Y-134921267D01*
G04 #@! TO.C,R43*
X127490000Y-134578733D02*
X127490000Y-134921267D01*
X128510000Y-134578733D02*
X128510000Y-134921267D01*
G04 #@! TO.C,J4*
X92710000Y-122040000D02*
X92710000Y-101720000D01*
X85090000Y-122040000D02*
X85090000Y-101720000D01*
X91440000Y-101720000D02*
X91440000Y-122040000D01*
X92710000Y-101720000D02*
X85090000Y-101720000D01*
X85090000Y-122040000D02*
X92710000Y-122040000D01*
G04 #@! TO.C,J7*
X85090000Y-124460000D02*
X85090000Y-144780000D01*
X92710000Y-124460000D02*
X92710000Y-144780000D01*
X86360000Y-144780000D02*
X86360000Y-124460000D01*
X85090000Y-144780000D02*
X92710000Y-144780000D01*
X92710000Y-124460000D02*
X85090000Y-124460000D01*
G04 #@! TO.C,J1*
X92810000Y-99040000D02*
X92810000Y-78720000D01*
X85190000Y-99040000D02*
X85190000Y-78720000D01*
X91540000Y-78720000D02*
X91540000Y-99040000D01*
X92810000Y-78720000D02*
X85190000Y-78720000D01*
X85190000Y-99040000D02*
X92810000Y-99040000D01*
D10*
G04 #@! TO.C,I2C1_SDA1*
X128750000Y-172000000D02*
G75*
G03X128750000Y-172000000I-1750000J0D01*
G01*
G04 #@! TO.C,SPI3_SCK1*
X156000000Y-159500000D02*
G75*
G03X156000000Y-159500000I-1750000J0D01*
G01*
G04 #@! TO.C,SPI3_MISO1*
X156000000Y-151750000D02*
G75*
G03X156000000Y-151750000I-1750000J0D01*
G01*
G04 #@! TO.C,SPI3_MOSI1*
X156000000Y-147000000D02*
G75*
G03X156000000Y-147000000I-1750000J0D01*
G01*
G04 #@! TO.C,GND1*
X89250000Y-68000000D02*
G75*
G03X89250000Y-68000000I-1750000J0D01*
G01*
G04 #@! TO.C,GND2*
X156000000Y-141500000D02*
G75*
G03X156000000Y-141500000I-1750000J0D01*
G01*
G04 #@! TO.C,GND3*
X189250000Y-68250000D02*
G75*
G03X189250000Y-68250000I-1750000J0D01*
G01*
G04 #@! TO.C,GND4*
X128750000Y-160750000D02*
G75*
G03X128750000Y-160750000I-1750000J0D01*
G01*
G04 #@! TO.C,GND5*
X190500000Y-200750000D02*
G75*
G03X190500000Y-200750000I-1750000J0D01*
G01*
D11*
G04 #@! TO.C,C9*
X97637911Y-199460158D02*
X97980445Y-199460158D01*
X97637911Y-198440158D02*
X97980445Y-198440158D01*
G04 #@! TO.C,C10*
X97637911Y-201460158D02*
X97980445Y-201460158D01*
X97637911Y-200440158D02*
X97980445Y-200440158D01*
G04 #@! TO.C,C19*
X94418523Y-178265693D02*
X94761057Y-178265693D01*
X94418523Y-179285693D02*
X94761057Y-179285693D01*
G04 #@! TO.C,C20*
X97921267Y-197510000D02*
X97578733Y-197510000D01*
X97921267Y-196490000D02*
X97578733Y-196490000D01*
G04 #@! TO.C,C21*
X94761057Y-173285693D02*
X94418523Y-173285693D01*
X94761057Y-172265693D02*
X94418523Y-172265693D01*
G04 #@! TO.C,C22*
X92078733Y-153990000D02*
X92421267Y-153990000D01*
X92078733Y-155010000D02*
X92421267Y-155010000D01*
G04 #@! TO.C,C23*
X104828733Y-154610000D02*
X105171267Y-154610000D01*
X104828733Y-153590000D02*
X105171267Y-153590000D01*
G04 #@! TO.C,D1*
X112460000Y-200115000D02*
X108400000Y-200115000D01*
X112460000Y-202385000D02*
X112460000Y-200115000D01*
X108400000Y-202385000D02*
X112460000Y-202385000D01*
G04 #@! TO.C,D2*
X105350000Y-200115000D02*
X101290000Y-200115000D01*
X101290000Y-200115000D02*
X101290000Y-202385000D01*
X101290000Y-202385000D02*
X105350000Y-202385000D01*
G04 #@! TO.C,R12*
X92421267Y-164490000D02*
X92078733Y-164490000D01*
X92421267Y-165510000D02*
X92078733Y-165510000D01*
G04 #@! TO.C,R19*
X92078733Y-166240000D02*
X92421267Y-166240000D01*
X92078733Y-167260000D02*
X92421267Y-167260000D01*
G04 #@! TO.C,R20*
X105171267Y-165346538D02*
X104828733Y-165346538D01*
X105171267Y-164326538D02*
X104828733Y-164326538D01*
G04 #@! TO.C,R21*
X104828733Y-167210000D02*
X105171267Y-167210000D01*
X104828733Y-166190000D02*
X105171267Y-166190000D01*
G04 #@! TO.C,R22*
X88328733Y-165510000D02*
X88671267Y-165510000D01*
X88328733Y-164490000D02*
X88671267Y-164490000D01*
G04 #@! TO.C,R23*
X88671267Y-167260000D02*
X88328733Y-167260000D01*
X88671267Y-166240000D02*
X88328733Y-166240000D01*
G04 #@! TO.C,R24*
X101050126Y-165324113D02*
X101392660Y-165324113D01*
X101050126Y-164304113D02*
X101392660Y-164304113D01*
G04 #@! TO.C,R32*
X101392660Y-167324113D02*
X101050126Y-167324113D01*
X101392660Y-166304113D02*
X101050126Y-166304113D01*
G04 #@! TO.C,R33*
X96171267Y-164490000D02*
X95828733Y-164490000D01*
X96171267Y-165510000D02*
X95828733Y-165510000D01*
G04 #@! TO.C,R34*
X95828733Y-166240000D02*
X96171267Y-166240000D01*
X95828733Y-167260000D02*
X96171267Y-167260000D01*
G04 #@! TO.C,R35*
X108971267Y-165410000D02*
X108628733Y-165410000D01*
X108971267Y-164390000D02*
X108628733Y-164390000D01*
G04 #@! TO.C,R36*
X108628733Y-167210000D02*
X108971267Y-167210000D01*
X108628733Y-166190000D02*
X108971267Y-166190000D01*
G04 #@! TO.C,R37*
X110171267Y-199510000D02*
X109828733Y-199510000D01*
X110171267Y-198490000D02*
X109828733Y-198490000D01*
G04 #@! TO.C,R38*
X103578733Y-199510000D02*
X103921267Y-199510000D01*
X103578733Y-198490000D02*
X103921267Y-198490000D01*
G04 #@! TO.C,R39*
X92078733Y-152240000D02*
X92421267Y-152240000D01*
X92078733Y-153260000D02*
X92421267Y-153260000D01*
G04 #@! TO.C,R40*
X104828733Y-152810000D02*
X105171267Y-152810000D01*
X104828733Y-151790000D02*
X105171267Y-151790000D01*
G04 #@! TO.C,U1*
X95389790Y-174115693D02*
X93589790Y-174115693D01*
X93589790Y-177335693D02*
X96039790Y-177335693D01*
D10*
G04 #@! TO.C,U6*
X119175000Y-112675000D02*
X119175000Y-112725000D01*
X123325000Y-112675000D02*
X123325000Y-112820000D01*
X123325000Y-117825000D02*
X123325000Y-117680000D01*
X119175000Y-117825000D02*
X119175000Y-117680000D01*
X119175000Y-112675000D02*
X123325000Y-112675000D01*
X119175000Y-117825000D02*
X123325000Y-117825000D01*
X119175000Y-112725000D02*
X117775000Y-112725000D01*
D11*
G04 #@! TO.C,L1*
X90749790Y-175173629D02*
X90749790Y-176377757D01*
X88929790Y-175173629D02*
X88929790Y-176377757D01*
G04 #@! TO.C,Y1*
X127106874Y-188230912D02*
X127106874Y-183930912D01*
X127106874Y-183930912D02*
X121706874Y-183930912D01*
G04 #@! TO.C,C24*
X153533141Y-199960912D02*
X153190607Y-199960912D01*
X153533141Y-200980912D02*
X153190607Y-200980912D01*
G04 #@! TO.C,C25*
X158351874Y-181642179D02*
X158351874Y-181299645D01*
X159371874Y-181642179D02*
X159371874Y-181299645D01*
G04 #@! TO.C,C26*
X133621874Y-179674645D02*
X133621874Y-180017179D01*
X132601874Y-179674645D02*
X132601874Y-180017179D01*
G04 #@! TO.C,C27*
X132601874Y-183049645D02*
X132601874Y-183392179D01*
X133621874Y-183049645D02*
X133621874Y-183392179D01*
D10*
G04 #@! TO.C,U5*
X138986874Y-178995912D02*
X138986874Y-179645912D01*
X153236874Y-178995912D02*
X153236874Y-179755912D01*
X153236874Y-193245912D02*
X153236874Y-192485912D01*
X138986874Y-193245912D02*
X138986874Y-192485912D01*
X138986874Y-178995912D02*
X139746874Y-178995912D01*
X138986874Y-193245912D02*
X139746874Y-193245912D01*
X153236874Y-193245912D02*
X152476874Y-193245912D01*
X153236874Y-178995912D02*
X152476874Y-178995912D01*
X138986874Y-179645912D02*
X137461874Y-179645912D01*
D11*
G04 #@! TO.C,C28*
X129851874Y-193392179D02*
X129851874Y-193049645D01*
X130871874Y-193392179D02*
X130871874Y-193049645D01*
G04 #@! TO.C,U7*
X91600000Y-150860000D02*
X93400000Y-150860000D01*
X93400000Y-147640000D02*
X90950000Y-147640000D01*
D10*
G04 #@! TO.C,I2C1_SCL1*
X128750000Y-166250000D02*
G75*
G03X128750000Y-166250000I-1750000J0D01*
G01*
G04 #@! TO.C,U3*
X109842380Y-191261904D02*
X110651904Y-191261904D01*
X110747142Y-191214285D01*
X110794761Y-191166666D01*
X110842380Y-191071428D01*
X110842380Y-190880952D01*
X110794761Y-190785714D01*
X110747142Y-190738095D01*
X110651904Y-190690476D01*
X109842380Y-190690476D01*
X109842380Y-190309523D02*
X109842380Y-189690476D01*
X110223333Y-190023809D01*
X110223333Y-189880952D01*
X110270952Y-189785714D01*
X110318571Y-189738095D01*
X110413809Y-189690476D01*
X110651904Y-189690476D01*
X110747142Y-189738095D01*
X110794761Y-189785714D01*
X110842380Y-189880952D01*
X110842380Y-190166666D01*
X110794761Y-190261904D01*
X110747142Y-190309523D01*
G04 #@! TO.C,J2*
X93352380Y-190833333D02*
X94066666Y-190833333D01*
X94209523Y-190880952D01*
X94304761Y-190976190D01*
X94352380Y-191119047D01*
X94352380Y-191214285D01*
X93447619Y-190404761D02*
X93400000Y-190357142D01*
X93352380Y-190261904D01*
X93352380Y-190023809D01*
X93400000Y-189928571D01*
X93447619Y-189880952D01*
X93542857Y-189833333D01*
X93638095Y-189833333D01*
X93780952Y-189880952D01*
X94352380Y-190452380D01*
X94352380Y-189833333D01*
G04 #@! TO.C,D3*
X86452380Y-149988095D02*
X85452380Y-149988095D01*
X85452380Y-149750000D01*
X85500000Y-149607142D01*
X85595238Y-149511904D01*
X85690476Y-149464285D01*
X85880952Y-149416666D01*
X86023809Y-149416666D01*
X86214285Y-149464285D01*
X86309523Y-149511904D01*
X86404761Y-149607142D01*
X86452380Y-149750000D01*
X86452380Y-149988095D01*
X85452380Y-149083333D02*
X85452380Y-148464285D01*
X85833333Y-148797619D01*
X85833333Y-148654761D01*
X85880952Y-148559523D01*
X85928571Y-148511904D01*
X86023809Y-148464285D01*
X86261904Y-148464285D01*
X86357142Y-148511904D01*
X86404761Y-148559523D01*
X86452380Y-148654761D01*
X86452380Y-148940476D01*
X86404761Y-149035714D01*
X86357142Y-149083333D01*
G04 #@! TO.C,D4*
X99452380Y-149738095D02*
X98452380Y-149738095D01*
X98452380Y-149500000D01*
X98500000Y-149357142D01*
X98595238Y-149261904D01*
X98690476Y-149214285D01*
X98880952Y-149166666D01*
X99023809Y-149166666D01*
X99214285Y-149214285D01*
X99309523Y-149261904D01*
X99404761Y-149357142D01*
X99452380Y-149500000D01*
X99452380Y-149738095D01*
X98785714Y-148309523D02*
X99452380Y-148309523D01*
X98404761Y-148547619D02*
X99119047Y-148785714D01*
X99119047Y-148166666D01*
G04 #@! TO.C,R1*
X88702380Y-150166666D02*
X88226190Y-150500000D01*
X88702380Y-150738095D02*
X87702380Y-150738095D01*
X87702380Y-150357142D01*
X87750000Y-150261904D01*
X87797619Y-150214285D01*
X87892857Y-150166666D01*
X88035714Y-150166666D01*
X88130952Y-150214285D01*
X88178571Y-150261904D01*
X88226190Y-150357142D01*
X88226190Y-150738095D01*
X88702380Y-149214285D02*
X88702380Y-149785714D01*
X88702380Y-149500000D02*
X87702380Y-149500000D01*
X87845238Y-149595238D01*
X87940476Y-149690476D01*
X87988095Y-149785714D01*
G04 #@! TO.C,R2*
X101952380Y-150166666D02*
X101476190Y-150500000D01*
X101952380Y-150738095D02*
X100952380Y-150738095D01*
X100952380Y-150357142D01*
X101000000Y-150261904D01*
X101047619Y-150214285D01*
X101142857Y-150166666D01*
X101285714Y-150166666D01*
X101380952Y-150214285D01*
X101428571Y-150261904D01*
X101476190Y-150357142D01*
X101476190Y-150738095D01*
X101047619Y-149785714D02*
X101000000Y-149738095D01*
X100952380Y-149642857D01*
X100952380Y-149404761D01*
X101000000Y-149309523D01*
X101047619Y-149261904D01*
X101142857Y-149214285D01*
X101238095Y-149214285D01*
X101380952Y-149261904D01*
X101952380Y-149833333D01*
X101952380Y-149214285D01*
G04 #@! TO.C,R3*
X156583333Y-164952380D02*
X156250000Y-164476190D01*
X156011904Y-164952380D02*
X156011904Y-163952380D01*
X156392857Y-163952380D01*
X156488095Y-164000000D01*
X156535714Y-164047619D01*
X156583333Y-164142857D01*
X156583333Y-164285714D01*
X156535714Y-164380952D01*
X156488095Y-164428571D01*
X156392857Y-164476190D01*
X156011904Y-164476190D01*
X156916666Y-163952380D02*
X157535714Y-163952380D01*
X157202380Y-164333333D01*
X157345238Y-164333333D01*
X157440476Y-164380952D01*
X157488095Y-164428571D01*
X157535714Y-164523809D01*
X157535714Y-164761904D01*
X157488095Y-164857142D01*
X157440476Y-164904761D01*
X157345238Y-164952380D01*
X157059523Y-164952380D01*
X156964285Y-164904761D01*
X156916666Y-164857142D01*
G04 #@! TO.C,R4*
X156583333Y-162952380D02*
X156250000Y-162476190D01*
X156011904Y-162952380D02*
X156011904Y-161952380D01*
X156392857Y-161952380D01*
X156488095Y-162000000D01*
X156535714Y-162047619D01*
X156583333Y-162142857D01*
X156583333Y-162285714D01*
X156535714Y-162380952D01*
X156488095Y-162428571D01*
X156392857Y-162476190D01*
X156011904Y-162476190D01*
X157440476Y-162285714D02*
X157440476Y-162952380D01*
X157202380Y-161904761D02*
X156964285Y-162619047D01*
X157583333Y-162619047D01*
G04 #@! TO.C,R5*
X132132380Y-186322578D02*
X131656190Y-186655912D01*
X132132380Y-186894007D02*
X131132380Y-186894007D01*
X131132380Y-186513054D01*
X131180000Y-186417816D01*
X131227619Y-186370197D01*
X131322857Y-186322578D01*
X131465714Y-186322578D01*
X131560952Y-186370197D01*
X131608571Y-186417816D01*
X131656190Y-186513054D01*
X131656190Y-186894007D01*
X131132380Y-185417816D02*
X131132380Y-185894007D01*
X131608571Y-185941626D01*
X131560952Y-185894007D01*
X131513333Y-185798769D01*
X131513333Y-185560673D01*
X131560952Y-185465435D01*
X131608571Y-185417816D01*
X131703809Y-185370197D01*
X131941904Y-185370197D01*
X132037142Y-185417816D01*
X132084761Y-185465435D01*
X132132380Y-185560673D01*
X132132380Y-185798769D01*
X132084761Y-185894007D01*
X132037142Y-185941626D01*
G04 #@! TO.C,R6*
X180382380Y-200041666D02*
X179906190Y-200375000D01*
X180382380Y-200613095D02*
X179382380Y-200613095D01*
X179382380Y-200232142D01*
X179430000Y-200136904D01*
X179477619Y-200089285D01*
X179572857Y-200041666D01*
X179715714Y-200041666D01*
X179810952Y-200089285D01*
X179858571Y-200136904D01*
X179906190Y-200232142D01*
X179906190Y-200613095D01*
X179382380Y-199184523D02*
X179382380Y-199375000D01*
X179430000Y-199470238D01*
X179477619Y-199517857D01*
X179620476Y-199613095D01*
X179810952Y-199660714D01*
X180191904Y-199660714D01*
X180287142Y-199613095D01*
X180334761Y-199565476D01*
X180382380Y-199470238D01*
X180382380Y-199279761D01*
X180334761Y-199184523D01*
X180287142Y-199136904D01*
X180191904Y-199089285D01*
X179953809Y-199089285D01*
X179858571Y-199136904D01*
X179810952Y-199184523D01*
X179763333Y-199279761D01*
X179763333Y-199470238D01*
X179810952Y-199565476D01*
X179858571Y-199613095D01*
X179953809Y-199660714D01*
G04 #@! TO.C,R7*
X180382380Y-195041666D02*
X179906190Y-195375000D01*
X180382380Y-195613095D02*
X179382380Y-195613095D01*
X179382380Y-195232142D01*
X179430000Y-195136904D01*
X179477619Y-195089285D01*
X179572857Y-195041666D01*
X179715714Y-195041666D01*
X179810952Y-195089285D01*
X179858571Y-195136904D01*
X179906190Y-195232142D01*
X179906190Y-195613095D01*
X179382380Y-194708333D02*
X179382380Y-194041666D01*
X180382380Y-194470238D01*
G04 #@! TO.C,R8*
X132945207Y-172423292D02*
X132611874Y-171947102D01*
X132373778Y-172423292D02*
X132373778Y-171423292D01*
X132754731Y-171423292D01*
X132849969Y-171470912D01*
X132897588Y-171518531D01*
X132945207Y-171613769D01*
X132945207Y-171756626D01*
X132897588Y-171851864D01*
X132849969Y-171899483D01*
X132754731Y-171947102D01*
X132373778Y-171947102D01*
X133516635Y-171851864D02*
X133421397Y-171804245D01*
X133373778Y-171756626D01*
X133326159Y-171661388D01*
X133326159Y-171613769D01*
X133373778Y-171518531D01*
X133421397Y-171470912D01*
X133516635Y-171423292D01*
X133707112Y-171423292D01*
X133802350Y-171470912D01*
X133849969Y-171518531D01*
X133897588Y-171613769D01*
X133897588Y-171661388D01*
X133849969Y-171756626D01*
X133802350Y-171804245D01*
X133707112Y-171851864D01*
X133516635Y-171851864D01*
X133421397Y-171899483D01*
X133373778Y-171947102D01*
X133326159Y-172042340D01*
X133326159Y-172232816D01*
X133373778Y-172328054D01*
X133421397Y-172375673D01*
X133516635Y-172423292D01*
X133707112Y-172423292D01*
X133802350Y-172375673D01*
X133849969Y-172328054D01*
X133897588Y-172232816D01*
X133897588Y-172042340D01*
X133849969Y-171947102D01*
X133802350Y-171899483D01*
X133707112Y-171851864D01*
G04 #@! TO.C,R9*
X133070207Y-170723292D02*
X132736874Y-170247102D01*
X132498778Y-170723292D02*
X132498778Y-169723292D01*
X132879731Y-169723292D01*
X132974969Y-169770912D01*
X133022588Y-169818531D01*
X133070207Y-169913769D01*
X133070207Y-170056626D01*
X133022588Y-170151864D01*
X132974969Y-170199483D01*
X132879731Y-170247102D01*
X132498778Y-170247102D01*
X133546397Y-170723292D02*
X133736874Y-170723292D01*
X133832112Y-170675673D01*
X133879731Y-170628054D01*
X133974969Y-170485197D01*
X134022588Y-170294721D01*
X134022588Y-169913769D01*
X133974969Y-169818531D01*
X133927350Y-169770912D01*
X133832112Y-169723292D01*
X133641635Y-169723292D01*
X133546397Y-169770912D01*
X133498778Y-169818531D01*
X133451159Y-169913769D01*
X133451159Y-170151864D01*
X133498778Y-170247102D01*
X133546397Y-170294721D01*
X133641635Y-170342340D01*
X133832112Y-170342340D01*
X133927350Y-170294721D01*
X133974969Y-170247102D01*
X134022588Y-170151864D01*
G04 #@! TO.C,R13*
X155632380Y-116142857D02*
X155156190Y-116476190D01*
X155632380Y-116714285D02*
X154632380Y-116714285D01*
X154632380Y-116333333D01*
X154680000Y-116238095D01*
X154727619Y-116190476D01*
X154822857Y-116142857D01*
X154965714Y-116142857D01*
X155060952Y-116190476D01*
X155108571Y-116238095D01*
X155156190Y-116333333D01*
X155156190Y-116714285D01*
X155632380Y-115190476D02*
X155632380Y-115761904D01*
X155632380Y-115476190D02*
X154632380Y-115476190D01*
X154775238Y-115571428D01*
X154870476Y-115666666D01*
X154918095Y-115761904D01*
X154632380Y-114857142D02*
X154632380Y-114238095D01*
X155013333Y-114571428D01*
X155013333Y-114428571D01*
X155060952Y-114333333D01*
X155108571Y-114285714D01*
X155203809Y-114238095D01*
X155441904Y-114238095D01*
X155537142Y-114285714D01*
X155584761Y-114333333D01*
X155632380Y-114428571D01*
X155632380Y-114714285D01*
X155584761Y-114809523D01*
X155537142Y-114857142D01*
G04 #@! TO.C,R14*
X155632380Y-119892857D02*
X155156190Y-120226190D01*
X155632380Y-120464285D02*
X154632380Y-120464285D01*
X154632380Y-120083333D01*
X154680000Y-119988095D01*
X154727619Y-119940476D01*
X154822857Y-119892857D01*
X154965714Y-119892857D01*
X155060952Y-119940476D01*
X155108571Y-119988095D01*
X155156190Y-120083333D01*
X155156190Y-120464285D01*
X155632380Y-118940476D02*
X155632380Y-119511904D01*
X155632380Y-119226190D02*
X154632380Y-119226190D01*
X154775238Y-119321428D01*
X154870476Y-119416666D01*
X154918095Y-119511904D01*
X154965714Y-118083333D02*
X155632380Y-118083333D01*
X154584761Y-118321428D02*
X155299047Y-118559523D01*
X155299047Y-117940476D01*
G04 #@! TO.C,R15*
X155590985Y-123642857D02*
X155114795Y-123976190D01*
X155590985Y-124214285D02*
X154590985Y-124214285D01*
X154590985Y-123833333D01*
X154638605Y-123738095D01*
X154686224Y-123690476D01*
X154781462Y-123642857D01*
X154924319Y-123642857D01*
X155019557Y-123690476D01*
X155067176Y-123738095D01*
X155114795Y-123833333D01*
X155114795Y-124214285D01*
X155590985Y-122690476D02*
X155590985Y-123261904D01*
X155590985Y-122976190D02*
X154590985Y-122976190D01*
X154733843Y-123071428D01*
X154829081Y-123166666D01*
X154876700Y-123261904D01*
X154590985Y-121785714D02*
X154590985Y-122261904D01*
X155067176Y-122309523D01*
X155019557Y-122261904D01*
X154971938Y-122166666D01*
X154971938Y-121928571D01*
X155019557Y-121833333D01*
X155067176Y-121785714D01*
X155162414Y-121738095D01*
X155400509Y-121738095D01*
X155495747Y-121785714D01*
X155543366Y-121833333D01*
X155590985Y-121928571D01*
X155590985Y-122166666D01*
X155543366Y-122261904D01*
X155495747Y-122309523D01*
G04 #@! TO.C,R16*
X129882380Y-116142857D02*
X129406190Y-116476190D01*
X129882380Y-116714285D02*
X128882380Y-116714285D01*
X128882380Y-116333333D01*
X128930000Y-116238095D01*
X128977619Y-116190476D01*
X129072857Y-116142857D01*
X129215714Y-116142857D01*
X129310952Y-116190476D01*
X129358571Y-116238095D01*
X129406190Y-116333333D01*
X129406190Y-116714285D01*
X129882380Y-115190476D02*
X129882380Y-115761904D01*
X129882380Y-115476190D02*
X128882380Y-115476190D01*
X129025238Y-115571428D01*
X129120476Y-115666666D01*
X129168095Y-115761904D01*
X128882380Y-114333333D02*
X128882380Y-114523809D01*
X128930000Y-114619047D01*
X128977619Y-114666666D01*
X129120476Y-114761904D01*
X129310952Y-114809523D01*
X129691904Y-114809523D01*
X129787142Y-114761904D01*
X129834761Y-114714285D01*
X129882380Y-114619047D01*
X129882380Y-114428571D01*
X129834761Y-114333333D01*
X129787142Y-114285714D01*
X129691904Y-114238095D01*
X129453809Y-114238095D01*
X129358571Y-114285714D01*
X129310952Y-114333333D01*
X129263333Y-114428571D01*
X129263333Y-114619047D01*
X129310952Y-114714285D01*
X129358571Y-114761904D01*
X129453809Y-114809523D01*
G04 #@! TO.C,R17*
X129882380Y-119888084D02*
X129406190Y-120221417D01*
X129882380Y-120459512D02*
X128882380Y-120459512D01*
X128882380Y-120078560D01*
X128930000Y-119983322D01*
X128977619Y-119935703D01*
X129072857Y-119888084D01*
X129215714Y-119888084D01*
X129310952Y-119935703D01*
X129358571Y-119983322D01*
X129406190Y-120078560D01*
X129406190Y-120459512D01*
X129882380Y-118935703D02*
X129882380Y-119507131D01*
X129882380Y-119221417D02*
X128882380Y-119221417D01*
X129025238Y-119316655D01*
X129120476Y-119411893D01*
X129168095Y-119507131D01*
X128882380Y-118602369D02*
X128882380Y-117935703D01*
X129882380Y-118364274D01*
G04 #@! TO.C,R18*
X129882380Y-123642857D02*
X129406190Y-123976190D01*
X129882380Y-124214285D02*
X128882380Y-124214285D01*
X128882380Y-123833333D01*
X128930000Y-123738095D01*
X128977619Y-123690476D01*
X129072857Y-123642857D01*
X129215714Y-123642857D01*
X129310952Y-123690476D01*
X129358571Y-123738095D01*
X129406190Y-123833333D01*
X129406190Y-124214285D01*
X129882380Y-122690476D02*
X129882380Y-123261904D01*
X129882380Y-122976190D02*
X128882380Y-122976190D01*
X129025238Y-123071428D01*
X129120476Y-123166666D01*
X129168095Y-123261904D01*
X129310952Y-122119047D02*
X129263333Y-122214285D01*
X129215714Y-122261904D01*
X129120476Y-122309523D01*
X129072857Y-122309523D01*
X128977619Y-122261904D01*
X128930000Y-122214285D01*
X128882380Y-122119047D01*
X128882380Y-121928571D01*
X128930000Y-121833333D01*
X128977619Y-121785714D01*
X129072857Y-121738095D01*
X129120476Y-121738095D01*
X129215714Y-121785714D01*
X129263333Y-121833333D01*
X129310952Y-121928571D01*
X129310952Y-122119047D01*
X129358571Y-122214285D01*
X129406190Y-122261904D01*
X129501428Y-122309523D01*
X129691904Y-122309523D01*
X129787142Y-122261904D01*
X129834761Y-122214285D01*
X129882380Y-122119047D01*
X129882380Y-121928571D01*
X129834761Y-121833333D01*
X129787142Y-121785714D01*
X129691904Y-121738095D01*
X129501428Y-121738095D01*
X129406190Y-121785714D01*
X129358571Y-121833333D01*
X129310952Y-121928571D01*
G04 #@! TO.C,R25*
X115037380Y-194572857D02*
X114561190Y-194906190D01*
X115037380Y-195144285D02*
X114037380Y-195144285D01*
X114037380Y-194763333D01*
X114085000Y-194668095D01*
X114132619Y-194620476D01*
X114227857Y-194572857D01*
X114370714Y-194572857D01*
X114465952Y-194620476D01*
X114513571Y-194668095D01*
X114561190Y-194763333D01*
X114561190Y-195144285D01*
X114132619Y-194191904D02*
X114085000Y-194144285D01*
X114037380Y-194049047D01*
X114037380Y-193810952D01*
X114085000Y-193715714D01*
X114132619Y-193668095D01*
X114227857Y-193620476D01*
X114323095Y-193620476D01*
X114465952Y-193668095D01*
X115037380Y-194239523D01*
X115037380Y-193620476D01*
X114037380Y-192715714D02*
X114037380Y-193191904D01*
X114513571Y-193239523D01*
X114465952Y-193191904D01*
X114418333Y-193096666D01*
X114418333Y-192858571D01*
X114465952Y-192763333D01*
X114513571Y-192715714D01*
X114608809Y-192668095D01*
X114846904Y-192668095D01*
X114942142Y-192715714D01*
X114989761Y-192763333D01*
X115037380Y-192858571D01*
X115037380Y-193096666D01*
X114989761Y-193191904D01*
X114942142Y-193239523D01*
G04 #@! TO.C,R26*
X116702380Y-194572857D02*
X116226190Y-194906190D01*
X116702380Y-195144285D02*
X115702380Y-195144285D01*
X115702380Y-194763333D01*
X115750000Y-194668095D01*
X115797619Y-194620476D01*
X115892857Y-194572857D01*
X116035714Y-194572857D01*
X116130952Y-194620476D01*
X116178571Y-194668095D01*
X116226190Y-194763333D01*
X116226190Y-195144285D01*
X115797619Y-194191904D02*
X115750000Y-194144285D01*
X115702380Y-194049047D01*
X115702380Y-193810952D01*
X115750000Y-193715714D01*
X115797619Y-193668095D01*
X115892857Y-193620476D01*
X115988095Y-193620476D01*
X116130952Y-193668095D01*
X116702380Y-194239523D01*
X116702380Y-193620476D01*
X115702380Y-192763333D02*
X115702380Y-192953809D01*
X115750000Y-193049047D01*
X115797619Y-193096666D01*
X115940476Y-193191904D01*
X116130952Y-193239523D01*
X116511904Y-193239523D01*
X116607142Y-193191904D01*
X116654761Y-193144285D01*
X116702380Y-193049047D01*
X116702380Y-192858571D01*
X116654761Y-192763333D01*
X116607142Y-192715714D01*
X116511904Y-192668095D01*
X116273809Y-192668095D01*
X116178571Y-192715714D01*
X116130952Y-192763333D01*
X116083333Y-192858571D01*
X116083333Y-193049047D01*
X116130952Y-193144285D01*
X116178571Y-193191904D01*
X116273809Y-193239523D01*
G04 #@! TO.C,R27*
X112952380Y-194607857D02*
X112476190Y-194941190D01*
X112952380Y-195179285D02*
X111952380Y-195179285D01*
X111952380Y-194798333D01*
X112000000Y-194703095D01*
X112047619Y-194655476D01*
X112142857Y-194607857D01*
X112285714Y-194607857D01*
X112380952Y-194655476D01*
X112428571Y-194703095D01*
X112476190Y-194798333D01*
X112476190Y-195179285D01*
X112047619Y-194226904D02*
X112000000Y-194179285D01*
X111952380Y-194084047D01*
X111952380Y-193845952D01*
X112000000Y-193750714D01*
X112047619Y-193703095D01*
X112142857Y-193655476D01*
X112238095Y-193655476D01*
X112380952Y-193703095D01*
X112952380Y-194274523D01*
X112952380Y-193655476D01*
X111952380Y-193322142D02*
X111952380Y-192655476D01*
X112952380Y-193084047D01*
G04 #@! TO.C,R28*
X111202380Y-194572857D02*
X110726190Y-194906190D01*
X111202380Y-195144285D02*
X110202380Y-195144285D01*
X110202380Y-194763333D01*
X110250000Y-194668095D01*
X110297619Y-194620476D01*
X110392857Y-194572857D01*
X110535714Y-194572857D01*
X110630952Y-194620476D01*
X110678571Y-194668095D01*
X110726190Y-194763333D01*
X110726190Y-195144285D01*
X110297619Y-194191904D02*
X110250000Y-194144285D01*
X110202380Y-194049047D01*
X110202380Y-193810952D01*
X110250000Y-193715714D01*
X110297619Y-193668095D01*
X110392857Y-193620476D01*
X110488095Y-193620476D01*
X110630952Y-193668095D01*
X111202380Y-194239523D01*
X111202380Y-193620476D01*
X110630952Y-193049047D02*
X110583333Y-193144285D01*
X110535714Y-193191904D01*
X110440476Y-193239523D01*
X110392857Y-193239523D01*
X110297619Y-193191904D01*
X110250000Y-193144285D01*
X110202380Y-193049047D01*
X110202380Y-192858571D01*
X110250000Y-192763333D01*
X110297619Y-192715714D01*
X110392857Y-192668095D01*
X110440476Y-192668095D01*
X110535714Y-192715714D01*
X110583333Y-192763333D01*
X110630952Y-192858571D01*
X110630952Y-193049047D01*
X110678571Y-193144285D01*
X110726190Y-193191904D01*
X110821428Y-193239523D01*
X111011904Y-193239523D01*
X111107142Y-193191904D01*
X111154761Y-193144285D01*
X111202380Y-193049047D01*
X111202380Y-192858571D01*
X111154761Y-192763333D01*
X111107142Y-192715714D01*
X111011904Y-192668095D01*
X110821428Y-192668095D01*
X110726190Y-192715714D01*
X110678571Y-192763333D01*
X110630952Y-192858571D01*
G04 #@! TO.C,R29*
X99882380Y-116142857D02*
X99406190Y-116476190D01*
X99882380Y-116714285D02*
X98882380Y-116714285D01*
X98882380Y-116333333D01*
X98930000Y-116238095D01*
X98977619Y-116190476D01*
X99072857Y-116142857D01*
X99215714Y-116142857D01*
X99310952Y-116190476D01*
X99358571Y-116238095D01*
X99406190Y-116333333D01*
X99406190Y-116714285D01*
X98977619Y-115761904D02*
X98930000Y-115714285D01*
X98882380Y-115619047D01*
X98882380Y-115380952D01*
X98930000Y-115285714D01*
X98977619Y-115238095D01*
X99072857Y-115190476D01*
X99168095Y-115190476D01*
X99310952Y-115238095D01*
X99882380Y-115809523D01*
X99882380Y-115190476D01*
X99882380Y-114714285D02*
X99882380Y-114523809D01*
X99834761Y-114428571D01*
X99787142Y-114380952D01*
X99644285Y-114285714D01*
X99453809Y-114238095D01*
X99072857Y-114238095D01*
X98977619Y-114285714D01*
X98930000Y-114333333D01*
X98882380Y-114428571D01*
X98882380Y-114619047D01*
X98930000Y-114714285D01*
X98977619Y-114761904D01*
X99072857Y-114809523D01*
X99310952Y-114809523D01*
X99406190Y-114761904D01*
X99453809Y-114714285D01*
X99501428Y-114619047D01*
X99501428Y-114428571D01*
X99453809Y-114333333D01*
X99406190Y-114285714D01*
X99310952Y-114238095D01*
G04 #@! TO.C,R30*
X99882380Y-119892857D02*
X99406190Y-120226190D01*
X99882380Y-120464285D02*
X98882380Y-120464285D01*
X98882380Y-120083333D01*
X98930000Y-119988095D01*
X98977619Y-119940476D01*
X99072857Y-119892857D01*
X99215714Y-119892857D01*
X99310952Y-119940476D01*
X99358571Y-119988095D01*
X99406190Y-120083333D01*
X99406190Y-120464285D01*
X98882380Y-119559523D02*
X98882380Y-118940476D01*
X99263333Y-119273809D01*
X99263333Y-119130952D01*
X99310952Y-119035714D01*
X99358571Y-118988095D01*
X99453809Y-118940476D01*
X99691904Y-118940476D01*
X99787142Y-118988095D01*
X99834761Y-119035714D01*
X99882380Y-119130952D01*
X99882380Y-119416666D01*
X99834761Y-119511904D01*
X99787142Y-119559523D01*
X98882380Y-118321428D02*
X98882380Y-118226190D01*
X98930000Y-118130952D01*
X98977619Y-118083333D01*
X99072857Y-118035714D01*
X99263333Y-117988095D01*
X99501428Y-117988095D01*
X99691904Y-118035714D01*
X99787142Y-118083333D01*
X99834761Y-118130952D01*
X99882380Y-118226190D01*
X99882380Y-118321428D01*
X99834761Y-118416666D01*
X99787142Y-118464285D01*
X99691904Y-118511904D01*
X99501428Y-118559523D01*
X99263333Y-118559523D01*
X99072857Y-118511904D01*
X98977619Y-118464285D01*
X98930000Y-118416666D01*
X98882380Y-118321428D01*
G04 #@! TO.C,R31*
X99882380Y-123642857D02*
X99406190Y-123976190D01*
X99882380Y-124214285D02*
X98882380Y-124214285D01*
X98882380Y-123833333D01*
X98930000Y-123738095D01*
X98977619Y-123690476D01*
X99072857Y-123642857D01*
X99215714Y-123642857D01*
X99310952Y-123690476D01*
X99358571Y-123738095D01*
X99406190Y-123833333D01*
X99406190Y-124214285D01*
X98882380Y-123309523D02*
X98882380Y-122690476D01*
X99263333Y-123023809D01*
X99263333Y-122880952D01*
X99310952Y-122785714D01*
X99358571Y-122738095D01*
X99453809Y-122690476D01*
X99691904Y-122690476D01*
X99787142Y-122738095D01*
X99834761Y-122785714D01*
X99882380Y-122880952D01*
X99882380Y-123166666D01*
X99834761Y-123261904D01*
X99787142Y-123309523D01*
X99882380Y-121738095D02*
X99882380Y-122309523D01*
X99882380Y-122023809D02*
X98882380Y-122023809D01*
X99025238Y-122119047D01*
X99120476Y-122214285D01*
X99168095Y-122309523D01*
G04 #@! TO.C,C5*
X127177142Y-184166666D02*
X127224761Y-184214285D01*
X127272380Y-184357142D01*
X127272380Y-184452380D01*
X127224761Y-184595238D01*
X127129523Y-184690476D01*
X127034285Y-184738095D01*
X126843809Y-184785714D01*
X126700952Y-184785714D01*
X126510476Y-184738095D01*
X126415238Y-184690476D01*
X126320000Y-184595238D01*
X126272380Y-184452380D01*
X126272380Y-184357142D01*
X126320000Y-184214285D01*
X126367619Y-184166666D01*
X126272380Y-183261904D02*
X126272380Y-183738095D01*
X126748571Y-183785714D01*
X126700952Y-183738095D01*
X126653333Y-183642857D01*
X126653333Y-183404761D01*
X126700952Y-183309523D01*
X126748571Y-183261904D01*
X126843809Y-183214285D01*
X127081904Y-183214285D01*
X127177142Y-183261904D01*
X127224761Y-183309523D01*
X127272380Y-183404761D01*
X127272380Y-183642857D01*
X127224761Y-183738095D01*
X127177142Y-183785714D01*
G04 #@! TO.C,C6*
X127177142Y-188166666D02*
X127224761Y-188214285D01*
X127272380Y-188357142D01*
X127272380Y-188452380D01*
X127224761Y-188595238D01*
X127129523Y-188690476D01*
X127034285Y-188738095D01*
X126843809Y-188785714D01*
X126700952Y-188785714D01*
X126510476Y-188738095D01*
X126415238Y-188690476D01*
X126320000Y-188595238D01*
X126272380Y-188452380D01*
X126272380Y-188357142D01*
X126320000Y-188214285D01*
X126367619Y-188166666D01*
X126272380Y-187309523D02*
X126272380Y-187500000D01*
X126320000Y-187595238D01*
X126367619Y-187642857D01*
X126510476Y-187738095D01*
X126700952Y-187785714D01*
X127081904Y-187785714D01*
X127177142Y-187738095D01*
X127224761Y-187690476D01*
X127272380Y-187595238D01*
X127272380Y-187404761D01*
X127224761Y-187309523D01*
X127177142Y-187261904D01*
X127081904Y-187214285D01*
X126843809Y-187214285D01*
X126748571Y-187261904D01*
X126700952Y-187309523D01*
X126653333Y-187404761D01*
X126653333Y-187595238D01*
X126700952Y-187690476D01*
X126748571Y-187738095D01*
X126843809Y-187785714D01*
G04 #@! TO.C,C7*
X156583333Y-160857142D02*
X156535714Y-160904761D01*
X156392857Y-160952380D01*
X156297619Y-160952380D01*
X156154761Y-160904761D01*
X156059523Y-160809523D01*
X156011904Y-160714285D01*
X155964285Y-160523809D01*
X155964285Y-160380952D01*
X156011904Y-160190476D01*
X156059523Y-160095238D01*
X156154761Y-160000000D01*
X156297619Y-159952380D01*
X156392857Y-159952380D01*
X156535714Y-160000000D01*
X156583333Y-160047619D01*
X156916666Y-159952380D02*
X157583333Y-159952380D01*
X157154761Y-160952380D01*
G04 #@! TO.C,C8*
X160969016Y-175387578D02*
X161016635Y-175435197D01*
X161064254Y-175578054D01*
X161064254Y-175673292D01*
X161016635Y-175816150D01*
X160921397Y-175911388D01*
X160826159Y-175959007D01*
X160635683Y-176006626D01*
X160492826Y-176006626D01*
X160302350Y-175959007D01*
X160207112Y-175911388D01*
X160111874Y-175816150D01*
X160064254Y-175673292D01*
X160064254Y-175578054D01*
X160111874Y-175435197D01*
X160159493Y-175387578D01*
X160492826Y-174816150D02*
X160445207Y-174911388D01*
X160397588Y-174959007D01*
X160302350Y-175006626D01*
X160254731Y-175006626D01*
X160159493Y-174959007D01*
X160111874Y-174911388D01*
X160064254Y-174816150D01*
X160064254Y-174625673D01*
X160111874Y-174530435D01*
X160159493Y-174482816D01*
X160254731Y-174435197D01*
X160302350Y-174435197D01*
X160397588Y-174482816D01*
X160445207Y-174530435D01*
X160492826Y-174625673D01*
X160492826Y-174816150D01*
X160540445Y-174911388D01*
X160588064Y-174959007D01*
X160683302Y-175006626D01*
X160873778Y-175006626D01*
X160969016Y-174959007D01*
X161016635Y-174911388D01*
X161064254Y-174816150D01*
X161064254Y-174625673D01*
X161016635Y-174530435D01*
X160969016Y-174482816D01*
X160873778Y-174435197D01*
X160683302Y-174435197D01*
X160588064Y-174482816D01*
X160540445Y-174530435D01*
X160492826Y-174625673D01*
G04 #@! TO.C,C11*
X130969016Y-190113769D02*
X131016635Y-190161388D01*
X131064254Y-190304245D01*
X131064254Y-190399483D01*
X131016635Y-190542340D01*
X130921397Y-190637578D01*
X130826159Y-190685197D01*
X130635683Y-190732816D01*
X130492826Y-190732816D01*
X130302350Y-190685197D01*
X130207112Y-190637578D01*
X130111874Y-190542340D01*
X130064254Y-190399483D01*
X130064254Y-190304245D01*
X130111874Y-190161388D01*
X130159493Y-190113769D01*
X131064254Y-189161388D02*
X131064254Y-189732816D01*
X131064254Y-189447102D02*
X130064254Y-189447102D01*
X130207112Y-189542340D01*
X130302350Y-189637578D01*
X130349969Y-189732816D01*
X131064254Y-188209007D02*
X131064254Y-188780435D01*
X131064254Y-188494721D02*
X130064254Y-188494721D01*
X130207112Y-188589959D01*
X130302350Y-188685197D01*
X130349969Y-188780435D01*
G04 #@! TO.C,C12*
X139719016Y-200078054D02*
X139671397Y-200125673D01*
X139528540Y-200173292D01*
X139433302Y-200173292D01*
X139290445Y-200125673D01*
X139195207Y-200030435D01*
X139147588Y-199935197D01*
X139099969Y-199744721D01*
X139099969Y-199601864D01*
X139147588Y-199411388D01*
X139195207Y-199316150D01*
X139290445Y-199220912D01*
X139433302Y-199173292D01*
X139528540Y-199173292D01*
X139671397Y-199220912D01*
X139719016Y-199268531D01*
X140671397Y-200173292D02*
X140099969Y-200173292D01*
X140385683Y-200173292D02*
X140385683Y-199173292D01*
X140290445Y-199316150D01*
X140195207Y-199411388D01*
X140099969Y-199459007D01*
X141052350Y-199268531D02*
X141099969Y-199220912D01*
X141195207Y-199173292D01*
X141433302Y-199173292D01*
X141528540Y-199220912D01*
X141576159Y-199268531D01*
X141623778Y-199363769D01*
X141623778Y-199459007D01*
X141576159Y-199601864D01*
X141004731Y-200173292D01*
X141623778Y-200173292D01*
G04 #@! TO.C,C13*
X156094016Y-198078054D02*
X156046397Y-198125673D01*
X155903540Y-198173292D01*
X155808302Y-198173292D01*
X155665445Y-198125673D01*
X155570207Y-198030435D01*
X155522588Y-197935197D01*
X155474969Y-197744721D01*
X155474969Y-197601864D01*
X155522588Y-197411388D01*
X155570207Y-197316150D01*
X155665445Y-197220912D01*
X155808302Y-197173292D01*
X155903540Y-197173292D01*
X156046397Y-197220912D01*
X156094016Y-197268531D01*
X157046397Y-198173292D02*
X156474969Y-198173292D01*
X156760683Y-198173292D02*
X156760683Y-197173292D01*
X156665445Y-197316150D01*
X156570207Y-197411388D01*
X156474969Y-197459007D01*
X157379731Y-197173292D02*
X157998778Y-197173292D01*
X157665445Y-197554245D01*
X157808302Y-197554245D01*
X157903540Y-197601864D01*
X157951159Y-197649483D01*
X157998778Y-197744721D01*
X157998778Y-197982816D01*
X157951159Y-198078054D01*
X157903540Y-198125673D01*
X157808302Y-198173292D01*
X157522588Y-198173292D01*
X157427350Y-198125673D01*
X157379731Y-198078054D01*
G04 #@! TO.C,C14*
X159219016Y-175363769D02*
X159266635Y-175411388D01*
X159314254Y-175554245D01*
X159314254Y-175649483D01*
X159266635Y-175792340D01*
X159171397Y-175887578D01*
X159076159Y-175935197D01*
X158885683Y-175982816D01*
X158742826Y-175982816D01*
X158552350Y-175935197D01*
X158457112Y-175887578D01*
X158361874Y-175792340D01*
X158314254Y-175649483D01*
X158314254Y-175554245D01*
X158361874Y-175411388D01*
X158409493Y-175363769D01*
X159314254Y-174411388D02*
X159314254Y-174982816D01*
X159314254Y-174697102D02*
X158314254Y-174697102D01*
X158457112Y-174792340D01*
X158552350Y-174887578D01*
X158599969Y-174982816D01*
X158647588Y-173554245D02*
X159314254Y-173554245D01*
X158266635Y-173792340D02*
X158980921Y-174030435D01*
X158980921Y-173411388D01*
G04 #@! TO.C,C15*
X139469016Y-176078054D02*
X139421397Y-176125673D01*
X139278540Y-176173292D01*
X139183302Y-176173292D01*
X139040445Y-176125673D01*
X138945207Y-176030435D01*
X138897588Y-175935197D01*
X138849969Y-175744721D01*
X138849969Y-175601864D01*
X138897588Y-175411388D01*
X138945207Y-175316150D01*
X139040445Y-175220912D01*
X139183302Y-175173292D01*
X139278540Y-175173292D01*
X139421397Y-175220912D01*
X139469016Y-175268531D01*
X140421397Y-176173292D02*
X139849969Y-176173292D01*
X140135683Y-176173292D02*
X140135683Y-175173292D01*
X140040445Y-175316150D01*
X139945207Y-175411388D01*
X139849969Y-175459007D01*
X141326159Y-175173292D02*
X140849969Y-175173292D01*
X140802350Y-175649483D01*
X140849969Y-175601864D01*
X140945207Y-175554245D01*
X141183302Y-175554245D01*
X141278540Y-175601864D01*
X141326159Y-175649483D01*
X141373778Y-175744721D01*
X141373778Y-175982816D01*
X141326159Y-176078054D01*
X141278540Y-176125673D01*
X141183302Y-176173292D01*
X140945207Y-176173292D01*
X140849969Y-176125673D01*
X140802350Y-176078054D01*
G04 #@! TO.C,C16*
X130969016Y-193863769D02*
X131016635Y-193911388D01*
X131064254Y-194054245D01*
X131064254Y-194149483D01*
X131016635Y-194292340D01*
X130921397Y-194387578D01*
X130826159Y-194435197D01*
X130635683Y-194482816D01*
X130492826Y-194482816D01*
X130302350Y-194435197D01*
X130207112Y-194387578D01*
X130111874Y-194292340D01*
X130064254Y-194149483D01*
X130064254Y-194054245D01*
X130111874Y-193911388D01*
X130159493Y-193863769D01*
X131064254Y-192911388D02*
X131064254Y-193482816D01*
X131064254Y-193197102D02*
X130064254Y-193197102D01*
X130207112Y-193292340D01*
X130302350Y-193387578D01*
X130349969Y-193482816D01*
X130064254Y-192054245D02*
X130064254Y-192244721D01*
X130111874Y-192339959D01*
X130159493Y-192387578D01*
X130302350Y-192482816D01*
X130492826Y-192530435D01*
X130873778Y-192530435D01*
X130969016Y-192482816D01*
X131016635Y-192435197D01*
X131064254Y-192339959D01*
X131064254Y-192149483D01*
X131016635Y-192054245D01*
X130969016Y-192006626D01*
X130873778Y-191959007D01*
X130635683Y-191959007D01*
X130540445Y-192006626D01*
X130492826Y-192054245D01*
X130445207Y-192149483D01*
X130445207Y-192339959D01*
X130492826Y-192435197D01*
X130540445Y-192482816D01*
X130635683Y-192530435D01*
G04 #@! TO.C,J3*
X160897380Y-172468333D02*
X161611666Y-172468333D01*
X161754523Y-172515952D01*
X161849761Y-172611190D01*
X161897380Y-172754047D01*
X161897380Y-172849285D01*
X160897380Y-172087380D02*
X160897380Y-171468333D01*
X161278333Y-171801666D01*
X161278333Y-171658809D01*
X161325952Y-171563571D01*
X161373571Y-171515952D01*
X161468809Y-171468333D01*
X161706904Y-171468333D01*
X161802142Y-171515952D01*
X161849761Y-171563571D01*
X161897380Y-171658809D01*
X161897380Y-171944523D01*
X161849761Y-172039761D01*
X161802142Y-172087380D01*
G04 #@! TO.C,J5*
X181581666Y-191992381D02*
X181581666Y-192706667D01*
X181534047Y-192849524D01*
X181438809Y-192944762D01*
X181295952Y-192992381D01*
X181200714Y-192992381D01*
X182534047Y-191992381D02*
X182057857Y-191992381D01*
X182010238Y-192468572D01*
X182057857Y-192420953D01*
X182153095Y-192373334D01*
X182391190Y-192373334D01*
X182486428Y-192420953D01*
X182534047Y-192468572D01*
X182581666Y-192563810D01*
X182581666Y-192801905D01*
X182534047Y-192897143D01*
X182486428Y-192944762D01*
X182391190Y-192992381D01*
X182153095Y-192992381D01*
X182057857Y-192944762D01*
X182010238Y-192897143D01*
G04 #@! TO.C,J6*
X174646667Y-191992381D02*
X174646667Y-192706667D01*
X174599048Y-192849524D01*
X174503810Y-192944762D01*
X174360953Y-192992381D01*
X174265715Y-192992381D01*
X175551429Y-191992381D02*
X175360953Y-191992381D01*
X175265715Y-192040001D01*
X175218096Y-192087620D01*
X175122858Y-192230477D01*
X175075239Y-192420953D01*
X175075239Y-192801905D01*
X175122858Y-192897143D01*
X175170477Y-192944762D01*
X175265715Y-192992381D01*
X175456191Y-192992381D01*
X175551429Y-192944762D01*
X175599048Y-192897143D01*
X175646667Y-192801905D01*
X175646667Y-192563810D01*
X175599048Y-192468572D01*
X175551429Y-192420953D01*
X175456191Y-192373334D01*
X175265715Y-192373334D01*
X175170477Y-192420953D01*
X175122858Y-192468572D01*
X175075239Y-192563810D01*
G04 #@! TO.C,CARD0*
X170437142Y-113595238D02*
X170484761Y-113642857D01*
X170532380Y-113785714D01*
X170532380Y-113880952D01*
X170484761Y-114023809D01*
X170389523Y-114119047D01*
X170294285Y-114166666D01*
X170103809Y-114214285D01*
X169960952Y-114214285D01*
X169770476Y-114166666D01*
X169675238Y-114119047D01*
X169580000Y-114023809D01*
X169532380Y-113880952D01*
X169532380Y-113785714D01*
X169580000Y-113642857D01*
X169627619Y-113595238D01*
X170246666Y-113214285D02*
X170246666Y-112738095D01*
X170532380Y-113309523D02*
X169532380Y-112976190D01*
X170532380Y-112642857D01*
X170532380Y-111738095D02*
X170056190Y-112071428D01*
X170532380Y-112309523D02*
X169532380Y-112309523D01*
X169532380Y-111928571D01*
X169580000Y-111833333D01*
X169627619Y-111785714D01*
X169722857Y-111738095D01*
X169865714Y-111738095D01*
X169960952Y-111785714D01*
X170008571Y-111833333D01*
X170056190Y-111928571D01*
X170056190Y-112309523D01*
X170532380Y-111309523D02*
X169532380Y-111309523D01*
X169532380Y-111071428D01*
X169580000Y-110928571D01*
X169675238Y-110833333D01*
X169770476Y-110785714D01*
X169960952Y-110738095D01*
X170103809Y-110738095D01*
X170294285Y-110785714D01*
X170389523Y-110833333D01*
X170484761Y-110928571D01*
X170532380Y-111071428D01*
X170532380Y-111309523D01*
X169532380Y-110119047D02*
X169532380Y-110023809D01*
X169580000Y-109928571D01*
X169627619Y-109880952D01*
X169722857Y-109833333D01*
X169913333Y-109785714D01*
X170151428Y-109785714D01*
X170341904Y-109833333D01*
X170437142Y-109880952D01*
X170484761Y-109928571D01*
X170532380Y-110023809D01*
X170532380Y-110119047D01*
X170484761Y-110214285D01*
X170437142Y-110261904D01*
X170341904Y-110309523D01*
X170151428Y-110357142D01*
X169913333Y-110357142D01*
X169722857Y-110309523D01*
X169627619Y-110261904D01*
X169580000Y-110214285D01*
X169532380Y-110119047D01*
G04 #@! TO.C,CARD1*
X142437142Y-113625465D02*
X142484761Y-113673084D01*
X142532380Y-113815941D01*
X142532380Y-113911179D01*
X142484761Y-114054036D01*
X142389523Y-114149274D01*
X142294285Y-114196893D01*
X142103809Y-114244512D01*
X141960952Y-114244512D01*
X141770476Y-114196893D01*
X141675238Y-114149274D01*
X141580000Y-114054036D01*
X141532380Y-113911179D01*
X141532380Y-113815941D01*
X141580000Y-113673084D01*
X141627619Y-113625465D01*
X142246666Y-113244512D02*
X142246666Y-112768322D01*
X142532380Y-113339750D02*
X141532380Y-113006417D01*
X142532380Y-112673084D01*
X142532380Y-111768322D02*
X142056190Y-112101655D01*
X142532380Y-112339750D02*
X141532380Y-112339750D01*
X141532380Y-111958798D01*
X141580000Y-111863560D01*
X141627619Y-111815941D01*
X141722857Y-111768322D01*
X141865714Y-111768322D01*
X141960952Y-111815941D01*
X142008571Y-111863560D01*
X142056190Y-111958798D01*
X142056190Y-112339750D01*
X142532380Y-111339750D02*
X141532380Y-111339750D01*
X141532380Y-111101655D01*
X141580000Y-110958798D01*
X141675238Y-110863560D01*
X141770476Y-110815941D01*
X141960952Y-110768322D01*
X142103809Y-110768322D01*
X142294285Y-110815941D01*
X142389523Y-110863560D01*
X142484761Y-110958798D01*
X142532380Y-111101655D01*
X142532380Y-111339750D01*
X142532380Y-109815941D02*
X142532380Y-110387369D01*
X142532380Y-110101655D02*
X141532380Y-110101655D01*
X141675238Y-110196893D01*
X141770476Y-110292131D01*
X141818095Y-110387369D01*
G04 #@! TO.C,CARD4*
X114437142Y-113595238D02*
X114484761Y-113642857D01*
X114532380Y-113785714D01*
X114532380Y-113880952D01*
X114484761Y-114023809D01*
X114389523Y-114119047D01*
X114294285Y-114166666D01*
X114103809Y-114214285D01*
X113960952Y-114214285D01*
X113770476Y-114166666D01*
X113675238Y-114119047D01*
X113580000Y-114023809D01*
X113532380Y-113880952D01*
X113532380Y-113785714D01*
X113580000Y-113642857D01*
X113627619Y-113595238D01*
X114246666Y-113214285D02*
X114246666Y-112738095D01*
X114532380Y-113309523D02*
X113532380Y-112976190D01*
X114532380Y-112642857D01*
X114532380Y-111738095D02*
X114056190Y-112071428D01*
X114532380Y-112309523D02*
X113532380Y-112309523D01*
X113532380Y-111928571D01*
X113580000Y-111833333D01*
X113627619Y-111785714D01*
X113722857Y-111738095D01*
X113865714Y-111738095D01*
X113960952Y-111785714D01*
X114008571Y-111833333D01*
X114056190Y-111928571D01*
X114056190Y-112309523D01*
X114532380Y-111309523D02*
X113532380Y-111309523D01*
X113532380Y-111071428D01*
X113580000Y-110928571D01*
X113675238Y-110833333D01*
X113770476Y-110785714D01*
X113960952Y-110738095D01*
X114103809Y-110738095D01*
X114294285Y-110785714D01*
X114389523Y-110833333D01*
X114484761Y-110928571D01*
X114532380Y-111071428D01*
X114532380Y-111309523D01*
X113865714Y-109880952D02*
X114532380Y-109880952D01*
X113484761Y-110119047D02*
X114199047Y-110357142D01*
X114199047Y-109738095D01*
G04 #@! TO.C,R41*
X155632380Y-135392857D02*
X155156190Y-135726190D01*
X155632380Y-135964285D02*
X154632380Y-135964285D01*
X154632380Y-135583333D01*
X154680000Y-135488095D01*
X154727619Y-135440476D01*
X154822857Y-135392857D01*
X154965714Y-135392857D01*
X155060952Y-135440476D01*
X155108571Y-135488095D01*
X155156190Y-135583333D01*
X155156190Y-135964285D01*
X154965714Y-134535714D02*
X155632380Y-134535714D01*
X154584761Y-134773809D02*
X155299047Y-135011904D01*
X155299047Y-134392857D01*
X155632380Y-133488095D02*
X155632380Y-134059523D01*
X155632380Y-133773809D02*
X154632380Y-133773809D01*
X154775238Y-133869047D01*
X154870476Y-133964285D01*
X154918095Y-134059523D01*
G04 #@! TO.C,R42*
X99882380Y-135392857D02*
X99406190Y-135726190D01*
X99882380Y-135964285D02*
X98882380Y-135964285D01*
X98882380Y-135583333D01*
X98930000Y-135488095D01*
X98977619Y-135440476D01*
X99072857Y-135392857D01*
X99215714Y-135392857D01*
X99310952Y-135440476D01*
X99358571Y-135488095D01*
X99406190Y-135583333D01*
X99406190Y-135964285D01*
X99215714Y-134535714D02*
X99882380Y-134535714D01*
X98834761Y-134773809D02*
X99549047Y-135011904D01*
X99549047Y-134392857D01*
X98977619Y-134059523D02*
X98930000Y-134011904D01*
X98882380Y-133916666D01*
X98882380Y-133678571D01*
X98930000Y-133583333D01*
X98977619Y-133535714D01*
X99072857Y-133488095D01*
X99168095Y-133488095D01*
X99310952Y-133535714D01*
X99882380Y-134107142D01*
X99882380Y-133488095D01*
G04 #@! TO.C,R43*
X129882380Y-135392857D02*
X129406190Y-135726190D01*
X129882380Y-135964285D02*
X128882380Y-135964285D01*
X128882380Y-135583333D01*
X128930000Y-135488095D01*
X128977619Y-135440476D01*
X129072857Y-135392857D01*
X129215714Y-135392857D01*
X129310952Y-135440476D01*
X129358571Y-135488095D01*
X129406190Y-135583333D01*
X129406190Y-135964285D01*
X129215714Y-134535714D02*
X129882380Y-134535714D01*
X128834761Y-134773809D02*
X129549047Y-135011904D01*
X129549047Y-134392857D01*
X128882380Y-134107142D02*
X128882380Y-133488095D01*
X129263333Y-133821428D01*
X129263333Y-133678571D01*
X129310952Y-133583333D01*
X129358571Y-133535714D01*
X129453809Y-133488095D01*
X129691904Y-133488095D01*
X129787142Y-133535714D01*
X129834761Y-133583333D01*
X129882380Y-133678571D01*
X129882380Y-133964285D01*
X129834761Y-134059523D01*
X129787142Y-134107142D01*
G04 #@! TO.C,J4*
X83552380Y-112233333D02*
X84266666Y-112233333D01*
X84409523Y-112280952D01*
X84504761Y-112376190D01*
X84552380Y-112519047D01*
X84552380Y-112614285D01*
X83885714Y-111328571D02*
X84552380Y-111328571D01*
X83504761Y-111566666D02*
X84219047Y-111804761D01*
X84219047Y-111185714D01*
G04 #@! TO.C,J7*
X93152380Y-134933333D02*
X93866666Y-134933333D01*
X94009523Y-134980952D01*
X94104761Y-135076190D01*
X94152380Y-135219047D01*
X94152380Y-135314285D01*
X93152380Y-134552380D02*
X93152380Y-133885714D01*
X94152380Y-134314285D01*
G04 #@! TO.C,J1*
X83652380Y-89233333D02*
X84366666Y-89233333D01*
X84509523Y-89280952D01*
X84604761Y-89376190D01*
X84652380Y-89519047D01*
X84652380Y-89614285D01*
X84652380Y-88233333D02*
X84652380Y-88804761D01*
X84652380Y-88519047D02*
X83652380Y-88519047D01*
X83795238Y-88614285D01*
X83890476Y-88709523D01*
X83938095Y-88804761D01*
G04 #@! TO.C,SW1*
X155916666Y-171654761D02*
X156059523Y-171702380D01*
X156297619Y-171702380D01*
X156392857Y-171654761D01*
X156440476Y-171607142D01*
X156488095Y-171511904D01*
X156488095Y-171416666D01*
X156440476Y-171321428D01*
X156392857Y-171273809D01*
X156297619Y-171226190D01*
X156107142Y-171178571D01*
X156011904Y-171130952D01*
X155964285Y-171083333D01*
X155916666Y-170988095D01*
X155916666Y-170892857D01*
X155964285Y-170797619D01*
X156011904Y-170750000D01*
X156107142Y-170702380D01*
X156345238Y-170702380D01*
X156488095Y-170750000D01*
X156821428Y-170702380D02*
X157059523Y-171702380D01*
X157250000Y-170988095D01*
X157440476Y-171702380D01*
X157678571Y-170702380D01*
X158583333Y-171702380D02*
X158011904Y-171702380D01*
X158297619Y-171702380D02*
X158297619Y-170702380D01*
X158202380Y-170845238D01*
X158107142Y-170940476D01*
X158011904Y-170988095D01*
G04 #@! TO.C,I2C1_SDA1*
X123285714Y-169702380D02*
X123285714Y-168702380D01*
X123714285Y-168797619D02*
X123761904Y-168750000D01*
X123857142Y-168702380D01*
X124095238Y-168702380D01*
X124190476Y-168750000D01*
X124238095Y-168797619D01*
X124285714Y-168892857D01*
X124285714Y-168988095D01*
X124238095Y-169130952D01*
X123666666Y-169702380D01*
X124285714Y-169702380D01*
X125285714Y-169607142D02*
X125238095Y-169654761D01*
X125095238Y-169702380D01*
X125000000Y-169702380D01*
X124857142Y-169654761D01*
X124761904Y-169559523D01*
X124714285Y-169464285D01*
X124666666Y-169273809D01*
X124666666Y-169130952D01*
X124714285Y-168940476D01*
X124761904Y-168845238D01*
X124857142Y-168750000D01*
X125000000Y-168702380D01*
X125095238Y-168702380D01*
X125238095Y-168750000D01*
X125285714Y-168797619D01*
X126238095Y-169702380D02*
X125666666Y-169702380D01*
X125952380Y-169702380D02*
X125952380Y-168702380D01*
X125857142Y-168845238D01*
X125761904Y-168940476D01*
X125666666Y-168988095D01*
X126428571Y-169797619D02*
X127190476Y-169797619D01*
X127380952Y-169654761D02*
X127523809Y-169702380D01*
X127761904Y-169702380D01*
X127857142Y-169654761D01*
X127904761Y-169607142D01*
X127952380Y-169511904D01*
X127952380Y-169416666D01*
X127904761Y-169321428D01*
X127857142Y-169273809D01*
X127761904Y-169226190D01*
X127571428Y-169178571D01*
X127476190Y-169130952D01*
X127428571Y-169083333D01*
X127380952Y-168988095D01*
X127380952Y-168892857D01*
X127428571Y-168797619D01*
X127476190Y-168750000D01*
X127571428Y-168702380D01*
X127809523Y-168702380D01*
X127952380Y-168750000D01*
X128380952Y-169702380D02*
X128380952Y-168702380D01*
X128619047Y-168702380D01*
X128761904Y-168750000D01*
X128857142Y-168845238D01*
X128904761Y-168940476D01*
X128952380Y-169130952D01*
X128952380Y-169273809D01*
X128904761Y-169464285D01*
X128857142Y-169559523D01*
X128761904Y-169654761D01*
X128619047Y-169702380D01*
X128380952Y-169702380D01*
X129333333Y-169416666D02*
X129809523Y-169416666D01*
X129238095Y-169702380D02*
X129571428Y-168702380D01*
X129904761Y-169702380D01*
X130761904Y-169702380D02*
X130190476Y-169702380D01*
X130476190Y-169702380D02*
X130476190Y-168702380D01*
X130380952Y-168845238D01*
X130285714Y-168940476D01*
X130190476Y-168988095D01*
G04 #@! TO.C,SPI3_SCK1*
X150416666Y-157154761D02*
X150559523Y-157202380D01*
X150797619Y-157202380D01*
X150892857Y-157154761D01*
X150940476Y-157107142D01*
X150988095Y-157011904D01*
X150988095Y-156916666D01*
X150940476Y-156821428D01*
X150892857Y-156773809D01*
X150797619Y-156726190D01*
X150607142Y-156678571D01*
X150511904Y-156630952D01*
X150464285Y-156583333D01*
X150416666Y-156488095D01*
X150416666Y-156392857D01*
X150464285Y-156297619D01*
X150511904Y-156250000D01*
X150607142Y-156202380D01*
X150845238Y-156202380D01*
X150988095Y-156250000D01*
X151416666Y-157202380D02*
X151416666Y-156202380D01*
X151797619Y-156202380D01*
X151892857Y-156250000D01*
X151940476Y-156297619D01*
X151988095Y-156392857D01*
X151988095Y-156535714D01*
X151940476Y-156630952D01*
X151892857Y-156678571D01*
X151797619Y-156726190D01*
X151416666Y-156726190D01*
X152416666Y-157202380D02*
X152416666Y-156202380D01*
X152797619Y-156202380D02*
X153416666Y-156202380D01*
X153083333Y-156583333D01*
X153226190Y-156583333D01*
X153321428Y-156630952D01*
X153369047Y-156678571D01*
X153416666Y-156773809D01*
X153416666Y-157011904D01*
X153369047Y-157107142D01*
X153321428Y-157154761D01*
X153226190Y-157202380D01*
X152940476Y-157202380D01*
X152845238Y-157154761D01*
X152797619Y-157107142D01*
X153607142Y-157297619D02*
X154369047Y-157297619D01*
X154559523Y-157154761D02*
X154702380Y-157202380D01*
X154940476Y-157202380D01*
X155035714Y-157154761D01*
X155083333Y-157107142D01*
X155130952Y-157011904D01*
X155130952Y-156916666D01*
X155083333Y-156821428D01*
X155035714Y-156773809D01*
X154940476Y-156726190D01*
X154750000Y-156678571D01*
X154654761Y-156630952D01*
X154607142Y-156583333D01*
X154559523Y-156488095D01*
X154559523Y-156392857D01*
X154607142Y-156297619D01*
X154654761Y-156250000D01*
X154750000Y-156202380D01*
X154988095Y-156202380D01*
X155130952Y-156250000D01*
X156130952Y-157107142D02*
X156083333Y-157154761D01*
X155940476Y-157202380D01*
X155845238Y-157202380D01*
X155702380Y-157154761D01*
X155607142Y-157059523D01*
X155559523Y-156964285D01*
X155511904Y-156773809D01*
X155511904Y-156630952D01*
X155559523Y-156440476D01*
X155607142Y-156345238D01*
X155702380Y-156250000D01*
X155845238Y-156202380D01*
X155940476Y-156202380D01*
X156083333Y-156250000D01*
X156130952Y-156297619D01*
X156559523Y-157202380D02*
X156559523Y-156202380D01*
X157130952Y-157202380D02*
X156702380Y-156630952D01*
X157130952Y-156202380D02*
X156559523Y-156773809D01*
X158083333Y-157202380D02*
X157511904Y-157202380D01*
X157797619Y-157202380D02*
X157797619Y-156202380D01*
X157702380Y-156345238D01*
X157607142Y-156440476D01*
X157511904Y-156488095D01*
G04 #@! TO.C,SPI3_MISO1*
X150083333Y-155404761D02*
X150226190Y-155452380D01*
X150464285Y-155452380D01*
X150559523Y-155404761D01*
X150607142Y-155357142D01*
X150654761Y-155261904D01*
X150654761Y-155166666D01*
X150607142Y-155071428D01*
X150559523Y-155023809D01*
X150464285Y-154976190D01*
X150273809Y-154928571D01*
X150178571Y-154880952D01*
X150130952Y-154833333D01*
X150083333Y-154738095D01*
X150083333Y-154642857D01*
X150130952Y-154547619D01*
X150178571Y-154500000D01*
X150273809Y-154452380D01*
X150511904Y-154452380D01*
X150654761Y-154500000D01*
X151083333Y-155452380D02*
X151083333Y-154452380D01*
X151464285Y-154452380D01*
X151559523Y-154500000D01*
X151607142Y-154547619D01*
X151654761Y-154642857D01*
X151654761Y-154785714D01*
X151607142Y-154880952D01*
X151559523Y-154928571D01*
X151464285Y-154976190D01*
X151083333Y-154976190D01*
X152083333Y-155452380D02*
X152083333Y-154452380D01*
X152464285Y-154452380D02*
X153083333Y-154452380D01*
X152750000Y-154833333D01*
X152892857Y-154833333D01*
X152988095Y-154880952D01*
X153035714Y-154928571D01*
X153083333Y-155023809D01*
X153083333Y-155261904D01*
X153035714Y-155357142D01*
X152988095Y-155404761D01*
X152892857Y-155452380D01*
X152607142Y-155452380D01*
X152511904Y-155404761D01*
X152464285Y-155357142D01*
X153273809Y-155547619D02*
X154035714Y-155547619D01*
X154273809Y-155452380D02*
X154273809Y-154452380D01*
X154607142Y-155166666D01*
X154940476Y-154452380D01*
X154940476Y-155452380D01*
X155416666Y-155452380D02*
X155416666Y-154452380D01*
X155845238Y-155404761D02*
X155988095Y-155452380D01*
X156226190Y-155452380D01*
X156321428Y-155404761D01*
X156369047Y-155357142D01*
X156416666Y-155261904D01*
X156416666Y-155166666D01*
X156369047Y-155071428D01*
X156321428Y-155023809D01*
X156226190Y-154976190D01*
X156035714Y-154928571D01*
X155940476Y-154880952D01*
X155892857Y-154833333D01*
X155845238Y-154738095D01*
X155845238Y-154642857D01*
X155892857Y-154547619D01*
X155940476Y-154500000D01*
X156035714Y-154452380D01*
X156273809Y-154452380D01*
X156416666Y-154500000D01*
X157035714Y-154452380D02*
X157226190Y-154452380D01*
X157321428Y-154500000D01*
X157416666Y-154595238D01*
X157464285Y-154785714D01*
X157464285Y-155119047D01*
X157416666Y-155309523D01*
X157321428Y-155404761D01*
X157226190Y-155452380D01*
X157035714Y-155452380D01*
X156940476Y-155404761D01*
X156845238Y-155309523D01*
X156797619Y-155119047D01*
X156797619Y-154785714D01*
X156845238Y-154595238D01*
X156940476Y-154500000D01*
X157035714Y-154452380D01*
X158416666Y-155452380D02*
X157845238Y-155452380D01*
X158130952Y-155452380D02*
X158130952Y-154452380D01*
X158035714Y-154595238D01*
X157940476Y-154690476D01*
X157845238Y-154738095D01*
G04 #@! TO.C,SPI3_MOSI1*
X150083333Y-144654761D02*
X150226190Y-144702380D01*
X150464285Y-144702380D01*
X150559523Y-144654761D01*
X150607142Y-144607142D01*
X150654761Y-144511904D01*
X150654761Y-144416666D01*
X150607142Y-144321428D01*
X150559523Y-144273809D01*
X150464285Y-144226190D01*
X150273809Y-144178571D01*
X150178571Y-144130952D01*
X150130952Y-144083333D01*
X150083333Y-143988095D01*
X150083333Y-143892857D01*
X150130952Y-143797619D01*
X150178571Y-143750000D01*
X150273809Y-143702380D01*
X150511904Y-143702380D01*
X150654761Y-143750000D01*
X151083333Y-144702380D02*
X151083333Y-143702380D01*
X151464285Y-143702380D01*
X151559523Y-143750000D01*
X151607142Y-143797619D01*
X151654761Y-143892857D01*
X151654761Y-144035714D01*
X151607142Y-144130952D01*
X151559523Y-144178571D01*
X151464285Y-144226190D01*
X151083333Y-144226190D01*
X152083333Y-144702380D02*
X152083333Y-143702380D01*
X152464285Y-143702380D02*
X153083333Y-143702380D01*
X152750000Y-144083333D01*
X152892857Y-144083333D01*
X152988095Y-144130952D01*
X153035714Y-144178571D01*
X153083333Y-144273809D01*
X153083333Y-144511904D01*
X153035714Y-144607142D01*
X152988095Y-144654761D01*
X152892857Y-144702380D01*
X152607142Y-144702380D01*
X152511904Y-144654761D01*
X152464285Y-144607142D01*
X153273809Y-144797619D02*
X154035714Y-144797619D01*
X154273809Y-144702380D02*
X154273809Y-143702380D01*
X154607142Y-144416666D01*
X154940476Y-143702380D01*
X154940476Y-144702380D01*
X155607142Y-143702380D02*
X155797619Y-143702380D01*
X155892857Y-143750000D01*
X155988095Y-143845238D01*
X156035714Y-144035714D01*
X156035714Y-144369047D01*
X155988095Y-144559523D01*
X155892857Y-144654761D01*
X155797619Y-144702380D01*
X155607142Y-144702380D01*
X155511904Y-144654761D01*
X155416666Y-144559523D01*
X155369047Y-144369047D01*
X155369047Y-144035714D01*
X155416666Y-143845238D01*
X155511904Y-143750000D01*
X155607142Y-143702380D01*
X156416666Y-144654761D02*
X156559523Y-144702380D01*
X156797619Y-144702380D01*
X156892857Y-144654761D01*
X156940476Y-144607142D01*
X156988095Y-144511904D01*
X156988095Y-144416666D01*
X156940476Y-144321428D01*
X156892857Y-144273809D01*
X156797619Y-144226190D01*
X156607142Y-144178571D01*
X156511904Y-144130952D01*
X156464285Y-144083333D01*
X156416666Y-143988095D01*
X156416666Y-143892857D01*
X156464285Y-143797619D01*
X156511904Y-143750000D01*
X156607142Y-143702380D01*
X156845238Y-143702380D01*
X156988095Y-143750000D01*
X157416666Y-144702380D02*
X157416666Y-143702380D01*
X158416666Y-144702380D02*
X157845238Y-144702380D01*
X158130952Y-144702380D02*
X158130952Y-143702380D01*
X158035714Y-143845238D01*
X157940476Y-143940476D01*
X157845238Y-143988095D01*
G04 #@! TO.C,GND1*
X86261904Y-64750000D02*
X86166666Y-64702380D01*
X86023809Y-64702380D01*
X85880952Y-64750000D01*
X85785714Y-64845238D01*
X85738095Y-64940476D01*
X85690476Y-65130952D01*
X85690476Y-65273809D01*
X85738095Y-65464285D01*
X85785714Y-65559523D01*
X85880952Y-65654761D01*
X86023809Y-65702380D01*
X86119047Y-65702380D01*
X86261904Y-65654761D01*
X86309523Y-65607142D01*
X86309523Y-65273809D01*
X86119047Y-65273809D01*
X86738095Y-65702380D02*
X86738095Y-64702380D01*
X87309523Y-65702380D01*
X87309523Y-64702380D01*
X87785714Y-65702380D02*
X87785714Y-64702380D01*
X88023809Y-64702380D01*
X88166666Y-64750000D01*
X88261904Y-64845238D01*
X88309523Y-64940476D01*
X88357142Y-65130952D01*
X88357142Y-65273809D01*
X88309523Y-65464285D01*
X88261904Y-65559523D01*
X88166666Y-65654761D01*
X88023809Y-65702380D01*
X87785714Y-65702380D01*
X89309523Y-65702380D02*
X88738095Y-65702380D01*
X89023809Y-65702380D02*
X89023809Y-64702380D01*
X88928571Y-64845238D01*
X88833333Y-64940476D01*
X88738095Y-64988095D01*
G04 #@! TO.C,GND2*
X153011904Y-138250000D02*
X152916666Y-138202380D01*
X152773809Y-138202380D01*
X152630952Y-138250000D01*
X152535714Y-138345238D01*
X152488095Y-138440476D01*
X152440476Y-138630952D01*
X152440476Y-138773809D01*
X152488095Y-138964285D01*
X152535714Y-139059523D01*
X152630952Y-139154761D01*
X152773809Y-139202380D01*
X152869047Y-139202380D01*
X153011904Y-139154761D01*
X153059523Y-139107142D01*
X153059523Y-138773809D01*
X152869047Y-138773809D01*
X153488095Y-139202380D02*
X153488095Y-138202380D01*
X154059523Y-139202380D01*
X154059523Y-138202380D01*
X154535714Y-139202380D02*
X154535714Y-138202380D01*
X154773809Y-138202380D01*
X154916666Y-138250000D01*
X155011904Y-138345238D01*
X155059523Y-138440476D01*
X155107142Y-138630952D01*
X155107142Y-138773809D01*
X155059523Y-138964285D01*
X155011904Y-139059523D01*
X154916666Y-139154761D01*
X154773809Y-139202380D01*
X154535714Y-139202380D01*
X155488095Y-138297619D02*
X155535714Y-138250000D01*
X155630952Y-138202380D01*
X155869047Y-138202380D01*
X155964285Y-138250000D01*
X156011904Y-138297619D01*
X156059523Y-138392857D01*
X156059523Y-138488095D01*
X156011904Y-138630952D01*
X155440476Y-139202380D01*
X156059523Y-139202380D01*
G04 #@! TO.C,GND3*
X186261904Y-65000000D02*
X186166666Y-64952380D01*
X186023809Y-64952380D01*
X185880952Y-65000000D01*
X185785714Y-65095238D01*
X185738095Y-65190476D01*
X185690476Y-65380952D01*
X185690476Y-65523809D01*
X185738095Y-65714285D01*
X185785714Y-65809523D01*
X185880952Y-65904761D01*
X186023809Y-65952380D01*
X186119047Y-65952380D01*
X186261904Y-65904761D01*
X186309523Y-65857142D01*
X186309523Y-65523809D01*
X186119047Y-65523809D01*
X186738095Y-65952380D02*
X186738095Y-64952380D01*
X187309523Y-65952380D01*
X187309523Y-64952380D01*
X187785714Y-65952380D02*
X187785714Y-64952380D01*
X188023809Y-64952380D01*
X188166666Y-65000000D01*
X188261904Y-65095238D01*
X188309523Y-65190476D01*
X188357142Y-65380952D01*
X188357142Y-65523809D01*
X188309523Y-65714285D01*
X188261904Y-65809523D01*
X188166666Y-65904761D01*
X188023809Y-65952380D01*
X187785714Y-65952380D01*
X188690476Y-64952380D02*
X189309523Y-64952380D01*
X188976190Y-65333333D01*
X189119047Y-65333333D01*
X189214285Y-65380952D01*
X189261904Y-65428571D01*
X189309523Y-65523809D01*
X189309523Y-65761904D01*
X189261904Y-65857142D01*
X189214285Y-65904761D01*
X189119047Y-65952380D01*
X188833333Y-65952380D01*
X188738095Y-65904761D01*
X188690476Y-65857142D01*
G04 #@! TO.C,GND4*
X125761904Y-157500000D02*
X125666666Y-157452380D01*
X125523809Y-157452380D01*
X125380952Y-157500000D01*
X125285714Y-157595238D01*
X125238095Y-157690476D01*
X125190476Y-157880952D01*
X125190476Y-158023809D01*
X125238095Y-158214285D01*
X125285714Y-158309523D01*
X125380952Y-158404761D01*
X125523809Y-158452380D01*
X125619047Y-158452380D01*
X125761904Y-158404761D01*
X125809523Y-158357142D01*
X125809523Y-158023809D01*
X125619047Y-158023809D01*
X126238095Y-158452380D02*
X126238095Y-157452380D01*
X126809523Y-158452380D01*
X126809523Y-157452380D01*
X127285714Y-158452380D02*
X127285714Y-157452380D01*
X127523809Y-157452380D01*
X127666666Y-157500000D01*
X127761904Y-157595238D01*
X127809523Y-157690476D01*
X127857142Y-157880952D01*
X127857142Y-158023809D01*
X127809523Y-158214285D01*
X127761904Y-158309523D01*
X127666666Y-158404761D01*
X127523809Y-158452380D01*
X127285714Y-158452380D01*
X128714285Y-157785714D02*
X128714285Y-158452380D01*
X128476190Y-157404761D02*
X128238095Y-158119047D01*
X128857142Y-158119047D01*
G04 #@! TO.C,GND5*
X187511904Y-197500000D02*
X187416666Y-197452380D01*
X187273809Y-197452380D01*
X187130952Y-197500000D01*
X187035714Y-197595238D01*
X186988095Y-197690476D01*
X186940476Y-197880952D01*
X186940476Y-198023809D01*
X186988095Y-198214285D01*
X187035714Y-198309523D01*
X187130952Y-198404761D01*
X187273809Y-198452380D01*
X187369047Y-198452380D01*
X187511904Y-198404761D01*
X187559523Y-198357142D01*
X187559523Y-198023809D01*
X187369047Y-198023809D01*
X187988095Y-198452380D02*
X187988095Y-197452380D01*
X188559523Y-198452380D01*
X188559523Y-197452380D01*
X189035714Y-198452380D02*
X189035714Y-197452380D01*
X189273809Y-197452380D01*
X189416666Y-197500000D01*
X189511904Y-197595238D01*
X189559523Y-197690476D01*
X189607142Y-197880952D01*
X189607142Y-198023809D01*
X189559523Y-198214285D01*
X189511904Y-198309523D01*
X189416666Y-198404761D01*
X189273809Y-198452380D01*
X189035714Y-198452380D01*
X190511904Y-197452380D02*
X190035714Y-197452380D01*
X189988095Y-197928571D01*
X190035714Y-197880952D01*
X190130952Y-197833333D01*
X190369047Y-197833333D01*
X190464285Y-197880952D01*
X190511904Y-197928571D01*
X190559523Y-198023809D01*
X190559523Y-198261904D01*
X190511904Y-198357142D01*
X190464285Y-198404761D01*
X190369047Y-198452380D01*
X190130952Y-198452380D01*
X190035714Y-198404761D01*
X189988095Y-198357142D01*
G04 #@! TO.C,C9*
X94642511Y-199307300D02*
X94594892Y-199354919D01*
X94452035Y-199402538D01*
X94356797Y-199402538D01*
X94213939Y-199354919D01*
X94118701Y-199259681D01*
X94071082Y-199164443D01*
X94023463Y-198973967D01*
X94023463Y-198831110D01*
X94071082Y-198640634D01*
X94118701Y-198545396D01*
X94213939Y-198450158D01*
X94356797Y-198402538D01*
X94452035Y-198402538D01*
X94594892Y-198450158D01*
X94642511Y-198497777D01*
X95118701Y-199402538D02*
X95309178Y-199402538D01*
X95404416Y-199354919D01*
X95452035Y-199307300D01*
X95547273Y-199164443D01*
X95594892Y-198973967D01*
X95594892Y-198593015D01*
X95547273Y-198497777D01*
X95499654Y-198450158D01*
X95404416Y-198402538D01*
X95213939Y-198402538D01*
X95118701Y-198450158D01*
X95071082Y-198497777D01*
X95023463Y-198593015D01*
X95023463Y-198831110D01*
X95071082Y-198926348D01*
X95118701Y-198973967D01*
X95213939Y-199021586D01*
X95404416Y-199021586D01*
X95499654Y-198973967D01*
X95547273Y-198926348D01*
X95594892Y-198831110D01*
G04 #@! TO.C,C10*
X94166320Y-201307300D02*
X94118701Y-201354919D01*
X93975844Y-201402538D01*
X93880606Y-201402538D01*
X93737749Y-201354919D01*
X93642511Y-201259681D01*
X93594892Y-201164443D01*
X93547273Y-200973967D01*
X93547273Y-200831110D01*
X93594892Y-200640634D01*
X93642511Y-200545396D01*
X93737749Y-200450158D01*
X93880606Y-200402538D01*
X93975844Y-200402538D01*
X94118701Y-200450158D01*
X94166320Y-200497777D01*
X95118701Y-201402538D02*
X94547273Y-201402538D01*
X94832987Y-201402538D02*
X94832987Y-200402538D01*
X94737749Y-200545396D01*
X94642511Y-200640634D01*
X94547273Y-200688253D01*
X95737749Y-200402538D02*
X95832987Y-200402538D01*
X95928225Y-200450158D01*
X95975844Y-200497777D01*
X96023463Y-200593015D01*
X96071082Y-200783491D01*
X96071082Y-201021586D01*
X96023463Y-201212062D01*
X95975844Y-201307300D01*
X95928225Y-201354919D01*
X95832987Y-201402538D01*
X95737749Y-201402538D01*
X95642511Y-201354919D01*
X95594892Y-201307300D01*
X95547273Y-201212062D01*
X95499654Y-201021586D01*
X95499654Y-200783491D01*
X95547273Y-200593015D01*
X95594892Y-200497777D01*
X95642511Y-200450158D01*
X95737749Y-200402538D01*
G04 #@! TO.C,C19*
X97296932Y-179182835D02*
X97249313Y-179230454D01*
X97106456Y-179278073D01*
X97011218Y-179278073D01*
X96868361Y-179230454D01*
X96773123Y-179135216D01*
X96725504Y-179039978D01*
X96677885Y-178849502D01*
X96677885Y-178706645D01*
X96725504Y-178516169D01*
X96773123Y-178420931D01*
X96868361Y-178325693D01*
X97011218Y-178278073D01*
X97106456Y-178278073D01*
X97249313Y-178325693D01*
X97296932Y-178373312D01*
X98249313Y-179278073D02*
X97677885Y-179278073D01*
X97963599Y-179278073D02*
X97963599Y-178278073D01*
X97868361Y-178420931D01*
X97773123Y-178516169D01*
X97677885Y-178563788D01*
X98725504Y-179278073D02*
X98915980Y-179278073D01*
X99011218Y-179230454D01*
X99058837Y-179182835D01*
X99154075Y-179039978D01*
X99201694Y-178849502D01*
X99201694Y-178468550D01*
X99154075Y-178373312D01*
X99106456Y-178325693D01*
X99011218Y-178278073D01*
X98820742Y-178278073D01*
X98725504Y-178325693D01*
X98677885Y-178373312D01*
X98630266Y-178468550D01*
X98630266Y-178706645D01*
X98677885Y-178801883D01*
X98725504Y-178849502D01*
X98820742Y-178897121D01*
X99011218Y-178897121D01*
X99106456Y-178849502D01*
X99154075Y-178801883D01*
X99201694Y-178706645D01*
G04 #@! TO.C,C20*
X97107142Y-198787142D02*
X97059523Y-198834761D01*
X96916666Y-198882380D01*
X96821428Y-198882380D01*
X96678571Y-198834761D01*
X96583333Y-198739523D01*
X96535714Y-198644285D01*
X96488095Y-198453809D01*
X96488095Y-198310952D01*
X96535714Y-198120476D01*
X96583333Y-198025238D01*
X96678571Y-197930000D01*
X96821428Y-197882380D01*
X96916666Y-197882380D01*
X97059523Y-197930000D01*
X97107142Y-197977619D01*
X97488095Y-197977619D02*
X97535714Y-197930000D01*
X97630952Y-197882380D01*
X97869047Y-197882380D01*
X97964285Y-197930000D01*
X98011904Y-197977619D01*
X98059523Y-198072857D01*
X98059523Y-198168095D01*
X98011904Y-198310952D01*
X97440476Y-198882380D01*
X98059523Y-198882380D01*
X98678571Y-197882380D02*
X98773809Y-197882380D01*
X98869047Y-197930000D01*
X98916666Y-197977619D01*
X98964285Y-198072857D01*
X99011904Y-198263333D01*
X99011904Y-198501428D01*
X98964285Y-198691904D01*
X98916666Y-198787142D01*
X98869047Y-198834761D01*
X98773809Y-198882380D01*
X98678571Y-198882380D01*
X98583333Y-198834761D01*
X98535714Y-198787142D01*
X98488095Y-198691904D01*
X98440476Y-198501428D01*
X98440476Y-198263333D01*
X98488095Y-198072857D01*
X98535714Y-197977619D01*
X98583333Y-197930000D01*
X98678571Y-197882380D01*
G04 #@! TO.C,C21*
X97296932Y-173437836D02*
X97249313Y-173485455D01*
X97106456Y-173533074D01*
X97011218Y-173533074D01*
X96868361Y-173485455D01*
X96773123Y-173390217D01*
X96725504Y-173294979D01*
X96677885Y-173104503D01*
X96677885Y-172961646D01*
X96725504Y-172771170D01*
X96773123Y-172675932D01*
X96868361Y-172580694D01*
X97011218Y-172533074D01*
X97106456Y-172533074D01*
X97249313Y-172580694D01*
X97296932Y-172628313D01*
X97677885Y-172628313D02*
X97725504Y-172580694D01*
X97820742Y-172533074D01*
X98058837Y-172533074D01*
X98154075Y-172580694D01*
X98201694Y-172628313D01*
X98249313Y-172723551D01*
X98249313Y-172818789D01*
X98201694Y-172961646D01*
X97630266Y-173533074D01*
X98249313Y-173533074D01*
X99201694Y-173533074D02*
X98630266Y-173533074D01*
X98915980Y-173533074D02*
X98915980Y-172533074D01*
X98820742Y-172675932D01*
X98725504Y-172771170D01*
X98630266Y-172818789D01*
G04 #@! TO.C,C22*
X94607142Y-154857142D02*
X94559523Y-154904761D01*
X94416666Y-154952380D01*
X94321428Y-154952380D01*
X94178571Y-154904761D01*
X94083333Y-154809523D01*
X94035714Y-154714285D01*
X93988095Y-154523809D01*
X93988095Y-154380952D01*
X94035714Y-154190476D01*
X94083333Y-154095238D01*
X94178571Y-154000000D01*
X94321428Y-153952380D01*
X94416666Y-153952380D01*
X94559523Y-154000000D01*
X94607142Y-154047619D01*
X94988095Y-154047619D02*
X95035714Y-154000000D01*
X95130952Y-153952380D01*
X95369047Y-153952380D01*
X95464285Y-154000000D01*
X95511904Y-154047619D01*
X95559523Y-154142857D01*
X95559523Y-154238095D01*
X95511904Y-154380952D01*
X94940476Y-154952380D01*
X95559523Y-154952380D01*
X95940476Y-154047619D02*
X95988095Y-154000000D01*
X96083333Y-153952380D01*
X96321428Y-153952380D01*
X96416666Y-154000000D01*
X96464285Y-154047619D01*
X96511904Y-154142857D01*
X96511904Y-154238095D01*
X96464285Y-154380952D01*
X95892857Y-154952380D01*
X96511904Y-154952380D01*
G04 #@! TO.C,C23*
X107232142Y-154457142D02*
X107184523Y-154504761D01*
X107041666Y-154552380D01*
X106946428Y-154552380D01*
X106803571Y-154504761D01*
X106708333Y-154409523D01*
X106660714Y-154314285D01*
X106613095Y-154123809D01*
X106613095Y-153980952D01*
X106660714Y-153790476D01*
X106708333Y-153695238D01*
X106803571Y-153600000D01*
X106946428Y-153552380D01*
X107041666Y-153552380D01*
X107184523Y-153600000D01*
X107232142Y-153647619D01*
X107613095Y-153647619D02*
X107660714Y-153600000D01*
X107755952Y-153552380D01*
X107994047Y-153552380D01*
X108089285Y-153600000D01*
X108136904Y-153647619D01*
X108184523Y-153742857D01*
X108184523Y-153838095D01*
X108136904Y-153980952D01*
X107565476Y-154552380D01*
X108184523Y-154552380D01*
X108517857Y-153552380D02*
X109136904Y-153552380D01*
X108803571Y-153933333D01*
X108946428Y-153933333D01*
X109041666Y-153980952D01*
X109089285Y-154028571D01*
X109136904Y-154123809D01*
X109136904Y-154361904D01*
X109089285Y-154457142D01*
X109041666Y-154504761D01*
X108946428Y-154552380D01*
X108660714Y-154552380D01*
X108565476Y-154504761D01*
X108517857Y-154457142D01*
G04 #@! TO.C,D1*
X109261904Y-203522380D02*
X109261904Y-202522380D01*
X109500000Y-202522380D01*
X109642857Y-202570000D01*
X109738095Y-202665238D01*
X109785714Y-202760476D01*
X109833333Y-202950952D01*
X109833333Y-203093809D01*
X109785714Y-203284285D01*
X109738095Y-203379523D01*
X109642857Y-203474761D01*
X109500000Y-203522380D01*
X109261904Y-203522380D01*
X110785714Y-203522380D02*
X110214285Y-203522380D01*
X110500000Y-203522380D02*
X110500000Y-202522380D01*
X110404761Y-202665238D01*
X110309523Y-202760476D01*
X110214285Y-202808095D01*
G04 #@! TO.C,D2*
X103011904Y-199882380D02*
X103011904Y-198882380D01*
X103250000Y-198882380D01*
X103392857Y-198930000D01*
X103488095Y-199025238D01*
X103535714Y-199120476D01*
X103583333Y-199310952D01*
X103583333Y-199453809D01*
X103535714Y-199644285D01*
X103488095Y-199739523D01*
X103392857Y-199834761D01*
X103250000Y-199882380D01*
X103011904Y-199882380D01*
X103964285Y-198977619D02*
X104011904Y-198930000D01*
X104107142Y-198882380D01*
X104345238Y-198882380D01*
X104440476Y-198930000D01*
X104488095Y-198977619D01*
X104535714Y-199072857D01*
X104535714Y-199168095D01*
X104488095Y-199310952D01*
X103916666Y-199882380D01*
X104535714Y-199882380D01*
G04 #@! TO.C,R12*
X91607142Y-169202380D02*
X91273809Y-168726190D01*
X91035714Y-169202380D02*
X91035714Y-168202380D01*
X91416666Y-168202380D01*
X91511904Y-168250000D01*
X91559523Y-168297619D01*
X91607142Y-168392857D01*
X91607142Y-168535714D01*
X91559523Y-168630952D01*
X91511904Y-168678571D01*
X91416666Y-168726190D01*
X91035714Y-168726190D01*
X92559523Y-169202380D02*
X91988095Y-169202380D01*
X92273809Y-169202380D02*
X92273809Y-168202380D01*
X92178571Y-168345238D01*
X92083333Y-168440476D01*
X91988095Y-168488095D01*
X92940476Y-168297619D02*
X92988095Y-168250000D01*
X93083333Y-168202380D01*
X93321428Y-168202380D01*
X93416666Y-168250000D01*
X93464285Y-168297619D01*
X93511904Y-168392857D01*
X93511904Y-168488095D01*
X93464285Y-168630952D01*
X92892857Y-169202380D01*
X93511904Y-169202380D01*
G04 #@! TO.C,R19*
X91607142Y-170702380D02*
X91273809Y-170226190D01*
X91035714Y-170702380D02*
X91035714Y-169702380D01*
X91416666Y-169702380D01*
X91511904Y-169750000D01*
X91559523Y-169797619D01*
X91607142Y-169892857D01*
X91607142Y-170035714D01*
X91559523Y-170130952D01*
X91511904Y-170178571D01*
X91416666Y-170226190D01*
X91035714Y-170226190D01*
X92559523Y-170702380D02*
X91988095Y-170702380D01*
X92273809Y-170702380D02*
X92273809Y-169702380D01*
X92178571Y-169845238D01*
X92083333Y-169940476D01*
X91988095Y-169988095D01*
X93035714Y-170702380D02*
X93226190Y-170702380D01*
X93321428Y-170654761D01*
X93369047Y-170607142D01*
X93464285Y-170464285D01*
X93511904Y-170273809D01*
X93511904Y-169892857D01*
X93464285Y-169797619D01*
X93416666Y-169750000D01*
X93321428Y-169702380D01*
X93130952Y-169702380D01*
X93035714Y-169750000D01*
X92988095Y-169797619D01*
X92940476Y-169892857D01*
X92940476Y-170130952D01*
X92988095Y-170226190D01*
X93035714Y-170273809D01*
X93130952Y-170321428D01*
X93321428Y-170321428D01*
X93416666Y-170273809D01*
X93464285Y-170226190D01*
X93511904Y-170130952D01*
G04 #@! TO.C,R20*
X104357142Y-168952380D02*
X104023809Y-168476190D01*
X103785714Y-168952380D02*
X103785714Y-167952380D01*
X104166666Y-167952380D01*
X104261904Y-168000000D01*
X104309523Y-168047619D01*
X104357142Y-168142857D01*
X104357142Y-168285714D01*
X104309523Y-168380952D01*
X104261904Y-168428571D01*
X104166666Y-168476190D01*
X103785714Y-168476190D01*
X104738095Y-168047619D02*
X104785714Y-168000000D01*
X104880952Y-167952380D01*
X105119047Y-167952380D01*
X105214285Y-168000000D01*
X105261904Y-168047619D01*
X105309523Y-168142857D01*
X105309523Y-168238095D01*
X105261904Y-168380952D01*
X104690476Y-168952380D01*
X105309523Y-168952380D01*
X105928571Y-167952380D02*
X106023809Y-167952380D01*
X106119047Y-168000000D01*
X106166666Y-168047619D01*
X106214285Y-168142857D01*
X106261904Y-168333333D01*
X106261904Y-168571428D01*
X106214285Y-168761904D01*
X106166666Y-168857142D01*
X106119047Y-168904761D01*
X106023809Y-168952380D01*
X105928571Y-168952380D01*
X105833333Y-168904761D01*
X105785714Y-168857142D01*
X105738095Y-168761904D01*
X105690476Y-168571428D01*
X105690476Y-168333333D01*
X105738095Y-168142857D01*
X105785714Y-168047619D01*
X105833333Y-168000000D01*
X105928571Y-167952380D01*
G04 #@! TO.C,R21*
X104357142Y-170352380D02*
X104023809Y-169876190D01*
X103785714Y-170352380D02*
X103785714Y-169352380D01*
X104166666Y-169352380D01*
X104261904Y-169400000D01*
X104309523Y-169447619D01*
X104357142Y-169542857D01*
X104357142Y-169685714D01*
X104309523Y-169780952D01*
X104261904Y-169828571D01*
X104166666Y-169876190D01*
X103785714Y-169876190D01*
X104738095Y-169447619D02*
X104785714Y-169400000D01*
X104880952Y-169352380D01*
X105119047Y-169352380D01*
X105214285Y-169400000D01*
X105261904Y-169447619D01*
X105309523Y-169542857D01*
X105309523Y-169638095D01*
X105261904Y-169780952D01*
X104690476Y-170352380D01*
X105309523Y-170352380D01*
X106261904Y-170352380D02*
X105690476Y-170352380D01*
X105976190Y-170352380D02*
X105976190Y-169352380D01*
X105880952Y-169495238D01*
X105785714Y-169590476D01*
X105690476Y-169638095D01*
G04 #@! TO.C,R22*
X87857142Y-169202380D02*
X87523809Y-168726190D01*
X87285714Y-169202380D02*
X87285714Y-168202380D01*
X87666666Y-168202380D01*
X87761904Y-168250000D01*
X87809523Y-168297619D01*
X87857142Y-168392857D01*
X87857142Y-168535714D01*
X87809523Y-168630952D01*
X87761904Y-168678571D01*
X87666666Y-168726190D01*
X87285714Y-168726190D01*
X88238095Y-168297619D02*
X88285714Y-168250000D01*
X88380952Y-168202380D01*
X88619047Y-168202380D01*
X88714285Y-168250000D01*
X88761904Y-168297619D01*
X88809523Y-168392857D01*
X88809523Y-168488095D01*
X88761904Y-168630952D01*
X88190476Y-169202380D01*
X88809523Y-169202380D01*
X89190476Y-168297619D02*
X89238095Y-168250000D01*
X89333333Y-168202380D01*
X89571428Y-168202380D01*
X89666666Y-168250000D01*
X89714285Y-168297619D01*
X89761904Y-168392857D01*
X89761904Y-168488095D01*
X89714285Y-168630952D01*
X89142857Y-169202380D01*
X89761904Y-169202380D01*
G04 #@! TO.C,R23*
X87857142Y-170702380D02*
X87523809Y-170226190D01*
X87285714Y-170702380D02*
X87285714Y-169702380D01*
X87666666Y-169702380D01*
X87761904Y-169750000D01*
X87809523Y-169797619D01*
X87857142Y-169892857D01*
X87857142Y-170035714D01*
X87809523Y-170130952D01*
X87761904Y-170178571D01*
X87666666Y-170226190D01*
X87285714Y-170226190D01*
X88238095Y-169797619D02*
X88285714Y-169750000D01*
X88380952Y-169702380D01*
X88619047Y-169702380D01*
X88714285Y-169750000D01*
X88761904Y-169797619D01*
X88809523Y-169892857D01*
X88809523Y-169988095D01*
X88761904Y-170130952D01*
X88190476Y-170702380D01*
X88809523Y-170702380D01*
X89142857Y-169702380D02*
X89761904Y-169702380D01*
X89428571Y-170083333D01*
X89571428Y-170083333D01*
X89666666Y-170130952D01*
X89714285Y-170178571D01*
X89761904Y-170273809D01*
X89761904Y-170511904D01*
X89714285Y-170607142D01*
X89666666Y-170654761D01*
X89571428Y-170702380D01*
X89285714Y-170702380D01*
X89190476Y-170654761D01*
X89142857Y-170607142D01*
G04 #@! TO.C,R24*
X100557142Y-168952380D02*
X100223809Y-168476190D01*
X99985714Y-168952380D02*
X99985714Y-167952380D01*
X100366666Y-167952380D01*
X100461904Y-168000000D01*
X100509523Y-168047619D01*
X100557142Y-168142857D01*
X100557142Y-168285714D01*
X100509523Y-168380952D01*
X100461904Y-168428571D01*
X100366666Y-168476190D01*
X99985714Y-168476190D01*
X100938095Y-168047619D02*
X100985714Y-168000000D01*
X101080952Y-167952380D01*
X101319047Y-167952380D01*
X101414285Y-168000000D01*
X101461904Y-168047619D01*
X101509523Y-168142857D01*
X101509523Y-168238095D01*
X101461904Y-168380952D01*
X100890476Y-168952380D01*
X101509523Y-168952380D01*
X102366666Y-168285714D02*
X102366666Y-168952380D01*
X102128571Y-167904761D02*
X101890476Y-168619047D01*
X102509523Y-168619047D01*
G04 #@! TO.C,R32*
X100557142Y-170352380D02*
X100223809Y-169876190D01*
X99985714Y-170352380D02*
X99985714Y-169352380D01*
X100366666Y-169352380D01*
X100461904Y-169400000D01*
X100509523Y-169447619D01*
X100557142Y-169542857D01*
X100557142Y-169685714D01*
X100509523Y-169780952D01*
X100461904Y-169828571D01*
X100366666Y-169876190D01*
X99985714Y-169876190D01*
X100890476Y-169352380D02*
X101509523Y-169352380D01*
X101176190Y-169733333D01*
X101319047Y-169733333D01*
X101414285Y-169780952D01*
X101461904Y-169828571D01*
X101509523Y-169923809D01*
X101509523Y-170161904D01*
X101461904Y-170257142D01*
X101414285Y-170304761D01*
X101319047Y-170352380D01*
X101033333Y-170352380D01*
X100938095Y-170304761D01*
X100890476Y-170257142D01*
X101890476Y-169447619D02*
X101938095Y-169400000D01*
X102033333Y-169352380D01*
X102271428Y-169352380D01*
X102366666Y-169400000D01*
X102414285Y-169447619D01*
X102461904Y-169542857D01*
X102461904Y-169638095D01*
X102414285Y-169780952D01*
X101842857Y-170352380D01*
X102461904Y-170352380D01*
G04 #@! TO.C,R33*
X95357142Y-169202380D02*
X95023809Y-168726190D01*
X94785714Y-169202380D02*
X94785714Y-168202380D01*
X95166666Y-168202380D01*
X95261904Y-168250000D01*
X95309523Y-168297619D01*
X95357142Y-168392857D01*
X95357142Y-168535714D01*
X95309523Y-168630952D01*
X95261904Y-168678571D01*
X95166666Y-168726190D01*
X94785714Y-168726190D01*
X95690476Y-168202380D02*
X96309523Y-168202380D01*
X95976190Y-168583333D01*
X96119047Y-168583333D01*
X96214285Y-168630952D01*
X96261904Y-168678571D01*
X96309523Y-168773809D01*
X96309523Y-169011904D01*
X96261904Y-169107142D01*
X96214285Y-169154761D01*
X96119047Y-169202380D01*
X95833333Y-169202380D01*
X95738095Y-169154761D01*
X95690476Y-169107142D01*
X96642857Y-168202380D02*
X97261904Y-168202380D01*
X96928571Y-168583333D01*
X97071428Y-168583333D01*
X97166666Y-168630952D01*
X97214285Y-168678571D01*
X97261904Y-168773809D01*
X97261904Y-169011904D01*
X97214285Y-169107142D01*
X97166666Y-169154761D01*
X97071428Y-169202380D01*
X96785714Y-169202380D01*
X96690476Y-169154761D01*
X96642857Y-169107142D01*
G04 #@! TO.C,R34*
X95357142Y-170702380D02*
X95023809Y-170226190D01*
X94785714Y-170702380D02*
X94785714Y-169702380D01*
X95166666Y-169702380D01*
X95261904Y-169750000D01*
X95309523Y-169797619D01*
X95357142Y-169892857D01*
X95357142Y-170035714D01*
X95309523Y-170130952D01*
X95261904Y-170178571D01*
X95166666Y-170226190D01*
X94785714Y-170226190D01*
X95690476Y-169702380D02*
X96309523Y-169702380D01*
X95976190Y-170083333D01*
X96119047Y-170083333D01*
X96214285Y-170130952D01*
X96261904Y-170178571D01*
X96309523Y-170273809D01*
X96309523Y-170511904D01*
X96261904Y-170607142D01*
X96214285Y-170654761D01*
X96119047Y-170702380D01*
X95833333Y-170702380D01*
X95738095Y-170654761D01*
X95690476Y-170607142D01*
X97166666Y-170035714D02*
X97166666Y-170702380D01*
X96928571Y-169654761D02*
X96690476Y-170369047D01*
X97309523Y-170369047D01*
G04 #@! TO.C,R35*
X108157142Y-168952380D02*
X107823809Y-168476190D01*
X107585714Y-168952380D02*
X107585714Y-167952380D01*
X107966666Y-167952380D01*
X108061904Y-168000000D01*
X108109523Y-168047619D01*
X108157142Y-168142857D01*
X108157142Y-168285714D01*
X108109523Y-168380952D01*
X108061904Y-168428571D01*
X107966666Y-168476190D01*
X107585714Y-168476190D01*
X108490476Y-167952380D02*
X109109523Y-167952380D01*
X108776190Y-168333333D01*
X108919047Y-168333333D01*
X109014285Y-168380952D01*
X109061904Y-168428571D01*
X109109523Y-168523809D01*
X109109523Y-168761904D01*
X109061904Y-168857142D01*
X109014285Y-168904761D01*
X108919047Y-168952380D01*
X108633333Y-168952380D01*
X108538095Y-168904761D01*
X108490476Y-168857142D01*
X110014285Y-167952380D02*
X109538095Y-167952380D01*
X109490476Y-168428571D01*
X109538095Y-168380952D01*
X109633333Y-168333333D01*
X109871428Y-168333333D01*
X109966666Y-168380952D01*
X110014285Y-168428571D01*
X110061904Y-168523809D01*
X110061904Y-168761904D01*
X110014285Y-168857142D01*
X109966666Y-168904761D01*
X109871428Y-168952380D01*
X109633333Y-168952380D01*
X109538095Y-168904761D01*
X109490476Y-168857142D01*
G04 #@! TO.C,R36*
X108157142Y-170352380D02*
X107823809Y-169876190D01*
X107585714Y-170352380D02*
X107585714Y-169352380D01*
X107966666Y-169352380D01*
X108061904Y-169400000D01*
X108109523Y-169447619D01*
X108157142Y-169542857D01*
X108157142Y-169685714D01*
X108109523Y-169780952D01*
X108061904Y-169828571D01*
X107966666Y-169876190D01*
X107585714Y-169876190D01*
X108490476Y-169352380D02*
X109109523Y-169352380D01*
X108776190Y-169733333D01*
X108919047Y-169733333D01*
X109014285Y-169780952D01*
X109061904Y-169828571D01*
X109109523Y-169923809D01*
X109109523Y-170161904D01*
X109061904Y-170257142D01*
X109014285Y-170304761D01*
X108919047Y-170352380D01*
X108633333Y-170352380D01*
X108538095Y-170304761D01*
X108490476Y-170257142D01*
X109966666Y-169352380D02*
X109776190Y-169352380D01*
X109680952Y-169400000D01*
X109633333Y-169447619D01*
X109538095Y-169590476D01*
X109490476Y-169780952D01*
X109490476Y-170161904D01*
X109538095Y-170257142D01*
X109585714Y-170304761D01*
X109680952Y-170352380D01*
X109871428Y-170352380D01*
X109966666Y-170304761D01*
X110014285Y-170257142D01*
X110061904Y-170161904D01*
X110061904Y-169923809D01*
X110014285Y-169828571D01*
X109966666Y-169780952D01*
X109871428Y-169733333D01*
X109680952Y-169733333D01*
X109585714Y-169780952D01*
X109538095Y-169828571D01*
X109490476Y-169923809D01*
G04 #@! TO.C,R37*
X109357142Y-200882380D02*
X109023809Y-200406190D01*
X108785714Y-200882380D02*
X108785714Y-199882380D01*
X109166666Y-199882380D01*
X109261904Y-199930000D01*
X109309523Y-199977619D01*
X109357142Y-200072857D01*
X109357142Y-200215714D01*
X109309523Y-200310952D01*
X109261904Y-200358571D01*
X109166666Y-200406190D01*
X108785714Y-200406190D01*
X109690476Y-199882380D02*
X110309523Y-199882380D01*
X109976190Y-200263333D01*
X110119047Y-200263333D01*
X110214285Y-200310952D01*
X110261904Y-200358571D01*
X110309523Y-200453809D01*
X110309523Y-200691904D01*
X110261904Y-200787142D01*
X110214285Y-200834761D01*
X110119047Y-200882380D01*
X109833333Y-200882380D01*
X109738095Y-200834761D01*
X109690476Y-200787142D01*
X110642857Y-199882380D02*
X111309523Y-199882380D01*
X110880952Y-200882380D01*
G04 #@! TO.C,R38*
X103107142Y-198022380D02*
X102773809Y-197546190D01*
X102535714Y-198022380D02*
X102535714Y-197022380D01*
X102916666Y-197022380D01*
X103011904Y-197070000D01*
X103059523Y-197117619D01*
X103107142Y-197212857D01*
X103107142Y-197355714D01*
X103059523Y-197450952D01*
X103011904Y-197498571D01*
X102916666Y-197546190D01*
X102535714Y-197546190D01*
X103440476Y-197022380D02*
X104059523Y-197022380D01*
X103726190Y-197403333D01*
X103869047Y-197403333D01*
X103964285Y-197450952D01*
X104011904Y-197498571D01*
X104059523Y-197593809D01*
X104059523Y-197831904D01*
X104011904Y-197927142D01*
X103964285Y-197974761D01*
X103869047Y-198022380D01*
X103583333Y-198022380D01*
X103488095Y-197974761D01*
X103440476Y-197927142D01*
X104630952Y-197450952D02*
X104535714Y-197403333D01*
X104488095Y-197355714D01*
X104440476Y-197260476D01*
X104440476Y-197212857D01*
X104488095Y-197117619D01*
X104535714Y-197070000D01*
X104630952Y-197022380D01*
X104821428Y-197022380D01*
X104916666Y-197070000D01*
X104964285Y-197117619D01*
X105011904Y-197212857D01*
X105011904Y-197260476D01*
X104964285Y-197355714D01*
X104916666Y-197403333D01*
X104821428Y-197450952D01*
X104630952Y-197450952D01*
X104535714Y-197498571D01*
X104488095Y-197546190D01*
X104440476Y-197641428D01*
X104440476Y-197831904D01*
X104488095Y-197927142D01*
X104535714Y-197974761D01*
X104630952Y-198022380D01*
X104821428Y-198022380D01*
X104916666Y-197974761D01*
X104964285Y-197927142D01*
X105011904Y-197831904D01*
X105011904Y-197641428D01*
X104964285Y-197546190D01*
X104916666Y-197498571D01*
X104821428Y-197450952D01*
G04 #@! TO.C,R39*
X94607142Y-153202380D02*
X94273809Y-152726190D01*
X94035714Y-153202380D02*
X94035714Y-152202380D01*
X94416666Y-152202380D01*
X94511904Y-152250000D01*
X94559523Y-152297619D01*
X94607142Y-152392857D01*
X94607142Y-152535714D01*
X94559523Y-152630952D01*
X94511904Y-152678571D01*
X94416666Y-152726190D01*
X94035714Y-152726190D01*
X94940476Y-152202380D02*
X95559523Y-152202380D01*
X95226190Y-152583333D01*
X95369047Y-152583333D01*
X95464285Y-152630952D01*
X95511904Y-152678571D01*
X95559523Y-152773809D01*
X95559523Y-153011904D01*
X95511904Y-153107142D01*
X95464285Y-153154761D01*
X95369047Y-153202380D01*
X95083333Y-153202380D01*
X94988095Y-153154761D01*
X94940476Y-153107142D01*
X96035714Y-153202380D02*
X96226190Y-153202380D01*
X96321428Y-153154761D01*
X96369047Y-153107142D01*
X96464285Y-152964285D01*
X96511904Y-152773809D01*
X96511904Y-152392857D01*
X96464285Y-152297619D01*
X96416666Y-152250000D01*
X96321428Y-152202380D01*
X96130952Y-152202380D01*
X96035714Y-152250000D01*
X95988095Y-152297619D01*
X95940476Y-152392857D01*
X95940476Y-152630952D01*
X95988095Y-152726190D01*
X96035714Y-152773809D01*
X96130952Y-152821428D01*
X96321428Y-152821428D01*
X96416666Y-152773809D01*
X96464285Y-152726190D01*
X96511904Y-152630952D01*
G04 #@! TO.C,R40*
X107357142Y-152752380D02*
X107023809Y-152276190D01*
X106785714Y-152752380D02*
X106785714Y-151752380D01*
X107166666Y-151752380D01*
X107261904Y-151800000D01*
X107309523Y-151847619D01*
X107357142Y-151942857D01*
X107357142Y-152085714D01*
X107309523Y-152180952D01*
X107261904Y-152228571D01*
X107166666Y-152276190D01*
X106785714Y-152276190D01*
X108214285Y-152085714D02*
X108214285Y-152752380D01*
X107976190Y-151704761D02*
X107738095Y-152419047D01*
X108357142Y-152419047D01*
X108928571Y-151752380D02*
X109023809Y-151752380D01*
X109119047Y-151800000D01*
X109166666Y-151847619D01*
X109214285Y-151942857D01*
X109261904Y-152133333D01*
X109261904Y-152371428D01*
X109214285Y-152561904D01*
X109166666Y-152657142D01*
X109119047Y-152704761D01*
X109023809Y-152752380D01*
X108928571Y-152752380D01*
X108833333Y-152704761D01*
X108785714Y-152657142D01*
X108738095Y-152561904D01*
X108690476Y-152371428D01*
X108690476Y-152133333D01*
X108738095Y-151942857D01*
X108785714Y-151847619D01*
X108833333Y-151800000D01*
X108928571Y-151752380D01*
G04 #@! TO.C,U1*
X97077885Y-175228073D02*
X97077885Y-176037597D01*
X97125504Y-176132835D01*
X97173123Y-176180454D01*
X97268361Y-176228073D01*
X97458837Y-176228073D01*
X97554075Y-176180454D01*
X97601694Y-176132835D01*
X97649313Y-176037597D01*
X97649313Y-175228073D01*
X98649313Y-176228073D02*
X98077885Y-176228073D01*
X98363599Y-176228073D02*
X98363599Y-175228073D01*
X98268361Y-175370931D01*
X98173123Y-175466169D01*
X98077885Y-175513788D01*
G04 #@! TO.C,U2*
X91488095Y-162702380D02*
X91488095Y-163511904D01*
X91535714Y-163607142D01*
X91583333Y-163654761D01*
X91678571Y-163702380D01*
X91869047Y-163702380D01*
X91964285Y-163654761D01*
X92011904Y-163607142D01*
X92059523Y-163511904D01*
X92059523Y-162702380D01*
X92488095Y-162797619D02*
X92535714Y-162750000D01*
X92630952Y-162702380D01*
X92869047Y-162702380D01*
X92964285Y-162750000D01*
X93011904Y-162797619D01*
X93059523Y-162892857D01*
X93059523Y-162988095D01*
X93011904Y-163130952D01*
X92440476Y-163702380D01*
X93059523Y-163702380D01*
G04 #@! TO.C,U4*
X104238095Y-162352380D02*
X104238095Y-163161904D01*
X104285714Y-163257142D01*
X104333333Y-163304761D01*
X104428571Y-163352380D01*
X104619047Y-163352380D01*
X104714285Y-163304761D01*
X104761904Y-163257142D01*
X104809523Y-163161904D01*
X104809523Y-162352380D01*
X105714285Y-162685714D02*
X105714285Y-163352380D01*
X105476190Y-162304761D02*
X105238095Y-163019047D01*
X105857142Y-163019047D01*
G04 #@! TO.C,U6*
X120488095Y-111202380D02*
X120488095Y-112011904D01*
X120535714Y-112107142D01*
X120583333Y-112154761D01*
X120678571Y-112202380D01*
X120869047Y-112202380D01*
X120964285Y-112154761D01*
X121011904Y-112107142D01*
X121059523Y-112011904D01*
X121059523Y-111202380D01*
X121964285Y-111202380D02*
X121773809Y-111202380D01*
X121678571Y-111250000D01*
X121630952Y-111297619D01*
X121535714Y-111440476D01*
X121488095Y-111630952D01*
X121488095Y-112011904D01*
X121535714Y-112107142D01*
X121583333Y-112154761D01*
X121678571Y-112202380D01*
X121869047Y-112202380D01*
X121964285Y-112154761D01*
X122011904Y-112107142D01*
X122059523Y-112011904D01*
X122059523Y-111773809D01*
X122011904Y-111678571D01*
X121964285Y-111630952D01*
X121869047Y-111583333D01*
X121678571Y-111583333D01*
X121583333Y-111630952D01*
X121535714Y-111678571D01*
X121488095Y-111773809D01*
G04 #@! TO.C,L1*
X87642170Y-175992359D02*
X87642170Y-176468550D01*
X86642170Y-176468550D01*
X87642170Y-175135216D02*
X87642170Y-175706645D01*
X87642170Y-175420931D02*
X86642170Y-175420931D01*
X86785028Y-175516169D01*
X86880266Y-175611407D01*
X86927885Y-175706645D01*
G04 #@! TO.C,Y1*
X123930683Y-189007102D02*
X123930683Y-189483292D01*
X123597350Y-188483292D02*
X123930683Y-189007102D01*
X124264016Y-188483292D01*
X125121159Y-189483292D02*
X124549731Y-189483292D01*
X124835445Y-189483292D02*
X124835445Y-188483292D01*
X124740207Y-188626150D01*
X124644969Y-188721388D01*
X124549731Y-188769007D01*
G04 #@! TO.C,C24*
X152719016Y-202258054D02*
X152671397Y-202305673D01*
X152528540Y-202353292D01*
X152433302Y-202353292D01*
X152290445Y-202305673D01*
X152195207Y-202210435D01*
X152147588Y-202115197D01*
X152099969Y-201924721D01*
X152099969Y-201781864D01*
X152147588Y-201591388D01*
X152195207Y-201496150D01*
X152290445Y-201400912D01*
X152433302Y-201353292D01*
X152528540Y-201353292D01*
X152671397Y-201400912D01*
X152719016Y-201448531D01*
X153099969Y-201448531D02*
X153147588Y-201400912D01*
X153242826Y-201353292D01*
X153480921Y-201353292D01*
X153576159Y-201400912D01*
X153623778Y-201448531D01*
X153671397Y-201543769D01*
X153671397Y-201639007D01*
X153623778Y-201781864D01*
X153052350Y-202353292D01*
X153671397Y-202353292D01*
X154528540Y-201686626D02*
X154528540Y-202353292D01*
X154290445Y-201305673D02*
X154052350Y-202019959D01*
X154671397Y-202019959D01*
G04 #@! TO.C,C25*
X157789016Y-182113769D02*
X157836635Y-182161388D01*
X157884254Y-182304245D01*
X157884254Y-182399483D01*
X157836635Y-182542340D01*
X157741397Y-182637578D01*
X157646159Y-182685197D01*
X157455683Y-182732816D01*
X157312826Y-182732816D01*
X157122350Y-182685197D01*
X157027112Y-182637578D01*
X156931874Y-182542340D01*
X156884254Y-182399483D01*
X156884254Y-182304245D01*
X156931874Y-182161388D01*
X156979493Y-182113769D01*
X156979493Y-181732816D02*
X156931874Y-181685197D01*
X156884254Y-181589959D01*
X156884254Y-181351864D01*
X156931874Y-181256626D01*
X156979493Y-181209007D01*
X157074731Y-181161388D01*
X157169969Y-181161388D01*
X157312826Y-181209007D01*
X157884254Y-181780435D01*
X157884254Y-181161388D01*
X156884254Y-180256626D02*
X156884254Y-180732816D01*
X157360445Y-180780435D01*
X157312826Y-180732816D01*
X157265207Y-180637578D01*
X157265207Y-180399483D01*
X157312826Y-180304245D01*
X157360445Y-180256626D01*
X157455683Y-180209007D01*
X157693778Y-180209007D01*
X157789016Y-180256626D01*
X157836635Y-180304245D01*
X157884254Y-180399483D01*
X157884254Y-180637578D01*
X157836635Y-180732816D01*
X157789016Y-180780435D01*
G04 #@! TO.C,C26*
X130969016Y-180363769D02*
X131016635Y-180411388D01*
X131064254Y-180554245D01*
X131064254Y-180649483D01*
X131016635Y-180792340D01*
X130921397Y-180887578D01*
X130826159Y-180935197D01*
X130635683Y-180982816D01*
X130492826Y-180982816D01*
X130302350Y-180935197D01*
X130207112Y-180887578D01*
X130111874Y-180792340D01*
X130064254Y-180649483D01*
X130064254Y-180554245D01*
X130111874Y-180411388D01*
X130159493Y-180363769D01*
X130159493Y-179982816D02*
X130111874Y-179935197D01*
X130064254Y-179839959D01*
X130064254Y-179601864D01*
X130111874Y-179506626D01*
X130159493Y-179459007D01*
X130254731Y-179411388D01*
X130349969Y-179411388D01*
X130492826Y-179459007D01*
X131064254Y-180030435D01*
X131064254Y-179411388D01*
X130064254Y-178554245D02*
X130064254Y-178744721D01*
X130111874Y-178839959D01*
X130159493Y-178887578D01*
X130302350Y-178982816D01*
X130492826Y-179030435D01*
X130873778Y-179030435D01*
X130969016Y-178982816D01*
X131016635Y-178935197D01*
X131064254Y-178839959D01*
X131064254Y-178649483D01*
X131016635Y-178554245D01*
X130969016Y-178506626D01*
X130873778Y-178459007D01*
X130635683Y-178459007D01*
X130540445Y-178506626D01*
X130492826Y-178554245D01*
X130445207Y-178649483D01*
X130445207Y-178839959D01*
X130492826Y-178935197D01*
X130540445Y-178982816D01*
X130635683Y-179030435D01*
G04 #@! TO.C,C27*
X130969016Y-183863769D02*
X131016635Y-183911388D01*
X131064254Y-184054245D01*
X131064254Y-184149483D01*
X131016635Y-184292340D01*
X130921397Y-184387578D01*
X130826159Y-184435197D01*
X130635683Y-184482816D01*
X130492826Y-184482816D01*
X130302350Y-184435197D01*
X130207112Y-184387578D01*
X130111874Y-184292340D01*
X130064254Y-184149483D01*
X130064254Y-184054245D01*
X130111874Y-183911388D01*
X130159493Y-183863769D01*
X130159493Y-183482816D02*
X130111874Y-183435197D01*
X130064254Y-183339959D01*
X130064254Y-183101864D01*
X130111874Y-183006626D01*
X130159493Y-182959007D01*
X130254731Y-182911388D01*
X130349969Y-182911388D01*
X130492826Y-182959007D01*
X131064254Y-183530435D01*
X131064254Y-182911388D01*
X130064254Y-182578054D02*
X130064254Y-181911388D01*
X131064254Y-182339959D01*
G04 #@! TO.C,U5*
X145349969Y-175923292D02*
X145349969Y-176732816D01*
X145397588Y-176828054D01*
X145445207Y-176875673D01*
X145540445Y-176923292D01*
X145730921Y-176923292D01*
X145826159Y-176875673D01*
X145873778Y-176828054D01*
X145921397Y-176732816D01*
X145921397Y-175923292D01*
X146873778Y-175923292D02*
X146397588Y-175923292D01*
X146349969Y-176399483D01*
X146397588Y-176351864D01*
X146492826Y-176304245D01*
X146730921Y-176304245D01*
X146826159Y-176351864D01*
X146873778Y-176399483D01*
X146921397Y-176494721D01*
X146921397Y-176732816D01*
X146873778Y-176828054D01*
X146826159Y-176875673D01*
X146730921Y-176923292D01*
X146492826Y-176923292D01*
X146397588Y-176875673D01*
X146349969Y-176828054D01*
G04 #@! TO.C,C28*
X129289016Y-193863769D02*
X129336635Y-193911388D01*
X129384254Y-194054245D01*
X129384254Y-194149483D01*
X129336635Y-194292340D01*
X129241397Y-194387578D01*
X129146159Y-194435197D01*
X128955683Y-194482816D01*
X128812826Y-194482816D01*
X128622350Y-194435197D01*
X128527112Y-194387578D01*
X128431874Y-194292340D01*
X128384254Y-194149483D01*
X128384254Y-194054245D01*
X128431874Y-193911388D01*
X128479493Y-193863769D01*
X128479493Y-193482816D02*
X128431874Y-193435197D01*
X128384254Y-193339959D01*
X128384254Y-193101864D01*
X128431874Y-193006626D01*
X128479493Y-192959007D01*
X128574731Y-192911388D01*
X128669969Y-192911388D01*
X128812826Y-192959007D01*
X129384254Y-193530435D01*
X129384254Y-192911388D01*
X128812826Y-192339959D02*
X128765207Y-192435197D01*
X128717588Y-192482816D01*
X128622350Y-192530435D01*
X128574731Y-192530435D01*
X128479493Y-192482816D01*
X128431874Y-192435197D01*
X128384254Y-192339959D01*
X128384254Y-192149483D01*
X128431874Y-192054245D01*
X128479493Y-192006626D01*
X128574731Y-191959007D01*
X128622350Y-191959007D01*
X128717588Y-192006626D01*
X128765207Y-192054245D01*
X128812826Y-192149483D01*
X128812826Y-192339959D01*
X128860445Y-192435197D01*
X128908064Y-192482816D01*
X129003302Y-192530435D01*
X129193778Y-192530435D01*
X129289016Y-192482816D01*
X129336635Y-192435197D01*
X129384254Y-192339959D01*
X129384254Y-192149483D01*
X129336635Y-192054245D01*
X129289016Y-192006626D01*
X129193778Y-191959007D01*
X129003302Y-191959007D01*
X128908064Y-192006626D01*
X128860445Y-192054245D01*
X128812826Y-192149483D01*
G04 #@! TO.C,U7*
X91738095Y-145802380D02*
X91738095Y-146611904D01*
X91785714Y-146707142D01*
X91833333Y-146754761D01*
X91928571Y-146802380D01*
X92119047Y-146802380D01*
X92214285Y-146754761D01*
X92261904Y-146707142D01*
X92309523Y-146611904D01*
X92309523Y-145802380D01*
X92690476Y-145802380D02*
X93357142Y-145802380D01*
X92928571Y-146802380D01*
G04 #@! TO.C,I2C1_SCL1*
X123309523Y-163952380D02*
X123309523Y-162952380D01*
X123738095Y-163047619D02*
X123785714Y-163000000D01*
X123880952Y-162952380D01*
X124119047Y-162952380D01*
X124214285Y-163000000D01*
X124261904Y-163047619D01*
X124309523Y-163142857D01*
X124309523Y-163238095D01*
X124261904Y-163380952D01*
X123690476Y-163952380D01*
X124309523Y-163952380D01*
X125309523Y-163857142D02*
X125261904Y-163904761D01*
X125119047Y-163952380D01*
X125023809Y-163952380D01*
X124880952Y-163904761D01*
X124785714Y-163809523D01*
X124738095Y-163714285D01*
X124690476Y-163523809D01*
X124690476Y-163380952D01*
X124738095Y-163190476D01*
X124785714Y-163095238D01*
X124880952Y-163000000D01*
X125023809Y-162952380D01*
X125119047Y-162952380D01*
X125261904Y-163000000D01*
X125309523Y-163047619D01*
X126261904Y-163952380D02*
X125690476Y-163952380D01*
X125976190Y-163952380D02*
X125976190Y-162952380D01*
X125880952Y-163095238D01*
X125785714Y-163190476D01*
X125690476Y-163238095D01*
X126452380Y-164047619D02*
X127214285Y-164047619D01*
X127404761Y-163904761D02*
X127547619Y-163952380D01*
X127785714Y-163952380D01*
X127880952Y-163904761D01*
X127928571Y-163857142D01*
X127976190Y-163761904D01*
X127976190Y-163666666D01*
X127928571Y-163571428D01*
X127880952Y-163523809D01*
X127785714Y-163476190D01*
X127595238Y-163428571D01*
X127500000Y-163380952D01*
X127452380Y-163333333D01*
X127404761Y-163238095D01*
X127404761Y-163142857D01*
X127452380Y-163047619D01*
X127500000Y-163000000D01*
X127595238Y-162952380D01*
X127833333Y-162952380D01*
X127976190Y-163000000D01*
X128976190Y-163857142D02*
X128928571Y-163904761D01*
X128785714Y-163952380D01*
X128690476Y-163952380D01*
X128547619Y-163904761D01*
X128452380Y-163809523D01*
X128404761Y-163714285D01*
X128357142Y-163523809D01*
X128357142Y-163380952D01*
X128404761Y-163190476D01*
X128452380Y-163095238D01*
X128547619Y-163000000D01*
X128690476Y-162952380D01*
X128785714Y-162952380D01*
X128928571Y-163000000D01*
X128976190Y-163047619D01*
X129880952Y-163952380D02*
X129404761Y-163952380D01*
X129404761Y-162952380D01*
X130738095Y-163952380D02*
X130166666Y-163952380D01*
X130452380Y-163952380D02*
X130452380Y-162952380D01*
X130357142Y-163095238D01*
X130261904Y-163190476D01*
X130166666Y-163238095D01*
G04 #@! TD*
M02*
