M48
;DRILL file {KiCad 5.0.2-bee76a0~70~ubuntu18.04.1} date Wed 24 Jul 2019 09:10:06 PM EDT
;FORMAT={-:-/ absolute / inch / decimal}
FMAT,2
INCH,TZ
T1C0.0256
T2C0.0315
T3C0.0394
T4C0.0400
T5C0.0598
T6C0.0630
%
G90
G05
T1
X7.625Y-4.275
X7.625Y-4.325
X7.625Y-4.375
X7.625Y-4.425
X7.625Y-4.475
X7.675Y-4.275
X7.675Y-4.325
X7.675Y-4.375
X7.675Y-4.425
X7.675Y-4.475
T2
X1.7Y-4.8
X1.7Y-4.9378
X1.7Y-4.4
X1.7Y-4.5378
X1.7Y-4.
X1.7Y-4.1378
X1.7Y-3.6
X1.7Y-3.7378
X2.1Y-4.8
X2.1Y-4.9378
T3
X7.575Y-4.7272
X7.575Y-4.8272
X7.575Y-4.9272
X7.8039Y-4.7272
X7.8039Y-4.8272
X7.8039Y-4.9272
T4
X8.8954Y-1.3606
X8.8954Y-1.4606
X8.8954Y-1.5606
X8.8954Y-1.6606
X8.8954Y-1.7606
X8.8954Y-1.8606
X8.8954Y-1.9606
X8.8954Y-2.0606
X8.8954Y-2.1606
X8.8954Y-2.2606
X8.8954Y-2.3606
X8.8954Y-2.4606
X8.8954Y-2.5606
X8.8954Y-2.6606
X8.8954Y-2.7606
X8.8954Y-2.8606
X8.8954Y-2.9606
X8.8954Y-3.0606
X8.8954Y-3.1606
X8.8954Y-3.2606
X8.8954Y-3.3606
X8.8954Y-3.4606
X9.0864Y-1.3606
X9.0864Y-1.4606
X9.0864Y-1.5606
X9.0864Y-1.6606
X9.0864Y-1.7606
X9.0864Y-1.8606
X9.0864Y-1.9606
X9.0864Y-2.0606
X9.0864Y-2.1606
X9.0864Y-2.2606
X9.0864Y-2.3606
X9.0864Y-2.4606
X9.0864Y-2.5606
X9.0864Y-2.6606
X9.0864Y-2.7606
X9.0864Y-2.8606
X9.0864Y-2.9606
X9.0864Y-3.0606
X9.0864Y-3.1606
X9.0864Y-3.2606
X9.0864Y-3.3606
X9.0864Y-3.4606
X2.2954Y-1.3606
X2.2954Y-1.4606
X2.2954Y-1.5606
X2.2954Y-1.6606
X2.2954Y-1.7606
X2.2954Y-1.8606
X2.2954Y-1.9606
X2.2954Y-2.0606
X2.2954Y-2.1606
X2.2954Y-2.2606
X2.2954Y-2.3606
X2.2954Y-2.4606
X2.2954Y-2.5606
X2.2954Y-2.6606
X2.2954Y-2.7606
X2.2954Y-2.8606
X2.2954Y-2.9606
X2.2954Y-3.0606
X2.2954Y-3.1606
X2.2954Y-3.2606
X2.2954Y-3.3606
X2.2954Y-3.4606
X2.4864Y-1.3606
X2.4864Y-1.4606
X2.4864Y-1.5606
X2.4864Y-1.6606
X2.4864Y-1.7606
X2.4864Y-1.8606
X2.4864Y-1.9606
X2.4864Y-2.0606
X2.4864Y-2.1606
X2.4864Y-2.2606
X2.4864Y-2.3606
X2.4864Y-2.4606
X2.4864Y-2.5606
X2.4864Y-2.6606
X2.4864Y-2.7606
X2.4864Y-2.8606
X2.4864Y-2.9606
X2.4864Y-3.0606
X2.4864Y-3.1606
X2.4864Y-3.2606
X2.4864Y-3.3606
X2.4864Y-3.4606
X6.6954Y-1.3606
X6.6954Y-1.4606
X6.6954Y-1.5606
X6.6954Y-1.6606
X6.6954Y-1.7606
X6.6954Y-1.8606
X6.6954Y-1.9606
X6.6954Y-2.0606
X6.6954Y-2.1606
X6.6954Y-2.2606
X6.6954Y-2.3606
X6.6954Y-2.4606
X6.6954Y-2.5606
X6.6954Y-2.6606
X6.6954Y-2.7606
X6.6954Y-2.8606
X6.6954Y-2.9606
X6.6954Y-3.0606
X6.6954Y-3.1606
X6.6954Y-3.2606
X6.6954Y-3.3606
X6.6954Y-3.4606
X6.8864Y-1.3606
X6.8864Y-1.4606
X6.8864Y-1.5606
X6.8864Y-1.6606
X6.8864Y-1.7606
X6.8864Y-1.8606
X6.8864Y-1.9606
X6.8864Y-2.0606
X6.8864Y-2.1606
X6.8864Y-2.2606
X6.8864Y-2.3606
X6.8864Y-2.4606
X6.8864Y-2.5606
X6.8864Y-2.6606
X6.8864Y-2.7606
X6.8864Y-2.8606
X6.8864Y-2.9606
X6.8864Y-3.0606
X6.8864Y-3.1606
X6.8864Y-3.2606
X6.8864Y-3.3606
X6.8864Y-3.4606
X7.7954Y-1.3606
X7.7954Y-1.4606
X7.7954Y-1.5606
X7.7954Y-1.6606
X7.7954Y-1.7606
X7.7954Y-1.8606
X7.7954Y-1.9606
X7.7954Y-2.0606
X7.7954Y-2.1606
X7.7954Y-2.2606
X7.7954Y-2.3606
X7.7954Y-2.4606
X7.7954Y-2.5606
X7.7954Y-2.6606
X7.7954Y-2.7606
X7.7954Y-2.8606
X7.7954Y-2.9606
X7.7954Y-3.0606
X7.7954Y-3.1606
X7.7954Y-3.2606
X7.7954Y-3.3606
X7.7954Y-3.4606
X7.9864Y-1.3606
X7.9864Y-1.4606
X7.9864Y-1.5606
X7.9864Y-1.6606
X7.9864Y-1.7606
X7.9864Y-1.8606
X7.9864Y-1.9606
X7.9864Y-2.0606
X7.9864Y-2.1606
X7.9864Y-2.2606
X7.9864Y-2.3606
X7.9864Y-2.4606
X7.9864Y-2.5606
X7.9864Y-2.6606
X7.9864Y-2.7606
X7.9864Y-2.8606
X7.9864Y-2.9606
X7.9864Y-3.0606
X7.9864Y-3.1606
X7.9864Y-3.2606
X7.9864Y-3.3606
X7.9864Y-3.4606
X9.9954Y-1.3606
X9.9954Y-1.4606
X9.9954Y-1.5606
X9.9954Y-1.6606
X9.9954Y-1.7606
X9.9954Y-1.8606
X9.9954Y-1.9606
X9.9954Y-2.0606
X9.9954Y-2.1606
X9.9954Y-2.2606
X9.9954Y-2.3606
X9.9954Y-2.4606
X9.9954Y-2.5606
X9.9954Y-2.6606
X9.9954Y-2.7606
X9.9954Y-2.8606
X9.9954Y-2.9606
X9.9954Y-3.0606
X9.9954Y-3.1606
X9.9954Y-3.2606
X9.9954Y-3.3606
X9.9954Y-3.4606
X10.1864Y-1.3606
X10.1864Y-1.4606
X10.1864Y-1.5606
X10.1864Y-1.6606
X10.1864Y-1.7606
X10.1864Y-1.8606
X10.1864Y-1.9606
X10.1864Y-2.0606
X10.1864Y-2.1606
X10.1864Y-2.2606
X10.1864Y-2.3606
X10.1864Y-2.4606
X10.1864Y-2.5606
X10.1864Y-2.6606
X10.1864Y-2.7606
X10.1864Y-2.8606
X10.1864Y-2.9606
X10.1864Y-3.0606
X10.1864Y-3.1606
X10.1864Y-3.2606
X10.1864Y-3.3606
X10.1864Y-3.4606
X3.3954Y-1.3606
X3.3954Y-1.4606
X3.3954Y-1.5606
X3.3954Y-1.6606
X3.3954Y-1.7606
X3.3954Y-1.8606
X3.3954Y-1.9606
X3.3954Y-2.0606
X3.3954Y-2.1606
X3.3954Y-2.2606
X3.3954Y-2.3606
X3.3954Y-2.4606
X3.3954Y-2.5606
X3.3954Y-2.6606
X3.3954Y-2.7606
X3.3954Y-2.8606
X3.3954Y-2.9606
X3.3954Y-3.0606
X3.3954Y-3.1606
X3.3954Y-3.2606
X3.3954Y-3.3606
X3.3954Y-3.4606
X3.5864Y-1.3606
X3.5864Y-1.4606
X3.5864Y-1.5606
X3.5864Y-1.6606
X3.5864Y-1.7606
X3.5864Y-1.8606
X3.5864Y-1.9606
X3.5864Y-2.0606
X3.5864Y-2.1606
X3.5864Y-2.2606
X3.5864Y-2.3606
X3.5864Y-2.4606
X3.5864Y-2.5606
X3.5864Y-2.6606
X3.5864Y-2.7606
X3.5864Y-2.8606
X3.5864Y-2.9606
X3.5864Y-3.0606
X3.5864Y-3.1606
X3.5864Y-3.2606
X3.5864Y-3.3606
X3.5864Y-3.4606
X5.5954Y-1.3606
X5.5954Y-1.4606
X5.5954Y-1.5606
X5.5954Y-1.6606
X5.5954Y-1.7606
X5.5954Y-1.8606
X5.5954Y-1.9606
X5.5954Y-2.0606
X5.5954Y-2.1606
X5.5954Y-2.2606
X5.5954Y-2.3606
X5.5954Y-2.4606
X5.5954Y-2.5606
X5.5954Y-2.6606
X5.5954Y-2.7606
X5.5954Y-2.8606
X5.5954Y-2.9606
X5.5954Y-3.0606
X5.5954Y-3.1606
X5.5954Y-3.2606
X5.5954Y-3.3606
X5.5954Y-3.4606
X5.7864Y-1.3606
X5.7864Y-1.4606
X5.7864Y-1.5606
X5.7864Y-1.6606
X5.7864Y-1.7606
X5.7864Y-1.8606
X5.7864Y-1.9606
X5.7864Y-2.0606
X5.7864Y-2.1606
X5.7864Y-2.2606
X5.7864Y-2.3606
X5.7864Y-2.4606
X5.7864Y-2.5606
X5.7864Y-2.6606
X5.7864Y-2.7606
X5.7864Y-2.8606
X5.7864Y-2.9606
X5.7864Y-3.0606
X5.7864Y-3.1606
X5.7864Y-3.2606
X5.7864Y-3.3606
X5.7864Y-3.4606
X4.4954Y-1.3606
X4.4954Y-1.4606
X4.4954Y-1.5606
X4.4954Y-1.6606
X4.4954Y-1.7606
X4.4954Y-1.8606
X4.4954Y-1.9606
X4.4954Y-2.0606
X4.4954Y-2.1606
X4.4954Y-2.2606
X4.4954Y-2.3606
X4.4954Y-2.4606
X4.4954Y-2.5606
X4.4954Y-2.6606
X4.4954Y-2.7606
X4.4954Y-2.8606
X4.4954Y-2.9606
X4.4954Y-3.0606
X4.4954Y-3.1606
X4.4954Y-3.2606
X4.4954Y-3.3606
X4.4954Y-3.4606
X4.6864Y-1.3606
X4.6864Y-1.4606
X4.6864Y-1.5606
X4.6864Y-1.6606
X4.6864Y-1.7606
X4.6864Y-1.8606
X4.6864Y-1.9606
X4.6864Y-2.0606
X4.6864Y-2.1606
X4.6864Y-2.2606
X4.6864Y-2.3606
X4.6864Y-2.4606
X4.6864Y-2.5606
X4.6864Y-2.6606
X4.6864Y-2.7606
X4.6864Y-2.8606
X4.6864Y-2.9606
X4.6864Y-3.0606
X4.6864Y-3.1606
X4.6864Y-3.2606
X4.6864Y-3.3606
X4.6864Y-3.4606
T5
X1.6Y-2.7
X1.6Y-2.9
X1.6Y-3.1
X1.6Y-3.3
X1.6Y-1.8
X1.6Y-2.
X1.6Y-2.2
X1.6Y-2.4
X1.6Y-0.9
X1.6Y-1.1
X1.6Y-1.3
X1.6Y-1.5
T6
X9.8016Y-4.8945
X9.7965Y-5.1539
X9.8094Y-4.735
X9.837Y-5.3878
X9.6776Y-5.3878
X9.6421Y-4.8945
X9.4827Y-4.8709
X9.65Y-4.735
X9.6173Y-5.1283
X9.5181Y-5.3642
T0
M30
