M48
;DRILL file {KiCad 5.0.2-bee76a0~70~ubuntu18.04.1} date Wed 02 Oct 2019 10:03:30 PM EDT
;FORMAT={-:-/ absolute / inch / decimal}
FMAT,2
INCH,TZ
T1C0.0157
T2C0.0256
T3C0.0394
T4C0.0400
T5C0.0598
%
G90
G05
T1
X3.374Y-6.0138
X3.3858Y-7.4114
X3.3858Y-7.4705
X3.3858Y-7.5295
X3.3858Y-7.5886
X3.435Y-7.4114
X3.435Y-7.4705
X3.435Y-7.5295
X3.435Y-7.5886
X3.4449Y-2.5787
X3.4449Y-6.6142
X3.4843Y-6.1811
X3.4843Y-6.2205
X3.4843Y-6.2598
X3.4843Y-6.3484
X3.4843Y-6.3878
X3.4843Y-6.4272
X3.5236Y-6.1811
X3.5236Y-6.2205
X3.5236Y-6.2598
X3.5236Y-6.3484
X3.5236Y-6.3878
X3.5236Y-6.4272
X3.5315Y-5.9154
X3.5433Y-6.0138
X3.5433Y-6.0827
X3.5728Y-6.1319
X3.5906Y-7.9055
X3.5925Y-6.3878
X3.6614Y-6.6142
X3.665Y-7.0876
X3.7303Y-6.1811
X3.7303Y-6.2205
X3.7303Y-6.2598
X3.7303Y-6.3484
X3.7303Y-6.3878
X3.7303Y-6.4272
X3.7402Y-2.5984
X3.7598Y-7.7559
X3.7598Y-7.8346
X3.7598Y-7.9134
X3.7697Y-6.1811
X3.7697Y-6.2205
X3.7697Y-6.2598
X3.7697Y-6.3484
X3.7697Y-6.3878
X3.7736Y-6.4272
X3.7992Y-4.5866
X3.7992Y-4.7244
X3.8027Y-6.7825
X3.8027Y-6.8219
X3.8091Y-6.624
X3.8287Y-6.6634
X3.8421Y-6.7825
X3.8421Y-6.8219
X3.8504Y-6.0878
X3.8583Y-7.8642
X3.8583Y-7.9528
X3.8878Y-6.7717
X3.8976Y-2.9724
X3.9075Y-4.4685
X3.9075Y-4.6161
X3.9075Y-4.7638
X3.9075Y-5.2362
X3.9567Y-4.9409
X3.9567Y-6.624
X3.9764Y-2.9921
X3.9862Y-4.872
X3.9862Y-5.0197
X3.9862Y-5.3346
X3.9862Y-6.1713
X3.9862Y-6.2106
X3.9862Y-6.25
X3.9862Y-6.4173
X3.9961Y-2.5984
X4.0064Y-7.7366
X4.0256Y-6.1713
X4.0256Y-6.2106
X4.0256Y-6.25
X4.0472Y-5.9961
X4.0472Y-6.0669
X4.0843Y-7.7362
X4.0846Y-6.122
X4.0905Y-6.3968
X4.1142Y-7.2835
X4.1535Y-2.9724
X4.1732Y-6.6181
X4.1831Y-7.7461
X4.2126Y-7.9232
X4.2224Y-7.7461
X4.2323Y-2.9921
X4.2323Y-6.1713
X4.2323Y-6.2106
X4.2323Y-6.25
X4.2323Y-6.3386
X4.2323Y-6.378
X4.2323Y-6.4173
X4.2717Y-6.1713
X4.2717Y-6.2106
X4.2717Y-6.25
X4.2717Y-6.3386
X4.2717Y-6.378
X4.2756Y-6.4173
X4.3216Y-5.6075
X4.3435Y-6.6181
X4.3602Y-6.7815
X4.3602Y-6.8602
X4.3608Y-5.6103
X4.3701Y-6.8209
X4.3701Y-6.9193
X4.4094Y-6.998
X4.4488Y-4.439
X4.4488Y-6.9685
X4.5374Y-7.3524
X4.5669Y-3.3661
X4.5965Y-4.6161
X4.6555Y-7.0374
X4.6654Y-6.6043
X4.6752Y-5.4724
X4.7047Y-3.2776
X4.7146Y-7.0374
X4.7343Y-4.5079
X4.7441Y-3.248
X4.7441Y-4.7539
X4.7638Y-4.5571
X4.7736Y-4.4783
X4.7835Y-3.2185
X4.7933Y-7.185
X4.7933Y-7.4803
X4.813Y-4.5177
X4.8327Y-7.185
X4.8327Y-7.4803
X4.8425Y-2.5984
X4.872Y-7.185
X4.872Y-7.4803
X4.8917Y-4.9213
X4.9114Y-7.185
X4.9114Y-7.4803
X4.9213Y-3.1693
X4.9508Y-7.185
X4.9508Y-7.4803
X4.9606Y-6.2205
X4.9803Y-4.626
X4.9803Y-4.7441
X4.9803Y-4.872
X4.9803Y-5.3346
X5.Y-2.9724
X5.0394Y-5.0886
X5.0591Y-2.9921
X5.0831Y-7.5678
X5.0831Y-7.6367
X5.0886Y-4.4685
X5.0886Y-4.6161
X5.0886Y-4.7736
X5.0886Y-5.2264
X5.0984Y-2.5984
X5.0984Y-4.9508
X5.1772Y-3.1496
X5.1816Y-7.0461
X5.1816Y-7.115
X5.1816Y-7.1741
X5.1816Y-7.2528
X5.1816Y-7.4201
X5.1816Y-7.489
X5.1816Y-7.5678
X5.1816Y-7.6367
X5.2559Y-2.9724
X5.2603Y-6.6918
X5.2603Y-6.7705
X5.2854Y-6.2106
X5.3095Y-6.9181
X5.315Y-2.9921
X5.315Y-6.3484
X5.3981Y-6.8788
X5.4429Y-3.248
X5.4724Y-3.189
X5.4867Y-7.8433
X5.5118Y-3.1299
X5.5457Y-7.8433
X5.5512Y-7.5787
X5.5568Y-7.4382
X5.5733Y-7.5462
X5.596Y-7.4242
X5.5963Y-7.4636
X5.6304Y-7.5436
X5.6309Y-6.6499
X5.6328Y-7.4103
X5.6693Y-7.4606
X5.6693Y-7.7953
X5.6695Y-7.5393
X5.7283Y-7.5098
X5.7536Y-7.8652
X5.7677Y-7.5
X5.8366Y-7.0768
X5.8465Y-4.4094
X5.8465Y-7.5
X5.8563Y-4.0551
X5.8863Y-7.5103
X5.9055Y-7.1161
X5.9055Y-7.5591
X5.9252Y-7.4114
X5.9449Y-2.5984
X5.9449Y-7.372
X5.9744Y-7.3327
X5.9843Y-6.7815
X5.9985Y-7.8433
X6.0039Y-4.5768
X6.0039Y-4.7244
X6.0039Y-4.872
X6.0039Y-5.3346
X6.0138Y-6.8504
X6.0531Y-5.0886
X6.0674Y-7.8433
X6.0802Y-7.9341
X6.0827Y-5.4724
X6.0925Y-6.5059
X6.1024Y-2.9724
X6.1024Y-4.4685
X6.1024Y-4.6161
X6.1024Y-4.7638
X6.1024Y-5.2165
X6.1122Y-4.9508
X6.1614Y-2.9921
X6.1614Y-5.1969
X6.2003Y-6.3381
X6.2008Y-2.5984
X6.2402Y-7.9823
X6.2795Y-3.0709
X6.3135Y-7.1741
X6.3189Y-5.0492
X6.3474Y-7.6538
X6.3583Y-2.9724
X6.378Y-6.5256
X6.3824Y-6.9674
X6.3824Y-7.0461
X6.4173Y-2.9921
X6.5157Y-5.8661
X6.6339Y-2.9921
X6.6535Y-7.5591
X6.7126Y-6.8701
X6.7717Y-4.685
X6.7913Y-3.1102
X6.7913Y-7.815
X6.8504Y-4.7244
T2
X6.0894Y-6.752
X6.0894Y-6.802
X6.1394Y-6.752
X6.1394Y-6.802
X6.1894Y-6.752
X6.1894Y-6.802
X6.2394Y-6.752
X6.2394Y-6.802
X6.2894Y-6.752
X6.2894Y-6.802
T3
X6.5945Y-7.672
X6.5945Y-7.772
X6.5945Y-7.872
X4.9868Y-5.8807
X4.9868Y-5.9807
X4.9868Y-6.0807
T4
X6.4006Y-3.3594
X6.4006Y-3.4594
X6.4006Y-3.5594
X6.4006Y-3.6594
X6.4006Y-3.7594
X6.4006Y-3.8594
X6.4006Y-3.9594
X6.4006Y-4.0594
X6.4006Y-4.1594
X6.4006Y-4.2594
X6.4006Y-4.3594
X6.4006Y-4.4594
X6.4006Y-4.5594
X6.4006Y-4.6594
X6.4006Y-4.7594
X6.4006Y-4.8594
X6.4006Y-4.9594
X6.4006Y-5.0594
X6.4006Y-5.1594
X6.4006Y-5.2594
X6.4006Y-5.3594
X6.4006Y-5.4594
X6.5916Y-3.3594
X6.5916Y-3.4594
X6.5916Y-3.5594
X6.5916Y-3.6594
X6.5916Y-3.7594
X6.5916Y-3.8594
X6.5916Y-3.9594
X6.5916Y-4.0594
X6.5916Y-4.1594
X6.5916Y-4.2594
X6.5916Y-4.3594
X6.5916Y-4.4594
X6.5916Y-4.5594
X6.5916Y-4.6594
X6.5916Y-4.7594
X6.5916Y-4.8594
X6.5916Y-4.9594
X6.5916Y-5.0594
X6.5916Y-5.1594
X6.5916Y-5.2594
X6.5916Y-5.3594
X6.5916Y-5.4594
X4.1958Y-3.3594
X4.1958Y-3.4594
X4.1958Y-3.5594
X4.1958Y-3.6594
X4.1958Y-3.7594
X4.1958Y-3.8594
X4.1958Y-3.9594
X4.1958Y-4.0594
X4.1958Y-4.1594
X4.1958Y-4.2594
X4.1958Y-4.3594
X4.1958Y-4.4594
X4.1958Y-4.5594
X4.1958Y-4.6594
X4.1958Y-4.7594
X4.1958Y-4.8594
X4.1958Y-4.9594
X4.1958Y-5.0594
X4.1958Y-5.1594
X4.1958Y-5.2594
X4.1958Y-5.3594
X4.1958Y-5.4594
X4.3868Y-3.3594
X4.3868Y-3.4594
X4.3868Y-3.5594
X4.3868Y-3.6594
X4.3868Y-3.7594
X4.3868Y-3.8594
X4.3868Y-3.9594
X4.3868Y-4.0594
X4.3868Y-4.1594
X4.3868Y-4.2594
X4.3868Y-4.3594
X4.3868Y-4.4594
X4.3868Y-4.5594
X4.3868Y-4.6594
X4.3868Y-4.7594
X4.3868Y-4.8594
X4.3868Y-4.9594
X4.3868Y-5.0594
X4.3868Y-5.1594
X4.3868Y-5.2594
X4.3868Y-5.3594
X4.3868Y-5.4594
X5.2982Y-3.3606
X5.2982Y-3.4606
X5.2982Y-3.5606
X5.2982Y-3.6606
X5.2982Y-3.7606
X5.2982Y-3.8606
X5.2982Y-3.9606
X5.2982Y-4.0606
X5.2982Y-4.1606
X5.2982Y-4.2606
X5.2982Y-4.3606
X5.2982Y-4.4606
X5.2982Y-4.5606
X5.2982Y-4.6606
X5.2982Y-4.7606
X5.2982Y-4.8606
X5.2982Y-4.9606
X5.2982Y-5.0606
X5.2982Y-5.1606
X5.2982Y-5.2606
X5.2982Y-5.3606
X5.2982Y-5.4606
X5.4892Y-3.3606
X5.4892Y-3.4606
X5.4892Y-3.5606
X5.4892Y-3.6606
X5.4892Y-3.7606
X5.4892Y-3.8606
X5.4892Y-3.9606
X5.4892Y-4.0606
X5.4892Y-4.1606
X5.4892Y-4.2606
X5.4892Y-4.3606
X5.4892Y-4.4606
X5.4892Y-4.5606
X5.4892Y-4.6606
X5.4892Y-4.7606
X5.4892Y-4.8606
X5.4892Y-4.9606
X5.4892Y-5.0606
X5.4892Y-5.1606
X5.4892Y-5.2606
X5.4892Y-5.3606
X5.4892Y-5.4606
T5
X3.5Y-5.
X3.5Y-5.2
X3.5Y-5.4
X3.5Y-5.6
X3.5039Y-3.1992
X3.5039Y-3.3992
X3.5039Y-3.5992
X3.5039Y-3.7992
X3.5Y-4.1047
X3.5Y-4.3047
X3.5Y-4.5047
X3.5Y-4.7047
T0
M30
