G04 #@! TF.GenerationSoftware,KiCad,Pcbnew,5.0.2-bee76a0~70~ubuntu18.04.1*
G04 #@! TF.CreationDate,2019-09-08T18:43:56-04:00*
G04 #@! TF.ProjectId,Mother Board,4d6f7468-6572-4204-926f-6172642e6b69,rev?*
G04 #@! TF.SameCoordinates,Original*
G04 #@! TF.FileFunction,Copper,L4,Bot*
G04 #@! TF.FilePolarity,Positive*
%FSLAX46Y46*%
G04 Gerber Fmt 4.6, Leading zero omitted, Abs format (unit mm)*
G04 Created by KiCad (PCBNEW 5.0.2-bee76a0~70~ubuntu18.04.1) date Sun 08 Sep 2019 06:43:56 PM EDT*
%MOMM*%
%LPD*%
G01*
G04 APERTURE LIST*
G04 #@! TA.AperFunction,ComponentPad*
%ADD10O,1.000000X1.000000*%
G04 #@! TD*
G04 #@! TA.AperFunction,ComponentPad*
%ADD11R,1.000000X1.000000*%
G04 #@! TD*
G04 #@! TA.AperFunction,ComponentPad*
%ADD12O,1.700000X1.700000*%
G04 #@! TD*
G04 #@! TA.AperFunction,ComponentPad*
%ADD13R,1.700000X1.700000*%
G04 #@! TD*
G04 #@! TA.AperFunction,ComponentPad*
%ADD14C,1.700000*%
G04 #@! TD*
G04 #@! TA.AperFunction,ComponentPad*
%ADD15C,3.000000*%
G04 #@! TD*
G04 #@! TA.AperFunction,ComponentPad*
%ADD16R,3.000000X3.000000*%
G04 #@! TD*
G04 #@! TA.AperFunction,ComponentPad*
%ADD17C,2.800000*%
G04 #@! TD*
G04 #@! TA.AperFunction,ViaPad*
%ADD18C,0.800000*%
G04 #@! TD*
G04 #@! TA.AperFunction,Conductor*
%ADD19C,0.250000*%
G04 #@! TD*
G04 APERTURE END LIST*
D10*
G04 #@! TO.P,J3,10*
G04 #@! TO.N,NRST*
X154670000Y-172770000D03*
G04 #@! TO.P,J3,9*
G04 #@! TO.N,GND*
X154670000Y-171500000D03*
G04 #@! TO.P,J3,8*
G04 #@! TO.N,Net-(J3-Pad8)*
X155940000Y-172770000D03*
G04 #@! TO.P,J3,7*
G04 #@! TO.N,Net-(J3-Pad7)*
X155940000Y-171500000D03*
G04 #@! TO.P,J3,6*
G04 #@! TO.N,SWO*
X157210000Y-172770000D03*
G04 #@! TO.P,J3,5*
G04 #@! TO.N,GND*
X157210000Y-171500000D03*
G04 #@! TO.P,J3,4*
G04 #@! TO.N,SWCLK*
X158480000Y-172770000D03*
G04 #@! TO.P,J3,3*
G04 #@! TO.N,GND*
X158480000Y-171500000D03*
G04 #@! TO.P,J3,2*
G04 #@! TO.N,SWDIO*
X159750000Y-172770000D03*
D11*
G04 #@! TO.P,J3,1*
G04 #@! TO.N,+3V3*
X159750000Y-171500000D03*
G04 #@! TD*
D12*
G04 #@! TO.P,J5,3*
G04 #@! TO.N,+3V3*
X181915000Y-199950001D03*
G04 #@! TO.P,J5,2*
G04 #@! TO.N,Net-(J5-Pad2)*
X181915000Y-197410001D03*
D13*
G04 #@! TO.P,J5,1*
G04 #@! TO.N,GND*
X181915000Y-194870001D03*
G04 #@! TD*
D12*
G04 #@! TO.P,J6,3*
G04 #@! TO.N,+3V3*
X174980001Y-199950001D03*
G04 #@! TO.P,J6,2*
G04 #@! TO.N,Net-(J6-Pad2)*
X174980001Y-197410001D03*
D13*
G04 #@! TO.P,J6,1*
G04 #@! TO.N,GND*
X174980001Y-194870001D03*
G04 #@! TD*
D14*
G04 #@! TO.P,CARD0,44*
G04 #@! TO.N,GND*
X167425700Y-138670000D03*
G04 #@! TO.P,CARD0,43*
X167425700Y-136130000D03*
G04 #@! TO.P,CARD0,42*
G04 #@! TO.N,CARD0_SENSE_NEG*
X167425700Y-133590000D03*
G04 #@! TO.P,CARD0,41*
G04 #@! TO.N,CARD0_GPIO1*
X167425700Y-131050000D03*
G04 #@! TO.P,CARD0,40*
G04 #@! TO.N,CARD0_GPIO0*
X167425700Y-128510000D03*
G04 #@! TO.P,CARD0,39*
G04 #@! TO.N,CARD0_TIM9_CH1*
X167425700Y-125970000D03*
G04 #@! TO.P,CARD0,38*
G04 #@! TO.N,CARD0_TIM2_CH1*
X167425700Y-123430000D03*
G04 #@! TO.P,CARD0,37*
G04 #@! TO.N,CARD0_TIM3_CH1*
X167425700Y-120890000D03*
G04 #@! TO.P,CARD0,36*
G04 #@! TO.N,CARD0_TIM1_CH1N*
X167425700Y-118350000D03*
G04 #@! TO.P,CARD0,35*
G04 #@! TO.N,CARD0_TIM1_CH1*
X167425700Y-115810000D03*
G04 #@! TO.P,CARD0,34*
G04 #@! TO.N,CARD0_CS*
X167425700Y-113270000D03*
G04 #@! TO.P,CARD0,22*
G04 #@! TO.N,GND*
X162574300Y-138670000D03*
G04 #@! TO.P,CARD0,21*
X162574300Y-136130000D03*
G04 #@! TO.P,CARD0,20*
G04 #@! TO.N,/CARD0_SENSE_POS*
X162574300Y-133590000D03*
G04 #@! TO.P,CARD0,19*
G04 #@! TO.N,USART1_RTS*
X162574300Y-131050000D03*
G04 #@! TO.P,CARD0,18*
G04 #@! TO.N,USART1_CTS*
X162574300Y-128510000D03*
G04 #@! TO.P,CARD0,17*
G04 #@! TO.N,USART1_RX*
X162574300Y-125970000D03*
G04 #@! TO.P,CARD0,16*
G04 #@! TO.N,USART1_TX*
X162574300Y-123430000D03*
G04 #@! TO.P,CARD0,15*
G04 #@! TO.N,CARD0_STATUS*
X162574300Y-120890000D03*
G04 #@! TO.P,CARD0,14*
G04 #@! TO.N,CARD0_ENABLE*
X162574300Y-118350000D03*
G04 #@! TO.P,CARD0,13*
G04 #@! TO.N,/CARD0_ADD2*
X162574300Y-115810000D03*
G04 #@! TO.P,CARD0,12*
G04 #@! TO.N,/CARD0_ADD1*
X162574300Y-113270000D03*
G04 #@! TO.P,CARD0,1*
G04 #@! TO.N,+24V*
X162574300Y-85330000D03*
G04 #@! TO.P,CARD0,2*
X162574300Y-87870000D03*
G04 #@! TO.P,CARD0,3*
G04 #@! TO.N,+5V*
X162574300Y-90410000D03*
G04 #@! TO.P,CARD0,4*
X162574300Y-92950000D03*
G04 #@! TO.P,CARD0,5*
G04 #@! TO.N,+3V3*
X162574300Y-95490000D03*
G04 #@! TO.P,CARD0,6*
X162574300Y-98030000D03*
G04 #@! TO.P,CARD0,7*
G04 #@! TO.N,GND*
X162574300Y-100570000D03*
G04 #@! TO.P,CARD0,8*
X162574300Y-103110000D03*
G04 #@! TO.P,CARD0,9*
G04 #@! TO.N,I2C1_SDA*
X162574300Y-105650000D03*
G04 #@! TO.P,CARD0,10*
G04 #@! TO.N,I2C1_SCL*
X162574300Y-108190000D03*
G04 #@! TO.P,CARD0,23*
G04 #@! TO.N,+24V*
X167425700Y-85330000D03*
G04 #@! TO.P,CARD0,24*
X167425700Y-87870000D03*
G04 #@! TO.P,CARD0,25*
G04 #@! TO.N,+5V*
X167425700Y-90410000D03*
G04 #@! TO.P,CARD0,26*
X167425700Y-92950000D03*
G04 #@! TO.P,CARD0,27*
G04 #@! TO.N,+3V3*
X167425700Y-95490000D03*
G04 #@! TO.P,CARD0,28*
X167425700Y-98030000D03*
G04 #@! TO.P,CARD0,29*
G04 #@! TO.N,GND*
X167425700Y-100570000D03*
G04 #@! TO.P,CARD0,30*
X167425700Y-103110000D03*
G04 #@! TO.P,CARD0,31*
G04 #@! TO.N,SPI3_SCK*
X167425700Y-105650000D03*
G04 #@! TO.P,CARD0,32*
G04 #@! TO.N,SPI3_MISO*
X167425700Y-108190000D03*
G04 #@! TO.P,CARD0,11*
G04 #@! TO.N,/CARD0_ADD0*
X162574300Y-110730000D03*
G04 #@! TO.P,CARD0,33*
G04 #@! TO.N,SPI3_MOSI*
X167425700Y-110730000D03*
G04 #@! TD*
G04 #@! TO.P,CARD1,44*
G04 #@! TO.N,GND*
X139425700Y-138700227D03*
G04 #@! TO.P,CARD1,43*
X139425700Y-136160227D03*
G04 #@! TO.P,CARD1,42*
G04 #@! TO.N,CARD1_SENSE_NEG*
X139425700Y-133620227D03*
G04 #@! TO.P,CARD1,41*
G04 #@! TO.N,CARD1_GPIO1*
X139425700Y-131080227D03*
G04 #@! TO.P,CARD1,40*
G04 #@! TO.N,CARD1_GPIO0*
X139425700Y-128540227D03*
G04 #@! TO.P,CARD1,39*
G04 #@! TO.N,CARD1_TIM9_CH2*
X139425700Y-126000227D03*
G04 #@! TO.P,CARD1,38*
G04 #@! TO.N,CARD1_TIM2_CH2*
X139425700Y-123460227D03*
G04 #@! TO.P,CARD1,37*
G04 #@! TO.N,CARD1_TIM3_CH2*
X139425700Y-120920227D03*
G04 #@! TO.P,CARD1,36*
G04 #@! TO.N,CARD1_TIM1_CH2N*
X139425700Y-118380227D03*
G04 #@! TO.P,CARD1,35*
G04 #@! TO.N,CARD1_TIM1_CH2*
X139425700Y-115840227D03*
G04 #@! TO.P,CARD1,34*
G04 #@! TO.N,CARD1_CS*
X139425700Y-113300227D03*
G04 #@! TO.P,CARD1,22*
G04 #@! TO.N,GND*
X134574300Y-138700227D03*
G04 #@! TO.P,CARD1,21*
X134574300Y-136160227D03*
G04 #@! TO.P,CARD1,20*
G04 #@! TO.N,/CARD1_SENSE_POS*
X134574300Y-133620227D03*
G04 #@! TO.P,CARD1,19*
G04 #@! TO.N,USART2_RTS*
X134574300Y-131080227D03*
G04 #@! TO.P,CARD1,18*
G04 #@! TO.N,USART2_CTS*
X134574300Y-128540227D03*
G04 #@! TO.P,CARD1,17*
G04 #@! TO.N,USART2_RX*
X134574300Y-126000227D03*
G04 #@! TO.P,CARD1,16*
G04 #@! TO.N,USART2_TX*
X134574300Y-123460227D03*
G04 #@! TO.P,CARD1,15*
G04 #@! TO.N,CARD1_STATUS*
X134574300Y-120920227D03*
G04 #@! TO.P,CARD1,14*
G04 #@! TO.N,CARD1_ENABLE*
X134574300Y-118380227D03*
G04 #@! TO.P,CARD1,13*
G04 #@! TO.N,/CARD1_ADD2*
X134574300Y-115840227D03*
G04 #@! TO.P,CARD1,12*
G04 #@! TO.N,/CARD1_ADD1*
X134574300Y-113300227D03*
G04 #@! TO.P,CARD1,1*
G04 #@! TO.N,+24V*
X134574300Y-85360227D03*
G04 #@! TO.P,CARD1,2*
X134574300Y-87900227D03*
G04 #@! TO.P,CARD1,3*
G04 #@! TO.N,+5V*
X134574300Y-90440227D03*
G04 #@! TO.P,CARD1,4*
X134574300Y-92980227D03*
G04 #@! TO.P,CARD1,5*
G04 #@! TO.N,+3V3*
X134574300Y-95520227D03*
G04 #@! TO.P,CARD1,6*
X134574300Y-98060227D03*
G04 #@! TO.P,CARD1,7*
G04 #@! TO.N,GND*
X134574300Y-100600227D03*
G04 #@! TO.P,CARD1,8*
X134574300Y-103140227D03*
G04 #@! TO.P,CARD1,9*
G04 #@! TO.N,I2C1_SDA*
X134574300Y-105680227D03*
G04 #@! TO.P,CARD1,10*
G04 #@! TO.N,I2C1_SCL*
X134574300Y-108220227D03*
G04 #@! TO.P,CARD1,23*
G04 #@! TO.N,+24V*
X139425700Y-85360227D03*
G04 #@! TO.P,CARD1,24*
X139425700Y-87900227D03*
G04 #@! TO.P,CARD1,25*
G04 #@! TO.N,+5V*
X139425700Y-90440227D03*
G04 #@! TO.P,CARD1,26*
X139425700Y-92980227D03*
G04 #@! TO.P,CARD1,27*
G04 #@! TO.N,+3V3*
X139425700Y-95520227D03*
G04 #@! TO.P,CARD1,28*
X139425700Y-98060227D03*
G04 #@! TO.P,CARD1,29*
G04 #@! TO.N,GND*
X139425700Y-100600227D03*
G04 #@! TO.P,CARD1,30*
X139425700Y-103140227D03*
G04 #@! TO.P,CARD1,31*
G04 #@! TO.N,SPI3_SCK*
X139425700Y-105680227D03*
G04 #@! TO.P,CARD1,32*
G04 #@! TO.N,SPI3_MISO*
X139425700Y-108220227D03*
G04 #@! TO.P,CARD1,11*
G04 #@! TO.N,/CARD1_ADD0*
X134574300Y-110760227D03*
G04 #@! TO.P,CARD1,33*
G04 #@! TO.N,SPI3_MOSI*
X139425700Y-110760227D03*
G04 #@! TD*
G04 #@! TO.P,CARD4,44*
G04 #@! TO.N,GND*
X111425700Y-138670000D03*
G04 #@! TO.P,CARD4,43*
X111425700Y-136130000D03*
G04 #@! TO.P,CARD4,42*
G04 #@! TO.N,CARD4_SENSE_NEG*
X111425700Y-133590000D03*
G04 #@! TO.P,CARD4,41*
G04 #@! TO.N,CARD4_GPIO1*
X111425700Y-131050000D03*
G04 #@! TO.P,CARD4,40*
G04 #@! TO.N,CARD4_GPIO0*
X111425700Y-128510000D03*
G04 #@! TO.P,CARD4,39*
G04 #@! TO.N,CARD4_TIM12_CH2*
X111425700Y-125970000D03*
G04 #@! TO.P,CARD4,38*
G04 #@! TO.N,CARD4_TIM4_CH1*
X111425700Y-123430000D03*
G04 #@! TO.P,CARD4,37*
G04 #@! TO.N,CARD4_TIM5_CH1*
X111425700Y-120890000D03*
G04 #@! TO.P,CARD4,36*
G04 #@! TO.N,CARD4_TIM8_CH1N*
X111425700Y-118350000D03*
G04 #@! TO.P,CARD4,35*
G04 #@! TO.N,CARD4_TIM8_CH1*
X111425700Y-115810000D03*
G04 #@! TO.P,CARD4,34*
G04 #@! TO.N,CARD4_CS*
X111425700Y-113270000D03*
G04 #@! TO.P,CARD4,22*
G04 #@! TO.N,GND*
X106574300Y-138670000D03*
G04 #@! TO.P,CARD4,21*
X106574300Y-136130000D03*
G04 #@! TO.P,CARD4,20*
G04 #@! TO.N,/CARD4_SENSE_POS*
X106574300Y-133590000D03*
G04 #@! TO.P,CARD4,19*
G04 #@! TO.N,CARD4_GPIO2*
X106574300Y-131050000D03*
G04 #@! TO.P,CARD4,18*
G04 #@! TO.N,CARD4_GPIO3*
X106574300Y-128510000D03*
G04 #@! TO.P,CARD4,17*
G04 #@! TO.N,CARD4_GPIO4*
X106574300Y-125970000D03*
G04 #@! TO.P,CARD4,16*
G04 #@! TO.N,CARD4_GPIO5*
X106574300Y-123430000D03*
G04 #@! TO.P,CARD4,15*
G04 #@! TO.N,CARD4_STATUS*
X106574300Y-120890000D03*
G04 #@! TO.P,CARD4,14*
G04 #@! TO.N,CARD4_ENABLE*
X106574300Y-118350000D03*
G04 #@! TO.P,CARD4,13*
G04 #@! TO.N,/CARD4_ADD2*
X106574300Y-115810000D03*
G04 #@! TO.P,CARD4,12*
G04 #@! TO.N,/CARD4_ADD1*
X106574300Y-113270000D03*
G04 #@! TO.P,CARD4,1*
G04 #@! TO.N,+24V*
X106574300Y-85330000D03*
G04 #@! TO.P,CARD4,2*
X106574300Y-87870000D03*
G04 #@! TO.P,CARD4,3*
G04 #@! TO.N,+5V*
X106574300Y-90410000D03*
G04 #@! TO.P,CARD4,4*
X106574300Y-92950000D03*
G04 #@! TO.P,CARD4,5*
G04 #@! TO.N,+3V3*
X106574300Y-95490000D03*
G04 #@! TO.P,CARD4,6*
X106574300Y-98030000D03*
G04 #@! TO.P,CARD4,7*
G04 #@! TO.N,GND*
X106574300Y-100570000D03*
G04 #@! TO.P,CARD4,8*
X106574300Y-103110000D03*
G04 #@! TO.P,CARD4,9*
G04 #@! TO.N,I2C1_SDA*
X106574300Y-105650000D03*
G04 #@! TO.P,CARD4,10*
G04 #@! TO.N,I2C1_SCL*
X106574300Y-108190000D03*
G04 #@! TO.P,CARD4,23*
G04 #@! TO.N,+24V*
X111425700Y-85330000D03*
G04 #@! TO.P,CARD4,24*
X111425700Y-87870000D03*
G04 #@! TO.P,CARD4,25*
G04 #@! TO.N,+5V*
X111425700Y-90410000D03*
G04 #@! TO.P,CARD4,26*
X111425700Y-92950000D03*
G04 #@! TO.P,CARD4,27*
G04 #@! TO.N,+3V3*
X111425700Y-95490000D03*
G04 #@! TO.P,CARD4,28*
X111425700Y-98030000D03*
G04 #@! TO.P,CARD4,29*
G04 #@! TO.N,GND*
X111425700Y-100570000D03*
G04 #@! TO.P,CARD4,30*
X111425700Y-103110000D03*
G04 #@! TO.P,CARD4,31*
G04 #@! TO.N,SPI3_SCK*
X111425700Y-105650000D03*
G04 #@! TO.P,CARD4,32*
G04 #@! TO.N,SPI3_MISO*
X111425700Y-108190000D03*
G04 #@! TO.P,CARD4,11*
G04 #@! TO.N,/CARD4_ADD0*
X106574300Y-110730000D03*
G04 #@! TO.P,CARD4,33*
G04 #@! TO.N,SPI3_MOSI*
X111425700Y-110730000D03*
G04 #@! TD*
D15*
G04 #@! TO.P,J4,4*
G04 #@! TO.N,3V3_EXT*
X88900000Y-104260000D03*
D16*
G04 #@! TO.P,J4,1*
G04 #@! TO.N,GND*
X88900000Y-119500000D03*
D15*
G04 #@! TO.P,J4,3*
G04 #@! TO.N,3V3_EXT*
X88900000Y-109340000D03*
G04 #@! TO.P,J4,2*
G04 #@! TO.N,GND*
X88900000Y-114420000D03*
G04 #@! TD*
G04 #@! TO.P,J7,4*
G04 #@! TO.N,GND*
X88900000Y-142240000D03*
D16*
G04 #@! TO.P,J7,1*
X88900000Y-127000000D03*
D15*
G04 #@! TO.P,J7,3*
X88900000Y-137160000D03*
G04 #@! TO.P,J7,2*
X88900000Y-132080000D03*
G04 #@! TD*
G04 #@! TO.P,J1,4*
G04 #@! TO.N,+24V*
X89000000Y-81260000D03*
D16*
G04 #@! TO.P,J1,1*
G04 #@! TO.N,5V_EXT*
X89000000Y-96500000D03*
D15*
G04 #@! TO.P,J1,3*
G04 #@! TO.N,+24V*
X89000000Y-86340000D03*
G04 #@! TO.P,J1,2*
G04 #@! TO.N,5V_EXT*
X89000000Y-91420000D03*
G04 #@! TD*
D17*
G04 #@! TO.P,I2C1_SDA1,1*
G04 #@! TO.N,I2C1_SDA*
X127000000Y-172000000D03*
G04 #@! TD*
G04 #@! TO.P,SPI3_SCK1,1*
G04 #@! TO.N,SPI3_SCK*
X154250000Y-159500000D03*
G04 #@! TD*
G04 #@! TO.P,SPI3_MISO1,1*
G04 #@! TO.N,SPI3_MISO*
X154250000Y-151750000D03*
G04 #@! TD*
G04 #@! TO.P,SPI3_MOSI1,1*
G04 #@! TO.N,SPI3_MOSI*
X154250000Y-147000000D03*
G04 #@! TD*
G04 #@! TO.P,GND1,1*
G04 #@! TO.N,GND*
X87500000Y-68000000D03*
G04 #@! TD*
G04 #@! TO.P,GND2,1*
G04 #@! TO.N,GND*
X154250000Y-141500000D03*
G04 #@! TD*
G04 #@! TO.P,GND3,1*
G04 #@! TO.N,GND*
X187500000Y-68250000D03*
G04 #@! TD*
G04 #@! TO.P,GND4,1*
G04 #@! TO.N,GND*
X127000000Y-160750000D03*
G04 #@! TD*
G04 #@! TO.P,GND5,1*
G04 #@! TO.N,GND*
X188750000Y-200750000D03*
G04 #@! TD*
G04 #@! TO.P,I2C1_SCL1,1*
G04 #@! TO.N,I2C1_SCL*
X127000000Y-166250000D03*
G04 #@! TD*
D18*
G04 #@! TO.N,GND*
X86000000Y-188250000D03*
X86000000Y-189750000D03*
X86000000Y-191250000D03*
X86000000Y-192750000D03*
X87250000Y-192750000D03*
X87250000Y-191250000D03*
X87250000Y-189750000D03*
X87250000Y-188250000D03*
X104500000Y-185000000D03*
X106250000Y-196750000D03*
X107250000Y-196750000D03*
X95500000Y-197000000D03*
X131611874Y-190220912D03*
X131611874Y-193970912D03*
X131611874Y-182220912D03*
X131611874Y-178970912D03*
X137111874Y-174720912D03*
X162111874Y-178970912D03*
X154111874Y-199220912D03*
X139361874Y-199220912D03*
X160361874Y-182220912D03*
X129111874Y-193970912D03*
X97589790Y-173275693D03*
X96589790Y-173275693D03*
X97589790Y-172275693D03*
X96589790Y-172275693D03*
X93089790Y-180025693D03*
X103750000Y-155500000D03*
X103899062Y-162479212D03*
X106000000Y-168100000D03*
X109800000Y-168100000D03*
X102800000Y-154100000D03*
X102800000Y-152300000D03*
X90750000Y-155750000D03*
X91250000Y-162250000D03*
X87500000Y-168000000D03*
X93000000Y-168000000D03*
X96750000Y-168250000D03*
X90000000Y-152750000D03*
X90000000Y-154500000D03*
X116750000Y-117250000D03*
X85700010Y-152750000D03*
X97799990Y-154630119D03*
X100500000Y-168250000D03*
X89700010Y-150250000D03*
X101762207Y-196510610D03*
X95500000Y-199000000D03*
X95500000Y-201000000D03*
X103739990Y-196500000D03*
X121750000Y-182500000D03*
X122750000Y-182500000D03*
X123750000Y-182500000D03*
X124750000Y-182500000D03*
X125750000Y-182500000D03*
X121750000Y-190000000D03*
X122750000Y-190000000D03*
X123750000Y-190000000D03*
X124750000Y-190000000D03*
X125750000Y-190000000D03*
X152500000Y-116250000D03*
X152500000Y-120000000D03*
X152500000Y-123750000D03*
X96500000Y-116500000D03*
X96500000Y-120000000D03*
X126500000Y-120500000D03*
X126500000Y-123750000D03*
X154436500Y-201524990D03*
X154750000Y-165250000D03*
X157500000Y-161000000D03*
G04 #@! TO.N,+3V3*
X140861874Y-199220912D03*
X133611874Y-171970912D03*
X131611874Y-188470912D03*
X131611874Y-192220912D03*
X131611874Y-184220912D03*
X131611874Y-180720912D03*
X134861874Y-175720912D03*
X162111874Y-176970912D03*
X152361874Y-199220912D03*
X133611874Y-169970912D03*
X129111874Y-192220912D03*
X107500000Y-157750000D03*
X108500000Y-157750000D03*
X107500000Y-158750000D03*
X108500000Y-158750000D03*
X107500000Y-156750000D03*
X108500000Y-156750000D03*
X101250000Y-158750000D03*
X102250000Y-156750000D03*
X101250000Y-157750000D03*
X102250000Y-158750000D03*
X102250000Y-157750000D03*
X101250000Y-156750000D03*
X121250000Y-113750000D03*
X122250000Y-114750000D03*
X121000000Y-115750000D03*
X115250000Y-186750000D03*
X152500000Y-135500000D03*
X101250000Y-123750000D03*
X101250000Y-135500000D03*
X126500000Y-117500000D03*
X126500000Y-135500000D03*
X162000000Y-165750000D03*
G04 #@! TO.N,+5V*
X94750000Y-159000000D03*
X95750000Y-157000000D03*
X94750000Y-158000000D03*
X95750000Y-159000000D03*
X89500000Y-159000000D03*
X88500000Y-159000000D03*
X88500000Y-158000000D03*
X88500000Y-157000000D03*
X89500000Y-157000000D03*
X89500000Y-158000000D03*
X95750000Y-158000000D03*
X94750000Y-157000000D03*
X107000000Y-201250000D03*
X98000000Y-199750000D03*
X98000000Y-202000000D03*
G04 #@! TO.N,NRST*
X150000000Y-180750000D03*
G04 #@! TO.N,SWCLK*
X152750000Y-174000000D03*
G04 #@! TO.N,Net-(R7-Pad1)*
X146750000Y-200250000D03*
X158500000Y-202750000D03*
G04 #@! TO.N,/CARD0_ADD0*
X155000000Y-113500000D03*
G04 #@! TO.N,/CARD0_ADD1*
X155000000Y-117250000D03*
G04 #@! TO.N,/CARD0_ADD2*
X155000000Y-121000000D03*
G04 #@! TO.N,/CARD1_ADD0*
X129250000Y-113500000D03*
G04 #@! TO.N,/CARD1_ADD1*
X129250000Y-117250000D03*
G04 #@! TO.N,/CARD1_ADD2*
X129250000Y-121250000D03*
G04 #@! TO.N,CARD0_TIM1_CH1*
X149512660Y-190762660D03*
G04 #@! TO.N,CARD0_GPIO1*
X142839287Y-186759049D03*
G04 #@! TO.N,CARD1_GPIO1*
X141500000Y-189000000D03*
G04 #@! TO.N,/CARD4_ADD2*
X99250000Y-121000000D03*
G04 #@! TO.N,/CARD4_ADD1*
X99250000Y-117250000D03*
G04 #@! TO.N,/CARD4_ADD0*
X99250000Y-113500000D03*
G04 #@! TO.N,CARD0_GPIO0*
X141839855Y-186725010D03*
G04 #@! TO.N,CARD0_TIM1_CH1N*
X148500000Y-190500000D03*
G04 #@! TO.N,CARD0_TIM3_CH1*
X144000000Y-191500000D03*
G04 #@! TO.N,/CARD0_SENSE_POS*
X155000000Y-132500000D03*
G04 #@! TO.N,/CARD1_SENSE_POS*
X129250000Y-132750000D03*
G04 #@! TO.N,CARD1_TIM1_CH2*
X146500000Y-190500000D03*
G04 #@! TO.N,CARD1_TIM3_CH2*
X142500000Y-191250000D03*
G04 #@! TO.N,CARD1_TIM1_CH2N*
X145500000Y-190750000D03*
G04 #@! TO.N,CARD1_GPIO0*
X142750000Y-189000000D03*
G04 #@! TO.N,CARD4_TIM8_CH1N*
X141250000Y-191500000D03*
G04 #@! TO.N,CARD4_TIM5_CH1*
X120250000Y-172750000D03*
G04 #@! TO.N,/CARD4_SENSE_POS*
X99250000Y-133000000D03*
G04 #@! TO.N,5V_EXT*
X94750000Y-161250000D03*
X94750000Y-162250000D03*
X95750000Y-162250000D03*
X95850000Y-163250000D03*
X95750000Y-161250000D03*
X94750000Y-163250000D03*
G04 #@! TO.N,3V3_EXT*
X107500000Y-161000000D03*
X108500000Y-161000000D03*
X108500000Y-162000000D03*
X107500000Y-162000000D03*
X108600000Y-163000000D03*
X107500000Y-163000000D03*
G04 #@! TO.N,/USB_VBUS*
X89500000Y-163250000D03*
X89500000Y-162250000D03*
X88500000Y-161250000D03*
X88500000Y-162250000D03*
X89500000Y-161250000D03*
X88500000Y-163250000D03*
G04 #@! TO.N,/3v3_REG_OUT*
X101250000Y-163000000D03*
G04 #@! TO.N,3v3_REG_EN*
X97750000Y-169500000D03*
X98750000Y-171000000D03*
G04 #@! TD*
D19*
G04 #@! TO.N,NRST*
X150000000Y-180750000D02*
X151750000Y-179000000D01*
X151750000Y-179000000D02*
X151750000Y-173750000D01*
X152730000Y-172770000D02*
X154670000Y-172770000D01*
X151750000Y-173750000D02*
X152730000Y-172770000D01*
G04 #@! TO.N,SWCLK*
X152750000Y-174000000D02*
X158000000Y-174000000D01*
X158480000Y-173520000D02*
X158480000Y-172770000D01*
X158000000Y-174000000D02*
X158480000Y-173520000D01*
G04 #@! TO.N,Net-(R7-Pad1)*
X146750000Y-200250000D02*
X146750000Y-200815685D01*
X146750000Y-200815685D02*
X146750000Y-202750000D01*
X146750000Y-202750000D02*
X158500000Y-202750000D01*
G04 #@! TO.N,/CARD0_ADD0*
X155399999Y-113100001D02*
X158149999Y-113100001D01*
X155000000Y-113500000D02*
X155399999Y-113100001D01*
X160520000Y-110730000D02*
X162574300Y-110730000D01*
X158149999Y-113100001D02*
X160520000Y-110730000D01*
G04 #@! TO.N,/CARD0_ADD1*
X158980000Y-113270000D02*
X162574300Y-113270000D01*
X155000000Y-117250000D02*
X158980000Y-113270000D01*
G04 #@! TO.N,/CARD0_ADD2*
X156250000Y-119750000D02*
X155000000Y-121000000D01*
X156250000Y-118250000D02*
X156250000Y-119750000D01*
X162574300Y-115810000D02*
X158690000Y-115810000D01*
X158690000Y-115810000D02*
X156250000Y-118250000D01*
G04 #@! TO.N,/CARD1_ADD0*
X131989773Y-110760227D02*
X134574300Y-110760227D01*
X129250000Y-113500000D02*
X131989773Y-110760227D01*
G04 #@! TO.N,/CARD1_ADD1*
X129649999Y-116850001D02*
X129649999Y-115350001D01*
X129250000Y-117250000D02*
X129649999Y-116850001D01*
X131699773Y-113300227D02*
X134574300Y-113300227D01*
X129649999Y-115350001D02*
X131699773Y-113300227D01*
G04 #@! TO.N,/CARD1_ADD2*
X129649999Y-120850001D02*
X129649999Y-118350001D01*
X129250000Y-121250000D02*
X129649999Y-120850001D01*
X132159773Y-115840227D02*
X134574300Y-115840227D01*
X129649999Y-118350001D02*
X132159773Y-115840227D01*
G04 #@! TO.N,CARD0_TIM1_CH1*
X171250000Y-183250000D02*
X163737340Y-190762660D01*
X163737340Y-190762660D02*
X150078345Y-190762660D01*
X171250000Y-119634300D02*
X171250000Y-183250000D01*
X150078345Y-190762660D02*
X149512660Y-190762660D01*
X167425700Y-115810000D02*
X171250000Y-119634300D01*
G04 #@! TO.N,/CARD4_ADD2*
X99250000Y-121000000D02*
X100750000Y-119500000D01*
X100750000Y-119500000D02*
X100750000Y-117250000D01*
X102190000Y-115810000D02*
X106574300Y-115810000D01*
X100750000Y-117250000D02*
X102190000Y-115810000D01*
G04 #@! TO.N,/CARD4_ADD1*
X99649999Y-116850001D02*
X99649999Y-114850001D01*
X99250000Y-117250000D02*
X99649999Y-116850001D01*
X101230000Y-113270000D02*
X106574300Y-113270000D01*
X99649999Y-114850001D02*
X101230000Y-113270000D01*
G04 #@! TO.N,/CARD4_ADD0*
X99649999Y-113100001D02*
X99899999Y-113100001D01*
X99250000Y-113500000D02*
X99649999Y-113100001D01*
X102270000Y-110730000D02*
X106574300Y-110730000D01*
X99899999Y-113100001D02*
X102270000Y-110730000D01*
G04 #@! TO.N,CARD0_TIM1_CH1N*
X148500000Y-190500000D02*
X149250000Y-189750000D01*
X149250000Y-189750000D02*
X164000000Y-189750000D01*
X164000000Y-189750000D02*
X170750000Y-183000000D01*
X170750000Y-121674300D02*
X167425700Y-118350000D01*
X170750000Y-183000000D02*
X170750000Y-121674300D01*
G04 #@! TO.N,CARD0_TIM3_CH1*
X170250000Y-182750000D02*
X170250000Y-123714300D01*
X147000000Y-191500000D02*
X147500000Y-191000000D01*
X144000000Y-191500000D02*
X147000000Y-191500000D01*
X148500000Y-189250000D02*
X163750000Y-189250000D01*
X163750000Y-189250000D02*
X170250000Y-182750000D01*
X147500000Y-191000000D02*
X147500000Y-190250000D01*
X170250000Y-123714300D02*
X167425700Y-120890000D01*
X147500000Y-190250000D02*
X148500000Y-189250000D01*
G04 #@! TO.N,/CARD0_SENSE_POS*
X156090000Y-133590000D02*
X162574300Y-133590000D01*
X155000000Y-132500000D02*
X156090000Y-133590000D01*
G04 #@! TO.N,/CARD1_SENSE_POS*
X130120227Y-133620227D02*
X134574300Y-133620227D01*
X129250000Y-132750000D02*
X130120227Y-133620227D01*
G04 #@! TO.N,CARD4_TIM8_CH1N*
X139750000Y-183000000D02*
X134000000Y-177250000D01*
X141250000Y-191500000D02*
X139750000Y-190000000D01*
X121250000Y-173500000D02*
X121250000Y-163613590D01*
X139750000Y-190000000D02*
X139750000Y-183000000D01*
X121250000Y-163613590D02*
X116164999Y-158528589D01*
X112275699Y-119199999D02*
X111425700Y-118350000D01*
X116164999Y-123089299D02*
X112275699Y-119199999D01*
X116164999Y-158528589D02*
X116164999Y-123089299D01*
X134000000Y-177250000D02*
X125000000Y-177250000D01*
X125000000Y-177250000D02*
X121250000Y-173500000D01*
G04 #@! TO.N,CARD4_TIM5_CH1*
X115049989Y-124514289D02*
X112275699Y-121739999D01*
X112275699Y-121739999D02*
X111425700Y-120890000D01*
X120250000Y-172750000D02*
X120250000Y-163250000D01*
X115049989Y-158049989D02*
X115049989Y-158000000D01*
X120250000Y-163250000D02*
X115049989Y-158049989D01*
X115049989Y-158000000D02*
X115049989Y-124514289D01*
G04 #@! TO.N,/CARD4_SENSE_POS*
X99250000Y-133000000D02*
X101000000Y-133000000D01*
X101590000Y-133590000D02*
X106574300Y-133590000D01*
X101000000Y-133000000D02*
X101590000Y-133590000D01*
G04 #@! TO.N,3v3_REG_EN*
X97750000Y-169500000D02*
X97750000Y-170000000D01*
X97750000Y-170000000D02*
X98750000Y-171000000D01*
G04 #@! TD*
M02*
