G04 #@! TF.GenerationSoftware,KiCad,Pcbnew,5.0.2-bee76a0~70~ubuntu18.04.1*
G04 #@! TF.CreationDate,2019-09-08T18:43:56-04:00*
G04 #@! TF.ProjectId,Mother Board,4d6f7468-6572-4204-926f-6172642e6b69,rev?*
G04 #@! TF.SameCoordinates,Original*
G04 #@! TF.FileFunction,Soldermask,Bot*
G04 #@! TF.FilePolarity,Negative*
%FSLAX46Y46*%
G04 Gerber Fmt 4.6, Leading zero omitted, Abs format (unit mm)*
G04 Created by KiCad (PCBNEW 5.0.2-bee76a0~70~ubuntu18.04.1) date Sun 08 Sep 2019 06:43:56 PM EDT*
%MOMM*%
%LPD*%
G01*
G04 APERTURE LIST*
%ADD10C,0.100000*%
G04 APERTURE END LIST*
D10*
G36*
X189173238Y-199354760D02*
X189173240Y-199354761D01*
X189173241Y-199354761D01*
X189437306Y-199464140D01*
X189437307Y-199464141D01*
X189674962Y-199622937D01*
X189877063Y-199825038D01*
X189877065Y-199825041D01*
X190035860Y-200062694D01*
X190132692Y-200296468D01*
X190145240Y-200326762D01*
X190197638Y-200590186D01*
X190201000Y-200607089D01*
X190201000Y-200892911D01*
X190145239Y-201173241D01*
X190035860Y-201437306D01*
X190035859Y-201437307D01*
X189877063Y-201674962D01*
X189674962Y-201877063D01*
X189674959Y-201877065D01*
X189437306Y-202035860D01*
X189173241Y-202145239D01*
X189173240Y-202145239D01*
X189173238Y-202145240D01*
X188892912Y-202201000D01*
X188607088Y-202201000D01*
X188326762Y-202145240D01*
X188326760Y-202145239D01*
X188326759Y-202145239D01*
X188062694Y-202035860D01*
X187825041Y-201877065D01*
X187825038Y-201877063D01*
X187622937Y-201674962D01*
X187464141Y-201437307D01*
X187464140Y-201437306D01*
X187354761Y-201173241D01*
X187299000Y-200892911D01*
X187299000Y-200607089D01*
X187302362Y-200590186D01*
X187354760Y-200326762D01*
X187367308Y-200296468D01*
X187464140Y-200062694D01*
X187622935Y-199825041D01*
X187622937Y-199825038D01*
X187825038Y-199622937D01*
X188062693Y-199464141D01*
X188062694Y-199464140D01*
X188326759Y-199354761D01*
X188326760Y-199354761D01*
X188326762Y-199354760D01*
X188607088Y-199299000D01*
X188892912Y-199299000D01*
X189173238Y-199354760D01*
X189173238Y-199354760D01*
G37*
G36*
X182025442Y-199055519D02*
X182091627Y-199062038D01*
X182204853Y-199096385D01*
X182261467Y-199113558D01*
X182400087Y-199187653D01*
X182417991Y-199197223D01*
X182453729Y-199226553D01*
X182555186Y-199309815D01*
X182638448Y-199411272D01*
X182667778Y-199447010D01*
X182667779Y-199447012D01*
X182751443Y-199603534D01*
X182751443Y-199603535D01*
X182802963Y-199773374D01*
X182820359Y-199950001D01*
X182802963Y-200126628D01*
X182768616Y-200239854D01*
X182751443Y-200296468D01*
X182735250Y-200326762D01*
X182667778Y-200452992D01*
X182638448Y-200488730D01*
X182555186Y-200590187D01*
X182453729Y-200673449D01*
X182417991Y-200702779D01*
X182417989Y-200702780D01*
X182261467Y-200786444D01*
X182204853Y-200803617D01*
X182091627Y-200837964D01*
X182025442Y-200844483D01*
X181959260Y-200851001D01*
X181870740Y-200851001D01*
X181804557Y-200844482D01*
X181738373Y-200837964D01*
X181625147Y-200803617D01*
X181568533Y-200786444D01*
X181412011Y-200702780D01*
X181412009Y-200702779D01*
X181376271Y-200673449D01*
X181274814Y-200590187D01*
X181191552Y-200488730D01*
X181162222Y-200452992D01*
X181094750Y-200326762D01*
X181078557Y-200296468D01*
X181061384Y-200239854D01*
X181027037Y-200126628D01*
X181009641Y-199950001D01*
X181027037Y-199773374D01*
X181078557Y-199603535D01*
X181078557Y-199603534D01*
X181162221Y-199447012D01*
X181162222Y-199447010D01*
X181191552Y-199411272D01*
X181274814Y-199309815D01*
X181376271Y-199226553D01*
X181412009Y-199197223D01*
X181429913Y-199187653D01*
X181568533Y-199113558D01*
X181625147Y-199096385D01*
X181738373Y-199062038D01*
X181804558Y-199055519D01*
X181870740Y-199049001D01*
X181959260Y-199049001D01*
X182025442Y-199055519D01*
X182025442Y-199055519D01*
G37*
G36*
X175090443Y-199055519D02*
X175156628Y-199062038D01*
X175269854Y-199096385D01*
X175326468Y-199113558D01*
X175465088Y-199187653D01*
X175482992Y-199197223D01*
X175518730Y-199226553D01*
X175620187Y-199309815D01*
X175703449Y-199411272D01*
X175732779Y-199447010D01*
X175732780Y-199447012D01*
X175816444Y-199603534D01*
X175816444Y-199603535D01*
X175867964Y-199773374D01*
X175885360Y-199950001D01*
X175867964Y-200126628D01*
X175833617Y-200239854D01*
X175816444Y-200296468D01*
X175800251Y-200326762D01*
X175732779Y-200452992D01*
X175703449Y-200488730D01*
X175620187Y-200590187D01*
X175518730Y-200673449D01*
X175482992Y-200702779D01*
X175482990Y-200702780D01*
X175326468Y-200786444D01*
X175269854Y-200803617D01*
X175156628Y-200837964D01*
X175090443Y-200844483D01*
X175024261Y-200851001D01*
X174935741Y-200851001D01*
X174869558Y-200844482D01*
X174803374Y-200837964D01*
X174690148Y-200803617D01*
X174633534Y-200786444D01*
X174477012Y-200702780D01*
X174477010Y-200702779D01*
X174441272Y-200673449D01*
X174339815Y-200590187D01*
X174256553Y-200488730D01*
X174227223Y-200452992D01*
X174159751Y-200326762D01*
X174143558Y-200296468D01*
X174126385Y-200239854D01*
X174092038Y-200126628D01*
X174074642Y-199950001D01*
X174092038Y-199773374D01*
X174143558Y-199603535D01*
X174143558Y-199603534D01*
X174227222Y-199447012D01*
X174227223Y-199447010D01*
X174256553Y-199411272D01*
X174339815Y-199309815D01*
X174441272Y-199226553D01*
X174477010Y-199197223D01*
X174494914Y-199187653D01*
X174633534Y-199113558D01*
X174690148Y-199096385D01*
X174803374Y-199062038D01*
X174869559Y-199055519D01*
X174935741Y-199049001D01*
X175024261Y-199049001D01*
X175090443Y-199055519D01*
X175090443Y-199055519D01*
G37*
G36*
X182025442Y-196515519D02*
X182091627Y-196522038D01*
X182204853Y-196556385D01*
X182261467Y-196573558D01*
X182400087Y-196647653D01*
X182417991Y-196657223D01*
X182453729Y-196686553D01*
X182555186Y-196769815D01*
X182638448Y-196871272D01*
X182667778Y-196907010D01*
X182667779Y-196907012D01*
X182751443Y-197063534D01*
X182751443Y-197063535D01*
X182802963Y-197233374D01*
X182820359Y-197410001D01*
X182802963Y-197586628D01*
X182768616Y-197699854D01*
X182751443Y-197756468D01*
X182677348Y-197895088D01*
X182667778Y-197912992D01*
X182638448Y-197948730D01*
X182555186Y-198050187D01*
X182453729Y-198133449D01*
X182417991Y-198162779D01*
X182417989Y-198162780D01*
X182261467Y-198246444D01*
X182204853Y-198263617D01*
X182091627Y-198297964D01*
X182025443Y-198304482D01*
X181959260Y-198311001D01*
X181870740Y-198311001D01*
X181804558Y-198304483D01*
X181738373Y-198297964D01*
X181625147Y-198263617D01*
X181568533Y-198246444D01*
X181412011Y-198162780D01*
X181412009Y-198162779D01*
X181376271Y-198133449D01*
X181274814Y-198050187D01*
X181191552Y-197948730D01*
X181162222Y-197912992D01*
X181152652Y-197895088D01*
X181078557Y-197756468D01*
X181061384Y-197699854D01*
X181027037Y-197586628D01*
X181009641Y-197410001D01*
X181027037Y-197233374D01*
X181078557Y-197063535D01*
X181078557Y-197063534D01*
X181162221Y-196907012D01*
X181162222Y-196907010D01*
X181191552Y-196871272D01*
X181274814Y-196769815D01*
X181376271Y-196686553D01*
X181412009Y-196657223D01*
X181429913Y-196647653D01*
X181568533Y-196573558D01*
X181625147Y-196556385D01*
X181738373Y-196522038D01*
X181804558Y-196515519D01*
X181870740Y-196509001D01*
X181959260Y-196509001D01*
X182025442Y-196515519D01*
X182025442Y-196515519D01*
G37*
G36*
X175090443Y-196515519D02*
X175156628Y-196522038D01*
X175269854Y-196556385D01*
X175326468Y-196573558D01*
X175465088Y-196647653D01*
X175482992Y-196657223D01*
X175518730Y-196686553D01*
X175620187Y-196769815D01*
X175703449Y-196871272D01*
X175732779Y-196907010D01*
X175732780Y-196907012D01*
X175816444Y-197063534D01*
X175816444Y-197063535D01*
X175867964Y-197233374D01*
X175885360Y-197410001D01*
X175867964Y-197586628D01*
X175833617Y-197699854D01*
X175816444Y-197756468D01*
X175742349Y-197895088D01*
X175732779Y-197912992D01*
X175703449Y-197948730D01*
X175620187Y-198050187D01*
X175518730Y-198133449D01*
X175482992Y-198162779D01*
X175482990Y-198162780D01*
X175326468Y-198246444D01*
X175269854Y-198263617D01*
X175156628Y-198297964D01*
X175090444Y-198304482D01*
X175024261Y-198311001D01*
X174935741Y-198311001D01*
X174869559Y-198304483D01*
X174803374Y-198297964D01*
X174690148Y-198263617D01*
X174633534Y-198246444D01*
X174477012Y-198162780D01*
X174477010Y-198162779D01*
X174441272Y-198133449D01*
X174339815Y-198050187D01*
X174256553Y-197948730D01*
X174227223Y-197912992D01*
X174217653Y-197895088D01*
X174143558Y-197756468D01*
X174126385Y-197699854D01*
X174092038Y-197586628D01*
X174074642Y-197410001D01*
X174092038Y-197233374D01*
X174143558Y-197063535D01*
X174143558Y-197063534D01*
X174227222Y-196907012D01*
X174227223Y-196907010D01*
X174256553Y-196871272D01*
X174339815Y-196769815D01*
X174441272Y-196686553D01*
X174477010Y-196657223D01*
X174494914Y-196647653D01*
X174633534Y-196573558D01*
X174690148Y-196556385D01*
X174803374Y-196522038D01*
X174869559Y-196515519D01*
X174935741Y-196509001D01*
X175024261Y-196509001D01*
X175090443Y-196515519D01*
X175090443Y-196515519D01*
G37*
G36*
X182816000Y-195771001D02*
X181014000Y-195771001D01*
X181014000Y-193969001D01*
X182816000Y-193969001D01*
X182816000Y-195771001D01*
X182816000Y-195771001D01*
G37*
G36*
X175881001Y-195771001D02*
X174079001Y-195771001D01*
X174079001Y-193969001D01*
X175881001Y-193969001D01*
X175881001Y-195771001D01*
X175881001Y-195771001D01*
G37*
G36*
X89060721Y-192170174D02*
X89160995Y-192211709D01*
X89251245Y-192272012D01*
X89327988Y-192348755D01*
X89388291Y-192439005D01*
X89429826Y-192539279D01*
X89451000Y-192645730D01*
X89451000Y-192754270D01*
X89429826Y-192860721D01*
X89388291Y-192960995D01*
X89327988Y-193051245D01*
X89251245Y-193127988D01*
X89160995Y-193188291D01*
X89060721Y-193229826D01*
X88954270Y-193251000D01*
X88845730Y-193251000D01*
X88739279Y-193229826D01*
X88639005Y-193188291D01*
X88548755Y-193127988D01*
X88472012Y-193051245D01*
X88411709Y-192960995D01*
X88370174Y-192860721D01*
X88349000Y-192754270D01*
X88349000Y-192645730D01*
X88370174Y-192539279D01*
X88411709Y-192439005D01*
X88472012Y-192348755D01*
X88548755Y-192272012D01*
X88639005Y-192211709D01*
X88739279Y-192170174D01*
X88845730Y-192149000D01*
X88954270Y-192149000D01*
X89060721Y-192170174D01*
X89060721Y-192170174D01*
G37*
G36*
X89060721Y-187770174D02*
X89160995Y-187811709D01*
X89251245Y-187872012D01*
X89327988Y-187948755D01*
X89388291Y-188039005D01*
X89429826Y-188139279D01*
X89451000Y-188245730D01*
X89451000Y-188354270D01*
X89429826Y-188460721D01*
X89388291Y-188560995D01*
X89327988Y-188651245D01*
X89251245Y-188727988D01*
X89160995Y-188788291D01*
X89060721Y-188829826D01*
X88954270Y-188851000D01*
X88845730Y-188851000D01*
X88739279Y-188829826D01*
X88639005Y-188788291D01*
X88548755Y-188727988D01*
X88472012Y-188651245D01*
X88411709Y-188560995D01*
X88370174Y-188460721D01*
X88349000Y-188354270D01*
X88349000Y-188245730D01*
X88370174Y-188139279D01*
X88411709Y-188039005D01*
X88472012Y-187948755D01*
X88548755Y-187872012D01*
X88639005Y-187811709D01*
X88739279Y-187770174D01*
X88845730Y-187749000D01*
X88954270Y-187749000D01*
X89060721Y-187770174D01*
X89060721Y-187770174D01*
G37*
G36*
X127423238Y-170604760D02*
X127423240Y-170604761D01*
X127423241Y-170604761D01*
X127687306Y-170714140D01*
X127687307Y-170714141D01*
X127924962Y-170872937D01*
X128127063Y-171075038D01*
X128127065Y-171075041D01*
X128285860Y-171312694D01*
X128318703Y-171391985D01*
X128395240Y-171576762D01*
X128451000Y-171857088D01*
X128451000Y-172142912D01*
X128428781Y-172254617D01*
X128395239Y-172423241D01*
X128285860Y-172687306D01*
X128158433Y-172878013D01*
X128127063Y-172924962D01*
X127924962Y-173127063D01*
X127924959Y-173127065D01*
X127687306Y-173285860D01*
X127423241Y-173395239D01*
X127423240Y-173395239D01*
X127423238Y-173395240D01*
X127142912Y-173451000D01*
X126857088Y-173451000D01*
X126576762Y-173395240D01*
X126576760Y-173395239D01*
X126576759Y-173395239D01*
X126312694Y-173285860D01*
X126075041Y-173127065D01*
X126075038Y-173127063D01*
X125872937Y-172924962D01*
X125841567Y-172878013D01*
X125714140Y-172687306D01*
X125604761Y-172423241D01*
X125571220Y-172254617D01*
X125549000Y-172142912D01*
X125549000Y-171857088D01*
X125604760Y-171576762D01*
X125681297Y-171391985D01*
X125714140Y-171312694D01*
X125872935Y-171075041D01*
X125872937Y-171075038D01*
X126075038Y-170872937D01*
X126312693Y-170714141D01*
X126312694Y-170714140D01*
X126576759Y-170604761D01*
X126576760Y-170604761D01*
X126576762Y-170604760D01*
X126857088Y-170549000D01*
X127142912Y-170549000D01*
X127423238Y-170604760D01*
X127423238Y-170604760D01*
G37*
G36*
X154778015Y-170956973D02*
X154881879Y-170988479D01*
X154977600Y-171039644D01*
X155061501Y-171108499D01*
X155130356Y-171192400D01*
X155181521Y-171288121D01*
X155185383Y-171300854D01*
X155194760Y-171323493D01*
X155208374Y-171343867D01*
X155225701Y-171361194D01*
X155246076Y-171374808D01*
X155268715Y-171384186D01*
X155292748Y-171388966D01*
X155317252Y-171388966D01*
X155341286Y-171384185D01*
X155363925Y-171374808D01*
X155384299Y-171361194D01*
X155401626Y-171343867D01*
X155415240Y-171323492D01*
X155424617Y-171300854D01*
X155428479Y-171288121D01*
X155479644Y-171192400D01*
X155548499Y-171108499D01*
X155632400Y-171039644D01*
X155728121Y-170988479D01*
X155831985Y-170956973D01*
X155912933Y-170949000D01*
X155967067Y-170949000D01*
X156048015Y-170956973D01*
X156151879Y-170988479D01*
X156247600Y-171039644D01*
X156331501Y-171108499D01*
X156400356Y-171192400D01*
X156451521Y-171288121D01*
X156455383Y-171300854D01*
X156464760Y-171323493D01*
X156478374Y-171343867D01*
X156495701Y-171361194D01*
X156516076Y-171374808D01*
X156538715Y-171384186D01*
X156562748Y-171388966D01*
X156587252Y-171388966D01*
X156611286Y-171384185D01*
X156633925Y-171374808D01*
X156654299Y-171361194D01*
X156671626Y-171343867D01*
X156685240Y-171323492D01*
X156694617Y-171300854D01*
X156698479Y-171288121D01*
X156749644Y-171192400D01*
X156818499Y-171108499D01*
X156902400Y-171039644D01*
X156998121Y-170988479D01*
X157101985Y-170956973D01*
X157182933Y-170949000D01*
X157237067Y-170949000D01*
X157318015Y-170956973D01*
X157421879Y-170988479D01*
X157517600Y-171039644D01*
X157601501Y-171108499D01*
X157670356Y-171192400D01*
X157721521Y-171288121D01*
X157725383Y-171300854D01*
X157734760Y-171323493D01*
X157748374Y-171343867D01*
X157765701Y-171361194D01*
X157786076Y-171374808D01*
X157808715Y-171384186D01*
X157832748Y-171388966D01*
X157857252Y-171388966D01*
X157881286Y-171384185D01*
X157903925Y-171374808D01*
X157924299Y-171361194D01*
X157941626Y-171343867D01*
X157955240Y-171323492D01*
X157964617Y-171300854D01*
X157968479Y-171288121D01*
X158019644Y-171192400D01*
X158088499Y-171108499D01*
X158172400Y-171039644D01*
X158268121Y-170988479D01*
X158371985Y-170956973D01*
X158452933Y-170949000D01*
X158507067Y-170949000D01*
X158588015Y-170956973D01*
X158691879Y-170988479D01*
X158787600Y-171039644D01*
X158871501Y-171108499D01*
X158940356Y-171192400D01*
X158963766Y-171236195D01*
X158977374Y-171256561D01*
X158994701Y-171273889D01*
X159015076Y-171287502D01*
X159037715Y-171296880D01*
X159061748Y-171301660D01*
X159086252Y-171301660D01*
X159110286Y-171296879D01*
X159132925Y-171287502D01*
X159153299Y-171273888D01*
X159170627Y-171256561D01*
X159184240Y-171236186D01*
X159193618Y-171213547D01*
X159199000Y-171177262D01*
X159199000Y-170949000D01*
X160301000Y-170949000D01*
X160301000Y-172051000D01*
X160072738Y-172051000D01*
X160048352Y-172053402D01*
X160024903Y-172060515D01*
X160003292Y-172072066D01*
X159984350Y-172087612D01*
X159968804Y-172106554D01*
X159957253Y-172128165D01*
X159950140Y-172151614D01*
X159947738Y-172176000D01*
X159950140Y-172200386D01*
X159957253Y-172223835D01*
X159968804Y-172245446D01*
X159984350Y-172264388D01*
X160013808Y-172286236D01*
X160057600Y-172309644D01*
X160141501Y-172378499D01*
X160210356Y-172462400D01*
X160261521Y-172558121D01*
X160293027Y-172661985D01*
X160303666Y-172770000D01*
X160293027Y-172878015D01*
X160261521Y-172981879D01*
X160210356Y-173077600D01*
X160141501Y-173161501D01*
X160057600Y-173230356D01*
X159961879Y-173281521D01*
X159858015Y-173313027D01*
X159777067Y-173321000D01*
X159722933Y-173321000D01*
X159641985Y-173313027D01*
X159538121Y-173281521D01*
X159442400Y-173230356D01*
X159358499Y-173161501D01*
X159289644Y-173077600D01*
X159238479Y-172981879D01*
X159234615Y-172969142D01*
X159225240Y-172946507D01*
X159211626Y-172926133D01*
X159194299Y-172908806D01*
X159173924Y-172895192D01*
X159151285Y-172885814D01*
X159127252Y-172881034D01*
X159102748Y-172881034D01*
X159078714Y-172885815D01*
X159056075Y-172895192D01*
X159035701Y-172908806D01*
X159018374Y-172926133D01*
X159004760Y-172946508D01*
X158995385Y-172969142D01*
X158991521Y-172981879D01*
X158940356Y-173077600D01*
X158871501Y-173161501D01*
X158787600Y-173230356D01*
X158691879Y-173281521D01*
X158588015Y-173313027D01*
X158507067Y-173321000D01*
X158452933Y-173321000D01*
X158371985Y-173313027D01*
X158268121Y-173281521D01*
X158172400Y-173230356D01*
X158088499Y-173161501D01*
X158019644Y-173077600D01*
X157968479Y-172981879D01*
X157964615Y-172969142D01*
X157955240Y-172946507D01*
X157941626Y-172926133D01*
X157924299Y-172908806D01*
X157903924Y-172895192D01*
X157881285Y-172885814D01*
X157857252Y-172881034D01*
X157832748Y-172881034D01*
X157808714Y-172885815D01*
X157786075Y-172895192D01*
X157765701Y-172908806D01*
X157748374Y-172926133D01*
X157734760Y-172946508D01*
X157725385Y-172969142D01*
X157721521Y-172981879D01*
X157670356Y-173077600D01*
X157601501Y-173161501D01*
X157517600Y-173230356D01*
X157421879Y-173281521D01*
X157318015Y-173313027D01*
X157237067Y-173321000D01*
X157182933Y-173321000D01*
X157101985Y-173313027D01*
X156998121Y-173281521D01*
X156902400Y-173230356D01*
X156818499Y-173161501D01*
X156749644Y-173077600D01*
X156698479Y-172981879D01*
X156694615Y-172969142D01*
X156685240Y-172946507D01*
X156671626Y-172926133D01*
X156654299Y-172908806D01*
X156633924Y-172895192D01*
X156611285Y-172885814D01*
X156587252Y-172881034D01*
X156562748Y-172881034D01*
X156538714Y-172885815D01*
X156516075Y-172895192D01*
X156495701Y-172908806D01*
X156478374Y-172926133D01*
X156464760Y-172946508D01*
X156455385Y-172969142D01*
X156451521Y-172981879D01*
X156400356Y-173077600D01*
X156331501Y-173161501D01*
X156247600Y-173230356D01*
X156151879Y-173281521D01*
X156048015Y-173313027D01*
X155967067Y-173321000D01*
X155912933Y-173321000D01*
X155831985Y-173313027D01*
X155728121Y-173281521D01*
X155632400Y-173230356D01*
X155548499Y-173161501D01*
X155479644Y-173077600D01*
X155428479Y-172981879D01*
X155424615Y-172969142D01*
X155415240Y-172946507D01*
X155401626Y-172926133D01*
X155384299Y-172908806D01*
X155363924Y-172895192D01*
X155341285Y-172885814D01*
X155317252Y-172881034D01*
X155292748Y-172881034D01*
X155268714Y-172885815D01*
X155246075Y-172895192D01*
X155225701Y-172908806D01*
X155208374Y-172926133D01*
X155194760Y-172946508D01*
X155185385Y-172969142D01*
X155181521Y-172981879D01*
X155130356Y-173077600D01*
X155061501Y-173161501D01*
X154977600Y-173230356D01*
X154881879Y-173281521D01*
X154778015Y-173313027D01*
X154697067Y-173321000D01*
X154642933Y-173321000D01*
X154561985Y-173313027D01*
X154458121Y-173281521D01*
X154362400Y-173230356D01*
X154278499Y-173161501D01*
X154209644Y-173077600D01*
X154158479Y-172981879D01*
X154126973Y-172878015D01*
X154116334Y-172770000D01*
X154126973Y-172661985D01*
X154158479Y-172558121D01*
X154209644Y-172462400D01*
X154278499Y-172378499D01*
X154362400Y-172309644D01*
X154458121Y-172258479D01*
X154470858Y-172254615D01*
X154493493Y-172245240D01*
X154513867Y-172231626D01*
X154531194Y-172214299D01*
X154544808Y-172193924D01*
X154554186Y-172171285D01*
X154558966Y-172147252D01*
X154558966Y-172122748D01*
X154781034Y-172122748D01*
X154781034Y-172147252D01*
X154785815Y-172171286D01*
X154795192Y-172193925D01*
X154808806Y-172214299D01*
X154826133Y-172231626D01*
X154846508Y-172245240D01*
X154869142Y-172254615D01*
X154881879Y-172258479D01*
X154977600Y-172309644D01*
X155061501Y-172378499D01*
X155130356Y-172462400D01*
X155181521Y-172558121D01*
X155185383Y-172570854D01*
X155194760Y-172593493D01*
X155208374Y-172613867D01*
X155225701Y-172631194D01*
X155246076Y-172644808D01*
X155268715Y-172654186D01*
X155292748Y-172658966D01*
X155317252Y-172658966D01*
X155341286Y-172654185D01*
X155363925Y-172644808D01*
X155384299Y-172631194D01*
X155401626Y-172613867D01*
X155415240Y-172593492D01*
X155424617Y-172570854D01*
X155428479Y-172558121D01*
X155479644Y-172462400D01*
X155548499Y-172378499D01*
X155632400Y-172309644D01*
X155728121Y-172258479D01*
X155740858Y-172254615D01*
X155763493Y-172245240D01*
X155783867Y-172231626D01*
X155801194Y-172214299D01*
X155814808Y-172193924D01*
X155824186Y-172171285D01*
X155828966Y-172147252D01*
X155828966Y-172122748D01*
X156051034Y-172122748D01*
X156051034Y-172147252D01*
X156055815Y-172171286D01*
X156065192Y-172193925D01*
X156078806Y-172214299D01*
X156096133Y-172231626D01*
X156116508Y-172245240D01*
X156139142Y-172254615D01*
X156151879Y-172258479D01*
X156247600Y-172309644D01*
X156331501Y-172378499D01*
X156400356Y-172462400D01*
X156451521Y-172558121D01*
X156455383Y-172570854D01*
X156464760Y-172593493D01*
X156478374Y-172613867D01*
X156495701Y-172631194D01*
X156516076Y-172644808D01*
X156538715Y-172654186D01*
X156562748Y-172658966D01*
X156587252Y-172658966D01*
X156611286Y-172654185D01*
X156633925Y-172644808D01*
X156654299Y-172631194D01*
X156671626Y-172613867D01*
X156685240Y-172593492D01*
X156694617Y-172570854D01*
X156698479Y-172558121D01*
X156749644Y-172462400D01*
X156818499Y-172378499D01*
X156902400Y-172309644D01*
X156998121Y-172258479D01*
X157010858Y-172254615D01*
X157033493Y-172245240D01*
X157053867Y-172231626D01*
X157071194Y-172214299D01*
X157084808Y-172193924D01*
X157094186Y-172171285D01*
X157098966Y-172147252D01*
X157098966Y-172122748D01*
X157321034Y-172122748D01*
X157321034Y-172147252D01*
X157325815Y-172171286D01*
X157335192Y-172193925D01*
X157348806Y-172214299D01*
X157366133Y-172231626D01*
X157386508Y-172245240D01*
X157409142Y-172254615D01*
X157421879Y-172258479D01*
X157517600Y-172309644D01*
X157601501Y-172378499D01*
X157670356Y-172462400D01*
X157721521Y-172558121D01*
X157725383Y-172570854D01*
X157734760Y-172593493D01*
X157748374Y-172613867D01*
X157765701Y-172631194D01*
X157786076Y-172644808D01*
X157808715Y-172654186D01*
X157832748Y-172658966D01*
X157857252Y-172658966D01*
X157881286Y-172654185D01*
X157903925Y-172644808D01*
X157924299Y-172631194D01*
X157941626Y-172613867D01*
X157955240Y-172593492D01*
X157964617Y-172570854D01*
X157968479Y-172558121D01*
X158019644Y-172462400D01*
X158088499Y-172378499D01*
X158172400Y-172309644D01*
X158268121Y-172258479D01*
X158280858Y-172254615D01*
X158303493Y-172245240D01*
X158323867Y-172231626D01*
X158341194Y-172214299D01*
X158354808Y-172193924D01*
X158364186Y-172171285D01*
X158368966Y-172147252D01*
X158368966Y-172122748D01*
X158591034Y-172122748D01*
X158591034Y-172147252D01*
X158595815Y-172171286D01*
X158605192Y-172193925D01*
X158618806Y-172214299D01*
X158636133Y-172231626D01*
X158656508Y-172245240D01*
X158679142Y-172254615D01*
X158691879Y-172258479D01*
X158787600Y-172309644D01*
X158871501Y-172378499D01*
X158940356Y-172462400D01*
X158991521Y-172558121D01*
X158995383Y-172570854D01*
X159004760Y-172593493D01*
X159018374Y-172613867D01*
X159035701Y-172631194D01*
X159056076Y-172644808D01*
X159078715Y-172654186D01*
X159102748Y-172658966D01*
X159127252Y-172658966D01*
X159151286Y-172654185D01*
X159173925Y-172644808D01*
X159194299Y-172631194D01*
X159211626Y-172613867D01*
X159225240Y-172593492D01*
X159234617Y-172570854D01*
X159238479Y-172558121D01*
X159289644Y-172462400D01*
X159358499Y-172378499D01*
X159442400Y-172309644D01*
X159486195Y-172286234D01*
X159506561Y-172272626D01*
X159523889Y-172255299D01*
X159537502Y-172234924D01*
X159546880Y-172212285D01*
X159551660Y-172188252D01*
X159551660Y-172163748D01*
X159546879Y-172139714D01*
X159537502Y-172117075D01*
X159523888Y-172096701D01*
X159506561Y-172079373D01*
X159486186Y-172065760D01*
X159463547Y-172056382D01*
X159427262Y-172051000D01*
X159199000Y-172051000D01*
X159199000Y-171822738D01*
X159196598Y-171798352D01*
X159189485Y-171774903D01*
X159177934Y-171753292D01*
X159162388Y-171734350D01*
X159143446Y-171718804D01*
X159121835Y-171707253D01*
X159098386Y-171700140D01*
X159074000Y-171697738D01*
X159049614Y-171700140D01*
X159026165Y-171707253D01*
X159004554Y-171718804D01*
X158985612Y-171734350D01*
X158963764Y-171763808D01*
X158940356Y-171807600D01*
X158871501Y-171891501D01*
X158787600Y-171960356D01*
X158691879Y-172011521D01*
X158679142Y-172015385D01*
X158656507Y-172024760D01*
X158636133Y-172038374D01*
X158618806Y-172055701D01*
X158605192Y-172076076D01*
X158595814Y-172098715D01*
X158591034Y-172122748D01*
X158368966Y-172122748D01*
X158364185Y-172098714D01*
X158354808Y-172076075D01*
X158341194Y-172055701D01*
X158323867Y-172038374D01*
X158303492Y-172024760D01*
X158280858Y-172015385D01*
X158268121Y-172011521D01*
X158172400Y-171960356D01*
X158088499Y-171891501D01*
X158019644Y-171807600D01*
X157968479Y-171711879D01*
X157964615Y-171699142D01*
X157955240Y-171676507D01*
X157941626Y-171656133D01*
X157924299Y-171638806D01*
X157903924Y-171625192D01*
X157881285Y-171615814D01*
X157857252Y-171611034D01*
X157832748Y-171611034D01*
X157808714Y-171615815D01*
X157786075Y-171625192D01*
X157765701Y-171638806D01*
X157748374Y-171656133D01*
X157734760Y-171676508D01*
X157725385Y-171699142D01*
X157721521Y-171711879D01*
X157670356Y-171807600D01*
X157601501Y-171891501D01*
X157517600Y-171960356D01*
X157421879Y-172011521D01*
X157409142Y-172015385D01*
X157386507Y-172024760D01*
X157366133Y-172038374D01*
X157348806Y-172055701D01*
X157335192Y-172076076D01*
X157325814Y-172098715D01*
X157321034Y-172122748D01*
X157098966Y-172122748D01*
X157094185Y-172098714D01*
X157084808Y-172076075D01*
X157071194Y-172055701D01*
X157053867Y-172038374D01*
X157033492Y-172024760D01*
X157010858Y-172015385D01*
X156998121Y-172011521D01*
X156902400Y-171960356D01*
X156818499Y-171891501D01*
X156749644Y-171807600D01*
X156698479Y-171711879D01*
X156694615Y-171699142D01*
X156685240Y-171676507D01*
X156671626Y-171656133D01*
X156654299Y-171638806D01*
X156633924Y-171625192D01*
X156611285Y-171615814D01*
X156587252Y-171611034D01*
X156562748Y-171611034D01*
X156538714Y-171615815D01*
X156516075Y-171625192D01*
X156495701Y-171638806D01*
X156478374Y-171656133D01*
X156464760Y-171676508D01*
X156455385Y-171699142D01*
X156451521Y-171711879D01*
X156400356Y-171807600D01*
X156331501Y-171891501D01*
X156247600Y-171960356D01*
X156151879Y-172011521D01*
X156139142Y-172015385D01*
X156116507Y-172024760D01*
X156096133Y-172038374D01*
X156078806Y-172055701D01*
X156065192Y-172076076D01*
X156055814Y-172098715D01*
X156051034Y-172122748D01*
X155828966Y-172122748D01*
X155824185Y-172098714D01*
X155814808Y-172076075D01*
X155801194Y-172055701D01*
X155783867Y-172038374D01*
X155763492Y-172024760D01*
X155740858Y-172015385D01*
X155728121Y-172011521D01*
X155632400Y-171960356D01*
X155548499Y-171891501D01*
X155479644Y-171807600D01*
X155428479Y-171711879D01*
X155424615Y-171699142D01*
X155415240Y-171676507D01*
X155401626Y-171656133D01*
X155384299Y-171638806D01*
X155363924Y-171625192D01*
X155341285Y-171615814D01*
X155317252Y-171611034D01*
X155292748Y-171611034D01*
X155268714Y-171615815D01*
X155246075Y-171625192D01*
X155225701Y-171638806D01*
X155208374Y-171656133D01*
X155194760Y-171676508D01*
X155185385Y-171699142D01*
X155181521Y-171711879D01*
X155130356Y-171807600D01*
X155061501Y-171891501D01*
X154977600Y-171960356D01*
X154881879Y-172011521D01*
X154869142Y-172015385D01*
X154846507Y-172024760D01*
X154826133Y-172038374D01*
X154808806Y-172055701D01*
X154795192Y-172076076D01*
X154785814Y-172098715D01*
X154781034Y-172122748D01*
X154558966Y-172122748D01*
X154554185Y-172098714D01*
X154544808Y-172076075D01*
X154531194Y-172055701D01*
X154513867Y-172038374D01*
X154493492Y-172024760D01*
X154470858Y-172015385D01*
X154458121Y-172011521D01*
X154362400Y-171960356D01*
X154278499Y-171891501D01*
X154209644Y-171807600D01*
X154158479Y-171711879D01*
X154126973Y-171608015D01*
X154116334Y-171500000D01*
X154126973Y-171391985D01*
X154158479Y-171288121D01*
X154209644Y-171192400D01*
X154278499Y-171108499D01*
X154362400Y-171039644D01*
X154458121Y-170988479D01*
X154561985Y-170956973D01*
X154642933Y-170949000D01*
X154697067Y-170949000D01*
X154778015Y-170956973D01*
X154778015Y-170956973D01*
G37*
G36*
X127423238Y-164854760D02*
X127423240Y-164854761D01*
X127423241Y-164854761D01*
X127687306Y-164964140D01*
X127687307Y-164964141D01*
X127924962Y-165122937D01*
X128127063Y-165325038D01*
X128127065Y-165325041D01*
X128285860Y-165562694D01*
X128395239Y-165826759D01*
X128451000Y-166107089D01*
X128451000Y-166392911D01*
X128395239Y-166673241D01*
X128285860Y-166937306D01*
X128285859Y-166937307D01*
X128127063Y-167174962D01*
X127924962Y-167377063D01*
X127924959Y-167377065D01*
X127687306Y-167535860D01*
X127423241Y-167645239D01*
X127423240Y-167645239D01*
X127423238Y-167645240D01*
X127142912Y-167701000D01*
X126857088Y-167701000D01*
X126576762Y-167645240D01*
X126576760Y-167645239D01*
X126576759Y-167645239D01*
X126312694Y-167535860D01*
X126075041Y-167377065D01*
X126075038Y-167377063D01*
X125872937Y-167174962D01*
X125714141Y-166937307D01*
X125714140Y-166937306D01*
X125604761Y-166673241D01*
X125549000Y-166392911D01*
X125549000Y-166107089D01*
X125604761Y-165826759D01*
X125714140Y-165562694D01*
X125872935Y-165325041D01*
X125872937Y-165325038D01*
X126075038Y-165122937D01*
X126312693Y-164964141D01*
X126312694Y-164964140D01*
X126576759Y-164854761D01*
X126576760Y-164854761D01*
X126576762Y-164854760D01*
X126857088Y-164799000D01*
X127142912Y-164799000D01*
X127423238Y-164854760D01*
X127423238Y-164854760D01*
G37*
G36*
X171408903Y-159743213D02*
X171631177Y-159787426D01*
X172049932Y-159960880D01*
X172426802Y-160212696D01*
X172747304Y-160533198D01*
X172999120Y-160910068D01*
X173172574Y-161328823D01*
X173261000Y-161773371D01*
X173261000Y-162226629D01*
X173172574Y-162671177D01*
X172999120Y-163089932D01*
X172747304Y-163466802D01*
X172426802Y-163787304D01*
X172049932Y-164039120D01*
X171631177Y-164212574D01*
X171408903Y-164256787D01*
X171186630Y-164301000D01*
X170733370Y-164301000D01*
X170511097Y-164256787D01*
X170288823Y-164212574D01*
X169870068Y-164039120D01*
X169493198Y-163787304D01*
X169172696Y-163466802D01*
X168920880Y-163089932D01*
X168747426Y-162671177D01*
X168659000Y-162226629D01*
X168659000Y-161773371D01*
X168747426Y-161328823D01*
X168920880Y-160910068D01*
X169172696Y-160533198D01*
X169493198Y-160212696D01*
X169870068Y-159960880D01*
X170288823Y-159787426D01*
X170511097Y-159743213D01*
X170733370Y-159699000D01*
X171186630Y-159699000D01*
X171408903Y-159743213D01*
X171408903Y-159743213D01*
G37*
G36*
X143408903Y-159743213D02*
X143631177Y-159787426D01*
X144049932Y-159960880D01*
X144426802Y-160212696D01*
X144747304Y-160533198D01*
X144999120Y-160910068D01*
X145172574Y-161328823D01*
X145261000Y-161773371D01*
X145261000Y-162226629D01*
X145172574Y-162671177D01*
X144999120Y-163089932D01*
X144747304Y-163466802D01*
X144426802Y-163787304D01*
X144049932Y-164039120D01*
X143631177Y-164212574D01*
X143408903Y-164256787D01*
X143186630Y-164301000D01*
X142733370Y-164301000D01*
X142511097Y-164256787D01*
X142288823Y-164212574D01*
X141870068Y-164039120D01*
X141493198Y-163787304D01*
X141172696Y-163466802D01*
X140920880Y-163089932D01*
X140747426Y-162671177D01*
X140659000Y-162226629D01*
X140659000Y-161773371D01*
X140747426Y-161328823D01*
X140920880Y-160910068D01*
X141172696Y-160533198D01*
X141493198Y-160212696D01*
X141870068Y-159960880D01*
X142288823Y-159787426D01*
X142511097Y-159743213D01*
X142733370Y-159699000D01*
X143186630Y-159699000D01*
X143408903Y-159743213D01*
X143408903Y-159743213D01*
G37*
G36*
X115408903Y-159743213D02*
X115631177Y-159787426D01*
X116049932Y-159960880D01*
X116426802Y-160212696D01*
X116747304Y-160533198D01*
X116999120Y-160910068D01*
X117172574Y-161328823D01*
X117261000Y-161773371D01*
X117261000Y-162226629D01*
X117172574Y-162671177D01*
X116999120Y-163089932D01*
X116747304Y-163466802D01*
X116426802Y-163787304D01*
X116049932Y-164039120D01*
X115631177Y-164212574D01*
X115408903Y-164256787D01*
X115186630Y-164301000D01*
X114733370Y-164301000D01*
X114511097Y-164256787D01*
X114288823Y-164212574D01*
X113870068Y-164039120D01*
X113493198Y-163787304D01*
X113172696Y-163466802D01*
X112920880Y-163089932D01*
X112747426Y-162671177D01*
X112659000Y-162226629D01*
X112659000Y-161773371D01*
X112747426Y-161328823D01*
X112920880Y-160910068D01*
X113172696Y-160533198D01*
X113493198Y-160212696D01*
X113870068Y-159960880D01*
X114288823Y-159787426D01*
X114511097Y-159743213D01*
X114733370Y-159699000D01*
X115186630Y-159699000D01*
X115408903Y-159743213D01*
X115408903Y-159743213D01*
G37*
G36*
X127423238Y-159354760D02*
X127423240Y-159354761D01*
X127423241Y-159354761D01*
X127687306Y-159464140D01*
X127687307Y-159464141D01*
X127924962Y-159622937D01*
X128127063Y-159825038D01*
X128127065Y-159825041D01*
X128285860Y-160062694D01*
X128347994Y-160212699D01*
X128395240Y-160326762D01*
X128451000Y-160607088D01*
X128451000Y-160892912D01*
X128439446Y-160951000D01*
X128395239Y-161173241D01*
X128285860Y-161437306D01*
X128285859Y-161437307D01*
X128127063Y-161674962D01*
X127924962Y-161877063D01*
X127924959Y-161877065D01*
X127687306Y-162035860D01*
X127423241Y-162145239D01*
X127423240Y-162145239D01*
X127423238Y-162145240D01*
X127142912Y-162201000D01*
X126857088Y-162201000D01*
X126576762Y-162145240D01*
X126576760Y-162145239D01*
X126576759Y-162145239D01*
X126312694Y-162035860D01*
X126075041Y-161877065D01*
X126075038Y-161877063D01*
X125872937Y-161674962D01*
X125714141Y-161437307D01*
X125714140Y-161437306D01*
X125604761Y-161173241D01*
X125560555Y-160951000D01*
X125549000Y-160892912D01*
X125549000Y-160607088D01*
X125604760Y-160326762D01*
X125652006Y-160212699D01*
X125714140Y-160062694D01*
X125872935Y-159825041D01*
X125872937Y-159825038D01*
X126075038Y-159622937D01*
X126312693Y-159464141D01*
X126312694Y-159464140D01*
X126576759Y-159354761D01*
X126576760Y-159354761D01*
X126576762Y-159354760D01*
X126857088Y-159299000D01*
X127142912Y-159299000D01*
X127423238Y-159354760D01*
X127423238Y-159354760D01*
G37*
G36*
X154673238Y-158104760D02*
X154673240Y-158104761D01*
X154673241Y-158104761D01*
X154937306Y-158214140D01*
X154937307Y-158214141D01*
X155174962Y-158372937D01*
X155377063Y-158575038D01*
X155377065Y-158575041D01*
X155535860Y-158812694D01*
X155645239Y-159076759D01*
X155645240Y-159076762D01*
X155701000Y-159357088D01*
X155701000Y-159642912D01*
X155672255Y-159787426D01*
X155645239Y-159923241D01*
X155535860Y-160187306D01*
X155535859Y-160187307D01*
X155377063Y-160424962D01*
X155174962Y-160627063D01*
X155174959Y-160627065D01*
X154937306Y-160785860D01*
X154673241Y-160895239D01*
X154673240Y-160895239D01*
X154673238Y-160895240D01*
X154392912Y-160951000D01*
X154107088Y-160951000D01*
X153826762Y-160895240D01*
X153826760Y-160895239D01*
X153826759Y-160895239D01*
X153562694Y-160785860D01*
X153325041Y-160627065D01*
X153325038Y-160627063D01*
X153122937Y-160424962D01*
X152964141Y-160187307D01*
X152964140Y-160187306D01*
X152854761Y-159923241D01*
X152827746Y-159787426D01*
X152799000Y-159642912D01*
X152799000Y-159357088D01*
X152854760Y-159076762D01*
X152854761Y-159076759D01*
X152964140Y-158812694D01*
X153122935Y-158575041D01*
X153122937Y-158575038D01*
X153325038Y-158372937D01*
X153562693Y-158214141D01*
X153562694Y-158214140D01*
X153826759Y-158104761D01*
X153826760Y-158104761D01*
X153826762Y-158104760D01*
X154107088Y-158049000D01*
X154392912Y-158049000D01*
X154673238Y-158104760D01*
X154673238Y-158104760D01*
G37*
G36*
X154673238Y-150354760D02*
X154673240Y-150354761D01*
X154673241Y-150354761D01*
X154937306Y-150464140D01*
X154937307Y-150464141D01*
X155174962Y-150622937D01*
X155377063Y-150825038D01*
X155377065Y-150825041D01*
X155535860Y-151062694D01*
X155645239Y-151326759D01*
X155701000Y-151607089D01*
X155701000Y-151892911D01*
X155645239Y-152173241D01*
X155535860Y-152437306D01*
X155535859Y-152437307D01*
X155377063Y-152674962D01*
X155174962Y-152877063D01*
X155174959Y-152877065D01*
X154937306Y-153035860D01*
X154673241Y-153145239D01*
X154673240Y-153145239D01*
X154673238Y-153145240D01*
X154392912Y-153201000D01*
X154107088Y-153201000D01*
X153826762Y-153145240D01*
X153826760Y-153145239D01*
X153826759Y-153145239D01*
X153562694Y-153035860D01*
X153325041Y-152877065D01*
X153325038Y-152877063D01*
X153122937Y-152674962D01*
X152964141Y-152437307D01*
X152964140Y-152437306D01*
X152854761Y-152173241D01*
X152799000Y-151892911D01*
X152799000Y-151607089D01*
X152854761Y-151326759D01*
X152964140Y-151062694D01*
X153122935Y-150825041D01*
X153122937Y-150825038D01*
X153325038Y-150622937D01*
X153562693Y-150464141D01*
X153562694Y-150464140D01*
X153826759Y-150354761D01*
X153826760Y-150354761D01*
X153826762Y-150354760D01*
X154107088Y-150299000D01*
X154392912Y-150299000D01*
X154673238Y-150354760D01*
X154673238Y-150354760D01*
G37*
G36*
X154673238Y-145604760D02*
X154673240Y-145604761D01*
X154673241Y-145604761D01*
X154937306Y-145714140D01*
X154937307Y-145714141D01*
X155174962Y-145872937D01*
X155377063Y-146075038D01*
X155377065Y-146075041D01*
X155535860Y-146312694D01*
X155645239Y-146576759D01*
X155701000Y-146857089D01*
X155701000Y-147142911D01*
X155645239Y-147423241D01*
X155535860Y-147687306D01*
X155535859Y-147687307D01*
X155377063Y-147924962D01*
X155174962Y-148127063D01*
X155174959Y-148127065D01*
X154937306Y-148285860D01*
X154673241Y-148395239D01*
X154673240Y-148395239D01*
X154673238Y-148395240D01*
X154392912Y-148451000D01*
X154107088Y-148451000D01*
X153826762Y-148395240D01*
X153826760Y-148395239D01*
X153826759Y-148395239D01*
X153562694Y-148285860D01*
X153325041Y-148127065D01*
X153325038Y-148127063D01*
X153122937Y-147924962D01*
X152964141Y-147687307D01*
X152964140Y-147687306D01*
X152854761Y-147423241D01*
X152799000Y-147142911D01*
X152799000Y-146857089D01*
X152854761Y-146576759D01*
X152964140Y-146312694D01*
X153122935Y-146075041D01*
X153122937Y-146075038D01*
X153325038Y-145872937D01*
X153562693Y-145714141D01*
X153562694Y-145714140D01*
X153826759Y-145604761D01*
X153826760Y-145604761D01*
X153826762Y-145604760D01*
X154107088Y-145549000D01*
X154392912Y-145549000D01*
X154673238Y-145604760D01*
X154673238Y-145604760D01*
G37*
G36*
X89252527Y-140728736D02*
X89352410Y-140748604D01*
X89634674Y-140865521D01*
X89888705Y-141035259D01*
X90104741Y-141251295D01*
X90274479Y-141505326D01*
X90391396Y-141787590D01*
X90391396Y-141787591D01*
X90451000Y-142087238D01*
X90451000Y-142392762D01*
X90444595Y-142424962D01*
X90391396Y-142692410D01*
X90274479Y-142974674D01*
X90104741Y-143228705D01*
X89888705Y-143444741D01*
X89634674Y-143614479D01*
X89352410Y-143731396D01*
X89252527Y-143751264D01*
X89052762Y-143791000D01*
X88747238Y-143791000D01*
X88547473Y-143751264D01*
X88447590Y-143731396D01*
X88165326Y-143614479D01*
X87911295Y-143444741D01*
X87695259Y-143228705D01*
X87525521Y-142974674D01*
X87408604Y-142692410D01*
X87355405Y-142424962D01*
X87349000Y-142392762D01*
X87349000Y-142087238D01*
X87408604Y-141787591D01*
X87408604Y-141787590D01*
X87525521Y-141505326D01*
X87695259Y-141251295D01*
X87911295Y-141035259D01*
X88165326Y-140865521D01*
X88447590Y-140748604D01*
X88547473Y-140728736D01*
X88747238Y-140689000D01*
X89052762Y-140689000D01*
X89252527Y-140728736D01*
X89252527Y-140728736D01*
G37*
G36*
X154673238Y-140104760D02*
X154673240Y-140104761D01*
X154673241Y-140104761D01*
X154937306Y-140214140D01*
X154937307Y-140214141D01*
X155174962Y-140372937D01*
X155377063Y-140575038D01*
X155377065Y-140575041D01*
X155535860Y-140812694D01*
X155628049Y-141035259D01*
X155645240Y-141076762D01*
X155701000Y-141357088D01*
X155701000Y-141642912D01*
X155672222Y-141787591D01*
X155645239Y-141923241D01*
X155535860Y-142187306D01*
X155535859Y-142187307D01*
X155377063Y-142424962D01*
X155174962Y-142627063D01*
X155174959Y-142627065D01*
X154937306Y-142785860D01*
X154673241Y-142895239D01*
X154673240Y-142895239D01*
X154673238Y-142895240D01*
X154392912Y-142951000D01*
X154107088Y-142951000D01*
X153826762Y-142895240D01*
X153826760Y-142895239D01*
X153826759Y-142895239D01*
X153562694Y-142785860D01*
X153325041Y-142627065D01*
X153325038Y-142627063D01*
X153122937Y-142424962D01*
X152964141Y-142187307D01*
X152964140Y-142187306D01*
X152854761Y-141923241D01*
X152827779Y-141787591D01*
X152799000Y-141642912D01*
X152799000Y-141357088D01*
X152854760Y-141076762D01*
X152871951Y-141035259D01*
X152964140Y-140812694D01*
X153122935Y-140575041D01*
X153122937Y-140575038D01*
X153325038Y-140372937D01*
X153562693Y-140214141D01*
X153562694Y-140214140D01*
X153826759Y-140104761D01*
X153826760Y-140104761D01*
X153826762Y-140104760D01*
X154107088Y-140049000D01*
X154392912Y-140049000D01*
X154673238Y-140104760D01*
X154673238Y-140104760D01*
G37*
G36*
X139688512Y-137833851D02*
X139852484Y-137901771D01*
X140000054Y-138000374D01*
X140125553Y-138125873D01*
X140224156Y-138273443D01*
X140292076Y-138437415D01*
X140326700Y-138611486D01*
X140326700Y-138788968D01*
X140292076Y-138963039D01*
X140224156Y-139127011D01*
X140125553Y-139274581D01*
X140000054Y-139400080D01*
X139852484Y-139498683D01*
X139688512Y-139566603D01*
X139514441Y-139601227D01*
X139336959Y-139601227D01*
X139162888Y-139566603D01*
X138998916Y-139498683D01*
X138851346Y-139400080D01*
X138725847Y-139274581D01*
X138627244Y-139127011D01*
X138559324Y-138963039D01*
X138524700Y-138788968D01*
X138524700Y-138611486D01*
X138559324Y-138437415D01*
X138627244Y-138273443D01*
X138725847Y-138125873D01*
X138851346Y-138000374D01*
X138998916Y-137901771D01*
X139162888Y-137833851D01*
X139336959Y-137799227D01*
X139514441Y-137799227D01*
X139688512Y-137833851D01*
X139688512Y-137833851D01*
G37*
G36*
X134837112Y-137833851D02*
X135001084Y-137901771D01*
X135148654Y-138000374D01*
X135274153Y-138125873D01*
X135372756Y-138273443D01*
X135440676Y-138437415D01*
X135475300Y-138611486D01*
X135475300Y-138788968D01*
X135440676Y-138963039D01*
X135372756Y-139127011D01*
X135274153Y-139274581D01*
X135148654Y-139400080D01*
X135001084Y-139498683D01*
X134837112Y-139566603D01*
X134663041Y-139601227D01*
X134485559Y-139601227D01*
X134311488Y-139566603D01*
X134147516Y-139498683D01*
X133999946Y-139400080D01*
X133874447Y-139274581D01*
X133775844Y-139127011D01*
X133707924Y-138963039D01*
X133673300Y-138788968D01*
X133673300Y-138611486D01*
X133707924Y-138437415D01*
X133775844Y-138273443D01*
X133874447Y-138125873D01*
X133999946Y-138000374D01*
X134147516Y-137901771D01*
X134311488Y-137833851D01*
X134485559Y-137799227D01*
X134663041Y-137799227D01*
X134837112Y-137833851D01*
X134837112Y-137833851D01*
G37*
G36*
X162837112Y-137803624D02*
X163001084Y-137871544D01*
X163148654Y-137970147D01*
X163274153Y-138095646D01*
X163372756Y-138243216D01*
X163440676Y-138407188D01*
X163475300Y-138581259D01*
X163475300Y-138758741D01*
X163440676Y-138932812D01*
X163372756Y-139096784D01*
X163274153Y-139244354D01*
X163148654Y-139369853D01*
X163001084Y-139468456D01*
X162837112Y-139536376D01*
X162663041Y-139571000D01*
X162485559Y-139571000D01*
X162311488Y-139536376D01*
X162147516Y-139468456D01*
X161999946Y-139369853D01*
X161874447Y-139244354D01*
X161775844Y-139096784D01*
X161707924Y-138932812D01*
X161673300Y-138758741D01*
X161673300Y-138581259D01*
X161707924Y-138407188D01*
X161775844Y-138243216D01*
X161874447Y-138095646D01*
X161999946Y-137970147D01*
X162147516Y-137871544D01*
X162311488Y-137803624D01*
X162485559Y-137769000D01*
X162663041Y-137769000D01*
X162837112Y-137803624D01*
X162837112Y-137803624D01*
G37*
G36*
X167688512Y-137803624D02*
X167852484Y-137871544D01*
X168000054Y-137970147D01*
X168125553Y-138095646D01*
X168224156Y-138243216D01*
X168292076Y-138407188D01*
X168326700Y-138581259D01*
X168326700Y-138758741D01*
X168292076Y-138932812D01*
X168224156Y-139096784D01*
X168125553Y-139244354D01*
X168000054Y-139369853D01*
X167852484Y-139468456D01*
X167688512Y-139536376D01*
X167514441Y-139571000D01*
X167336959Y-139571000D01*
X167162888Y-139536376D01*
X166998916Y-139468456D01*
X166851346Y-139369853D01*
X166725847Y-139244354D01*
X166627244Y-139096784D01*
X166559324Y-138932812D01*
X166524700Y-138758741D01*
X166524700Y-138581259D01*
X166559324Y-138407188D01*
X166627244Y-138243216D01*
X166725847Y-138095646D01*
X166851346Y-137970147D01*
X166998916Y-137871544D01*
X167162888Y-137803624D01*
X167336959Y-137769000D01*
X167514441Y-137769000D01*
X167688512Y-137803624D01*
X167688512Y-137803624D01*
G37*
G36*
X111688512Y-137803624D02*
X111852484Y-137871544D01*
X112000054Y-137970147D01*
X112125553Y-138095646D01*
X112224156Y-138243216D01*
X112292076Y-138407188D01*
X112326700Y-138581259D01*
X112326700Y-138758741D01*
X112292076Y-138932812D01*
X112224156Y-139096784D01*
X112125553Y-139244354D01*
X112000054Y-139369853D01*
X111852484Y-139468456D01*
X111688512Y-139536376D01*
X111514441Y-139571000D01*
X111336959Y-139571000D01*
X111162888Y-139536376D01*
X110998916Y-139468456D01*
X110851346Y-139369853D01*
X110725847Y-139244354D01*
X110627244Y-139096784D01*
X110559324Y-138932812D01*
X110524700Y-138758741D01*
X110524700Y-138581259D01*
X110559324Y-138407188D01*
X110627244Y-138243216D01*
X110725847Y-138095646D01*
X110851346Y-137970147D01*
X110998916Y-137871544D01*
X111162888Y-137803624D01*
X111336959Y-137769000D01*
X111514441Y-137769000D01*
X111688512Y-137803624D01*
X111688512Y-137803624D01*
G37*
G36*
X106837112Y-137803624D02*
X107001084Y-137871544D01*
X107148654Y-137970147D01*
X107274153Y-138095646D01*
X107372756Y-138243216D01*
X107440676Y-138407188D01*
X107475300Y-138581259D01*
X107475300Y-138758741D01*
X107440676Y-138932812D01*
X107372756Y-139096784D01*
X107274153Y-139244354D01*
X107148654Y-139369853D01*
X107001084Y-139468456D01*
X106837112Y-139536376D01*
X106663041Y-139571000D01*
X106485559Y-139571000D01*
X106311488Y-139536376D01*
X106147516Y-139468456D01*
X105999946Y-139369853D01*
X105874447Y-139244354D01*
X105775844Y-139096784D01*
X105707924Y-138932812D01*
X105673300Y-138758741D01*
X105673300Y-138581259D01*
X105707924Y-138407188D01*
X105775844Y-138243216D01*
X105874447Y-138095646D01*
X105999946Y-137970147D01*
X106147516Y-137871544D01*
X106311488Y-137803624D01*
X106485559Y-137769000D01*
X106663041Y-137769000D01*
X106837112Y-137803624D01*
X106837112Y-137803624D01*
G37*
G36*
X89252527Y-135648736D02*
X89352410Y-135668604D01*
X89634674Y-135785521D01*
X89888705Y-135955259D01*
X90104741Y-136171295D01*
X90274479Y-136425326D01*
X90391396Y-136707590D01*
X90391396Y-136707591D01*
X90441342Y-136958683D01*
X90451000Y-137007240D01*
X90451000Y-137312760D01*
X90391396Y-137612410D01*
X90274479Y-137894674D01*
X90104741Y-138148705D01*
X89888705Y-138364741D01*
X89634674Y-138534479D01*
X89352410Y-138651396D01*
X89252527Y-138671264D01*
X89052762Y-138711000D01*
X88747238Y-138711000D01*
X88547473Y-138671264D01*
X88447590Y-138651396D01*
X88165326Y-138534479D01*
X87911295Y-138364741D01*
X87695259Y-138148705D01*
X87525521Y-137894674D01*
X87408604Y-137612410D01*
X87349000Y-137312760D01*
X87349000Y-137007240D01*
X87358659Y-136958683D01*
X87408604Y-136707591D01*
X87408604Y-136707590D01*
X87525521Y-136425326D01*
X87695259Y-136171295D01*
X87911295Y-135955259D01*
X88165326Y-135785521D01*
X88447590Y-135668604D01*
X88547473Y-135648736D01*
X88747238Y-135609000D01*
X89052762Y-135609000D01*
X89252527Y-135648736D01*
X89252527Y-135648736D01*
G37*
G36*
X139688512Y-135293851D02*
X139852484Y-135361771D01*
X140000054Y-135460374D01*
X140125553Y-135585873D01*
X140224156Y-135733443D01*
X140292076Y-135897415D01*
X140326700Y-136071486D01*
X140326700Y-136248968D01*
X140292076Y-136423039D01*
X140224156Y-136587011D01*
X140125553Y-136734581D01*
X140000054Y-136860080D01*
X139852484Y-136958683D01*
X139688512Y-137026603D01*
X139514441Y-137061227D01*
X139336959Y-137061227D01*
X139162888Y-137026603D01*
X138998916Y-136958683D01*
X138851346Y-136860080D01*
X138725847Y-136734581D01*
X138627244Y-136587011D01*
X138559324Y-136423039D01*
X138524700Y-136248968D01*
X138524700Y-136071486D01*
X138559324Y-135897415D01*
X138627244Y-135733443D01*
X138725847Y-135585873D01*
X138851346Y-135460374D01*
X138998916Y-135361771D01*
X139162888Y-135293851D01*
X139336959Y-135259227D01*
X139514441Y-135259227D01*
X139688512Y-135293851D01*
X139688512Y-135293851D01*
G37*
G36*
X134837112Y-135293851D02*
X135001084Y-135361771D01*
X135148654Y-135460374D01*
X135274153Y-135585873D01*
X135372756Y-135733443D01*
X135440676Y-135897415D01*
X135475300Y-136071486D01*
X135475300Y-136248968D01*
X135440676Y-136423039D01*
X135372756Y-136587011D01*
X135274153Y-136734581D01*
X135148654Y-136860080D01*
X135001084Y-136958683D01*
X134837112Y-137026603D01*
X134663041Y-137061227D01*
X134485559Y-137061227D01*
X134311488Y-137026603D01*
X134147516Y-136958683D01*
X133999946Y-136860080D01*
X133874447Y-136734581D01*
X133775844Y-136587011D01*
X133707924Y-136423039D01*
X133673300Y-136248968D01*
X133673300Y-136071486D01*
X133707924Y-135897415D01*
X133775844Y-135733443D01*
X133874447Y-135585873D01*
X133999946Y-135460374D01*
X134147516Y-135361771D01*
X134311488Y-135293851D01*
X134485559Y-135259227D01*
X134663041Y-135259227D01*
X134837112Y-135293851D01*
X134837112Y-135293851D01*
G37*
G36*
X162837112Y-135263624D02*
X163001084Y-135331544D01*
X163148654Y-135430147D01*
X163274153Y-135555646D01*
X163372756Y-135703216D01*
X163440676Y-135867188D01*
X163475300Y-136041259D01*
X163475300Y-136218741D01*
X163440676Y-136392812D01*
X163372756Y-136556784D01*
X163274153Y-136704354D01*
X163148654Y-136829853D01*
X163001084Y-136928456D01*
X162837112Y-136996376D01*
X162663041Y-137031000D01*
X162485559Y-137031000D01*
X162311488Y-136996376D01*
X162147516Y-136928456D01*
X161999946Y-136829853D01*
X161874447Y-136704354D01*
X161775844Y-136556784D01*
X161707924Y-136392812D01*
X161673300Y-136218741D01*
X161673300Y-136041259D01*
X161707924Y-135867188D01*
X161775844Y-135703216D01*
X161874447Y-135555646D01*
X161999946Y-135430147D01*
X162147516Y-135331544D01*
X162311488Y-135263624D01*
X162485559Y-135229000D01*
X162663041Y-135229000D01*
X162837112Y-135263624D01*
X162837112Y-135263624D01*
G37*
G36*
X106837112Y-135263624D02*
X107001084Y-135331544D01*
X107148654Y-135430147D01*
X107274153Y-135555646D01*
X107372756Y-135703216D01*
X107440676Y-135867188D01*
X107475300Y-136041259D01*
X107475300Y-136218741D01*
X107440676Y-136392812D01*
X107372756Y-136556784D01*
X107274153Y-136704354D01*
X107148654Y-136829853D01*
X107001084Y-136928456D01*
X106837112Y-136996376D01*
X106663041Y-137031000D01*
X106485559Y-137031000D01*
X106311488Y-136996376D01*
X106147516Y-136928456D01*
X105999946Y-136829853D01*
X105874447Y-136704354D01*
X105775844Y-136556784D01*
X105707924Y-136392812D01*
X105673300Y-136218741D01*
X105673300Y-136041259D01*
X105707924Y-135867188D01*
X105775844Y-135703216D01*
X105874447Y-135555646D01*
X105999946Y-135430147D01*
X106147516Y-135331544D01*
X106311488Y-135263624D01*
X106485559Y-135229000D01*
X106663041Y-135229000D01*
X106837112Y-135263624D01*
X106837112Y-135263624D01*
G37*
G36*
X167688512Y-135263624D02*
X167852484Y-135331544D01*
X168000054Y-135430147D01*
X168125553Y-135555646D01*
X168224156Y-135703216D01*
X168292076Y-135867188D01*
X168326700Y-136041259D01*
X168326700Y-136218741D01*
X168292076Y-136392812D01*
X168224156Y-136556784D01*
X168125553Y-136704354D01*
X168000054Y-136829853D01*
X167852484Y-136928456D01*
X167688512Y-136996376D01*
X167514441Y-137031000D01*
X167336959Y-137031000D01*
X167162888Y-136996376D01*
X166998916Y-136928456D01*
X166851346Y-136829853D01*
X166725847Y-136704354D01*
X166627244Y-136556784D01*
X166559324Y-136392812D01*
X166524700Y-136218741D01*
X166524700Y-136041259D01*
X166559324Y-135867188D01*
X166627244Y-135703216D01*
X166725847Y-135555646D01*
X166851346Y-135430147D01*
X166998916Y-135331544D01*
X167162888Y-135263624D01*
X167336959Y-135229000D01*
X167514441Y-135229000D01*
X167688512Y-135263624D01*
X167688512Y-135263624D01*
G37*
G36*
X111688512Y-135263624D02*
X111852484Y-135331544D01*
X112000054Y-135430147D01*
X112125553Y-135555646D01*
X112224156Y-135703216D01*
X112292076Y-135867188D01*
X112326700Y-136041259D01*
X112326700Y-136218741D01*
X112292076Y-136392812D01*
X112224156Y-136556784D01*
X112125553Y-136704354D01*
X112000054Y-136829853D01*
X111852484Y-136928456D01*
X111688512Y-136996376D01*
X111514441Y-137031000D01*
X111336959Y-137031000D01*
X111162888Y-136996376D01*
X110998916Y-136928456D01*
X110851346Y-136829853D01*
X110725847Y-136704354D01*
X110627244Y-136556784D01*
X110559324Y-136392812D01*
X110524700Y-136218741D01*
X110524700Y-136041259D01*
X110559324Y-135867188D01*
X110627244Y-135703216D01*
X110725847Y-135555646D01*
X110851346Y-135430147D01*
X110998916Y-135331544D01*
X111162888Y-135263624D01*
X111336959Y-135229000D01*
X111514441Y-135229000D01*
X111688512Y-135263624D01*
X111688512Y-135263624D01*
G37*
G36*
X134837112Y-132753851D02*
X135001084Y-132821771D01*
X135148654Y-132920374D01*
X135274153Y-133045873D01*
X135372756Y-133193443D01*
X135440676Y-133357415D01*
X135475300Y-133531486D01*
X135475300Y-133708968D01*
X135440676Y-133883039D01*
X135372756Y-134047011D01*
X135274153Y-134194581D01*
X135148654Y-134320080D01*
X135001084Y-134418683D01*
X134837112Y-134486603D01*
X134663041Y-134521227D01*
X134485559Y-134521227D01*
X134311488Y-134486603D01*
X134147516Y-134418683D01*
X133999946Y-134320080D01*
X133874447Y-134194581D01*
X133775844Y-134047011D01*
X133707924Y-133883039D01*
X133673300Y-133708968D01*
X133673300Y-133531486D01*
X133707924Y-133357415D01*
X133775844Y-133193443D01*
X133874447Y-133045873D01*
X133999946Y-132920374D01*
X134147516Y-132821771D01*
X134311488Y-132753851D01*
X134485559Y-132719227D01*
X134663041Y-132719227D01*
X134837112Y-132753851D01*
X134837112Y-132753851D01*
G37*
G36*
X139688512Y-132753851D02*
X139852484Y-132821771D01*
X140000054Y-132920374D01*
X140125553Y-133045873D01*
X140224156Y-133193443D01*
X140292076Y-133357415D01*
X140326700Y-133531486D01*
X140326700Y-133708968D01*
X140292076Y-133883039D01*
X140224156Y-134047011D01*
X140125553Y-134194581D01*
X140000054Y-134320080D01*
X139852484Y-134418683D01*
X139688512Y-134486603D01*
X139514441Y-134521227D01*
X139336959Y-134521227D01*
X139162888Y-134486603D01*
X138998916Y-134418683D01*
X138851346Y-134320080D01*
X138725847Y-134194581D01*
X138627244Y-134047011D01*
X138559324Y-133883039D01*
X138524700Y-133708968D01*
X138524700Y-133531486D01*
X138559324Y-133357415D01*
X138627244Y-133193443D01*
X138725847Y-133045873D01*
X138851346Y-132920374D01*
X138998916Y-132821771D01*
X139162888Y-132753851D01*
X139336959Y-132719227D01*
X139514441Y-132719227D01*
X139688512Y-132753851D01*
X139688512Y-132753851D01*
G37*
G36*
X111688512Y-132723624D02*
X111852484Y-132791544D01*
X112000054Y-132890147D01*
X112125553Y-133015646D01*
X112224156Y-133163216D01*
X112292076Y-133327188D01*
X112326700Y-133501259D01*
X112326700Y-133678741D01*
X112292076Y-133852812D01*
X112224156Y-134016784D01*
X112125553Y-134164354D01*
X112000054Y-134289853D01*
X111852484Y-134388456D01*
X111688512Y-134456376D01*
X111514441Y-134491000D01*
X111336959Y-134491000D01*
X111162888Y-134456376D01*
X110998916Y-134388456D01*
X110851346Y-134289853D01*
X110725847Y-134164354D01*
X110627244Y-134016784D01*
X110559324Y-133852812D01*
X110524700Y-133678741D01*
X110524700Y-133501259D01*
X110559324Y-133327188D01*
X110627244Y-133163216D01*
X110725847Y-133015646D01*
X110851346Y-132890147D01*
X110998916Y-132791544D01*
X111162888Y-132723624D01*
X111336959Y-132689000D01*
X111514441Y-132689000D01*
X111688512Y-132723624D01*
X111688512Y-132723624D01*
G37*
G36*
X162837112Y-132723624D02*
X163001084Y-132791544D01*
X163148654Y-132890147D01*
X163274153Y-133015646D01*
X163372756Y-133163216D01*
X163440676Y-133327188D01*
X163475300Y-133501259D01*
X163475300Y-133678741D01*
X163440676Y-133852812D01*
X163372756Y-134016784D01*
X163274153Y-134164354D01*
X163148654Y-134289853D01*
X163001084Y-134388456D01*
X162837112Y-134456376D01*
X162663041Y-134491000D01*
X162485559Y-134491000D01*
X162311488Y-134456376D01*
X162147516Y-134388456D01*
X161999946Y-134289853D01*
X161874447Y-134164354D01*
X161775844Y-134016784D01*
X161707924Y-133852812D01*
X161673300Y-133678741D01*
X161673300Y-133501259D01*
X161707924Y-133327188D01*
X161775844Y-133163216D01*
X161874447Y-133015646D01*
X161999946Y-132890147D01*
X162147516Y-132791544D01*
X162311488Y-132723624D01*
X162485559Y-132689000D01*
X162663041Y-132689000D01*
X162837112Y-132723624D01*
X162837112Y-132723624D01*
G37*
G36*
X106837112Y-132723624D02*
X107001084Y-132791544D01*
X107148654Y-132890147D01*
X107274153Y-133015646D01*
X107372756Y-133163216D01*
X107440676Y-133327188D01*
X107475300Y-133501259D01*
X107475300Y-133678741D01*
X107440676Y-133852812D01*
X107372756Y-134016784D01*
X107274153Y-134164354D01*
X107148654Y-134289853D01*
X107001084Y-134388456D01*
X106837112Y-134456376D01*
X106663041Y-134491000D01*
X106485559Y-134491000D01*
X106311488Y-134456376D01*
X106147516Y-134388456D01*
X105999946Y-134289853D01*
X105874447Y-134164354D01*
X105775844Y-134016784D01*
X105707924Y-133852812D01*
X105673300Y-133678741D01*
X105673300Y-133501259D01*
X105707924Y-133327188D01*
X105775844Y-133163216D01*
X105874447Y-133015646D01*
X105999946Y-132890147D01*
X106147516Y-132791544D01*
X106311488Y-132723624D01*
X106485559Y-132689000D01*
X106663041Y-132689000D01*
X106837112Y-132723624D01*
X106837112Y-132723624D01*
G37*
G36*
X167688512Y-132723624D02*
X167852484Y-132791544D01*
X168000054Y-132890147D01*
X168125553Y-133015646D01*
X168224156Y-133163216D01*
X168292076Y-133327188D01*
X168326700Y-133501259D01*
X168326700Y-133678741D01*
X168292076Y-133852812D01*
X168224156Y-134016784D01*
X168125553Y-134164354D01*
X168000054Y-134289853D01*
X167852484Y-134388456D01*
X167688512Y-134456376D01*
X167514441Y-134491000D01*
X167336959Y-134491000D01*
X167162888Y-134456376D01*
X166998916Y-134388456D01*
X166851346Y-134289853D01*
X166725847Y-134164354D01*
X166627244Y-134016784D01*
X166559324Y-133852812D01*
X166524700Y-133678741D01*
X166524700Y-133501259D01*
X166559324Y-133327188D01*
X166627244Y-133163216D01*
X166725847Y-133015646D01*
X166851346Y-132890147D01*
X166998916Y-132791544D01*
X167162888Y-132723624D01*
X167336959Y-132689000D01*
X167514441Y-132689000D01*
X167688512Y-132723624D01*
X167688512Y-132723624D01*
G37*
G36*
X89252527Y-130568736D02*
X89352410Y-130588604D01*
X89634674Y-130705521D01*
X89888705Y-130875259D01*
X90104741Y-131091295D01*
X90274479Y-131345326D01*
X90391396Y-131627590D01*
X90391396Y-131627591D01*
X90441342Y-131878683D01*
X90451000Y-131927240D01*
X90451000Y-132232760D01*
X90391396Y-132532410D01*
X90274479Y-132814674D01*
X90104741Y-133068705D01*
X89888705Y-133284741D01*
X89634674Y-133454479D01*
X89352410Y-133571396D01*
X89252527Y-133591264D01*
X89052762Y-133631000D01*
X88747238Y-133631000D01*
X88547473Y-133591264D01*
X88447590Y-133571396D01*
X88165326Y-133454479D01*
X87911295Y-133284741D01*
X87695259Y-133068705D01*
X87525521Y-132814674D01*
X87408604Y-132532410D01*
X87349000Y-132232760D01*
X87349000Y-131927240D01*
X87358659Y-131878683D01*
X87408604Y-131627591D01*
X87408604Y-131627590D01*
X87525521Y-131345326D01*
X87695259Y-131091295D01*
X87911295Y-130875259D01*
X88165326Y-130705521D01*
X88447590Y-130588604D01*
X88547473Y-130568736D01*
X88747238Y-130529000D01*
X89052762Y-130529000D01*
X89252527Y-130568736D01*
X89252527Y-130568736D01*
G37*
G36*
X139688512Y-130213851D02*
X139852484Y-130281771D01*
X140000054Y-130380374D01*
X140125553Y-130505873D01*
X140224156Y-130653443D01*
X140292076Y-130817415D01*
X140326700Y-130991486D01*
X140326700Y-131168968D01*
X140292076Y-131343039D01*
X140224156Y-131507011D01*
X140125553Y-131654581D01*
X140000054Y-131780080D01*
X139852484Y-131878683D01*
X139688512Y-131946603D01*
X139514441Y-131981227D01*
X139336959Y-131981227D01*
X139162888Y-131946603D01*
X138998916Y-131878683D01*
X138851346Y-131780080D01*
X138725847Y-131654581D01*
X138627244Y-131507011D01*
X138559324Y-131343039D01*
X138524700Y-131168968D01*
X138524700Y-130991486D01*
X138559324Y-130817415D01*
X138627244Y-130653443D01*
X138725847Y-130505873D01*
X138851346Y-130380374D01*
X138998916Y-130281771D01*
X139162888Y-130213851D01*
X139336959Y-130179227D01*
X139514441Y-130179227D01*
X139688512Y-130213851D01*
X139688512Y-130213851D01*
G37*
G36*
X134837112Y-130213851D02*
X135001084Y-130281771D01*
X135148654Y-130380374D01*
X135274153Y-130505873D01*
X135372756Y-130653443D01*
X135440676Y-130817415D01*
X135475300Y-130991486D01*
X135475300Y-131168968D01*
X135440676Y-131343039D01*
X135372756Y-131507011D01*
X135274153Y-131654581D01*
X135148654Y-131780080D01*
X135001084Y-131878683D01*
X134837112Y-131946603D01*
X134663041Y-131981227D01*
X134485559Y-131981227D01*
X134311488Y-131946603D01*
X134147516Y-131878683D01*
X133999946Y-131780080D01*
X133874447Y-131654581D01*
X133775844Y-131507011D01*
X133707924Y-131343039D01*
X133673300Y-131168968D01*
X133673300Y-130991486D01*
X133707924Y-130817415D01*
X133775844Y-130653443D01*
X133874447Y-130505873D01*
X133999946Y-130380374D01*
X134147516Y-130281771D01*
X134311488Y-130213851D01*
X134485559Y-130179227D01*
X134663041Y-130179227D01*
X134837112Y-130213851D01*
X134837112Y-130213851D01*
G37*
G36*
X111688512Y-130183624D02*
X111852484Y-130251544D01*
X112000054Y-130350147D01*
X112125553Y-130475646D01*
X112224156Y-130623216D01*
X112292076Y-130787188D01*
X112326700Y-130961259D01*
X112326700Y-131138741D01*
X112292076Y-131312812D01*
X112224156Y-131476784D01*
X112125553Y-131624354D01*
X112000054Y-131749853D01*
X111852484Y-131848456D01*
X111688512Y-131916376D01*
X111514441Y-131951000D01*
X111336959Y-131951000D01*
X111162888Y-131916376D01*
X110998916Y-131848456D01*
X110851346Y-131749853D01*
X110725847Y-131624354D01*
X110627244Y-131476784D01*
X110559324Y-131312812D01*
X110524700Y-131138741D01*
X110524700Y-130961259D01*
X110559324Y-130787188D01*
X110627244Y-130623216D01*
X110725847Y-130475646D01*
X110851346Y-130350147D01*
X110998916Y-130251544D01*
X111162888Y-130183624D01*
X111336959Y-130149000D01*
X111514441Y-130149000D01*
X111688512Y-130183624D01*
X111688512Y-130183624D01*
G37*
G36*
X162837112Y-130183624D02*
X163001084Y-130251544D01*
X163148654Y-130350147D01*
X163274153Y-130475646D01*
X163372756Y-130623216D01*
X163440676Y-130787188D01*
X163475300Y-130961259D01*
X163475300Y-131138741D01*
X163440676Y-131312812D01*
X163372756Y-131476784D01*
X163274153Y-131624354D01*
X163148654Y-131749853D01*
X163001084Y-131848456D01*
X162837112Y-131916376D01*
X162663041Y-131951000D01*
X162485559Y-131951000D01*
X162311488Y-131916376D01*
X162147516Y-131848456D01*
X161999946Y-131749853D01*
X161874447Y-131624354D01*
X161775844Y-131476784D01*
X161707924Y-131312812D01*
X161673300Y-131138741D01*
X161673300Y-130961259D01*
X161707924Y-130787188D01*
X161775844Y-130623216D01*
X161874447Y-130475646D01*
X161999946Y-130350147D01*
X162147516Y-130251544D01*
X162311488Y-130183624D01*
X162485559Y-130149000D01*
X162663041Y-130149000D01*
X162837112Y-130183624D01*
X162837112Y-130183624D01*
G37*
G36*
X167688512Y-130183624D02*
X167852484Y-130251544D01*
X168000054Y-130350147D01*
X168125553Y-130475646D01*
X168224156Y-130623216D01*
X168292076Y-130787188D01*
X168326700Y-130961259D01*
X168326700Y-131138741D01*
X168292076Y-131312812D01*
X168224156Y-131476784D01*
X168125553Y-131624354D01*
X168000054Y-131749853D01*
X167852484Y-131848456D01*
X167688512Y-131916376D01*
X167514441Y-131951000D01*
X167336959Y-131951000D01*
X167162888Y-131916376D01*
X166998916Y-131848456D01*
X166851346Y-131749853D01*
X166725847Y-131624354D01*
X166627244Y-131476784D01*
X166559324Y-131312812D01*
X166524700Y-131138741D01*
X166524700Y-130961259D01*
X166559324Y-130787188D01*
X166627244Y-130623216D01*
X166725847Y-130475646D01*
X166851346Y-130350147D01*
X166998916Y-130251544D01*
X167162888Y-130183624D01*
X167336959Y-130149000D01*
X167514441Y-130149000D01*
X167688512Y-130183624D01*
X167688512Y-130183624D01*
G37*
G36*
X106837112Y-130183624D02*
X107001084Y-130251544D01*
X107148654Y-130350147D01*
X107274153Y-130475646D01*
X107372756Y-130623216D01*
X107440676Y-130787188D01*
X107475300Y-130961259D01*
X107475300Y-131138741D01*
X107440676Y-131312812D01*
X107372756Y-131476784D01*
X107274153Y-131624354D01*
X107148654Y-131749853D01*
X107001084Y-131848456D01*
X106837112Y-131916376D01*
X106663041Y-131951000D01*
X106485559Y-131951000D01*
X106311488Y-131916376D01*
X106147516Y-131848456D01*
X105999946Y-131749853D01*
X105874447Y-131624354D01*
X105775844Y-131476784D01*
X105707924Y-131312812D01*
X105673300Y-131138741D01*
X105673300Y-130961259D01*
X105707924Y-130787188D01*
X105775844Y-130623216D01*
X105874447Y-130475646D01*
X105999946Y-130350147D01*
X106147516Y-130251544D01*
X106311488Y-130183624D01*
X106485559Y-130149000D01*
X106663041Y-130149000D01*
X106837112Y-130183624D01*
X106837112Y-130183624D01*
G37*
G36*
X134837112Y-127673851D02*
X135001084Y-127741771D01*
X135148654Y-127840374D01*
X135274153Y-127965873D01*
X135372756Y-128113443D01*
X135440676Y-128277415D01*
X135475300Y-128451486D01*
X135475300Y-128628968D01*
X135440676Y-128803039D01*
X135372756Y-128967011D01*
X135274153Y-129114581D01*
X135148654Y-129240080D01*
X135001084Y-129338683D01*
X134837112Y-129406603D01*
X134663041Y-129441227D01*
X134485559Y-129441227D01*
X134311488Y-129406603D01*
X134147516Y-129338683D01*
X133999946Y-129240080D01*
X133874447Y-129114581D01*
X133775844Y-128967011D01*
X133707924Y-128803039D01*
X133673300Y-128628968D01*
X133673300Y-128451486D01*
X133707924Y-128277415D01*
X133775844Y-128113443D01*
X133874447Y-127965873D01*
X133999946Y-127840374D01*
X134147516Y-127741771D01*
X134311488Y-127673851D01*
X134485559Y-127639227D01*
X134663041Y-127639227D01*
X134837112Y-127673851D01*
X134837112Y-127673851D01*
G37*
G36*
X139688512Y-127673851D02*
X139852484Y-127741771D01*
X140000054Y-127840374D01*
X140125553Y-127965873D01*
X140224156Y-128113443D01*
X140292076Y-128277415D01*
X140326700Y-128451486D01*
X140326700Y-128628968D01*
X140292076Y-128803039D01*
X140224156Y-128967011D01*
X140125553Y-129114581D01*
X140000054Y-129240080D01*
X139852484Y-129338683D01*
X139688512Y-129406603D01*
X139514441Y-129441227D01*
X139336959Y-129441227D01*
X139162888Y-129406603D01*
X138998916Y-129338683D01*
X138851346Y-129240080D01*
X138725847Y-129114581D01*
X138627244Y-128967011D01*
X138559324Y-128803039D01*
X138524700Y-128628968D01*
X138524700Y-128451486D01*
X138559324Y-128277415D01*
X138627244Y-128113443D01*
X138725847Y-127965873D01*
X138851346Y-127840374D01*
X138998916Y-127741771D01*
X139162888Y-127673851D01*
X139336959Y-127639227D01*
X139514441Y-127639227D01*
X139688512Y-127673851D01*
X139688512Y-127673851D01*
G37*
G36*
X167688512Y-127643624D02*
X167852484Y-127711544D01*
X168000054Y-127810147D01*
X168125553Y-127935646D01*
X168224156Y-128083216D01*
X168292076Y-128247188D01*
X168326700Y-128421259D01*
X168326700Y-128598741D01*
X168292076Y-128772812D01*
X168224156Y-128936784D01*
X168125553Y-129084354D01*
X168000054Y-129209853D01*
X167852484Y-129308456D01*
X167688512Y-129376376D01*
X167514441Y-129411000D01*
X167336959Y-129411000D01*
X167162888Y-129376376D01*
X166998916Y-129308456D01*
X166851346Y-129209853D01*
X166725847Y-129084354D01*
X166627244Y-128936784D01*
X166559324Y-128772812D01*
X166524700Y-128598741D01*
X166524700Y-128421259D01*
X166559324Y-128247188D01*
X166627244Y-128083216D01*
X166725847Y-127935646D01*
X166851346Y-127810147D01*
X166998916Y-127711544D01*
X167162888Y-127643624D01*
X167336959Y-127609000D01*
X167514441Y-127609000D01*
X167688512Y-127643624D01*
X167688512Y-127643624D01*
G37*
G36*
X106837112Y-127643624D02*
X107001084Y-127711544D01*
X107148654Y-127810147D01*
X107274153Y-127935646D01*
X107372756Y-128083216D01*
X107440676Y-128247188D01*
X107475300Y-128421259D01*
X107475300Y-128598741D01*
X107440676Y-128772812D01*
X107372756Y-128936784D01*
X107274153Y-129084354D01*
X107148654Y-129209853D01*
X107001084Y-129308456D01*
X106837112Y-129376376D01*
X106663041Y-129411000D01*
X106485559Y-129411000D01*
X106311488Y-129376376D01*
X106147516Y-129308456D01*
X105999946Y-129209853D01*
X105874447Y-129084354D01*
X105775844Y-128936784D01*
X105707924Y-128772812D01*
X105673300Y-128598741D01*
X105673300Y-128421259D01*
X105707924Y-128247188D01*
X105775844Y-128083216D01*
X105874447Y-127935646D01*
X105999946Y-127810147D01*
X106147516Y-127711544D01*
X106311488Y-127643624D01*
X106485559Y-127609000D01*
X106663041Y-127609000D01*
X106837112Y-127643624D01*
X106837112Y-127643624D01*
G37*
G36*
X111688512Y-127643624D02*
X111852484Y-127711544D01*
X112000054Y-127810147D01*
X112125553Y-127935646D01*
X112224156Y-128083216D01*
X112292076Y-128247188D01*
X112326700Y-128421259D01*
X112326700Y-128598741D01*
X112292076Y-128772812D01*
X112224156Y-128936784D01*
X112125553Y-129084354D01*
X112000054Y-129209853D01*
X111852484Y-129308456D01*
X111688512Y-129376376D01*
X111514441Y-129411000D01*
X111336959Y-129411000D01*
X111162888Y-129376376D01*
X110998916Y-129308456D01*
X110851346Y-129209853D01*
X110725847Y-129084354D01*
X110627244Y-128936784D01*
X110559324Y-128772812D01*
X110524700Y-128598741D01*
X110524700Y-128421259D01*
X110559324Y-128247188D01*
X110627244Y-128083216D01*
X110725847Y-127935646D01*
X110851346Y-127810147D01*
X110998916Y-127711544D01*
X111162888Y-127643624D01*
X111336959Y-127609000D01*
X111514441Y-127609000D01*
X111688512Y-127643624D01*
X111688512Y-127643624D01*
G37*
G36*
X162837112Y-127643624D02*
X163001084Y-127711544D01*
X163148654Y-127810147D01*
X163274153Y-127935646D01*
X163372756Y-128083216D01*
X163440676Y-128247188D01*
X163475300Y-128421259D01*
X163475300Y-128598741D01*
X163440676Y-128772812D01*
X163372756Y-128936784D01*
X163274153Y-129084354D01*
X163148654Y-129209853D01*
X163001084Y-129308456D01*
X162837112Y-129376376D01*
X162663041Y-129411000D01*
X162485559Y-129411000D01*
X162311488Y-129376376D01*
X162147516Y-129308456D01*
X161999946Y-129209853D01*
X161874447Y-129084354D01*
X161775844Y-128936784D01*
X161707924Y-128772812D01*
X161673300Y-128598741D01*
X161673300Y-128421259D01*
X161707924Y-128247188D01*
X161775844Y-128083216D01*
X161874447Y-127935646D01*
X161999946Y-127810147D01*
X162147516Y-127711544D01*
X162311488Y-127643624D01*
X162485559Y-127609000D01*
X162663041Y-127609000D01*
X162837112Y-127643624D01*
X162837112Y-127643624D01*
G37*
G36*
X90451000Y-128551000D02*
X87349000Y-128551000D01*
X87349000Y-125449000D01*
X90451000Y-125449000D01*
X90451000Y-128551000D01*
X90451000Y-128551000D01*
G37*
G36*
X134837112Y-125133851D02*
X135001084Y-125201771D01*
X135148654Y-125300374D01*
X135274153Y-125425873D01*
X135372756Y-125573443D01*
X135440676Y-125737415D01*
X135475300Y-125911486D01*
X135475300Y-126088968D01*
X135440676Y-126263039D01*
X135372756Y-126427011D01*
X135274153Y-126574581D01*
X135148654Y-126700080D01*
X135001084Y-126798683D01*
X134837112Y-126866603D01*
X134663041Y-126901227D01*
X134485559Y-126901227D01*
X134311488Y-126866603D01*
X134147516Y-126798683D01*
X133999946Y-126700080D01*
X133874447Y-126574581D01*
X133775844Y-126427011D01*
X133707924Y-126263039D01*
X133673300Y-126088968D01*
X133673300Y-125911486D01*
X133707924Y-125737415D01*
X133775844Y-125573443D01*
X133874447Y-125425873D01*
X133999946Y-125300374D01*
X134147516Y-125201771D01*
X134311488Y-125133851D01*
X134485559Y-125099227D01*
X134663041Y-125099227D01*
X134837112Y-125133851D01*
X134837112Y-125133851D01*
G37*
G36*
X139688512Y-125133851D02*
X139852484Y-125201771D01*
X140000054Y-125300374D01*
X140125553Y-125425873D01*
X140224156Y-125573443D01*
X140292076Y-125737415D01*
X140326700Y-125911486D01*
X140326700Y-126088968D01*
X140292076Y-126263039D01*
X140224156Y-126427011D01*
X140125553Y-126574581D01*
X140000054Y-126700080D01*
X139852484Y-126798683D01*
X139688512Y-126866603D01*
X139514441Y-126901227D01*
X139336959Y-126901227D01*
X139162888Y-126866603D01*
X138998916Y-126798683D01*
X138851346Y-126700080D01*
X138725847Y-126574581D01*
X138627244Y-126427011D01*
X138559324Y-126263039D01*
X138524700Y-126088968D01*
X138524700Y-125911486D01*
X138559324Y-125737415D01*
X138627244Y-125573443D01*
X138725847Y-125425873D01*
X138851346Y-125300374D01*
X138998916Y-125201771D01*
X139162888Y-125133851D01*
X139336959Y-125099227D01*
X139514441Y-125099227D01*
X139688512Y-125133851D01*
X139688512Y-125133851D01*
G37*
G36*
X167688512Y-125103624D02*
X167852484Y-125171544D01*
X168000054Y-125270147D01*
X168125553Y-125395646D01*
X168224156Y-125543216D01*
X168292076Y-125707188D01*
X168326700Y-125881259D01*
X168326700Y-126058741D01*
X168292076Y-126232812D01*
X168224156Y-126396784D01*
X168125553Y-126544354D01*
X168000054Y-126669853D01*
X167852484Y-126768456D01*
X167688512Y-126836376D01*
X167514441Y-126871000D01*
X167336959Y-126871000D01*
X167162888Y-126836376D01*
X166998916Y-126768456D01*
X166851346Y-126669853D01*
X166725847Y-126544354D01*
X166627244Y-126396784D01*
X166559324Y-126232812D01*
X166524700Y-126058741D01*
X166524700Y-125881259D01*
X166559324Y-125707188D01*
X166627244Y-125543216D01*
X166725847Y-125395646D01*
X166851346Y-125270147D01*
X166998916Y-125171544D01*
X167162888Y-125103624D01*
X167336959Y-125069000D01*
X167514441Y-125069000D01*
X167688512Y-125103624D01*
X167688512Y-125103624D01*
G37*
G36*
X106837112Y-125103624D02*
X107001084Y-125171544D01*
X107148654Y-125270147D01*
X107274153Y-125395646D01*
X107372756Y-125543216D01*
X107440676Y-125707188D01*
X107475300Y-125881259D01*
X107475300Y-126058741D01*
X107440676Y-126232812D01*
X107372756Y-126396784D01*
X107274153Y-126544354D01*
X107148654Y-126669853D01*
X107001084Y-126768456D01*
X106837112Y-126836376D01*
X106663041Y-126871000D01*
X106485559Y-126871000D01*
X106311488Y-126836376D01*
X106147516Y-126768456D01*
X105999946Y-126669853D01*
X105874447Y-126544354D01*
X105775844Y-126396784D01*
X105707924Y-126232812D01*
X105673300Y-126058741D01*
X105673300Y-125881259D01*
X105707924Y-125707188D01*
X105775844Y-125543216D01*
X105874447Y-125395646D01*
X105999946Y-125270147D01*
X106147516Y-125171544D01*
X106311488Y-125103624D01*
X106485559Y-125069000D01*
X106663041Y-125069000D01*
X106837112Y-125103624D01*
X106837112Y-125103624D01*
G37*
G36*
X111688512Y-125103624D02*
X111852484Y-125171544D01*
X112000054Y-125270147D01*
X112125553Y-125395646D01*
X112224156Y-125543216D01*
X112292076Y-125707188D01*
X112326700Y-125881259D01*
X112326700Y-126058741D01*
X112292076Y-126232812D01*
X112224156Y-126396784D01*
X112125553Y-126544354D01*
X112000054Y-126669853D01*
X111852484Y-126768456D01*
X111688512Y-126836376D01*
X111514441Y-126871000D01*
X111336959Y-126871000D01*
X111162888Y-126836376D01*
X110998916Y-126768456D01*
X110851346Y-126669853D01*
X110725847Y-126544354D01*
X110627244Y-126396784D01*
X110559324Y-126232812D01*
X110524700Y-126058741D01*
X110524700Y-125881259D01*
X110559324Y-125707188D01*
X110627244Y-125543216D01*
X110725847Y-125395646D01*
X110851346Y-125270147D01*
X110998916Y-125171544D01*
X111162888Y-125103624D01*
X111336959Y-125069000D01*
X111514441Y-125069000D01*
X111688512Y-125103624D01*
X111688512Y-125103624D01*
G37*
G36*
X162837112Y-125103624D02*
X163001084Y-125171544D01*
X163148654Y-125270147D01*
X163274153Y-125395646D01*
X163372756Y-125543216D01*
X163440676Y-125707188D01*
X163475300Y-125881259D01*
X163475300Y-126058741D01*
X163440676Y-126232812D01*
X163372756Y-126396784D01*
X163274153Y-126544354D01*
X163148654Y-126669853D01*
X163001084Y-126768456D01*
X162837112Y-126836376D01*
X162663041Y-126871000D01*
X162485559Y-126871000D01*
X162311488Y-126836376D01*
X162147516Y-126768456D01*
X161999946Y-126669853D01*
X161874447Y-126544354D01*
X161775844Y-126396784D01*
X161707924Y-126232812D01*
X161673300Y-126058741D01*
X161673300Y-125881259D01*
X161707924Y-125707188D01*
X161775844Y-125543216D01*
X161874447Y-125395646D01*
X161999946Y-125270147D01*
X162147516Y-125171544D01*
X162311488Y-125103624D01*
X162485559Y-125069000D01*
X162663041Y-125069000D01*
X162837112Y-125103624D01*
X162837112Y-125103624D01*
G37*
G36*
X139688512Y-122593851D02*
X139852484Y-122661771D01*
X140000054Y-122760374D01*
X140125553Y-122885873D01*
X140224156Y-123033443D01*
X140292076Y-123197415D01*
X140326700Y-123371486D01*
X140326700Y-123548968D01*
X140292076Y-123723039D01*
X140224156Y-123887011D01*
X140125553Y-124034581D01*
X140000054Y-124160080D01*
X139852484Y-124258683D01*
X139688512Y-124326603D01*
X139514441Y-124361227D01*
X139336959Y-124361227D01*
X139162888Y-124326603D01*
X138998916Y-124258683D01*
X138851346Y-124160080D01*
X138725847Y-124034581D01*
X138627244Y-123887011D01*
X138559324Y-123723039D01*
X138524700Y-123548968D01*
X138524700Y-123371486D01*
X138559324Y-123197415D01*
X138627244Y-123033443D01*
X138725847Y-122885873D01*
X138851346Y-122760374D01*
X138998916Y-122661771D01*
X139162888Y-122593851D01*
X139336959Y-122559227D01*
X139514441Y-122559227D01*
X139688512Y-122593851D01*
X139688512Y-122593851D01*
G37*
G36*
X134837112Y-122593851D02*
X135001084Y-122661771D01*
X135148654Y-122760374D01*
X135274153Y-122885873D01*
X135372756Y-123033443D01*
X135440676Y-123197415D01*
X135475300Y-123371486D01*
X135475300Y-123548968D01*
X135440676Y-123723039D01*
X135372756Y-123887011D01*
X135274153Y-124034581D01*
X135148654Y-124160080D01*
X135001084Y-124258683D01*
X134837112Y-124326603D01*
X134663041Y-124361227D01*
X134485559Y-124361227D01*
X134311488Y-124326603D01*
X134147516Y-124258683D01*
X133999946Y-124160080D01*
X133874447Y-124034581D01*
X133775844Y-123887011D01*
X133707924Y-123723039D01*
X133673300Y-123548968D01*
X133673300Y-123371486D01*
X133707924Y-123197415D01*
X133775844Y-123033443D01*
X133874447Y-122885873D01*
X133999946Y-122760374D01*
X134147516Y-122661771D01*
X134311488Y-122593851D01*
X134485559Y-122559227D01*
X134663041Y-122559227D01*
X134837112Y-122593851D01*
X134837112Y-122593851D01*
G37*
G36*
X111688512Y-122563624D02*
X111852484Y-122631544D01*
X112000054Y-122730147D01*
X112125553Y-122855646D01*
X112224156Y-123003216D01*
X112292076Y-123167188D01*
X112326700Y-123341259D01*
X112326700Y-123518741D01*
X112292076Y-123692812D01*
X112224156Y-123856784D01*
X112125553Y-124004354D01*
X112000054Y-124129853D01*
X111852484Y-124228456D01*
X111688512Y-124296376D01*
X111514441Y-124331000D01*
X111336959Y-124331000D01*
X111162888Y-124296376D01*
X110998916Y-124228456D01*
X110851346Y-124129853D01*
X110725847Y-124004354D01*
X110627244Y-123856784D01*
X110559324Y-123692812D01*
X110524700Y-123518741D01*
X110524700Y-123341259D01*
X110559324Y-123167188D01*
X110627244Y-123003216D01*
X110725847Y-122855646D01*
X110851346Y-122730147D01*
X110998916Y-122631544D01*
X111162888Y-122563624D01*
X111336959Y-122529000D01*
X111514441Y-122529000D01*
X111688512Y-122563624D01*
X111688512Y-122563624D01*
G37*
G36*
X106837112Y-122563624D02*
X107001084Y-122631544D01*
X107148654Y-122730147D01*
X107274153Y-122855646D01*
X107372756Y-123003216D01*
X107440676Y-123167188D01*
X107475300Y-123341259D01*
X107475300Y-123518741D01*
X107440676Y-123692812D01*
X107372756Y-123856784D01*
X107274153Y-124004354D01*
X107148654Y-124129853D01*
X107001084Y-124228456D01*
X106837112Y-124296376D01*
X106663041Y-124331000D01*
X106485559Y-124331000D01*
X106311488Y-124296376D01*
X106147516Y-124228456D01*
X105999946Y-124129853D01*
X105874447Y-124004354D01*
X105775844Y-123856784D01*
X105707924Y-123692812D01*
X105673300Y-123518741D01*
X105673300Y-123341259D01*
X105707924Y-123167188D01*
X105775844Y-123003216D01*
X105874447Y-122855646D01*
X105999946Y-122730147D01*
X106147516Y-122631544D01*
X106311488Y-122563624D01*
X106485559Y-122529000D01*
X106663041Y-122529000D01*
X106837112Y-122563624D01*
X106837112Y-122563624D01*
G37*
G36*
X167688512Y-122563624D02*
X167852484Y-122631544D01*
X168000054Y-122730147D01*
X168125553Y-122855646D01*
X168224156Y-123003216D01*
X168292076Y-123167188D01*
X168326700Y-123341259D01*
X168326700Y-123518741D01*
X168292076Y-123692812D01*
X168224156Y-123856784D01*
X168125553Y-124004354D01*
X168000054Y-124129853D01*
X167852484Y-124228456D01*
X167688512Y-124296376D01*
X167514441Y-124331000D01*
X167336959Y-124331000D01*
X167162888Y-124296376D01*
X166998916Y-124228456D01*
X166851346Y-124129853D01*
X166725847Y-124004354D01*
X166627244Y-123856784D01*
X166559324Y-123692812D01*
X166524700Y-123518741D01*
X166524700Y-123341259D01*
X166559324Y-123167188D01*
X166627244Y-123003216D01*
X166725847Y-122855646D01*
X166851346Y-122730147D01*
X166998916Y-122631544D01*
X167162888Y-122563624D01*
X167336959Y-122529000D01*
X167514441Y-122529000D01*
X167688512Y-122563624D01*
X167688512Y-122563624D01*
G37*
G36*
X162837112Y-122563624D02*
X163001084Y-122631544D01*
X163148654Y-122730147D01*
X163274153Y-122855646D01*
X163372756Y-123003216D01*
X163440676Y-123167188D01*
X163475300Y-123341259D01*
X163475300Y-123518741D01*
X163440676Y-123692812D01*
X163372756Y-123856784D01*
X163274153Y-124004354D01*
X163148654Y-124129853D01*
X163001084Y-124228456D01*
X162837112Y-124296376D01*
X162663041Y-124331000D01*
X162485559Y-124331000D01*
X162311488Y-124296376D01*
X162147516Y-124228456D01*
X161999946Y-124129853D01*
X161874447Y-124004354D01*
X161775844Y-123856784D01*
X161707924Y-123692812D01*
X161673300Y-123518741D01*
X161673300Y-123341259D01*
X161707924Y-123167188D01*
X161775844Y-123003216D01*
X161874447Y-122855646D01*
X161999946Y-122730147D01*
X162147516Y-122631544D01*
X162311488Y-122563624D01*
X162485559Y-122529000D01*
X162663041Y-122529000D01*
X162837112Y-122563624D01*
X162837112Y-122563624D01*
G37*
G36*
X139688512Y-120053851D02*
X139852484Y-120121771D01*
X140000054Y-120220374D01*
X140125553Y-120345873D01*
X140224156Y-120493443D01*
X140292076Y-120657415D01*
X140326700Y-120831486D01*
X140326700Y-121008968D01*
X140292076Y-121183039D01*
X140224156Y-121347011D01*
X140125553Y-121494581D01*
X140000054Y-121620080D01*
X139852484Y-121718683D01*
X139688512Y-121786603D01*
X139514441Y-121821227D01*
X139336959Y-121821227D01*
X139162888Y-121786603D01*
X138998916Y-121718683D01*
X138851346Y-121620080D01*
X138725847Y-121494581D01*
X138627244Y-121347011D01*
X138559324Y-121183039D01*
X138524700Y-121008968D01*
X138524700Y-120831486D01*
X138559324Y-120657415D01*
X138627244Y-120493443D01*
X138725847Y-120345873D01*
X138851346Y-120220374D01*
X138998916Y-120121771D01*
X139162888Y-120053851D01*
X139336959Y-120019227D01*
X139514441Y-120019227D01*
X139688512Y-120053851D01*
X139688512Y-120053851D01*
G37*
G36*
X134837112Y-120053851D02*
X135001084Y-120121771D01*
X135148654Y-120220374D01*
X135274153Y-120345873D01*
X135372756Y-120493443D01*
X135440676Y-120657415D01*
X135475300Y-120831486D01*
X135475300Y-121008968D01*
X135440676Y-121183039D01*
X135372756Y-121347011D01*
X135274153Y-121494581D01*
X135148654Y-121620080D01*
X135001084Y-121718683D01*
X134837112Y-121786603D01*
X134663041Y-121821227D01*
X134485559Y-121821227D01*
X134311488Y-121786603D01*
X134147516Y-121718683D01*
X133999946Y-121620080D01*
X133874447Y-121494581D01*
X133775844Y-121347011D01*
X133707924Y-121183039D01*
X133673300Y-121008968D01*
X133673300Y-120831486D01*
X133707924Y-120657415D01*
X133775844Y-120493443D01*
X133874447Y-120345873D01*
X133999946Y-120220374D01*
X134147516Y-120121771D01*
X134311488Y-120053851D01*
X134485559Y-120019227D01*
X134663041Y-120019227D01*
X134837112Y-120053851D01*
X134837112Y-120053851D01*
G37*
G36*
X167688512Y-120023624D02*
X167852484Y-120091544D01*
X168000054Y-120190147D01*
X168125553Y-120315646D01*
X168224156Y-120463216D01*
X168292076Y-120627188D01*
X168326700Y-120801259D01*
X168326700Y-120978741D01*
X168292076Y-121152812D01*
X168224156Y-121316784D01*
X168125553Y-121464354D01*
X168000054Y-121589853D01*
X167852484Y-121688456D01*
X167688512Y-121756376D01*
X167514441Y-121791000D01*
X167336959Y-121791000D01*
X167162888Y-121756376D01*
X166998916Y-121688456D01*
X166851346Y-121589853D01*
X166725847Y-121464354D01*
X166627244Y-121316784D01*
X166559324Y-121152812D01*
X166524700Y-120978741D01*
X166524700Y-120801259D01*
X166559324Y-120627188D01*
X166627244Y-120463216D01*
X166725847Y-120315646D01*
X166851346Y-120190147D01*
X166998916Y-120091544D01*
X167162888Y-120023624D01*
X167336959Y-119989000D01*
X167514441Y-119989000D01*
X167688512Y-120023624D01*
X167688512Y-120023624D01*
G37*
G36*
X162837112Y-120023624D02*
X163001084Y-120091544D01*
X163148654Y-120190147D01*
X163274153Y-120315646D01*
X163372756Y-120463216D01*
X163440676Y-120627188D01*
X163475300Y-120801259D01*
X163475300Y-120978741D01*
X163440676Y-121152812D01*
X163372756Y-121316784D01*
X163274153Y-121464354D01*
X163148654Y-121589853D01*
X163001084Y-121688456D01*
X162837112Y-121756376D01*
X162663041Y-121791000D01*
X162485559Y-121791000D01*
X162311488Y-121756376D01*
X162147516Y-121688456D01*
X161999946Y-121589853D01*
X161874447Y-121464354D01*
X161775844Y-121316784D01*
X161707924Y-121152812D01*
X161673300Y-120978741D01*
X161673300Y-120801259D01*
X161707924Y-120627188D01*
X161775844Y-120463216D01*
X161874447Y-120315646D01*
X161999946Y-120190147D01*
X162147516Y-120091544D01*
X162311488Y-120023624D01*
X162485559Y-119989000D01*
X162663041Y-119989000D01*
X162837112Y-120023624D01*
X162837112Y-120023624D01*
G37*
G36*
X106837112Y-120023624D02*
X107001084Y-120091544D01*
X107148654Y-120190147D01*
X107274153Y-120315646D01*
X107372756Y-120463216D01*
X107440676Y-120627188D01*
X107475300Y-120801259D01*
X107475300Y-120978741D01*
X107440676Y-121152812D01*
X107372756Y-121316784D01*
X107274153Y-121464354D01*
X107148654Y-121589853D01*
X107001084Y-121688456D01*
X106837112Y-121756376D01*
X106663041Y-121791000D01*
X106485559Y-121791000D01*
X106311488Y-121756376D01*
X106147516Y-121688456D01*
X105999946Y-121589853D01*
X105874447Y-121464354D01*
X105775844Y-121316784D01*
X105707924Y-121152812D01*
X105673300Y-120978741D01*
X105673300Y-120801259D01*
X105707924Y-120627188D01*
X105775844Y-120463216D01*
X105874447Y-120315646D01*
X105999946Y-120190147D01*
X106147516Y-120091544D01*
X106311488Y-120023624D01*
X106485559Y-119989000D01*
X106663041Y-119989000D01*
X106837112Y-120023624D01*
X106837112Y-120023624D01*
G37*
G36*
X111688512Y-120023624D02*
X111852484Y-120091544D01*
X112000054Y-120190147D01*
X112125553Y-120315646D01*
X112224156Y-120463216D01*
X112292076Y-120627188D01*
X112326700Y-120801259D01*
X112326700Y-120978741D01*
X112292076Y-121152812D01*
X112224156Y-121316784D01*
X112125553Y-121464354D01*
X112000054Y-121589853D01*
X111852484Y-121688456D01*
X111688512Y-121756376D01*
X111514441Y-121791000D01*
X111336959Y-121791000D01*
X111162888Y-121756376D01*
X110998916Y-121688456D01*
X110851346Y-121589853D01*
X110725847Y-121464354D01*
X110627244Y-121316784D01*
X110559324Y-121152812D01*
X110524700Y-120978741D01*
X110524700Y-120801259D01*
X110559324Y-120627188D01*
X110627244Y-120463216D01*
X110725847Y-120315646D01*
X110851346Y-120190147D01*
X110998916Y-120091544D01*
X111162888Y-120023624D01*
X111336959Y-119989000D01*
X111514441Y-119989000D01*
X111688512Y-120023624D01*
X111688512Y-120023624D01*
G37*
G36*
X90451000Y-121051000D02*
X87349000Y-121051000D01*
X87349000Y-117949000D01*
X90451000Y-117949000D01*
X90451000Y-121051000D01*
X90451000Y-121051000D01*
G37*
G36*
X139688512Y-117513851D02*
X139852484Y-117581771D01*
X140000054Y-117680374D01*
X140125553Y-117805873D01*
X140224156Y-117953443D01*
X140292076Y-118117415D01*
X140326700Y-118291486D01*
X140326700Y-118468968D01*
X140292076Y-118643039D01*
X140224156Y-118807011D01*
X140125553Y-118954581D01*
X140000054Y-119080080D01*
X139852484Y-119178683D01*
X139688512Y-119246603D01*
X139514441Y-119281227D01*
X139336959Y-119281227D01*
X139162888Y-119246603D01*
X138998916Y-119178683D01*
X138851346Y-119080080D01*
X138725847Y-118954581D01*
X138627244Y-118807011D01*
X138559324Y-118643039D01*
X138524700Y-118468968D01*
X138524700Y-118291486D01*
X138559324Y-118117415D01*
X138627244Y-117953443D01*
X138725847Y-117805873D01*
X138851346Y-117680374D01*
X138998916Y-117581771D01*
X139162888Y-117513851D01*
X139336959Y-117479227D01*
X139514441Y-117479227D01*
X139688512Y-117513851D01*
X139688512Y-117513851D01*
G37*
G36*
X134837112Y-117513851D02*
X135001084Y-117581771D01*
X135148654Y-117680374D01*
X135274153Y-117805873D01*
X135372756Y-117953443D01*
X135440676Y-118117415D01*
X135475300Y-118291486D01*
X135475300Y-118468968D01*
X135440676Y-118643039D01*
X135372756Y-118807011D01*
X135274153Y-118954581D01*
X135148654Y-119080080D01*
X135001084Y-119178683D01*
X134837112Y-119246603D01*
X134663041Y-119281227D01*
X134485559Y-119281227D01*
X134311488Y-119246603D01*
X134147516Y-119178683D01*
X133999946Y-119080080D01*
X133874447Y-118954581D01*
X133775844Y-118807011D01*
X133707924Y-118643039D01*
X133673300Y-118468968D01*
X133673300Y-118291486D01*
X133707924Y-118117415D01*
X133775844Y-117953443D01*
X133874447Y-117805873D01*
X133999946Y-117680374D01*
X134147516Y-117581771D01*
X134311488Y-117513851D01*
X134485559Y-117479227D01*
X134663041Y-117479227D01*
X134837112Y-117513851D01*
X134837112Y-117513851D01*
G37*
G36*
X162837112Y-117483624D02*
X163001084Y-117551544D01*
X163148654Y-117650147D01*
X163274153Y-117775646D01*
X163372756Y-117923216D01*
X163440676Y-118087188D01*
X163475300Y-118261259D01*
X163475300Y-118438741D01*
X163440676Y-118612812D01*
X163372756Y-118776784D01*
X163274153Y-118924354D01*
X163148654Y-119049853D01*
X163001084Y-119148456D01*
X162837112Y-119216376D01*
X162663041Y-119251000D01*
X162485559Y-119251000D01*
X162311488Y-119216376D01*
X162147516Y-119148456D01*
X161999946Y-119049853D01*
X161874447Y-118924354D01*
X161775844Y-118776784D01*
X161707924Y-118612812D01*
X161673300Y-118438741D01*
X161673300Y-118261259D01*
X161707924Y-118087188D01*
X161775844Y-117923216D01*
X161874447Y-117775646D01*
X161999946Y-117650147D01*
X162147516Y-117551544D01*
X162311488Y-117483624D01*
X162485559Y-117449000D01*
X162663041Y-117449000D01*
X162837112Y-117483624D01*
X162837112Y-117483624D01*
G37*
G36*
X111688512Y-117483624D02*
X111852484Y-117551544D01*
X112000054Y-117650147D01*
X112125553Y-117775646D01*
X112224156Y-117923216D01*
X112292076Y-118087188D01*
X112326700Y-118261259D01*
X112326700Y-118438741D01*
X112292076Y-118612812D01*
X112224156Y-118776784D01*
X112125553Y-118924354D01*
X112000054Y-119049853D01*
X111852484Y-119148456D01*
X111688512Y-119216376D01*
X111514441Y-119251000D01*
X111336959Y-119251000D01*
X111162888Y-119216376D01*
X110998916Y-119148456D01*
X110851346Y-119049853D01*
X110725847Y-118924354D01*
X110627244Y-118776784D01*
X110559324Y-118612812D01*
X110524700Y-118438741D01*
X110524700Y-118261259D01*
X110559324Y-118087188D01*
X110627244Y-117923216D01*
X110725847Y-117775646D01*
X110851346Y-117650147D01*
X110998916Y-117551544D01*
X111162888Y-117483624D01*
X111336959Y-117449000D01*
X111514441Y-117449000D01*
X111688512Y-117483624D01*
X111688512Y-117483624D01*
G37*
G36*
X106837112Y-117483624D02*
X107001084Y-117551544D01*
X107148654Y-117650147D01*
X107274153Y-117775646D01*
X107372756Y-117923216D01*
X107440676Y-118087188D01*
X107475300Y-118261259D01*
X107475300Y-118438741D01*
X107440676Y-118612812D01*
X107372756Y-118776784D01*
X107274153Y-118924354D01*
X107148654Y-119049853D01*
X107001084Y-119148456D01*
X106837112Y-119216376D01*
X106663041Y-119251000D01*
X106485559Y-119251000D01*
X106311488Y-119216376D01*
X106147516Y-119148456D01*
X105999946Y-119049853D01*
X105874447Y-118924354D01*
X105775844Y-118776784D01*
X105707924Y-118612812D01*
X105673300Y-118438741D01*
X105673300Y-118261259D01*
X105707924Y-118087188D01*
X105775844Y-117923216D01*
X105874447Y-117775646D01*
X105999946Y-117650147D01*
X106147516Y-117551544D01*
X106311488Y-117483624D01*
X106485559Y-117449000D01*
X106663041Y-117449000D01*
X106837112Y-117483624D01*
X106837112Y-117483624D01*
G37*
G36*
X167688512Y-117483624D02*
X167852484Y-117551544D01*
X168000054Y-117650147D01*
X168125553Y-117775646D01*
X168224156Y-117923216D01*
X168292076Y-118087188D01*
X168326700Y-118261259D01*
X168326700Y-118438741D01*
X168292076Y-118612812D01*
X168224156Y-118776784D01*
X168125553Y-118924354D01*
X168000054Y-119049853D01*
X167852484Y-119148456D01*
X167688512Y-119216376D01*
X167514441Y-119251000D01*
X167336959Y-119251000D01*
X167162888Y-119216376D01*
X166998916Y-119148456D01*
X166851346Y-119049853D01*
X166725847Y-118924354D01*
X166627244Y-118776784D01*
X166559324Y-118612812D01*
X166524700Y-118438741D01*
X166524700Y-118261259D01*
X166559324Y-118087188D01*
X166627244Y-117923216D01*
X166725847Y-117775646D01*
X166851346Y-117650147D01*
X166998916Y-117551544D01*
X167162888Y-117483624D01*
X167336959Y-117449000D01*
X167514441Y-117449000D01*
X167688512Y-117483624D01*
X167688512Y-117483624D01*
G37*
G36*
X134837112Y-114973851D02*
X135001084Y-115041771D01*
X135148654Y-115140374D01*
X135274153Y-115265873D01*
X135372756Y-115413443D01*
X135440676Y-115577415D01*
X135475300Y-115751486D01*
X135475300Y-115928968D01*
X135440676Y-116103039D01*
X135372756Y-116267011D01*
X135274153Y-116414581D01*
X135148654Y-116540080D01*
X135001084Y-116638683D01*
X134837112Y-116706603D01*
X134663041Y-116741227D01*
X134485559Y-116741227D01*
X134311488Y-116706603D01*
X134147516Y-116638683D01*
X133999946Y-116540080D01*
X133874447Y-116414581D01*
X133775844Y-116267011D01*
X133707924Y-116103039D01*
X133673300Y-115928968D01*
X133673300Y-115751486D01*
X133707924Y-115577415D01*
X133775844Y-115413443D01*
X133874447Y-115265873D01*
X133999946Y-115140374D01*
X134147516Y-115041771D01*
X134311488Y-114973851D01*
X134485559Y-114939227D01*
X134663041Y-114939227D01*
X134837112Y-114973851D01*
X134837112Y-114973851D01*
G37*
G36*
X139688512Y-114973851D02*
X139852484Y-115041771D01*
X140000054Y-115140374D01*
X140125553Y-115265873D01*
X140224156Y-115413443D01*
X140292076Y-115577415D01*
X140326700Y-115751486D01*
X140326700Y-115928968D01*
X140292076Y-116103039D01*
X140224156Y-116267011D01*
X140125553Y-116414581D01*
X140000054Y-116540080D01*
X139852484Y-116638683D01*
X139688512Y-116706603D01*
X139514441Y-116741227D01*
X139336959Y-116741227D01*
X139162888Y-116706603D01*
X138998916Y-116638683D01*
X138851346Y-116540080D01*
X138725847Y-116414581D01*
X138627244Y-116267011D01*
X138559324Y-116103039D01*
X138524700Y-115928968D01*
X138524700Y-115751486D01*
X138559324Y-115577415D01*
X138627244Y-115413443D01*
X138725847Y-115265873D01*
X138851346Y-115140374D01*
X138998916Y-115041771D01*
X139162888Y-114973851D01*
X139336959Y-114939227D01*
X139514441Y-114939227D01*
X139688512Y-114973851D01*
X139688512Y-114973851D01*
G37*
G36*
X167688512Y-114943624D02*
X167852484Y-115011544D01*
X168000054Y-115110147D01*
X168125553Y-115235646D01*
X168224156Y-115383216D01*
X168292076Y-115547188D01*
X168326700Y-115721259D01*
X168326700Y-115898741D01*
X168292076Y-116072812D01*
X168224156Y-116236784D01*
X168125553Y-116384354D01*
X168000054Y-116509853D01*
X167852484Y-116608456D01*
X167688512Y-116676376D01*
X167514441Y-116711000D01*
X167336959Y-116711000D01*
X167162888Y-116676376D01*
X166998916Y-116608456D01*
X166851346Y-116509853D01*
X166725847Y-116384354D01*
X166627244Y-116236784D01*
X166559324Y-116072812D01*
X166524700Y-115898741D01*
X166524700Y-115721259D01*
X166559324Y-115547188D01*
X166627244Y-115383216D01*
X166725847Y-115235646D01*
X166851346Y-115110147D01*
X166998916Y-115011544D01*
X167162888Y-114943624D01*
X167336959Y-114909000D01*
X167514441Y-114909000D01*
X167688512Y-114943624D01*
X167688512Y-114943624D01*
G37*
G36*
X162837112Y-114943624D02*
X163001084Y-115011544D01*
X163148654Y-115110147D01*
X163274153Y-115235646D01*
X163372756Y-115383216D01*
X163440676Y-115547188D01*
X163475300Y-115721259D01*
X163475300Y-115898741D01*
X163440676Y-116072812D01*
X163372756Y-116236784D01*
X163274153Y-116384354D01*
X163148654Y-116509853D01*
X163001084Y-116608456D01*
X162837112Y-116676376D01*
X162663041Y-116711000D01*
X162485559Y-116711000D01*
X162311488Y-116676376D01*
X162147516Y-116608456D01*
X161999946Y-116509853D01*
X161874447Y-116384354D01*
X161775844Y-116236784D01*
X161707924Y-116072812D01*
X161673300Y-115898741D01*
X161673300Y-115721259D01*
X161707924Y-115547188D01*
X161775844Y-115383216D01*
X161874447Y-115235646D01*
X161999946Y-115110147D01*
X162147516Y-115011544D01*
X162311488Y-114943624D01*
X162485559Y-114909000D01*
X162663041Y-114909000D01*
X162837112Y-114943624D01*
X162837112Y-114943624D01*
G37*
G36*
X111688512Y-114943624D02*
X111852484Y-115011544D01*
X112000054Y-115110147D01*
X112125553Y-115235646D01*
X112224156Y-115383216D01*
X112292076Y-115547188D01*
X112326700Y-115721259D01*
X112326700Y-115898741D01*
X112292076Y-116072812D01*
X112224156Y-116236784D01*
X112125553Y-116384354D01*
X112000054Y-116509853D01*
X111852484Y-116608456D01*
X111688512Y-116676376D01*
X111514441Y-116711000D01*
X111336959Y-116711000D01*
X111162888Y-116676376D01*
X110998916Y-116608456D01*
X110851346Y-116509853D01*
X110725847Y-116384354D01*
X110627244Y-116236784D01*
X110559324Y-116072812D01*
X110524700Y-115898741D01*
X110524700Y-115721259D01*
X110559324Y-115547188D01*
X110627244Y-115383216D01*
X110725847Y-115235646D01*
X110851346Y-115110147D01*
X110998916Y-115011544D01*
X111162888Y-114943624D01*
X111336959Y-114909000D01*
X111514441Y-114909000D01*
X111688512Y-114943624D01*
X111688512Y-114943624D01*
G37*
G36*
X106837112Y-114943624D02*
X107001084Y-115011544D01*
X107148654Y-115110147D01*
X107274153Y-115235646D01*
X107372756Y-115383216D01*
X107440676Y-115547188D01*
X107475300Y-115721259D01*
X107475300Y-115898741D01*
X107440676Y-116072812D01*
X107372756Y-116236784D01*
X107274153Y-116384354D01*
X107148654Y-116509853D01*
X107001084Y-116608456D01*
X106837112Y-116676376D01*
X106663041Y-116711000D01*
X106485559Y-116711000D01*
X106311488Y-116676376D01*
X106147516Y-116608456D01*
X105999946Y-116509853D01*
X105874447Y-116384354D01*
X105775844Y-116236784D01*
X105707924Y-116072812D01*
X105673300Y-115898741D01*
X105673300Y-115721259D01*
X105707924Y-115547188D01*
X105775844Y-115383216D01*
X105874447Y-115235646D01*
X105999946Y-115110147D01*
X106147516Y-115011544D01*
X106311488Y-114943624D01*
X106485559Y-114909000D01*
X106663041Y-114909000D01*
X106837112Y-114943624D01*
X106837112Y-114943624D01*
G37*
G36*
X89252527Y-112908736D02*
X89352410Y-112928604D01*
X89634674Y-113045521D01*
X89888705Y-113215259D01*
X90104741Y-113431295D01*
X90274479Y-113685326D01*
X90391396Y-113967590D01*
X90391846Y-113969853D01*
X90424970Y-114136375D01*
X90451000Y-114267240D01*
X90451000Y-114572760D01*
X90391396Y-114872410D01*
X90274479Y-115154674D01*
X90104741Y-115408705D01*
X89888705Y-115624741D01*
X89634674Y-115794479D01*
X89352410Y-115911396D01*
X89264069Y-115928968D01*
X89052762Y-115971000D01*
X88747238Y-115971000D01*
X88535931Y-115928968D01*
X88447590Y-115911396D01*
X88165326Y-115794479D01*
X87911295Y-115624741D01*
X87695259Y-115408705D01*
X87525521Y-115154674D01*
X87408604Y-114872410D01*
X87349000Y-114572760D01*
X87349000Y-114267240D01*
X87375031Y-114136375D01*
X87408154Y-113969853D01*
X87408604Y-113967590D01*
X87525521Y-113685326D01*
X87695259Y-113431295D01*
X87911295Y-113215259D01*
X88165326Y-113045521D01*
X88447590Y-112928604D01*
X88547473Y-112908736D01*
X88747238Y-112869000D01*
X89052762Y-112869000D01*
X89252527Y-112908736D01*
X89252527Y-112908736D01*
G37*
G36*
X139688512Y-112433851D02*
X139852484Y-112501771D01*
X140000054Y-112600374D01*
X140125553Y-112725873D01*
X140224156Y-112873443D01*
X140292076Y-113037415D01*
X140326700Y-113211486D01*
X140326700Y-113388968D01*
X140292076Y-113563039D01*
X140224156Y-113727011D01*
X140125553Y-113874581D01*
X140000054Y-114000080D01*
X139852484Y-114098683D01*
X139688512Y-114166603D01*
X139514441Y-114201227D01*
X139336959Y-114201227D01*
X139162888Y-114166603D01*
X138998916Y-114098683D01*
X138851346Y-114000080D01*
X138725847Y-113874581D01*
X138627244Y-113727011D01*
X138559324Y-113563039D01*
X138524700Y-113388968D01*
X138524700Y-113211486D01*
X138559324Y-113037415D01*
X138627244Y-112873443D01*
X138725847Y-112725873D01*
X138851346Y-112600374D01*
X138998916Y-112501771D01*
X139162888Y-112433851D01*
X139336959Y-112399227D01*
X139514441Y-112399227D01*
X139688512Y-112433851D01*
X139688512Y-112433851D01*
G37*
G36*
X134837112Y-112433851D02*
X135001084Y-112501771D01*
X135148654Y-112600374D01*
X135274153Y-112725873D01*
X135372756Y-112873443D01*
X135440676Y-113037415D01*
X135475300Y-113211486D01*
X135475300Y-113388968D01*
X135440676Y-113563039D01*
X135372756Y-113727011D01*
X135274153Y-113874581D01*
X135148654Y-114000080D01*
X135001084Y-114098683D01*
X134837112Y-114166603D01*
X134663041Y-114201227D01*
X134485559Y-114201227D01*
X134311488Y-114166603D01*
X134147516Y-114098683D01*
X133999946Y-114000080D01*
X133874447Y-113874581D01*
X133775844Y-113727011D01*
X133707924Y-113563039D01*
X133673300Y-113388968D01*
X133673300Y-113211486D01*
X133707924Y-113037415D01*
X133775844Y-112873443D01*
X133874447Y-112725873D01*
X133999946Y-112600374D01*
X134147516Y-112501771D01*
X134311488Y-112433851D01*
X134485559Y-112399227D01*
X134663041Y-112399227D01*
X134837112Y-112433851D01*
X134837112Y-112433851D01*
G37*
G36*
X162837112Y-112403624D02*
X163001084Y-112471544D01*
X163148654Y-112570147D01*
X163274153Y-112695646D01*
X163372756Y-112843216D01*
X163440676Y-113007188D01*
X163475300Y-113181259D01*
X163475300Y-113358741D01*
X163440676Y-113532812D01*
X163372756Y-113696784D01*
X163274153Y-113844354D01*
X163148654Y-113969853D01*
X163001084Y-114068456D01*
X162837112Y-114136376D01*
X162663041Y-114171000D01*
X162485559Y-114171000D01*
X162311488Y-114136376D01*
X162147516Y-114068456D01*
X161999946Y-113969853D01*
X161874447Y-113844354D01*
X161775844Y-113696784D01*
X161707924Y-113532812D01*
X161673300Y-113358741D01*
X161673300Y-113181259D01*
X161707924Y-113007188D01*
X161775844Y-112843216D01*
X161874447Y-112695646D01*
X161999946Y-112570147D01*
X162147516Y-112471544D01*
X162311488Y-112403624D01*
X162485559Y-112369000D01*
X162663041Y-112369000D01*
X162837112Y-112403624D01*
X162837112Y-112403624D01*
G37*
G36*
X106837112Y-112403624D02*
X107001084Y-112471544D01*
X107148654Y-112570147D01*
X107274153Y-112695646D01*
X107372756Y-112843216D01*
X107440676Y-113007188D01*
X107475300Y-113181259D01*
X107475300Y-113358741D01*
X107440676Y-113532812D01*
X107372756Y-113696784D01*
X107274153Y-113844354D01*
X107148654Y-113969853D01*
X107001084Y-114068456D01*
X106837112Y-114136376D01*
X106663041Y-114171000D01*
X106485559Y-114171000D01*
X106311488Y-114136376D01*
X106147516Y-114068456D01*
X105999946Y-113969853D01*
X105874447Y-113844354D01*
X105775844Y-113696784D01*
X105707924Y-113532812D01*
X105673300Y-113358741D01*
X105673300Y-113181259D01*
X105707924Y-113007188D01*
X105775844Y-112843216D01*
X105874447Y-112695646D01*
X105999946Y-112570147D01*
X106147516Y-112471544D01*
X106311488Y-112403624D01*
X106485559Y-112369000D01*
X106663041Y-112369000D01*
X106837112Y-112403624D01*
X106837112Y-112403624D01*
G37*
G36*
X111688512Y-112403624D02*
X111852484Y-112471544D01*
X112000054Y-112570147D01*
X112125553Y-112695646D01*
X112224156Y-112843216D01*
X112292076Y-113007188D01*
X112326700Y-113181259D01*
X112326700Y-113358741D01*
X112292076Y-113532812D01*
X112224156Y-113696784D01*
X112125553Y-113844354D01*
X112000054Y-113969853D01*
X111852484Y-114068456D01*
X111688512Y-114136376D01*
X111514441Y-114171000D01*
X111336959Y-114171000D01*
X111162888Y-114136376D01*
X110998916Y-114068456D01*
X110851346Y-113969853D01*
X110725847Y-113844354D01*
X110627244Y-113696784D01*
X110559324Y-113532812D01*
X110524700Y-113358741D01*
X110524700Y-113181259D01*
X110559324Y-113007188D01*
X110627244Y-112843216D01*
X110725847Y-112695646D01*
X110851346Y-112570147D01*
X110998916Y-112471544D01*
X111162888Y-112403624D01*
X111336959Y-112369000D01*
X111514441Y-112369000D01*
X111688512Y-112403624D01*
X111688512Y-112403624D01*
G37*
G36*
X167688512Y-112403624D02*
X167852484Y-112471544D01*
X168000054Y-112570147D01*
X168125553Y-112695646D01*
X168224156Y-112843216D01*
X168292076Y-113007188D01*
X168326700Y-113181259D01*
X168326700Y-113358741D01*
X168292076Y-113532812D01*
X168224156Y-113696784D01*
X168125553Y-113844354D01*
X168000054Y-113969853D01*
X167852484Y-114068456D01*
X167688512Y-114136376D01*
X167514441Y-114171000D01*
X167336959Y-114171000D01*
X167162888Y-114136376D01*
X166998916Y-114068456D01*
X166851346Y-113969853D01*
X166725847Y-113844354D01*
X166627244Y-113696784D01*
X166559324Y-113532812D01*
X166524700Y-113358741D01*
X166524700Y-113181259D01*
X166559324Y-113007188D01*
X166627244Y-112843216D01*
X166725847Y-112695646D01*
X166851346Y-112570147D01*
X166998916Y-112471544D01*
X167162888Y-112403624D01*
X167336959Y-112369000D01*
X167514441Y-112369000D01*
X167688512Y-112403624D01*
X167688512Y-112403624D01*
G37*
G36*
X134837112Y-109893851D02*
X135001084Y-109961771D01*
X135148654Y-110060374D01*
X135274153Y-110185873D01*
X135372756Y-110333443D01*
X135440676Y-110497415D01*
X135475300Y-110671486D01*
X135475300Y-110848968D01*
X135440676Y-111023039D01*
X135372756Y-111187011D01*
X135274153Y-111334581D01*
X135148654Y-111460080D01*
X135001084Y-111558683D01*
X134837112Y-111626603D01*
X134663041Y-111661227D01*
X134485559Y-111661227D01*
X134311488Y-111626603D01*
X134147516Y-111558683D01*
X133999946Y-111460080D01*
X133874447Y-111334581D01*
X133775844Y-111187011D01*
X133707924Y-111023039D01*
X133673300Y-110848968D01*
X133673300Y-110671486D01*
X133707924Y-110497415D01*
X133775844Y-110333443D01*
X133874447Y-110185873D01*
X133999946Y-110060374D01*
X134147516Y-109961771D01*
X134311488Y-109893851D01*
X134485559Y-109859227D01*
X134663041Y-109859227D01*
X134837112Y-109893851D01*
X134837112Y-109893851D01*
G37*
G36*
X139688512Y-109893851D02*
X139852484Y-109961771D01*
X140000054Y-110060374D01*
X140125553Y-110185873D01*
X140224156Y-110333443D01*
X140292076Y-110497415D01*
X140326700Y-110671486D01*
X140326700Y-110848968D01*
X140292076Y-111023039D01*
X140224156Y-111187011D01*
X140125553Y-111334581D01*
X140000054Y-111460080D01*
X139852484Y-111558683D01*
X139688512Y-111626603D01*
X139514441Y-111661227D01*
X139336959Y-111661227D01*
X139162888Y-111626603D01*
X138998916Y-111558683D01*
X138851346Y-111460080D01*
X138725847Y-111334581D01*
X138627244Y-111187011D01*
X138559324Y-111023039D01*
X138524700Y-110848968D01*
X138524700Y-110671486D01*
X138559324Y-110497415D01*
X138627244Y-110333443D01*
X138725847Y-110185873D01*
X138851346Y-110060374D01*
X138998916Y-109961771D01*
X139162888Y-109893851D01*
X139336959Y-109859227D01*
X139514441Y-109859227D01*
X139688512Y-109893851D01*
X139688512Y-109893851D01*
G37*
G36*
X106837112Y-109863624D02*
X107001084Y-109931544D01*
X107148654Y-110030147D01*
X107274153Y-110155646D01*
X107372756Y-110303216D01*
X107440676Y-110467188D01*
X107475300Y-110641259D01*
X107475300Y-110818741D01*
X107440676Y-110992812D01*
X107372756Y-111156784D01*
X107274153Y-111304354D01*
X107148654Y-111429853D01*
X107001084Y-111528456D01*
X106837112Y-111596376D01*
X106663041Y-111631000D01*
X106485559Y-111631000D01*
X106311488Y-111596376D01*
X106147516Y-111528456D01*
X105999946Y-111429853D01*
X105874447Y-111304354D01*
X105775844Y-111156784D01*
X105707924Y-110992812D01*
X105673300Y-110818741D01*
X105673300Y-110641259D01*
X105707924Y-110467188D01*
X105775844Y-110303216D01*
X105874447Y-110155646D01*
X105999946Y-110030147D01*
X106147516Y-109931544D01*
X106311488Y-109863624D01*
X106485559Y-109829000D01*
X106663041Y-109829000D01*
X106837112Y-109863624D01*
X106837112Y-109863624D01*
G37*
G36*
X111688512Y-109863624D02*
X111852484Y-109931544D01*
X112000054Y-110030147D01*
X112125553Y-110155646D01*
X112224156Y-110303216D01*
X112292076Y-110467188D01*
X112326700Y-110641259D01*
X112326700Y-110818741D01*
X112292076Y-110992812D01*
X112224156Y-111156784D01*
X112125553Y-111304354D01*
X112000054Y-111429853D01*
X111852484Y-111528456D01*
X111688512Y-111596376D01*
X111514441Y-111631000D01*
X111336959Y-111631000D01*
X111162888Y-111596376D01*
X110998916Y-111528456D01*
X110851346Y-111429853D01*
X110725847Y-111304354D01*
X110627244Y-111156784D01*
X110559324Y-110992812D01*
X110524700Y-110818741D01*
X110524700Y-110641259D01*
X110559324Y-110467188D01*
X110627244Y-110303216D01*
X110725847Y-110155646D01*
X110851346Y-110030147D01*
X110998916Y-109931544D01*
X111162888Y-109863624D01*
X111336959Y-109829000D01*
X111514441Y-109829000D01*
X111688512Y-109863624D01*
X111688512Y-109863624D01*
G37*
G36*
X162837112Y-109863624D02*
X163001084Y-109931544D01*
X163148654Y-110030147D01*
X163274153Y-110155646D01*
X163372756Y-110303216D01*
X163440676Y-110467188D01*
X163475300Y-110641259D01*
X163475300Y-110818741D01*
X163440676Y-110992812D01*
X163372756Y-111156784D01*
X163274153Y-111304354D01*
X163148654Y-111429853D01*
X163001084Y-111528456D01*
X162837112Y-111596376D01*
X162663041Y-111631000D01*
X162485559Y-111631000D01*
X162311488Y-111596376D01*
X162147516Y-111528456D01*
X161999946Y-111429853D01*
X161874447Y-111304354D01*
X161775844Y-111156784D01*
X161707924Y-110992812D01*
X161673300Y-110818741D01*
X161673300Y-110641259D01*
X161707924Y-110467188D01*
X161775844Y-110303216D01*
X161874447Y-110155646D01*
X161999946Y-110030147D01*
X162147516Y-109931544D01*
X162311488Y-109863624D01*
X162485559Y-109829000D01*
X162663041Y-109829000D01*
X162837112Y-109863624D01*
X162837112Y-109863624D01*
G37*
G36*
X167688512Y-109863624D02*
X167852484Y-109931544D01*
X168000054Y-110030147D01*
X168125553Y-110155646D01*
X168224156Y-110303216D01*
X168292076Y-110467188D01*
X168326700Y-110641259D01*
X168326700Y-110818741D01*
X168292076Y-110992812D01*
X168224156Y-111156784D01*
X168125553Y-111304354D01*
X168000054Y-111429853D01*
X167852484Y-111528456D01*
X167688512Y-111596376D01*
X167514441Y-111631000D01*
X167336959Y-111631000D01*
X167162888Y-111596376D01*
X166998916Y-111528456D01*
X166851346Y-111429853D01*
X166725847Y-111304354D01*
X166627244Y-111156784D01*
X166559324Y-110992812D01*
X166524700Y-110818741D01*
X166524700Y-110641259D01*
X166559324Y-110467188D01*
X166627244Y-110303216D01*
X166725847Y-110155646D01*
X166851346Y-110030147D01*
X166998916Y-109931544D01*
X167162888Y-109863624D01*
X167336959Y-109829000D01*
X167514441Y-109829000D01*
X167688512Y-109863624D01*
X167688512Y-109863624D01*
G37*
G36*
X89252527Y-107828736D02*
X89352410Y-107848604D01*
X89634674Y-107965521D01*
X89888705Y-108135259D01*
X90104741Y-108351295D01*
X90274479Y-108605326D01*
X90391396Y-108887590D01*
X90391846Y-108889853D01*
X90424970Y-109056375D01*
X90451000Y-109187240D01*
X90451000Y-109492760D01*
X90391396Y-109792410D01*
X90274479Y-110074674D01*
X90104741Y-110328705D01*
X89888705Y-110544741D01*
X89634674Y-110714479D01*
X89352410Y-110831396D01*
X89264069Y-110848968D01*
X89052762Y-110891000D01*
X88747238Y-110891000D01*
X88535931Y-110848968D01*
X88447590Y-110831396D01*
X88165326Y-110714479D01*
X87911295Y-110544741D01*
X87695259Y-110328705D01*
X87525521Y-110074674D01*
X87408604Y-109792410D01*
X87349000Y-109492760D01*
X87349000Y-109187240D01*
X87375031Y-109056375D01*
X87408154Y-108889853D01*
X87408604Y-108887590D01*
X87525521Y-108605326D01*
X87695259Y-108351295D01*
X87911295Y-108135259D01*
X88165326Y-107965521D01*
X88447590Y-107848604D01*
X88547473Y-107828736D01*
X88747238Y-107789000D01*
X89052762Y-107789000D01*
X89252527Y-107828736D01*
X89252527Y-107828736D01*
G37*
G36*
X139688512Y-107353851D02*
X139852484Y-107421771D01*
X140000054Y-107520374D01*
X140125553Y-107645873D01*
X140224156Y-107793443D01*
X140292076Y-107957415D01*
X140326700Y-108131486D01*
X140326700Y-108308968D01*
X140292076Y-108483039D01*
X140224156Y-108647011D01*
X140125553Y-108794581D01*
X140000054Y-108920080D01*
X139852484Y-109018683D01*
X139688512Y-109086603D01*
X139514441Y-109121227D01*
X139336959Y-109121227D01*
X139162888Y-109086603D01*
X138998916Y-109018683D01*
X138851346Y-108920080D01*
X138725847Y-108794581D01*
X138627244Y-108647011D01*
X138559324Y-108483039D01*
X138524700Y-108308968D01*
X138524700Y-108131486D01*
X138559324Y-107957415D01*
X138627244Y-107793443D01*
X138725847Y-107645873D01*
X138851346Y-107520374D01*
X138998916Y-107421771D01*
X139162888Y-107353851D01*
X139336959Y-107319227D01*
X139514441Y-107319227D01*
X139688512Y-107353851D01*
X139688512Y-107353851D01*
G37*
G36*
X134837112Y-107353851D02*
X135001084Y-107421771D01*
X135148654Y-107520374D01*
X135274153Y-107645873D01*
X135372756Y-107793443D01*
X135440676Y-107957415D01*
X135475300Y-108131486D01*
X135475300Y-108308968D01*
X135440676Y-108483039D01*
X135372756Y-108647011D01*
X135274153Y-108794581D01*
X135148654Y-108920080D01*
X135001084Y-109018683D01*
X134837112Y-109086603D01*
X134663041Y-109121227D01*
X134485559Y-109121227D01*
X134311488Y-109086603D01*
X134147516Y-109018683D01*
X133999946Y-108920080D01*
X133874447Y-108794581D01*
X133775844Y-108647011D01*
X133707924Y-108483039D01*
X133673300Y-108308968D01*
X133673300Y-108131486D01*
X133707924Y-107957415D01*
X133775844Y-107793443D01*
X133874447Y-107645873D01*
X133999946Y-107520374D01*
X134147516Y-107421771D01*
X134311488Y-107353851D01*
X134485559Y-107319227D01*
X134663041Y-107319227D01*
X134837112Y-107353851D01*
X134837112Y-107353851D01*
G37*
G36*
X111688512Y-107323624D02*
X111852484Y-107391544D01*
X112000054Y-107490147D01*
X112125553Y-107615646D01*
X112224156Y-107763216D01*
X112292076Y-107927188D01*
X112326700Y-108101259D01*
X112326700Y-108278741D01*
X112292076Y-108452812D01*
X112224156Y-108616784D01*
X112125553Y-108764354D01*
X112000054Y-108889853D01*
X111852484Y-108988456D01*
X111688512Y-109056376D01*
X111514441Y-109091000D01*
X111336959Y-109091000D01*
X111162888Y-109056376D01*
X110998916Y-108988456D01*
X110851346Y-108889853D01*
X110725847Y-108764354D01*
X110627244Y-108616784D01*
X110559324Y-108452812D01*
X110524700Y-108278741D01*
X110524700Y-108101259D01*
X110559324Y-107927188D01*
X110627244Y-107763216D01*
X110725847Y-107615646D01*
X110851346Y-107490147D01*
X110998916Y-107391544D01*
X111162888Y-107323624D01*
X111336959Y-107289000D01*
X111514441Y-107289000D01*
X111688512Y-107323624D01*
X111688512Y-107323624D01*
G37*
G36*
X167688512Y-107323624D02*
X167852484Y-107391544D01*
X168000054Y-107490147D01*
X168125553Y-107615646D01*
X168224156Y-107763216D01*
X168292076Y-107927188D01*
X168326700Y-108101259D01*
X168326700Y-108278741D01*
X168292076Y-108452812D01*
X168224156Y-108616784D01*
X168125553Y-108764354D01*
X168000054Y-108889853D01*
X167852484Y-108988456D01*
X167688512Y-109056376D01*
X167514441Y-109091000D01*
X167336959Y-109091000D01*
X167162888Y-109056376D01*
X166998916Y-108988456D01*
X166851346Y-108889853D01*
X166725847Y-108764354D01*
X166627244Y-108616784D01*
X166559324Y-108452812D01*
X166524700Y-108278741D01*
X166524700Y-108101259D01*
X166559324Y-107927188D01*
X166627244Y-107763216D01*
X166725847Y-107615646D01*
X166851346Y-107490147D01*
X166998916Y-107391544D01*
X167162888Y-107323624D01*
X167336959Y-107289000D01*
X167514441Y-107289000D01*
X167688512Y-107323624D01*
X167688512Y-107323624D01*
G37*
G36*
X106837112Y-107323624D02*
X107001084Y-107391544D01*
X107148654Y-107490147D01*
X107274153Y-107615646D01*
X107372756Y-107763216D01*
X107440676Y-107927188D01*
X107475300Y-108101259D01*
X107475300Y-108278741D01*
X107440676Y-108452812D01*
X107372756Y-108616784D01*
X107274153Y-108764354D01*
X107148654Y-108889853D01*
X107001084Y-108988456D01*
X106837112Y-109056376D01*
X106663041Y-109091000D01*
X106485559Y-109091000D01*
X106311488Y-109056376D01*
X106147516Y-108988456D01*
X105999946Y-108889853D01*
X105874447Y-108764354D01*
X105775844Y-108616784D01*
X105707924Y-108452812D01*
X105673300Y-108278741D01*
X105673300Y-108101259D01*
X105707924Y-107927188D01*
X105775844Y-107763216D01*
X105874447Y-107615646D01*
X105999946Y-107490147D01*
X106147516Y-107391544D01*
X106311488Y-107323624D01*
X106485559Y-107289000D01*
X106663041Y-107289000D01*
X106837112Y-107323624D01*
X106837112Y-107323624D01*
G37*
G36*
X162837112Y-107323624D02*
X163001084Y-107391544D01*
X163148654Y-107490147D01*
X163274153Y-107615646D01*
X163372756Y-107763216D01*
X163440676Y-107927188D01*
X163475300Y-108101259D01*
X163475300Y-108278741D01*
X163440676Y-108452812D01*
X163372756Y-108616784D01*
X163274153Y-108764354D01*
X163148654Y-108889853D01*
X163001084Y-108988456D01*
X162837112Y-109056376D01*
X162663041Y-109091000D01*
X162485559Y-109091000D01*
X162311488Y-109056376D01*
X162147516Y-108988456D01*
X161999946Y-108889853D01*
X161874447Y-108764354D01*
X161775844Y-108616784D01*
X161707924Y-108452812D01*
X161673300Y-108278741D01*
X161673300Y-108101259D01*
X161707924Y-107927188D01*
X161775844Y-107763216D01*
X161874447Y-107615646D01*
X161999946Y-107490147D01*
X162147516Y-107391544D01*
X162311488Y-107323624D01*
X162485559Y-107289000D01*
X162663041Y-107289000D01*
X162837112Y-107323624D01*
X162837112Y-107323624D01*
G37*
G36*
X139688512Y-104813851D02*
X139852484Y-104881771D01*
X140000054Y-104980374D01*
X140125553Y-105105873D01*
X140224156Y-105253443D01*
X140292076Y-105417415D01*
X140326700Y-105591486D01*
X140326700Y-105768968D01*
X140292076Y-105943039D01*
X140224156Y-106107011D01*
X140125553Y-106254581D01*
X140000054Y-106380080D01*
X139852484Y-106478683D01*
X139688512Y-106546603D01*
X139514441Y-106581227D01*
X139336959Y-106581227D01*
X139162888Y-106546603D01*
X138998916Y-106478683D01*
X138851346Y-106380080D01*
X138725847Y-106254581D01*
X138627244Y-106107011D01*
X138559324Y-105943039D01*
X138524700Y-105768968D01*
X138524700Y-105591486D01*
X138559324Y-105417415D01*
X138627244Y-105253443D01*
X138725847Y-105105873D01*
X138851346Y-104980374D01*
X138998916Y-104881771D01*
X139162888Y-104813851D01*
X139336959Y-104779227D01*
X139514441Y-104779227D01*
X139688512Y-104813851D01*
X139688512Y-104813851D01*
G37*
G36*
X134837112Y-104813851D02*
X135001084Y-104881771D01*
X135148654Y-104980374D01*
X135274153Y-105105873D01*
X135372756Y-105253443D01*
X135440676Y-105417415D01*
X135475300Y-105591486D01*
X135475300Y-105768968D01*
X135440676Y-105943039D01*
X135372756Y-106107011D01*
X135274153Y-106254581D01*
X135148654Y-106380080D01*
X135001084Y-106478683D01*
X134837112Y-106546603D01*
X134663041Y-106581227D01*
X134485559Y-106581227D01*
X134311488Y-106546603D01*
X134147516Y-106478683D01*
X133999946Y-106380080D01*
X133874447Y-106254581D01*
X133775844Y-106107011D01*
X133707924Y-105943039D01*
X133673300Y-105768968D01*
X133673300Y-105591486D01*
X133707924Y-105417415D01*
X133775844Y-105253443D01*
X133874447Y-105105873D01*
X133999946Y-104980374D01*
X134147516Y-104881771D01*
X134311488Y-104813851D01*
X134485559Y-104779227D01*
X134663041Y-104779227D01*
X134837112Y-104813851D01*
X134837112Y-104813851D01*
G37*
G36*
X111688512Y-104783624D02*
X111852484Y-104851544D01*
X112000054Y-104950147D01*
X112125553Y-105075646D01*
X112224156Y-105223216D01*
X112292076Y-105387188D01*
X112326700Y-105561259D01*
X112326700Y-105738741D01*
X112292076Y-105912812D01*
X112224156Y-106076784D01*
X112125553Y-106224354D01*
X112000054Y-106349853D01*
X111852484Y-106448456D01*
X111688512Y-106516376D01*
X111514441Y-106551000D01*
X111336959Y-106551000D01*
X111162888Y-106516376D01*
X110998916Y-106448456D01*
X110851346Y-106349853D01*
X110725847Y-106224354D01*
X110627244Y-106076784D01*
X110559324Y-105912812D01*
X110524700Y-105738741D01*
X110524700Y-105561259D01*
X110559324Y-105387188D01*
X110627244Y-105223216D01*
X110725847Y-105075646D01*
X110851346Y-104950147D01*
X110998916Y-104851544D01*
X111162888Y-104783624D01*
X111336959Y-104749000D01*
X111514441Y-104749000D01*
X111688512Y-104783624D01*
X111688512Y-104783624D01*
G37*
G36*
X106837112Y-104783624D02*
X107001084Y-104851544D01*
X107148654Y-104950147D01*
X107274153Y-105075646D01*
X107372756Y-105223216D01*
X107440676Y-105387188D01*
X107475300Y-105561259D01*
X107475300Y-105738741D01*
X107440676Y-105912812D01*
X107372756Y-106076784D01*
X107274153Y-106224354D01*
X107148654Y-106349853D01*
X107001084Y-106448456D01*
X106837112Y-106516376D01*
X106663041Y-106551000D01*
X106485559Y-106551000D01*
X106311488Y-106516376D01*
X106147516Y-106448456D01*
X105999946Y-106349853D01*
X105874447Y-106224354D01*
X105775844Y-106076784D01*
X105707924Y-105912812D01*
X105673300Y-105738741D01*
X105673300Y-105561259D01*
X105707924Y-105387188D01*
X105775844Y-105223216D01*
X105874447Y-105075646D01*
X105999946Y-104950147D01*
X106147516Y-104851544D01*
X106311488Y-104783624D01*
X106485559Y-104749000D01*
X106663041Y-104749000D01*
X106837112Y-104783624D01*
X106837112Y-104783624D01*
G37*
G36*
X162837112Y-104783624D02*
X163001084Y-104851544D01*
X163148654Y-104950147D01*
X163274153Y-105075646D01*
X163372756Y-105223216D01*
X163440676Y-105387188D01*
X163475300Y-105561259D01*
X163475300Y-105738741D01*
X163440676Y-105912812D01*
X163372756Y-106076784D01*
X163274153Y-106224354D01*
X163148654Y-106349853D01*
X163001084Y-106448456D01*
X162837112Y-106516376D01*
X162663041Y-106551000D01*
X162485559Y-106551000D01*
X162311488Y-106516376D01*
X162147516Y-106448456D01*
X161999946Y-106349853D01*
X161874447Y-106224354D01*
X161775844Y-106076784D01*
X161707924Y-105912812D01*
X161673300Y-105738741D01*
X161673300Y-105561259D01*
X161707924Y-105387188D01*
X161775844Y-105223216D01*
X161874447Y-105075646D01*
X161999946Y-104950147D01*
X162147516Y-104851544D01*
X162311488Y-104783624D01*
X162485559Y-104749000D01*
X162663041Y-104749000D01*
X162837112Y-104783624D01*
X162837112Y-104783624D01*
G37*
G36*
X167688512Y-104783624D02*
X167852484Y-104851544D01*
X168000054Y-104950147D01*
X168125553Y-105075646D01*
X168224156Y-105223216D01*
X168292076Y-105387188D01*
X168326700Y-105561259D01*
X168326700Y-105738741D01*
X168292076Y-105912812D01*
X168224156Y-106076784D01*
X168125553Y-106224354D01*
X168000054Y-106349853D01*
X167852484Y-106448456D01*
X167688512Y-106516376D01*
X167514441Y-106551000D01*
X167336959Y-106551000D01*
X167162888Y-106516376D01*
X166998916Y-106448456D01*
X166851346Y-106349853D01*
X166725847Y-106224354D01*
X166627244Y-106076784D01*
X166559324Y-105912812D01*
X166524700Y-105738741D01*
X166524700Y-105561259D01*
X166559324Y-105387188D01*
X166627244Y-105223216D01*
X166725847Y-105075646D01*
X166851346Y-104950147D01*
X166998916Y-104851544D01*
X167162888Y-104783624D01*
X167336959Y-104749000D01*
X167514441Y-104749000D01*
X167688512Y-104783624D01*
X167688512Y-104783624D01*
G37*
G36*
X89252527Y-102748736D02*
X89352410Y-102768604D01*
X89634674Y-102885521D01*
X89888705Y-103055259D01*
X90104741Y-103271295D01*
X90274479Y-103525326D01*
X90391396Y-103807590D01*
X90391846Y-103809853D01*
X90424970Y-103976375D01*
X90451000Y-104107240D01*
X90451000Y-104412760D01*
X90391396Y-104712410D01*
X90274479Y-104994674D01*
X90104741Y-105248705D01*
X89888705Y-105464741D01*
X89634674Y-105634479D01*
X89352410Y-105751396D01*
X89264069Y-105768968D01*
X89052762Y-105811000D01*
X88747238Y-105811000D01*
X88535931Y-105768968D01*
X88447590Y-105751396D01*
X88165326Y-105634479D01*
X87911295Y-105464741D01*
X87695259Y-105248705D01*
X87525521Y-104994674D01*
X87408604Y-104712410D01*
X87349000Y-104412760D01*
X87349000Y-104107240D01*
X87375031Y-103976375D01*
X87408154Y-103809853D01*
X87408604Y-103807590D01*
X87525521Y-103525326D01*
X87695259Y-103271295D01*
X87911295Y-103055259D01*
X88165326Y-102885521D01*
X88447590Y-102768604D01*
X88547473Y-102748736D01*
X88747238Y-102709000D01*
X89052762Y-102709000D01*
X89252527Y-102748736D01*
X89252527Y-102748736D01*
G37*
G36*
X139688512Y-102273851D02*
X139852484Y-102341771D01*
X140000054Y-102440374D01*
X140125553Y-102565873D01*
X140224156Y-102713443D01*
X140292076Y-102877415D01*
X140326700Y-103051486D01*
X140326700Y-103228968D01*
X140292076Y-103403039D01*
X140224156Y-103567011D01*
X140125553Y-103714581D01*
X140000054Y-103840080D01*
X139852484Y-103938683D01*
X139688512Y-104006603D01*
X139514441Y-104041227D01*
X139336959Y-104041227D01*
X139162888Y-104006603D01*
X138998916Y-103938683D01*
X138851346Y-103840080D01*
X138725847Y-103714581D01*
X138627244Y-103567011D01*
X138559324Y-103403039D01*
X138524700Y-103228968D01*
X138524700Y-103051486D01*
X138559324Y-102877415D01*
X138627244Y-102713443D01*
X138725847Y-102565873D01*
X138851346Y-102440374D01*
X138998916Y-102341771D01*
X139162888Y-102273851D01*
X139336959Y-102239227D01*
X139514441Y-102239227D01*
X139688512Y-102273851D01*
X139688512Y-102273851D01*
G37*
G36*
X134837112Y-102273851D02*
X135001084Y-102341771D01*
X135148654Y-102440374D01*
X135274153Y-102565873D01*
X135372756Y-102713443D01*
X135440676Y-102877415D01*
X135475300Y-103051486D01*
X135475300Y-103228968D01*
X135440676Y-103403039D01*
X135372756Y-103567011D01*
X135274153Y-103714581D01*
X135148654Y-103840080D01*
X135001084Y-103938683D01*
X134837112Y-104006603D01*
X134663041Y-104041227D01*
X134485559Y-104041227D01*
X134311488Y-104006603D01*
X134147516Y-103938683D01*
X133999946Y-103840080D01*
X133874447Y-103714581D01*
X133775844Y-103567011D01*
X133707924Y-103403039D01*
X133673300Y-103228968D01*
X133673300Y-103051486D01*
X133707924Y-102877415D01*
X133775844Y-102713443D01*
X133874447Y-102565873D01*
X133999946Y-102440374D01*
X134147516Y-102341771D01*
X134311488Y-102273851D01*
X134485559Y-102239227D01*
X134663041Y-102239227D01*
X134837112Y-102273851D01*
X134837112Y-102273851D01*
G37*
G36*
X106837112Y-102243624D02*
X107001084Y-102311544D01*
X107148654Y-102410147D01*
X107274153Y-102535646D01*
X107372756Y-102683216D01*
X107440676Y-102847188D01*
X107475300Y-103021259D01*
X107475300Y-103198741D01*
X107440676Y-103372812D01*
X107372756Y-103536784D01*
X107274153Y-103684354D01*
X107148654Y-103809853D01*
X107001084Y-103908456D01*
X106837112Y-103976376D01*
X106663041Y-104011000D01*
X106485559Y-104011000D01*
X106311488Y-103976376D01*
X106147516Y-103908456D01*
X105999946Y-103809853D01*
X105874447Y-103684354D01*
X105775844Y-103536784D01*
X105707924Y-103372812D01*
X105673300Y-103198741D01*
X105673300Y-103021259D01*
X105707924Y-102847188D01*
X105775844Y-102683216D01*
X105874447Y-102535646D01*
X105999946Y-102410147D01*
X106147516Y-102311544D01*
X106311488Y-102243624D01*
X106485559Y-102209000D01*
X106663041Y-102209000D01*
X106837112Y-102243624D01*
X106837112Y-102243624D01*
G37*
G36*
X111688512Y-102243624D02*
X111852484Y-102311544D01*
X112000054Y-102410147D01*
X112125553Y-102535646D01*
X112224156Y-102683216D01*
X112292076Y-102847188D01*
X112326700Y-103021259D01*
X112326700Y-103198741D01*
X112292076Y-103372812D01*
X112224156Y-103536784D01*
X112125553Y-103684354D01*
X112000054Y-103809853D01*
X111852484Y-103908456D01*
X111688512Y-103976376D01*
X111514441Y-104011000D01*
X111336959Y-104011000D01*
X111162888Y-103976376D01*
X110998916Y-103908456D01*
X110851346Y-103809853D01*
X110725847Y-103684354D01*
X110627244Y-103536784D01*
X110559324Y-103372812D01*
X110524700Y-103198741D01*
X110524700Y-103021259D01*
X110559324Y-102847188D01*
X110627244Y-102683216D01*
X110725847Y-102535646D01*
X110851346Y-102410147D01*
X110998916Y-102311544D01*
X111162888Y-102243624D01*
X111336959Y-102209000D01*
X111514441Y-102209000D01*
X111688512Y-102243624D01*
X111688512Y-102243624D01*
G37*
G36*
X162837112Y-102243624D02*
X163001084Y-102311544D01*
X163148654Y-102410147D01*
X163274153Y-102535646D01*
X163372756Y-102683216D01*
X163440676Y-102847188D01*
X163475300Y-103021259D01*
X163475300Y-103198741D01*
X163440676Y-103372812D01*
X163372756Y-103536784D01*
X163274153Y-103684354D01*
X163148654Y-103809853D01*
X163001084Y-103908456D01*
X162837112Y-103976376D01*
X162663041Y-104011000D01*
X162485559Y-104011000D01*
X162311488Y-103976376D01*
X162147516Y-103908456D01*
X161999946Y-103809853D01*
X161874447Y-103684354D01*
X161775844Y-103536784D01*
X161707924Y-103372812D01*
X161673300Y-103198741D01*
X161673300Y-103021259D01*
X161707924Y-102847188D01*
X161775844Y-102683216D01*
X161874447Y-102535646D01*
X161999946Y-102410147D01*
X162147516Y-102311544D01*
X162311488Y-102243624D01*
X162485559Y-102209000D01*
X162663041Y-102209000D01*
X162837112Y-102243624D01*
X162837112Y-102243624D01*
G37*
G36*
X167688512Y-102243624D02*
X167852484Y-102311544D01*
X168000054Y-102410147D01*
X168125553Y-102535646D01*
X168224156Y-102683216D01*
X168292076Y-102847188D01*
X168326700Y-103021259D01*
X168326700Y-103198741D01*
X168292076Y-103372812D01*
X168224156Y-103536784D01*
X168125553Y-103684354D01*
X168000054Y-103809853D01*
X167852484Y-103908456D01*
X167688512Y-103976376D01*
X167514441Y-104011000D01*
X167336959Y-104011000D01*
X167162888Y-103976376D01*
X166998916Y-103908456D01*
X166851346Y-103809853D01*
X166725847Y-103684354D01*
X166627244Y-103536784D01*
X166559324Y-103372812D01*
X166524700Y-103198741D01*
X166524700Y-103021259D01*
X166559324Y-102847188D01*
X166627244Y-102683216D01*
X166725847Y-102535646D01*
X166851346Y-102410147D01*
X166998916Y-102311544D01*
X167162888Y-102243624D01*
X167336959Y-102209000D01*
X167514441Y-102209000D01*
X167688512Y-102243624D01*
X167688512Y-102243624D01*
G37*
G36*
X139688512Y-99733851D02*
X139852484Y-99801771D01*
X140000054Y-99900374D01*
X140125553Y-100025873D01*
X140224156Y-100173443D01*
X140292076Y-100337415D01*
X140326700Y-100511486D01*
X140326700Y-100688968D01*
X140292076Y-100863039D01*
X140224156Y-101027011D01*
X140125553Y-101174581D01*
X140000054Y-101300080D01*
X139852484Y-101398683D01*
X139688512Y-101466603D01*
X139514441Y-101501227D01*
X139336959Y-101501227D01*
X139162888Y-101466603D01*
X138998916Y-101398683D01*
X138851346Y-101300080D01*
X138725847Y-101174581D01*
X138627244Y-101027011D01*
X138559324Y-100863039D01*
X138524700Y-100688968D01*
X138524700Y-100511486D01*
X138559324Y-100337415D01*
X138627244Y-100173443D01*
X138725847Y-100025873D01*
X138851346Y-99900374D01*
X138998916Y-99801771D01*
X139162888Y-99733851D01*
X139336959Y-99699227D01*
X139514441Y-99699227D01*
X139688512Y-99733851D01*
X139688512Y-99733851D01*
G37*
G36*
X134837112Y-99733851D02*
X135001084Y-99801771D01*
X135148654Y-99900374D01*
X135274153Y-100025873D01*
X135372756Y-100173443D01*
X135440676Y-100337415D01*
X135475300Y-100511486D01*
X135475300Y-100688968D01*
X135440676Y-100863039D01*
X135372756Y-101027011D01*
X135274153Y-101174581D01*
X135148654Y-101300080D01*
X135001084Y-101398683D01*
X134837112Y-101466603D01*
X134663041Y-101501227D01*
X134485559Y-101501227D01*
X134311488Y-101466603D01*
X134147516Y-101398683D01*
X133999946Y-101300080D01*
X133874447Y-101174581D01*
X133775844Y-101027011D01*
X133707924Y-100863039D01*
X133673300Y-100688968D01*
X133673300Y-100511486D01*
X133707924Y-100337415D01*
X133775844Y-100173443D01*
X133874447Y-100025873D01*
X133999946Y-99900374D01*
X134147516Y-99801771D01*
X134311488Y-99733851D01*
X134485559Y-99699227D01*
X134663041Y-99699227D01*
X134837112Y-99733851D01*
X134837112Y-99733851D01*
G37*
G36*
X167688512Y-99703624D02*
X167852484Y-99771544D01*
X168000054Y-99870147D01*
X168125553Y-99995646D01*
X168224156Y-100143216D01*
X168292076Y-100307188D01*
X168326700Y-100481259D01*
X168326700Y-100658741D01*
X168292076Y-100832812D01*
X168224156Y-100996784D01*
X168125553Y-101144354D01*
X168000054Y-101269853D01*
X167852484Y-101368456D01*
X167688512Y-101436376D01*
X167514441Y-101471000D01*
X167336959Y-101471000D01*
X167162888Y-101436376D01*
X166998916Y-101368456D01*
X166851346Y-101269853D01*
X166725847Y-101144354D01*
X166627244Y-100996784D01*
X166559324Y-100832812D01*
X166524700Y-100658741D01*
X166524700Y-100481259D01*
X166559324Y-100307188D01*
X166627244Y-100143216D01*
X166725847Y-99995646D01*
X166851346Y-99870147D01*
X166998916Y-99771544D01*
X167162888Y-99703624D01*
X167336959Y-99669000D01*
X167514441Y-99669000D01*
X167688512Y-99703624D01*
X167688512Y-99703624D01*
G37*
G36*
X162837112Y-99703624D02*
X163001084Y-99771544D01*
X163148654Y-99870147D01*
X163274153Y-99995646D01*
X163372756Y-100143216D01*
X163440676Y-100307188D01*
X163475300Y-100481259D01*
X163475300Y-100658741D01*
X163440676Y-100832812D01*
X163372756Y-100996784D01*
X163274153Y-101144354D01*
X163148654Y-101269853D01*
X163001084Y-101368456D01*
X162837112Y-101436376D01*
X162663041Y-101471000D01*
X162485559Y-101471000D01*
X162311488Y-101436376D01*
X162147516Y-101368456D01*
X161999946Y-101269853D01*
X161874447Y-101144354D01*
X161775844Y-100996784D01*
X161707924Y-100832812D01*
X161673300Y-100658741D01*
X161673300Y-100481259D01*
X161707924Y-100307188D01*
X161775844Y-100143216D01*
X161874447Y-99995646D01*
X161999946Y-99870147D01*
X162147516Y-99771544D01*
X162311488Y-99703624D01*
X162485559Y-99669000D01*
X162663041Y-99669000D01*
X162837112Y-99703624D01*
X162837112Y-99703624D01*
G37*
G36*
X106837112Y-99703624D02*
X107001084Y-99771544D01*
X107148654Y-99870147D01*
X107274153Y-99995646D01*
X107372756Y-100143216D01*
X107440676Y-100307188D01*
X107475300Y-100481259D01*
X107475300Y-100658741D01*
X107440676Y-100832812D01*
X107372756Y-100996784D01*
X107274153Y-101144354D01*
X107148654Y-101269853D01*
X107001084Y-101368456D01*
X106837112Y-101436376D01*
X106663041Y-101471000D01*
X106485559Y-101471000D01*
X106311488Y-101436376D01*
X106147516Y-101368456D01*
X105999946Y-101269853D01*
X105874447Y-101144354D01*
X105775844Y-100996784D01*
X105707924Y-100832812D01*
X105673300Y-100658741D01*
X105673300Y-100481259D01*
X105707924Y-100307188D01*
X105775844Y-100143216D01*
X105874447Y-99995646D01*
X105999946Y-99870147D01*
X106147516Y-99771544D01*
X106311488Y-99703624D01*
X106485559Y-99669000D01*
X106663041Y-99669000D01*
X106837112Y-99703624D01*
X106837112Y-99703624D01*
G37*
G36*
X111688512Y-99703624D02*
X111852484Y-99771544D01*
X112000054Y-99870147D01*
X112125553Y-99995646D01*
X112224156Y-100143216D01*
X112292076Y-100307188D01*
X112326700Y-100481259D01*
X112326700Y-100658741D01*
X112292076Y-100832812D01*
X112224156Y-100996784D01*
X112125553Y-101144354D01*
X112000054Y-101269853D01*
X111852484Y-101368456D01*
X111688512Y-101436376D01*
X111514441Y-101471000D01*
X111336959Y-101471000D01*
X111162888Y-101436376D01*
X110998916Y-101368456D01*
X110851346Y-101269853D01*
X110725847Y-101144354D01*
X110627244Y-100996784D01*
X110559324Y-100832812D01*
X110524700Y-100658741D01*
X110524700Y-100481259D01*
X110559324Y-100307188D01*
X110627244Y-100143216D01*
X110725847Y-99995646D01*
X110851346Y-99870147D01*
X110998916Y-99771544D01*
X111162888Y-99703624D01*
X111336959Y-99669000D01*
X111514441Y-99669000D01*
X111688512Y-99703624D01*
X111688512Y-99703624D01*
G37*
G36*
X134837112Y-97193851D02*
X135001084Y-97261771D01*
X135148654Y-97360374D01*
X135274153Y-97485873D01*
X135372756Y-97633443D01*
X135440676Y-97797415D01*
X135475300Y-97971486D01*
X135475300Y-98148968D01*
X135440676Y-98323039D01*
X135372756Y-98487011D01*
X135274153Y-98634581D01*
X135148654Y-98760080D01*
X135001084Y-98858683D01*
X134837112Y-98926603D01*
X134663041Y-98961227D01*
X134485559Y-98961227D01*
X134311488Y-98926603D01*
X134147516Y-98858683D01*
X133999946Y-98760080D01*
X133874447Y-98634581D01*
X133775844Y-98487011D01*
X133707924Y-98323039D01*
X133673300Y-98148968D01*
X133673300Y-97971486D01*
X133707924Y-97797415D01*
X133775844Y-97633443D01*
X133874447Y-97485873D01*
X133999946Y-97360374D01*
X134147516Y-97261771D01*
X134311488Y-97193851D01*
X134485559Y-97159227D01*
X134663041Y-97159227D01*
X134837112Y-97193851D01*
X134837112Y-97193851D01*
G37*
G36*
X139688512Y-97193851D02*
X139852484Y-97261771D01*
X140000054Y-97360374D01*
X140125553Y-97485873D01*
X140224156Y-97633443D01*
X140292076Y-97797415D01*
X140326700Y-97971486D01*
X140326700Y-98148968D01*
X140292076Y-98323039D01*
X140224156Y-98487011D01*
X140125553Y-98634581D01*
X140000054Y-98760080D01*
X139852484Y-98858683D01*
X139688512Y-98926603D01*
X139514441Y-98961227D01*
X139336959Y-98961227D01*
X139162888Y-98926603D01*
X138998916Y-98858683D01*
X138851346Y-98760080D01*
X138725847Y-98634581D01*
X138627244Y-98487011D01*
X138559324Y-98323039D01*
X138524700Y-98148968D01*
X138524700Y-97971486D01*
X138559324Y-97797415D01*
X138627244Y-97633443D01*
X138725847Y-97485873D01*
X138851346Y-97360374D01*
X138998916Y-97261771D01*
X139162888Y-97193851D01*
X139336959Y-97159227D01*
X139514441Y-97159227D01*
X139688512Y-97193851D01*
X139688512Y-97193851D01*
G37*
G36*
X162837112Y-97163624D02*
X163001084Y-97231544D01*
X163148654Y-97330147D01*
X163274153Y-97455646D01*
X163372756Y-97603216D01*
X163440676Y-97767188D01*
X163475300Y-97941259D01*
X163475300Y-98118741D01*
X163440676Y-98292812D01*
X163372756Y-98456784D01*
X163274153Y-98604354D01*
X163148654Y-98729853D01*
X163001084Y-98828456D01*
X162837112Y-98896376D01*
X162663041Y-98931000D01*
X162485559Y-98931000D01*
X162311488Y-98896376D01*
X162147516Y-98828456D01*
X161999946Y-98729853D01*
X161874447Y-98604354D01*
X161775844Y-98456784D01*
X161707924Y-98292812D01*
X161673300Y-98118741D01*
X161673300Y-97941259D01*
X161707924Y-97767188D01*
X161775844Y-97603216D01*
X161874447Y-97455646D01*
X161999946Y-97330147D01*
X162147516Y-97231544D01*
X162311488Y-97163624D01*
X162485559Y-97129000D01*
X162663041Y-97129000D01*
X162837112Y-97163624D01*
X162837112Y-97163624D01*
G37*
G36*
X167688512Y-97163624D02*
X167852484Y-97231544D01*
X168000054Y-97330147D01*
X168125553Y-97455646D01*
X168224156Y-97603216D01*
X168292076Y-97767188D01*
X168326700Y-97941259D01*
X168326700Y-98118741D01*
X168292076Y-98292812D01*
X168224156Y-98456784D01*
X168125553Y-98604354D01*
X168000054Y-98729853D01*
X167852484Y-98828456D01*
X167688512Y-98896376D01*
X167514441Y-98931000D01*
X167336959Y-98931000D01*
X167162888Y-98896376D01*
X166998916Y-98828456D01*
X166851346Y-98729853D01*
X166725847Y-98604354D01*
X166627244Y-98456784D01*
X166559324Y-98292812D01*
X166524700Y-98118741D01*
X166524700Y-97941259D01*
X166559324Y-97767188D01*
X166627244Y-97603216D01*
X166725847Y-97455646D01*
X166851346Y-97330147D01*
X166998916Y-97231544D01*
X167162888Y-97163624D01*
X167336959Y-97129000D01*
X167514441Y-97129000D01*
X167688512Y-97163624D01*
X167688512Y-97163624D01*
G37*
G36*
X111688512Y-97163624D02*
X111852484Y-97231544D01*
X112000054Y-97330147D01*
X112125553Y-97455646D01*
X112224156Y-97603216D01*
X112292076Y-97767188D01*
X112326700Y-97941259D01*
X112326700Y-98118741D01*
X112292076Y-98292812D01*
X112224156Y-98456784D01*
X112125553Y-98604354D01*
X112000054Y-98729853D01*
X111852484Y-98828456D01*
X111688512Y-98896376D01*
X111514441Y-98931000D01*
X111336959Y-98931000D01*
X111162888Y-98896376D01*
X110998916Y-98828456D01*
X110851346Y-98729853D01*
X110725847Y-98604354D01*
X110627244Y-98456784D01*
X110559324Y-98292812D01*
X110524700Y-98118741D01*
X110524700Y-97941259D01*
X110559324Y-97767188D01*
X110627244Y-97603216D01*
X110725847Y-97455646D01*
X110851346Y-97330147D01*
X110998916Y-97231544D01*
X111162888Y-97163624D01*
X111336959Y-97129000D01*
X111514441Y-97129000D01*
X111688512Y-97163624D01*
X111688512Y-97163624D01*
G37*
G36*
X106837112Y-97163624D02*
X107001084Y-97231544D01*
X107148654Y-97330147D01*
X107274153Y-97455646D01*
X107372756Y-97603216D01*
X107440676Y-97767188D01*
X107475300Y-97941259D01*
X107475300Y-98118741D01*
X107440676Y-98292812D01*
X107372756Y-98456784D01*
X107274153Y-98604354D01*
X107148654Y-98729853D01*
X107001084Y-98828456D01*
X106837112Y-98896376D01*
X106663041Y-98931000D01*
X106485559Y-98931000D01*
X106311488Y-98896376D01*
X106147516Y-98828456D01*
X105999946Y-98729853D01*
X105874447Y-98604354D01*
X105775844Y-98456784D01*
X105707924Y-98292812D01*
X105673300Y-98118741D01*
X105673300Y-97941259D01*
X105707924Y-97767188D01*
X105775844Y-97603216D01*
X105874447Y-97455646D01*
X105999946Y-97330147D01*
X106147516Y-97231544D01*
X106311488Y-97163624D01*
X106485559Y-97129000D01*
X106663041Y-97129000D01*
X106837112Y-97163624D01*
X106837112Y-97163624D01*
G37*
G36*
X90551000Y-98051000D02*
X87449000Y-98051000D01*
X87449000Y-94949000D01*
X90551000Y-94949000D01*
X90551000Y-98051000D01*
X90551000Y-98051000D01*
G37*
G36*
X134837112Y-94653851D02*
X135001084Y-94721771D01*
X135148654Y-94820374D01*
X135274153Y-94945873D01*
X135372756Y-95093443D01*
X135440676Y-95257415D01*
X135475300Y-95431486D01*
X135475300Y-95608968D01*
X135440676Y-95783039D01*
X135372756Y-95947011D01*
X135274153Y-96094581D01*
X135148654Y-96220080D01*
X135001084Y-96318683D01*
X134837112Y-96386603D01*
X134663041Y-96421227D01*
X134485559Y-96421227D01*
X134311488Y-96386603D01*
X134147516Y-96318683D01*
X133999946Y-96220080D01*
X133874447Y-96094581D01*
X133775844Y-95947011D01*
X133707924Y-95783039D01*
X133673300Y-95608968D01*
X133673300Y-95431486D01*
X133707924Y-95257415D01*
X133775844Y-95093443D01*
X133874447Y-94945873D01*
X133999946Y-94820374D01*
X134147516Y-94721771D01*
X134311488Y-94653851D01*
X134485559Y-94619227D01*
X134663041Y-94619227D01*
X134837112Y-94653851D01*
X134837112Y-94653851D01*
G37*
G36*
X139688512Y-94653851D02*
X139852484Y-94721771D01*
X140000054Y-94820374D01*
X140125553Y-94945873D01*
X140224156Y-95093443D01*
X140292076Y-95257415D01*
X140326700Y-95431486D01*
X140326700Y-95608968D01*
X140292076Y-95783039D01*
X140224156Y-95947011D01*
X140125553Y-96094581D01*
X140000054Y-96220080D01*
X139852484Y-96318683D01*
X139688512Y-96386603D01*
X139514441Y-96421227D01*
X139336959Y-96421227D01*
X139162888Y-96386603D01*
X138998916Y-96318683D01*
X138851346Y-96220080D01*
X138725847Y-96094581D01*
X138627244Y-95947011D01*
X138559324Y-95783039D01*
X138524700Y-95608968D01*
X138524700Y-95431486D01*
X138559324Y-95257415D01*
X138627244Y-95093443D01*
X138725847Y-94945873D01*
X138851346Y-94820374D01*
X138998916Y-94721771D01*
X139162888Y-94653851D01*
X139336959Y-94619227D01*
X139514441Y-94619227D01*
X139688512Y-94653851D01*
X139688512Y-94653851D01*
G37*
G36*
X106837112Y-94623624D02*
X107001084Y-94691544D01*
X107148654Y-94790147D01*
X107274153Y-94915646D01*
X107372756Y-95063216D01*
X107440676Y-95227188D01*
X107475300Y-95401259D01*
X107475300Y-95578741D01*
X107440676Y-95752812D01*
X107372756Y-95916784D01*
X107274153Y-96064354D01*
X107148654Y-96189853D01*
X107001084Y-96288456D01*
X106837112Y-96356376D01*
X106663041Y-96391000D01*
X106485559Y-96391000D01*
X106311488Y-96356376D01*
X106147516Y-96288456D01*
X105999946Y-96189853D01*
X105874447Y-96064354D01*
X105775844Y-95916784D01*
X105707924Y-95752812D01*
X105673300Y-95578741D01*
X105673300Y-95401259D01*
X105707924Y-95227188D01*
X105775844Y-95063216D01*
X105874447Y-94915646D01*
X105999946Y-94790147D01*
X106147516Y-94691544D01*
X106311488Y-94623624D01*
X106485559Y-94589000D01*
X106663041Y-94589000D01*
X106837112Y-94623624D01*
X106837112Y-94623624D01*
G37*
G36*
X162837112Y-94623624D02*
X163001084Y-94691544D01*
X163148654Y-94790147D01*
X163274153Y-94915646D01*
X163372756Y-95063216D01*
X163440676Y-95227188D01*
X163475300Y-95401259D01*
X163475300Y-95578741D01*
X163440676Y-95752812D01*
X163372756Y-95916784D01*
X163274153Y-96064354D01*
X163148654Y-96189853D01*
X163001084Y-96288456D01*
X162837112Y-96356376D01*
X162663041Y-96391000D01*
X162485559Y-96391000D01*
X162311488Y-96356376D01*
X162147516Y-96288456D01*
X161999946Y-96189853D01*
X161874447Y-96064354D01*
X161775844Y-95916784D01*
X161707924Y-95752812D01*
X161673300Y-95578741D01*
X161673300Y-95401259D01*
X161707924Y-95227188D01*
X161775844Y-95063216D01*
X161874447Y-94915646D01*
X161999946Y-94790147D01*
X162147516Y-94691544D01*
X162311488Y-94623624D01*
X162485559Y-94589000D01*
X162663041Y-94589000D01*
X162837112Y-94623624D01*
X162837112Y-94623624D01*
G37*
G36*
X111688512Y-94623624D02*
X111852484Y-94691544D01*
X112000054Y-94790147D01*
X112125553Y-94915646D01*
X112224156Y-95063216D01*
X112292076Y-95227188D01*
X112326700Y-95401259D01*
X112326700Y-95578741D01*
X112292076Y-95752812D01*
X112224156Y-95916784D01*
X112125553Y-96064354D01*
X112000054Y-96189853D01*
X111852484Y-96288456D01*
X111688512Y-96356376D01*
X111514441Y-96391000D01*
X111336959Y-96391000D01*
X111162888Y-96356376D01*
X110998916Y-96288456D01*
X110851346Y-96189853D01*
X110725847Y-96064354D01*
X110627244Y-95916784D01*
X110559324Y-95752812D01*
X110524700Y-95578741D01*
X110524700Y-95401259D01*
X110559324Y-95227188D01*
X110627244Y-95063216D01*
X110725847Y-94915646D01*
X110851346Y-94790147D01*
X110998916Y-94691544D01*
X111162888Y-94623624D01*
X111336959Y-94589000D01*
X111514441Y-94589000D01*
X111688512Y-94623624D01*
X111688512Y-94623624D01*
G37*
G36*
X167688512Y-94623624D02*
X167852484Y-94691544D01*
X168000054Y-94790147D01*
X168125553Y-94915646D01*
X168224156Y-95063216D01*
X168292076Y-95227188D01*
X168326700Y-95401259D01*
X168326700Y-95578741D01*
X168292076Y-95752812D01*
X168224156Y-95916784D01*
X168125553Y-96064354D01*
X168000054Y-96189853D01*
X167852484Y-96288456D01*
X167688512Y-96356376D01*
X167514441Y-96391000D01*
X167336959Y-96391000D01*
X167162888Y-96356376D01*
X166998916Y-96288456D01*
X166851346Y-96189853D01*
X166725847Y-96064354D01*
X166627244Y-95916784D01*
X166559324Y-95752812D01*
X166524700Y-95578741D01*
X166524700Y-95401259D01*
X166559324Y-95227188D01*
X166627244Y-95063216D01*
X166725847Y-94915646D01*
X166851346Y-94790147D01*
X166998916Y-94691544D01*
X167162888Y-94623624D01*
X167336959Y-94589000D01*
X167514441Y-94589000D01*
X167688512Y-94623624D01*
X167688512Y-94623624D01*
G37*
G36*
X139688512Y-92113851D02*
X139852484Y-92181771D01*
X140000054Y-92280374D01*
X140125553Y-92405873D01*
X140224156Y-92553443D01*
X140292076Y-92717415D01*
X140326700Y-92891486D01*
X140326700Y-93068968D01*
X140292076Y-93243039D01*
X140224156Y-93407011D01*
X140125553Y-93554581D01*
X140000054Y-93680080D01*
X139852484Y-93778683D01*
X139688512Y-93846603D01*
X139514441Y-93881227D01*
X139336959Y-93881227D01*
X139162888Y-93846603D01*
X138998916Y-93778683D01*
X138851346Y-93680080D01*
X138725847Y-93554581D01*
X138627244Y-93407011D01*
X138559324Y-93243039D01*
X138524700Y-93068968D01*
X138524700Y-92891486D01*
X138559324Y-92717415D01*
X138627244Y-92553443D01*
X138725847Y-92405873D01*
X138851346Y-92280374D01*
X138998916Y-92181771D01*
X139162888Y-92113851D01*
X139336959Y-92079227D01*
X139514441Y-92079227D01*
X139688512Y-92113851D01*
X139688512Y-92113851D01*
G37*
G36*
X134837112Y-92113851D02*
X135001084Y-92181771D01*
X135148654Y-92280374D01*
X135274153Y-92405873D01*
X135372756Y-92553443D01*
X135440676Y-92717415D01*
X135475300Y-92891486D01*
X135475300Y-93068968D01*
X135440676Y-93243039D01*
X135372756Y-93407011D01*
X135274153Y-93554581D01*
X135148654Y-93680080D01*
X135001084Y-93778683D01*
X134837112Y-93846603D01*
X134663041Y-93881227D01*
X134485559Y-93881227D01*
X134311488Y-93846603D01*
X134147516Y-93778683D01*
X133999946Y-93680080D01*
X133874447Y-93554581D01*
X133775844Y-93407011D01*
X133707924Y-93243039D01*
X133673300Y-93068968D01*
X133673300Y-92891486D01*
X133707924Y-92717415D01*
X133775844Y-92553443D01*
X133874447Y-92405873D01*
X133999946Y-92280374D01*
X134147516Y-92181771D01*
X134311488Y-92113851D01*
X134485559Y-92079227D01*
X134663041Y-92079227D01*
X134837112Y-92113851D01*
X134837112Y-92113851D01*
G37*
G36*
X106837112Y-92083624D02*
X107001084Y-92151544D01*
X107148654Y-92250147D01*
X107274153Y-92375646D01*
X107372756Y-92523216D01*
X107440676Y-92687188D01*
X107475300Y-92861259D01*
X107475300Y-93038741D01*
X107440676Y-93212812D01*
X107372756Y-93376784D01*
X107274153Y-93524354D01*
X107148654Y-93649853D01*
X107001084Y-93748456D01*
X106837112Y-93816376D01*
X106663041Y-93851000D01*
X106485559Y-93851000D01*
X106311488Y-93816376D01*
X106147516Y-93748456D01*
X105999946Y-93649853D01*
X105874447Y-93524354D01*
X105775844Y-93376784D01*
X105707924Y-93212812D01*
X105673300Y-93038741D01*
X105673300Y-92861259D01*
X105707924Y-92687188D01*
X105775844Y-92523216D01*
X105874447Y-92375646D01*
X105999946Y-92250147D01*
X106147516Y-92151544D01*
X106311488Y-92083624D01*
X106485559Y-92049000D01*
X106663041Y-92049000D01*
X106837112Y-92083624D01*
X106837112Y-92083624D01*
G37*
G36*
X111688512Y-92083624D02*
X111852484Y-92151544D01*
X112000054Y-92250147D01*
X112125553Y-92375646D01*
X112224156Y-92523216D01*
X112292076Y-92687188D01*
X112326700Y-92861259D01*
X112326700Y-93038741D01*
X112292076Y-93212812D01*
X112224156Y-93376784D01*
X112125553Y-93524354D01*
X112000054Y-93649853D01*
X111852484Y-93748456D01*
X111688512Y-93816376D01*
X111514441Y-93851000D01*
X111336959Y-93851000D01*
X111162888Y-93816376D01*
X110998916Y-93748456D01*
X110851346Y-93649853D01*
X110725847Y-93524354D01*
X110627244Y-93376784D01*
X110559324Y-93212812D01*
X110524700Y-93038741D01*
X110524700Y-92861259D01*
X110559324Y-92687188D01*
X110627244Y-92523216D01*
X110725847Y-92375646D01*
X110851346Y-92250147D01*
X110998916Y-92151544D01*
X111162888Y-92083624D01*
X111336959Y-92049000D01*
X111514441Y-92049000D01*
X111688512Y-92083624D01*
X111688512Y-92083624D01*
G37*
G36*
X162837112Y-92083624D02*
X163001084Y-92151544D01*
X163148654Y-92250147D01*
X163274153Y-92375646D01*
X163372756Y-92523216D01*
X163440676Y-92687188D01*
X163475300Y-92861259D01*
X163475300Y-93038741D01*
X163440676Y-93212812D01*
X163372756Y-93376784D01*
X163274153Y-93524354D01*
X163148654Y-93649853D01*
X163001084Y-93748456D01*
X162837112Y-93816376D01*
X162663041Y-93851000D01*
X162485559Y-93851000D01*
X162311488Y-93816376D01*
X162147516Y-93748456D01*
X161999946Y-93649853D01*
X161874447Y-93524354D01*
X161775844Y-93376784D01*
X161707924Y-93212812D01*
X161673300Y-93038741D01*
X161673300Y-92861259D01*
X161707924Y-92687188D01*
X161775844Y-92523216D01*
X161874447Y-92375646D01*
X161999946Y-92250147D01*
X162147516Y-92151544D01*
X162311488Y-92083624D01*
X162485559Y-92049000D01*
X162663041Y-92049000D01*
X162837112Y-92083624D01*
X162837112Y-92083624D01*
G37*
G36*
X167688512Y-92083624D02*
X167852484Y-92151544D01*
X168000054Y-92250147D01*
X168125553Y-92375646D01*
X168224156Y-92523216D01*
X168292076Y-92687188D01*
X168326700Y-92861259D01*
X168326700Y-93038741D01*
X168292076Y-93212812D01*
X168224156Y-93376784D01*
X168125553Y-93524354D01*
X168000054Y-93649853D01*
X167852484Y-93748456D01*
X167688512Y-93816376D01*
X167514441Y-93851000D01*
X167336959Y-93851000D01*
X167162888Y-93816376D01*
X166998916Y-93748456D01*
X166851346Y-93649853D01*
X166725847Y-93524354D01*
X166627244Y-93376784D01*
X166559324Y-93212812D01*
X166524700Y-93038741D01*
X166524700Y-92861259D01*
X166559324Y-92687188D01*
X166627244Y-92523216D01*
X166725847Y-92375646D01*
X166851346Y-92250147D01*
X166998916Y-92151544D01*
X167162888Y-92083624D01*
X167336959Y-92049000D01*
X167514441Y-92049000D01*
X167688512Y-92083624D01*
X167688512Y-92083624D01*
G37*
G36*
X89352527Y-89908736D02*
X89452410Y-89928604D01*
X89734674Y-90045521D01*
X89988705Y-90215259D01*
X90204741Y-90431295D01*
X90374479Y-90685326D01*
X90491396Y-90967590D01*
X90551000Y-91267240D01*
X90551000Y-91572760D01*
X90491396Y-91872410D01*
X90374479Y-92154674D01*
X90204741Y-92408705D01*
X89988705Y-92624741D01*
X89734674Y-92794479D01*
X89452410Y-92911396D01*
X89352527Y-92931264D01*
X89152762Y-92971000D01*
X88847238Y-92971000D01*
X88647473Y-92931264D01*
X88547590Y-92911396D01*
X88265326Y-92794479D01*
X88011295Y-92624741D01*
X87795259Y-92408705D01*
X87625521Y-92154674D01*
X87508604Y-91872410D01*
X87449000Y-91572760D01*
X87449000Y-91267240D01*
X87508604Y-90967590D01*
X87625521Y-90685326D01*
X87795259Y-90431295D01*
X88011295Y-90215259D01*
X88265326Y-90045521D01*
X88547590Y-89928604D01*
X88647473Y-89908736D01*
X88847238Y-89869000D01*
X89152762Y-89869000D01*
X89352527Y-89908736D01*
X89352527Y-89908736D01*
G37*
G36*
X134837112Y-89573851D02*
X135001084Y-89641771D01*
X135148654Y-89740374D01*
X135274153Y-89865873D01*
X135372756Y-90013443D01*
X135440676Y-90177415D01*
X135475300Y-90351486D01*
X135475300Y-90528968D01*
X135440676Y-90703039D01*
X135372756Y-90867011D01*
X135274153Y-91014581D01*
X135148654Y-91140080D01*
X135001084Y-91238683D01*
X134837112Y-91306603D01*
X134663041Y-91341227D01*
X134485559Y-91341227D01*
X134311488Y-91306603D01*
X134147516Y-91238683D01*
X133999946Y-91140080D01*
X133874447Y-91014581D01*
X133775844Y-90867011D01*
X133707924Y-90703039D01*
X133673300Y-90528968D01*
X133673300Y-90351486D01*
X133707924Y-90177415D01*
X133775844Y-90013443D01*
X133874447Y-89865873D01*
X133999946Y-89740374D01*
X134147516Y-89641771D01*
X134311488Y-89573851D01*
X134485559Y-89539227D01*
X134663041Y-89539227D01*
X134837112Y-89573851D01*
X134837112Y-89573851D01*
G37*
G36*
X139688512Y-89573851D02*
X139852484Y-89641771D01*
X140000054Y-89740374D01*
X140125553Y-89865873D01*
X140224156Y-90013443D01*
X140292076Y-90177415D01*
X140326700Y-90351486D01*
X140326700Y-90528968D01*
X140292076Y-90703039D01*
X140224156Y-90867011D01*
X140125553Y-91014581D01*
X140000054Y-91140080D01*
X139852484Y-91238683D01*
X139688512Y-91306603D01*
X139514441Y-91341227D01*
X139336959Y-91341227D01*
X139162888Y-91306603D01*
X138998916Y-91238683D01*
X138851346Y-91140080D01*
X138725847Y-91014581D01*
X138627244Y-90867011D01*
X138559324Y-90703039D01*
X138524700Y-90528968D01*
X138524700Y-90351486D01*
X138559324Y-90177415D01*
X138627244Y-90013443D01*
X138725847Y-89865873D01*
X138851346Y-89740374D01*
X138998916Y-89641771D01*
X139162888Y-89573851D01*
X139336959Y-89539227D01*
X139514441Y-89539227D01*
X139688512Y-89573851D01*
X139688512Y-89573851D01*
G37*
G36*
X167688512Y-89543624D02*
X167852484Y-89611544D01*
X168000054Y-89710147D01*
X168125553Y-89835646D01*
X168224156Y-89983216D01*
X168292076Y-90147188D01*
X168326700Y-90321259D01*
X168326700Y-90498741D01*
X168292076Y-90672812D01*
X168224156Y-90836784D01*
X168125553Y-90984354D01*
X168000054Y-91109853D01*
X167852484Y-91208456D01*
X167688512Y-91276376D01*
X167514441Y-91311000D01*
X167336959Y-91311000D01*
X167162888Y-91276376D01*
X166998916Y-91208456D01*
X166851346Y-91109853D01*
X166725847Y-90984354D01*
X166627244Y-90836784D01*
X166559324Y-90672812D01*
X166524700Y-90498741D01*
X166524700Y-90321259D01*
X166559324Y-90147188D01*
X166627244Y-89983216D01*
X166725847Y-89835646D01*
X166851346Y-89710147D01*
X166998916Y-89611544D01*
X167162888Y-89543624D01*
X167336959Y-89509000D01*
X167514441Y-89509000D01*
X167688512Y-89543624D01*
X167688512Y-89543624D01*
G37*
G36*
X162837112Y-89543624D02*
X163001084Y-89611544D01*
X163148654Y-89710147D01*
X163274153Y-89835646D01*
X163372756Y-89983216D01*
X163440676Y-90147188D01*
X163475300Y-90321259D01*
X163475300Y-90498741D01*
X163440676Y-90672812D01*
X163372756Y-90836784D01*
X163274153Y-90984354D01*
X163148654Y-91109853D01*
X163001084Y-91208456D01*
X162837112Y-91276376D01*
X162663041Y-91311000D01*
X162485559Y-91311000D01*
X162311488Y-91276376D01*
X162147516Y-91208456D01*
X161999946Y-91109853D01*
X161874447Y-90984354D01*
X161775844Y-90836784D01*
X161707924Y-90672812D01*
X161673300Y-90498741D01*
X161673300Y-90321259D01*
X161707924Y-90147188D01*
X161775844Y-89983216D01*
X161874447Y-89835646D01*
X161999946Y-89710147D01*
X162147516Y-89611544D01*
X162311488Y-89543624D01*
X162485559Y-89509000D01*
X162663041Y-89509000D01*
X162837112Y-89543624D01*
X162837112Y-89543624D01*
G37*
G36*
X111688512Y-89543624D02*
X111852484Y-89611544D01*
X112000054Y-89710147D01*
X112125553Y-89835646D01*
X112224156Y-89983216D01*
X112292076Y-90147188D01*
X112326700Y-90321259D01*
X112326700Y-90498741D01*
X112292076Y-90672812D01*
X112224156Y-90836784D01*
X112125553Y-90984354D01*
X112000054Y-91109853D01*
X111852484Y-91208456D01*
X111688512Y-91276376D01*
X111514441Y-91311000D01*
X111336959Y-91311000D01*
X111162888Y-91276376D01*
X110998916Y-91208456D01*
X110851346Y-91109853D01*
X110725847Y-90984354D01*
X110627244Y-90836784D01*
X110559324Y-90672812D01*
X110524700Y-90498741D01*
X110524700Y-90321259D01*
X110559324Y-90147188D01*
X110627244Y-89983216D01*
X110725847Y-89835646D01*
X110851346Y-89710147D01*
X110998916Y-89611544D01*
X111162888Y-89543624D01*
X111336959Y-89509000D01*
X111514441Y-89509000D01*
X111688512Y-89543624D01*
X111688512Y-89543624D01*
G37*
G36*
X106837112Y-89543624D02*
X107001084Y-89611544D01*
X107148654Y-89710147D01*
X107274153Y-89835646D01*
X107372756Y-89983216D01*
X107440676Y-90147188D01*
X107475300Y-90321259D01*
X107475300Y-90498741D01*
X107440676Y-90672812D01*
X107372756Y-90836784D01*
X107274153Y-90984354D01*
X107148654Y-91109853D01*
X107001084Y-91208456D01*
X106837112Y-91276376D01*
X106663041Y-91311000D01*
X106485559Y-91311000D01*
X106311488Y-91276376D01*
X106147516Y-91208456D01*
X105999946Y-91109853D01*
X105874447Y-90984354D01*
X105775844Y-90836784D01*
X105707924Y-90672812D01*
X105673300Y-90498741D01*
X105673300Y-90321259D01*
X105707924Y-90147188D01*
X105775844Y-89983216D01*
X105874447Y-89835646D01*
X105999946Y-89710147D01*
X106147516Y-89611544D01*
X106311488Y-89543624D01*
X106485559Y-89509000D01*
X106663041Y-89509000D01*
X106837112Y-89543624D01*
X106837112Y-89543624D01*
G37*
G36*
X134837112Y-87033851D02*
X135001084Y-87101771D01*
X135148654Y-87200374D01*
X135274153Y-87325873D01*
X135372756Y-87473443D01*
X135440676Y-87637415D01*
X135475300Y-87811486D01*
X135475300Y-87988968D01*
X135440676Y-88163039D01*
X135372756Y-88327011D01*
X135274153Y-88474581D01*
X135148654Y-88600080D01*
X135001084Y-88698683D01*
X134837112Y-88766603D01*
X134663041Y-88801227D01*
X134485559Y-88801227D01*
X134311488Y-88766603D01*
X134147516Y-88698683D01*
X133999946Y-88600080D01*
X133874447Y-88474581D01*
X133775844Y-88327011D01*
X133707924Y-88163039D01*
X133673300Y-87988968D01*
X133673300Y-87811486D01*
X133707924Y-87637415D01*
X133775844Y-87473443D01*
X133874447Y-87325873D01*
X133999946Y-87200374D01*
X134147516Y-87101771D01*
X134311488Y-87033851D01*
X134485559Y-86999227D01*
X134663041Y-86999227D01*
X134837112Y-87033851D01*
X134837112Y-87033851D01*
G37*
G36*
X139688512Y-87033851D02*
X139852484Y-87101771D01*
X140000054Y-87200374D01*
X140125553Y-87325873D01*
X140224156Y-87473443D01*
X140292076Y-87637415D01*
X140326700Y-87811486D01*
X140326700Y-87988968D01*
X140292076Y-88163039D01*
X140224156Y-88327011D01*
X140125553Y-88474581D01*
X140000054Y-88600080D01*
X139852484Y-88698683D01*
X139688512Y-88766603D01*
X139514441Y-88801227D01*
X139336959Y-88801227D01*
X139162888Y-88766603D01*
X138998916Y-88698683D01*
X138851346Y-88600080D01*
X138725847Y-88474581D01*
X138627244Y-88327011D01*
X138559324Y-88163039D01*
X138524700Y-87988968D01*
X138524700Y-87811486D01*
X138559324Y-87637415D01*
X138627244Y-87473443D01*
X138725847Y-87325873D01*
X138851346Y-87200374D01*
X138998916Y-87101771D01*
X139162888Y-87033851D01*
X139336959Y-86999227D01*
X139514441Y-86999227D01*
X139688512Y-87033851D01*
X139688512Y-87033851D01*
G37*
G36*
X162837112Y-87003624D02*
X163001084Y-87071544D01*
X163148654Y-87170147D01*
X163274153Y-87295646D01*
X163372756Y-87443216D01*
X163440676Y-87607188D01*
X163475300Y-87781259D01*
X163475300Y-87958741D01*
X163440676Y-88132812D01*
X163372756Y-88296784D01*
X163274153Y-88444354D01*
X163148654Y-88569853D01*
X163001084Y-88668456D01*
X162837112Y-88736376D01*
X162663041Y-88771000D01*
X162485559Y-88771000D01*
X162311488Y-88736376D01*
X162147516Y-88668456D01*
X161999946Y-88569853D01*
X161874447Y-88444354D01*
X161775844Y-88296784D01*
X161707924Y-88132812D01*
X161673300Y-87958741D01*
X161673300Y-87781259D01*
X161707924Y-87607188D01*
X161775844Y-87443216D01*
X161874447Y-87295646D01*
X161999946Y-87170147D01*
X162147516Y-87071544D01*
X162311488Y-87003624D01*
X162485559Y-86969000D01*
X162663041Y-86969000D01*
X162837112Y-87003624D01*
X162837112Y-87003624D01*
G37*
G36*
X167688512Y-87003624D02*
X167852484Y-87071544D01*
X168000054Y-87170147D01*
X168125553Y-87295646D01*
X168224156Y-87443216D01*
X168292076Y-87607188D01*
X168326700Y-87781259D01*
X168326700Y-87958741D01*
X168292076Y-88132812D01*
X168224156Y-88296784D01*
X168125553Y-88444354D01*
X168000054Y-88569853D01*
X167852484Y-88668456D01*
X167688512Y-88736376D01*
X167514441Y-88771000D01*
X167336959Y-88771000D01*
X167162888Y-88736376D01*
X166998916Y-88668456D01*
X166851346Y-88569853D01*
X166725847Y-88444354D01*
X166627244Y-88296784D01*
X166559324Y-88132812D01*
X166524700Y-87958741D01*
X166524700Y-87781259D01*
X166559324Y-87607188D01*
X166627244Y-87443216D01*
X166725847Y-87295646D01*
X166851346Y-87170147D01*
X166998916Y-87071544D01*
X167162888Y-87003624D01*
X167336959Y-86969000D01*
X167514441Y-86969000D01*
X167688512Y-87003624D01*
X167688512Y-87003624D01*
G37*
G36*
X106837112Y-87003624D02*
X107001084Y-87071544D01*
X107148654Y-87170147D01*
X107274153Y-87295646D01*
X107372756Y-87443216D01*
X107440676Y-87607188D01*
X107475300Y-87781259D01*
X107475300Y-87958741D01*
X107440676Y-88132812D01*
X107372756Y-88296784D01*
X107274153Y-88444354D01*
X107148654Y-88569853D01*
X107001084Y-88668456D01*
X106837112Y-88736376D01*
X106663041Y-88771000D01*
X106485559Y-88771000D01*
X106311488Y-88736376D01*
X106147516Y-88668456D01*
X105999946Y-88569853D01*
X105874447Y-88444354D01*
X105775844Y-88296784D01*
X105707924Y-88132812D01*
X105673300Y-87958741D01*
X105673300Y-87781259D01*
X105707924Y-87607188D01*
X105775844Y-87443216D01*
X105874447Y-87295646D01*
X105999946Y-87170147D01*
X106147516Y-87071544D01*
X106311488Y-87003624D01*
X106485559Y-86969000D01*
X106663041Y-86969000D01*
X106837112Y-87003624D01*
X106837112Y-87003624D01*
G37*
G36*
X111688512Y-87003624D02*
X111852484Y-87071544D01*
X112000054Y-87170147D01*
X112125553Y-87295646D01*
X112224156Y-87443216D01*
X112292076Y-87607188D01*
X112326700Y-87781259D01*
X112326700Y-87958741D01*
X112292076Y-88132812D01*
X112224156Y-88296784D01*
X112125553Y-88444354D01*
X112000054Y-88569853D01*
X111852484Y-88668456D01*
X111688512Y-88736376D01*
X111514441Y-88771000D01*
X111336959Y-88771000D01*
X111162888Y-88736376D01*
X110998916Y-88668456D01*
X110851346Y-88569853D01*
X110725847Y-88444354D01*
X110627244Y-88296784D01*
X110559324Y-88132812D01*
X110524700Y-87958741D01*
X110524700Y-87781259D01*
X110559324Y-87607188D01*
X110627244Y-87443216D01*
X110725847Y-87295646D01*
X110851346Y-87170147D01*
X110998916Y-87071544D01*
X111162888Y-87003624D01*
X111336959Y-86969000D01*
X111514441Y-86969000D01*
X111688512Y-87003624D01*
X111688512Y-87003624D01*
G37*
G36*
X89352527Y-84828736D02*
X89452410Y-84848604D01*
X89734674Y-84965521D01*
X89988705Y-85135259D01*
X90204741Y-85351295D01*
X90374479Y-85605326D01*
X90491396Y-85887590D01*
X90551000Y-86187240D01*
X90551000Y-86492760D01*
X90491396Y-86792410D01*
X90374479Y-87074674D01*
X90204741Y-87328705D01*
X89988705Y-87544741D01*
X89734674Y-87714479D01*
X89452410Y-87831396D01*
X89352527Y-87851264D01*
X89152762Y-87891000D01*
X88847238Y-87891000D01*
X88647473Y-87851264D01*
X88547590Y-87831396D01*
X88265326Y-87714479D01*
X88011295Y-87544741D01*
X87795259Y-87328705D01*
X87625521Y-87074674D01*
X87508604Y-86792410D01*
X87449000Y-86492760D01*
X87449000Y-86187240D01*
X87508604Y-85887590D01*
X87625521Y-85605326D01*
X87795259Y-85351295D01*
X88011295Y-85135259D01*
X88265326Y-84965521D01*
X88547590Y-84848604D01*
X88647473Y-84828736D01*
X88847238Y-84789000D01*
X89152762Y-84789000D01*
X89352527Y-84828736D01*
X89352527Y-84828736D01*
G37*
G36*
X134837112Y-84493851D02*
X135001084Y-84561771D01*
X135148654Y-84660374D01*
X135274153Y-84785873D01*
X135372756Y-84933443D01*
X135440676Y-85097415D01*
X135475300Y-85271486D01*
X135475300Y-85448968D01*
X135440676Y-85623039D01*
X135372756Y-85787011D01*
X135274153Y-85934581D01*
X135148654Y-86060080D01*
X135001084Y-86158683D01*
X134837112Y-86226603D01*
X134663041Y-86261227D01*
X134485559Y-86261227D01*
X134311488Y-86226603D01*
X134147516Y-86158683D01*
X133999946Y-86060080D01*
X133874447Y-85934581D01*
X133775844Y-85787011D01*
X133707924Y-85623039D01*
X133673300Y-85448968D01*
X133673300Y-85271486D01*
X133707924Y-85097415D01*
X133775844Y-84933443D01*
X133874447Y-84785873D01*
X133999946Y-84660374D01*
X134147516Y-84561771D01*
X134311488Y-84493851D01*
X134485559Y-84459227D01*
X134663041Y-84459227D01*
X134837112Y-84493851D01*
X134837112Y-84493851D01*
G37*
G36*
X139688512Y-84493851D02*
X139852484Y-84561771D01*
X140000054Y-84660374D01*
X140125553Y-84785873D01*
X140224156Y-84933443D01*
X140292076Y-85097415D01*
X140326700Y-85271486D01*
X140326700Y-85448968D01*
X140292076Y-85623039D01*
X140224156Y-85787011D01*
X140125553Y-85934581D01*
X140000054Y-86060080D01*
X139852484Y-86158683D01*
X139688512Y-86226603D01*
X139514441Y-86261227D01*
X139336959Y-86261227D01*
X139162888Y-86226603D01*
X138998916Y-86158683D01*
X138851346Y-86060080D01*
X138725847Y-85934581D01*
X138627244Y-85787011D01*
X138559324Y-85623039D01*
X138524700Y-85448968D01*
X138524700Y-85271486D01*
X138559324Y-85097415D01*
X138627244Y-84933443D01*
X138725847Y-84785873D01*
X138851346Y-84660374D01*
X138998916Y-84561771D01*
X139162888Y-84493851D01*
X139336959Y-84459227D01*
X139514441Y-84459227D01*
X139688512Y-84493851D01*
X139688512Y-84493851D01*
G37*
G36*
X106837112Y-84463624D02*
X107001084Y-84531544D01*
X107148654Y-84630147D01*
X107274153Y-84755646D01*
X107372756Y-84903216D01*
X107440676Y-85067188D01*
X107475300Y-85241259D01*
X107475300Y-85418741D01*
X107440676Y-85592812D01*
X107372756Y-85756784D01*
X107274153Y-85904354D01*
X107148654Y-86029853D01*
X107001084Y-86128456D01*
X106837112Y-86196376D01*
X106663041Y-86231000D01*
X106485559Y-86231000D01*
X106311488Y-86196376D01*
X106147516Y-86128456D01*
X105999946Y-86029853D01*
X105874447Y-85904354D01*
X105775844Y-85756784D01*
X105707924Y-85592812D01*
X105673300Y-85418741D01*
X105673300Y-85241259D01*
X105707924Y-85067188D01*
X105775844Y-84903216D01*
X105874447Y-84755646D01*
X105999946Y-84630147D01*
X106147516Y-84531544D01*
X106311488Y-84463624D01*
X106485559Y-84429000D01*
X106663041Y-84429000D01*
X106837112Y-84463624D01*
X106837112Y-84463624D01*
G37*
G36*
X111688512Y-84463624D02*
X111852484Y-84531544D01*
X112000054Y-84630147D01*
X112125553Y-84755646D01*
X112224156Y-84903216D01*
X112292076Y-85067188D01*
X112326700Y-85241259D01*
X112326700Y-85418741D01*
X112292076Y-85592812D01*
X112224156Y-85756784D01*
X112125553Y-85904354D01*
X112000054Y-86029853D01*
X111852484Y-86128456D01*
X111688512Y-86196376D01*
X111514441Y-86231000D01*
X111336959Y-86231000D01*
X111162888Y-86196376D01*
X110998916Y-86128456D01*
X110851346Y-86029853D01*
X110725847Y-85904354D01*
X110627244Y-85756784D01*
X110559324Y-85592812D01*
X110524700Y-85418741D01*
X110524700Y-85241259D01*
X110559324Y-85067188D01*
X110627244Y-84903216D01*
X110725847Y-84755646D01*
X110851346Y-84630147D01*
X110998916Y-84531544D01*
X111162888Y-84463624D01*
X111336959Y-84429000D01*
X111514441Y-84429000D01*
X111688512Y-84463624D01*
X111688512Y-84463624D01*
G37*
G36*
X162837112Y-84463624D02*
X163001084Y-84531544D01*
X163148654Y-84630147D01*
X163274153Y-84755646D01*
X163372756Y-84903216D01*
X163440676Y-85067188D01*
X163475300Y-85241259D01*
X163475300Y-85418741D01*
X163440676Y-85592812D01*
X163372756Y-85756784D01*
X163274153Y-85904354D01*
X163148654Y-86029853D01*
X163001084Y-86128456D01*
X162837112Y-86196376D01*
X162663041Y-86231000D01*
X162485559Y-86231000D01*
X162311488Y-86196376D01*
X162147516Y-86128456D01*
X161999946Y-86029853D01*
X161874447Y-85904354D01*
X161775844Y-85756784D01*
X161707924Y-85592812D01*
X161673300Y-85418741D01*
X161673300Y-85241259D01*
X161707924Y-85067188D01*
X161775844Y-84903216D01*
X161874447Y-84755646D01*
X161999946Y-84630147D01*
X162147516Y-84531544D01*
X162311488Y-84463624D01*
X162485559Y-84429000D01*
X162663041Y-84429000D01*
X162837112Y-84463624D01*
X162837112Y-84463624D01*
G37*
G36*
X167688512Y-84463624D02*
X167852484Y-84531544D01*
X168000054Y-84630147D01*
X168125553Y-84755646D01*
X168224156Y-84903216D01*
X168292076Y-85067188D01*
X168326700Y-85241259D01*
X168326700Y-85418741D01*
X168292076Y-85592812D01*
X168224156Y-85756784D01*
X168125553Y-85904354D01*
X168000054Y-86029853D01*
X167852484Y-86128456D01*
X167688512Y-86196376D01*
X167514441Y-86231000D01*
X167336959Y-86231000D01*
X167162888Y-86196376D01*
X166998916Y-86128456D01*
X166851346Y-86029853D01*
X166725847Y-85904354D01*
X166627244Y-85756784D01*
X166559324Y-85592812D01*
X166524700Y-85418741D01*
X166524700Y-85241259D01*
X166559324Y-85067188D01*
X166627244Y-84903216D01*
X166725847Y-84755646D01*
X166851346Y-84630147D01*
X166998916Y-84531544D01*
X167162888Y-84463624D01*
X167336959Y-84429000D01*
X167514441Y-84429000D01*
X167688512Y-84463624D01*
X167688512Y-84463624D01*
G37*
G36*
X89352527Y-79748736D02*
X89452410Y-79768604D01*
X89734674Y-79885521D01*
X89988705Y-80055259D01*
X90204741Y-80271295D01*
X90374479Y-80525326D01*
X90491396Y-80807590D01*
X90551000Y-81107240D01*
X90551000Y-81412760D01*
X90491396Y-81712410D01*
X90374479Y-81994674D01*
X90204741Y-82248705D01*
X89988705Y-82464741D01*
X89734674Y-82634479D01*
X89452410Y-82751396D01*
X89352527Y-82771264D01*
X89152762Y-82811000D01*
X88847238Y-82811000D01*
X88647473Y-82771264D01*
X88547590Y-82751396D01*
X88265326Y-82634479D01*
X88011295Y-82464741D01*
X87795259Y-82248705D01*
X87625521Y-81994674D01*
X87508604Y-81712410D01*
X87449000Y-81412760D01*
X87449000Y-81107240D01*
X87508604Y-80807590D01*
X87625521Y-80525326D01*
X87795259Y-80271295D01*
X88011295Y-80055259D01*
X88265326Y-79885521D01*
X88547590Y-79768604D01*
X88647473Y-79748736D01*
X88847238Y-79709000D01*
X89152762Y-79709000D01*
X89352527Y-79748736D01*
X89352527Y-79748736D01*
G37*
G36*
X187923238Y-66854760D02*
X187923240Y-66854761D01*
X187923241Y-66854761D01*
X188187306Y-66964140D01*
X188187307Y-66964141D01*
X188424962Y-67122937D01*
X188627063Y-67325038D01*
X188627065Y-67325041D01*
X188785860Y-67562694D01*
X188895239Y-67826759D01*
X188951000Y-68107089D01*
X188951000Y-68392911D01*
X188895239Y-68673241D01*
X188785860Y-68937306D01*
X188785859Y-68937307D01*
X188627063Y-69174962D01*
X188424962Y-69377063D01*
X188424959Y-69377065D01*
X188187306Y-69535860D01*
X187923241Y-69645239D01*
X187923240Y-69645239D01*
X187923238Y-69645240D01*
X187642912Y-69701000D01*
X187357088Y-69701000D01*
X187076762Y-69645240D01*
X187076760Y-69645239D01*
X187076759Y-69645239D01*
X186812694Y-69535860D01*
X186575041Y-69377065D01*
X186575038Y-69377063D01*
X186372937Y-69174962D01*
X186214141Y-68937307D01*
X186214140Y-68937306D01*
X186104761Y-68673241D01*
X186049000Y-68392911D01*
X186049000Y-68107089D01*
X186104761Y-67826759D01*
X186214140Y-67562694D01*
X186372935Y-67325041D01*
X186372937Y-67325038D01*
X186575038Y-67122937D01*
X186812693Y-66964141D01*
X186812694Y-66964140D01*
X187076759Y-66854761D01*
X187076760Y-66854761D01*
X187076762Y-66854760D01*
X187357088Y-66799000D01*
X187642912Y-66799000D01*
X187923238Y-66854760D01*
X187923238Y-66854760D01*
G37*
G36*
X87923238Y-66604760D02*
X87923240Y-66604761D01*
X87923241Y-66604761D01*
X88187306Y-66714140D01*
X88397758Y-66854760D01*
X88424962Y-66872937D01*
X88627063Y-67075038D01*
X88627065Y-67075041D01*
X88785860Y-67312694D01*
X88895239Y-67576759D01*
X88951000Y-67857089D01*
X88951000Y-68142911D01*
X88895239Y-68423241D01*
X88785860Y-68687306D01*
X88785859Y-68687307D01*
X88627063Y-68924962D01*
X88424962Y-69127063D01*
X88424959Y-69127065D01*
X88187306Y-69285860D01*
X87923241Y-69395239D01*
X87923240Y-69395239D01*
X87923238Y-69395240D01*
X87642912Y-69451000D01*
X87357088Y-69451000D01*
X87076762Y-69395240D01*
X87076760Y-69395239D01*
X87076759Y-69395239D01*
X86812694Y-69285860D01*
X86575041Y-69127065D01*
X86575038Y-69127063D01*
X86372937Y-68924962D01*
X86214141Y-68687307D01*
X86214140Y-68687306D01*
X86104761Y-68423241D01*
X86049000Y-68142911D01*
X86049000Y-67857089D01*
X86104761Y-67576759D01*
X86214140Y-67312694D01*
X86372935Y-67075041D01*
X86372937Y-67075038D01*
X86575038Y-66872937D01*
X86602242Y-66854760D01*
X86812694Y-66714140D01*
X87076759Y-66604761D01*
X87076760Y-66604761D01*
X87076762Y-66604760D01*
X87357088Y-66549000D01*
X87642912Y-66549000D01*
X87923238Y-66604760D01*
X87923238Y-66604760D01*
G37*
G36*
X171408903Y-59743213D02*
X171631177Y-59787426D01*
X172049932Y-59960880D01*
X172426802Y-60212696D01*
X172747304Y-60533198D01*
X172999120Y-60910068D01*
X173172574Y-61328823D01*
X173261000Y-61773371D01*
X173261000Y-62226629D01*
X173172574Y-62671177D01*
X172999120Y-63089932D01*
X172747304Y-63466802D01*
X172426802Y-63787304D01*
X172049932Y-64039120D01*
X171631177Y-64212574D01*
X171408903Y-64256787D01*
X171186630Y-64301000D01*
X170733370Y-64301000D01*
X170511097Y-64256787D01*
X170288823Y-64212574D01*
X169870068Y-64039120D01*
X169493198Y-63787304D01*
X169172696Y-63466802D01*
X168920880Y-63089932D01*
X168747426Y-62671177D01*
X168659000Y-62226629D01*
X168659000Y-61773371D01*
X168747426Y-61328823D01*
X168920880Y-60910068D01*
X169172696Y-60533198D01*
X169493198Y-60212696D01*
X169870068Y-59960880D01*
X170288823Y-59787426D01*
X170511097Y-59743213D01*
X170733370Y-59699000D01*
X171186630Y-59699000D01*
X171408903Y-59743213D01*
X171408903Y-59743213D01*
G37*
G36*
X115408903Y-59743213D02*
X115631177Y-59787426D01*
X116049932Y-59960880D01*
X116426802Y-60212696D01*
X116747304Y-60533198D01*
X116999120Y-60910068D01*
X117172574Y-61328823D01*
X117261000Y-61773371D01*
X117261000Y-62226629D01*
X117172574Y-62671177D01*
X116999120Y-63089932D01*
X116747304Y-63466802D01*
X116426802Y-63787304D01*
X116049932Y-64039120D01*
X115631177Y-64212574D01*
X115408903Y-64256787D01*
X115186630Y-64301000D01*
X114733370Y-64301000D01*
X114511097Y-64256787D01*
X114288823Y-64212574D01*
X113870068Y-64039120D01*
X113493198Y-63787304D01*
X113172696Y-63466802D01*
X112920880Y-63089932D01*
X112747426Y-62671177D01*
X112659000Y-62226629D01*
X112659000Y-61773371D01*
X112747426Y-61328823D01*
X112920880Y-60910068D01*
X113172696Y-60533198D01*
X113493198Y-60212696D01*
X113870068Y-59960880D01*
X114288823Y-59787426D01*
X114511097Y-59743213D01*
X114733370Y-59699000D01*
X115186630Y-59699000D01*
X115408903Y-59743213D01*
X115408903Y-59743213D01*
G37*
G36*
X143408903Y-59743213D02*
X143631177Y-59787426D01*
X144049932Y-59960880D01*
X144426802Y-60212696D01*
X144747304Y-60533198D01*
X144999120Y-60910068D01*
X145172574Y-61328823D01*
X145261000Y-61773371D01*
X145261000Y-62226629D01*
X145172574Y-62671177D01*
X144999120Y-63089932D01*
X144747304Y-63466802D01*
X144426802Y-63787304D01*
X144049932Y-64039120D01*
X143631177Y-64212574D01*
X143408903Y-64256787D01*
X143186630Y-64301000D01*
X142733370Y-64301000D01*
X142511097Y-64256787D01*
X142288823Y-64212574D01*
X141870068Y-64039120D01*
X141493198Y-63787304D01*
X141172696Y-63466802D01*
X140920880Y-63089932D01*
X140747426Y-62671177D01*
X140659000Y-62226629D01*
X140659000Y-61773371D01*
X140747426Y-61328823D01*
X140920880Y-60910068D01*
X141172696Y-60533198D01*
X141493198Y-60212696D01*
X141870068Y-59960880D01*
X142288823Y-59787426D01*
X142511097Y-59743213D01*
X142733370Y-59699000D01*
X143186630Y-59699000D01*
X143408903Y-59743213D01*
X143408903Y-59743213D01*
G37*
M02*
