G04 #@! TF.GenerationSoftware,KiCad,Pcbnew,5.0.2-bee76a0~70~ubuntu18.04.1*
G04 #@! TF.CreationDate,2019-07-24T21:10:09-04:00*
G04 #@! TF.ProjectId,Mother Board,4d6f7468-6572-4204-926f-6172642e6b69,rev?*
G04 #@! TF.SameCoordinates,Original*
G04 #@! TF.FileFunction,Copper,L2,Bot*
G04 #@! TF.FilePolarity,Positive*
%FSLAX46Y46*%
G04 Gerber Fmt 4.6, Leading zero omitted, Abs format (unit mm)*
G04 Created by KiCad (PCBNEW 5.0.2-bee76a0~70~ubuntu18.04.1) date Wed 24 Jul 2019 09:10:09 PM EDT*
%MOMM*%
%LPD*%
G01*
G04 APERTURE LIST*
G04 #@! TA.AperFunction,ComponentPad*
%ADD10C,2.800000*%
G04 #@! TD*
G04 #@! TA.AperFunction,ComponentPad*
%ADD11C,1.600000*%
G04 #@! TD*
G04 #@! TA.AperFunction,ComponentPad*
%ADD12R,1.600000X1.600000*%
G04 #@! TD*
G04 #@! TA.AperFunction,ComponentPad*
%ADD13R,1.000000X1.000000*%
G04 #@! TD*
G04 #@! TA.AperFunction,ComponentPad*
%ADD14O,1.000000X1.000000*%
G04 #@! TD*
G04 #@! TA.AperFunction,ComponentPad*
%ADD15R,1.700000X1.700000*%
G04 #@! TD*
G04 #@! TA.AperFunction,ComponentPad*
%ADD16O,1.700000X1.700000*%
G04 #@! TD*
G04 #@! TA.AperFunction,ComponentPad*
%ADD17C,1.700000*%
G04 #@! TD*
G04 #@! TA.AperFunction,ComponentPad*
%ADD18C,3.000000*%
G04 #@! TD*
G04 #@! TA.AperFunction,ComponentPad*
%ADD19R,3.000000X3.000000*%
G04 #@! TD*
G04 APERTURE END LIST*
D10*
G04 #@! TO.P,TP1,1*
G04 #@! TO.N,SPI1_SCK*
X241760001Y-136250001D03*
G04 #@! TD*
G04 #@! TO.P,TP2,1*
G04 #@! TO.N,SPI1_MISO*
X244280001Y-130260001D03*
G04 #@! TD*
G04 #@! TO.P,TP3,1*
G04 #@! TO.N,SPI1_MOSI*
X245110001Y-120270001D03*
G04 #@! TD*
G04 #@! TO.P,TP4,1*
G04 #@! TO.N,IC1_SCL*
X240860001Y-123720001D03*
G04 #@! TD*
G04 #@! TO.P,TP5,1*
G04 #@! TO.N,IC1_SDA*
X245810001Y-136850001D03*
G04 #@! TD*
G04 #@! TO.P,TP6,1*
G04 #@! TO.N,GND*
X244910001Y-124320001D03*
G04 #@! TD*
G04 #@! TO.P,TP7,1*
G04 #@! TO.N,GND*
X249860001Y-136850001D03*
G04 #@! TD*
G04 #@! TO.P,TP8,1*
G04 #@! TO.N,GND*
X249160001Y-120270001D03*
G04 #@! TD*
G04 #@! TO.P,TP9,1*
G04 #@! TO.N,GND*
X248830001Y-130910001D03*
G04 #@! TD*
G04 #@! TO.P,TP10,1*
G04 #@! TO.N,GND*
X248960001Y-124320001D03*
G04 #@! TD*
D11*
G04 #@! TO.P,C3,2*
G04 #@! TO.N,GND*
X43180000Y-115260000D03*
D12*
G04 #@! TO.P,C3,1*
G04 #@! TO.N,+3V3*
X43180000Y-111760000D03*
G04 #@! TD*
G04 #@! TO.P,C4,1*
G04 #@! TO.N,Net-(C4-Pad1)*
X43180000Y-91440000D03*
D11*
G04 #@! TO.P,C4,2*
G04 #@! TO.N,GND*
X43180000Y-94940000D03*
G04 #@! TD*
D12*
G04 #@! TO.P,C17,1*
G04 #@! TO.N,Net-(C17-Pad1)*
X43180000Y-121920000D03*
D11*
G04 #@! TO.P,C17,2*
G04 #@! TO.N,GND*
X43180000Y-125420000D03*
G04 #@! TD*
G04 #@! TO.P,C1,2*
G04 #@! TO.N,GND*
X53340000Y-125420000D03*
D12*
G04 #@! TO.P,C1,1*
G04 #@! TO.N,Net-(C1-Pad1)*
X53340000Y-121920000D03*
G04 #@! TD*
D11*
G04 #@! TO.P,C2,2*
G04 #@! TO.N,Net-(C2-Pad2)*
X43180000Y-105100000D03*
D12*
G04 #@! TO.P,C2,1*
G04 #@! TO.N,Net-(C2-Pad1)*
X43180000Y-101600000D03*
G04 #@! TD*
D13*
G04 #@! TO.P,J3,1*
G04 #@! TO.N,+3V3*
X193675000Y-108585000D03*
D14*
G04 #@! TO.P,J3,2*
G04 #@! TO.N,SWDIO*
X194945000Y-108585000D03*
G04 #@! TO.P,J3,3*
G04 #@! TO.N,GND*
X193675000Y-109855000D03*
G04 #@! TO.P,J3,4*
G04 #@! TO.N,SWCLK*
X194945000Y-109855000D03*
G04 #@! TO.P,J3,5*
G04 #@! TO.N,GND*
X193675000Y-111125000D03*
G04 #@! TO.P,J3,6*
G04 #@! TO.N,SWO*
X194945000Y-111125000D03*
G04 #@! TO.P,J3,7*
G04 #@! TO.N,Net-(J3-Pad7)*
X193675000Y-112395000D03*
G04 #@! TO.P,J3,8*
G04 #@! TO.N,Net-(J3-Pad8)*
X194945000Y-112395000D03*
G04 #@! TO.P,J3,9*
G04 #@! TO.N,GND*
X193675000Y-113665000D03*
G04 #@! TO.P,J3,10*
G04 #@! TO.N,NRST*
X194945000Y-113665000D03*
G04 #@! TD*
D15*
G04 #@! TO.P,J5,1*
G04 #@! TO.N,GND*
X192405000Y-120070001D03*
D16*
G04 #@! TO.P,J5,2*
G04 #@! TO.N,Net-(J5-Pad2)*
X192405000Y-122610001D03*
G04 #@! TO.P,J5,3*
G04 #@! TO.N,+3V3*
X192405000Y-125150001D03*
G04 #@! TD*
G04 #@! TO.P,J6,3*
G04 #@! TO.N,+3V3*
X198220001Y-125150001D03*
G04 #@! TO.P,J6,2*
G04 #@! TO.N,Net-(J6-Pad2)*
X198220001Y-122610001D03*
D15*
G04 #@! TO.P,J6,1*
G04 #@! TO.N,GND*
X198220001Y-120070001D03*
G04 #@! TD*
D17*
G04 #@! TO.P,CARD0,44*
G04 #@! TO.N,GND*
X258734305Y-87900227D03*
G04 #@! TO.P,CARD0,42*
G04 #@! TO.N,CARD0_SENSE_NEG*
X258734305Y-85360227D03*
G04 #@! TO.P,CARD0,40*
G04 #@! TO.N,CARD0_GPIO0*
X258734305Y-82820227D03*
G04 #@! TO.P,CARD0,38*
G04 #@! TO.N,CARD0_TIM2_CH1*
X258734305Y-80280227D03*
G04 #@! TO.P,CARD0,36*
G04 #@! TO.N,CARD0_TIM1_CH1N*
X258734305Y-77740227D03*
G04 #@! TO.P,CARD0,34*
G04 #@! TO.N,CARD0_CS*
X258734305Y-75200227D03*
G04 #@! TO.P,CARD0,32*
G04 #@! TO.N,SPI2_MISO*
X258734305Y-72660227D03*
G04 #@! TO.P,CARD0,30*
G04 #@! TO.N,GND*
X258734305Y-70120227D03*
G04 #@! TO.P,CARD0,28*
G04 #@! TO.N,+3V3*
X258734305Y-67580227D03*
G04 #@! TO.P,CARD0,26*
G04 #@! TO.N,+5V*
X258734305Y-65040227D03*
G04 #@! TO.P,CARD0,24*
G04 #@! TO.N,+24V*
X258734305Y-62500227D03*
G04 #@! TO.P,CARD0,43*
G04 #@! TO.N,GND*
X253882905Y-87900227D03*
G04 #@! TO.P,CARD0,41*
G04 #@! TO.N,CARD0_GPIO1*
X253882905Y-85360227D03*
G04 #@! TO.P,CARD0,39*
G04 #@! TO.N,CARD0_TIM9_CH1*
X253882905Y-82820227D03*
G04 #@! TO.P,CARD0,37*
G04 #@! TO.N,CARD0_TIM3_CH1*
X253882905Y-80280227D03*
G04 #@! TO.P,CARD0,35*
G04 #@! TO.N,CARD0_TIM1_CH1*
X253882905Y-77740227D03*
G04 #@! TO.P,CARD0,33*
G04 #@! TO.N,SPI2_MOSI*
X253882905Y-75200227D03*
G04 #@! TO.P,CARD0,31*
G04 #@! TO.N,SPI2_SCK*
X253882905Y-72660227D03*
G04 #@! TO.P,CARD0,29*
G04 #@! TO.N,GND*
X253882905Y-70120227D03*
G04 #@! TO.P,CARD0,27*
G04 #@! TO.N,+3V3*
X253882905Y-67580227D03*
G04 #@! TO.P,CARD0,25*
G04 #@! TO.N,+5V*
X253882905Y-65040227D03*
G04 #@! TO.P,CARD0,23*
G04 #@! TO.N,+24V*
X253882905Y-62500227D03*
G04 #@! TO.P,CARD0,1*
X253882905Y-34560227D03*
G04 #@! TO.P,CARD0,3*
G04 #@! TO.N,+5V*
X253882905Y-37100227D03*
G04 #@! TO.P,CARD0,5*
G04 #@! TO.N,+3V3*
X253882905Y-39640227D03*
G04 #@! TO.P,CARD0,7*
G04 #@! TO.N,GND*
X253882905Y-42180227D03*
G04 #@! TO.P,CARD0,9*
G04 #@! TO.N,IC1_SCL*
X253882905Y-44720227D03*
G04 #@! TO.P,CARD0,11*
G04 #@! TO.N,/CARD0_ADD0*
X253882905Y-47260227D03*
G04 #@! TO.P,CARD0,13*
G04 #@! TO.N,/CARD0_ADD2*
X253882905Y-49800227D03*
G04 #@! TO.P,CARD0,15*
G04 #@! TO.N,CARD0_STATUS*
X253882905Y-52340227D03*
G04 #@! TO.P,CARD0,17*
G04 #@! TO.N,USART1_RX*
X253882905Y-54880227D03*
G04 #@! TO.P,CARD0,19*
G04 #@! TO.N,USART1_RTS*
X253882905Y-57420227D03*
G04 #@! TO.P,CARD0,2*
G04 #@! TO.N,+24V*
X258734305Y-34560227D03*
G04 #@! TO.P,CARD0,4*
G04 #@! TO.N,+5V*
X258734305Y-37100227D03*
G04 #@! TO.P,CARD0,6*
G04 #@! TO.N,+3V3*
X258734305Y-39640227D03*
G04 #@! TO.P,CARD0,8*
G04 #@! TO.N,GND*
X258734305Y-42180227D03*
G04 #@! TO.P,CARD0,10*
G04 #@! TO.N,IC1_SDA*
X258734305Y-44720227D03*
G04 #@! TO.P,CARD0,12*
G04 #@! TO.N,/CARD0_ADD1*
X258734305Y-47260227D03*
G04 #@! TO.P,CARD0,14*
G04 #@! TO.N,CARD0_ENABLE*
X258734305Y-49800227D03*
G04 #@! TO.P,CARD0,16*
G04 #@! TO.N,USART1_TX*
X258734305Y-52340227D03*
G04 #@! TO.P,CARD0,18*
G04 #@! TO.N,USART1_CTS*
X258734305Y-54880227D03*
G04 #@! TO.P,CARD0,20*
G04 #@! TO.N,/CARD0_SENSE_POS*
X258734305Y-57420227D03*
G04 #@! TO.P,CARD0,21*
G04 #@! TO.N,GND*
X253882905Y-59960227D03*
G04 #@! TO.P,CARD0,22*
X258734305Y-59960227D03*
G04 #@! TD*
G04 #@! TO.P,CARD1,22*
G04 #@! TO.N,GND*
X230794305Y-59960227D03*
G04 #@! TO.P,CARD1,21*
X225942905Y-59960227D03*
G04 #@! TO.P,CARD1,20*
G04 #@! TO.N,/CARD1_SENSE_POS*
X230794305Y-57420227D03*
G04 #@! TO.P,CARD1,18*
G04 #@! TO.N,USART6_CTS*
X230794305Y-54880227D03*
G04 #@! TO.P,CARD1,16*
G04 #@! TO.N,USART6_TX*
X230794305Y-52340227D03*
G04 #@! TO.P,CARD1,14*
G04 #@! TO.N,CARD1_ENABLE*
X230794305Y-49800227D03*
G04 #@! TO.P,CARD1,12*
G04 #@! TO.N,/CARD1_ADD1*
X230794305Y-47260227D03*
G04 #@! TO.P,CARD1,10*
G04 #@! TO.N,IC1_SDA*
X230794305Y-44720227D03*
G04 #@! TO.P,CARD1,8*
G04 #@! TO.N,GND*
X230794305Y-42180227D03*
G04 #@! TO.P,CARD1,6*
G04 #@! TO.N,+3V3*
X230794305Y-39640227D03*
G04 #@! TO.P,CARD1,4*
G04 #@! TO.N,+5V*
X230794305Y-37100227D03*
G04 #@! TO.P,CARD1,2*
G04 #@! TO.N,+24V*
X230794305Y-34560227D03*
G04 #@! TO.P,CARD1,19*
G04 #@! TO.N,USART6_RTS*
X225942905Y-57420227D03*
G04 #@! TO.P,CARD1,17*
G04 #@! TO.N,USART6_RX*
X225942905Y-54880227D03*
G04 #@! TO.P,CARD1,15*
G04 #@! TO.N,CARD1_STATUS*
X225942905Y-52340227D03*
G04 #@! TO.P,CARD1,13*
G04 #@! TO.N,/CARD1_ADD2*
X225942905Y-49800227D03*
G04 #@! TO.P,CARD1,11*
G04 #@! TO.N,/CARD1_ADD0*
X225942905Y-47260227D03*
G04 #@! TO.P,CARD1,9*
G04 #@! TO.N,IC1_SCL*
X225942905Y-44720227D03*
G04 #@! TO.P,CARD1,7*
G04 #@! TO.N,GND*
X225942905Y-42180227D03*
G04 #@! TO.P,CARD1,5*
G04 #@! TO.N,+3V3*
X225942905Y-39640227D03*
G04 #@! TO.P,CARD1,3*
G04 #@! TO.N,+5V*
X225942905Y-37100227D03*
G04 #@! TO.P,CARD1,1*
G04 #@! TO.N,+24V*
X225942905Y-34560227D03*
G04 #@! TO.P,CARD1,23*
X225942905Y-62500227D03*
G04 #@! TO.P,CARD1,25*
G04 #@! TO.N,+5V*
X225942905Y-65040227D03*
G04 #@! TO.P,CARD1,27*
G04 #@! TO.N,+3V3*
X225942905Y-67580227D03*
G04 #@! TO.P,CARD1,29*
G04 #@! TO.N,GND*
X225942905Y-70120227D03*
G04 #@! TO.P,CARD1,31*
G04 #@! TO.N,SPI2_SCK_PI1*
X225942905Y-72660227D03*
G04 #@! TO.P,CARD1,33*
G04 #@! TO.N,SPI2_MOSI_PI3*
X225942905Y-75200227D03*
G04 #@! TO.P,CARD1,35*
G04 #@! TO.N,CARD1_TIM1_CH2*
X225942905Y-77740227D03*
G04 #@! TO.P,CARD1,37*
G04 #@! TO.N,CARD1_TIM3_CH2*
X225942905Y-80280227D03*
G04 #@! TO.P,CARD1,39*
G04 #@! TO.N,CARD1_TIM9_CH2*
X225942905Y-82820227D03*
G04 #@! TO.P,CARD1,41*
G04 #@! TO.N,CARD1_GPIO1*
X225942905Y-85360227D03*
G04 #@! TO.P,CARD1,43*
G04 #@! TO.N,GND*
X225942905Y-87900227D03*
G04 #@! TO.P,CARD1,24*
G04 #@! TO.N,+24V*
X230794305Y-62500227D03*
G04 #@! TO.P,CARD1,26*
G04 #@! TO.N,+5V*
X230794305Y-65040227D03*
G04 #@! TO.P,CARD1,28*
G04 #@! TO.N,+3V3*
X230794305Y-67580227D03*
G04 #@! TO.P,CARD1,30*
G04 #@! TO.N,GND*
X230794305Y-70120227D03*
G04 #@! TO.P,CARD1,32*
G04 #@! TO.N,SPI2_MISO_PI2*
X230794305Y-72660227D03*
G04 #@! TO.P,CARD1,34*
G04 #@! TO.N,CARD1_CS*
X230794305Y-75200227D03*
G04 #@! TO.P,CARD1,36*
G04 #@! TO.N,CARD1_TIM1_CH2N*
X230794305Y-77740227D03*
G04 #@! TO.P,CARD1,38*
G04 #@! TO.N,CARD1_TIM2_CH2*
X230794305Y-80280227D03*
G04 #@! TO.P,CARD1,40*
G04 #@! TO.N,CARD1_GPIO0*
X230794305Y-82820227D03*
G04 #@! TO.P,CARD1,42*
G04 #@! TO.N,CARD1_SENSE_NEG*
X230794305Y-85360227D03*
G04 #@! TO.P,CARD1,44*
G04 #@! TO.N,GND*
X230794305Y-87900227D03*
G04 #@! TD*
G04 #@! TO.P,CARD2,44*
G04 #@! TO.N,GND*
X202854305Y-87900227D03*
G04 #@! TO.P,CARD2,42*
G04 #@! TO.N,CARD2_SENSE_NEG*
X202854305Y-85360227D03*
G04 #@! TO.P,CARD2,40*
G04 #@! TO.N,CARD2_GPIO0*
X202854305Y-82820227D03*
G04 #@! TO.P,CARD2,38*
G04 #@! TO.N,CARD2_TIM2_CH3*
X202854305Y-80280227D03*
G04 #@! TO.P,CARD2,36*
G04 #@! TO.N,CARD2_TIM1_CH3N*
X202854305Y-77740227D03*
G04 #@! TO.P,CARD2,34*
G04 #@! TO.N,CARD2_CS*
X202854305Y-75200227D03*
G04 #@! TO.P,CARD2,32*
G04 #@! TO.N,SPI2_MISO_PI2*
X202854305Y-72660227D03*
G04 #@! TO.P,CARD2,30*
G04 #@! TO.N,GND*
X202854305Y-70120227D03*
G04 #@! TO.P,CARD2,28*
G04 #@! TO.N,+3V3*
X202854305Y-67580227D03*
G04 #@! TO.P,CARD2,26*
G04 #@! TO.N,+5V*
X202854305Y-65040227D03*
G04 #@! TO.P,CARD2,24*
G04 #@! TO.N,+24V*
X202854305Y-62500227D03*
G04 #@! TO.P,CARD2,43*
G04 #@! TO.N,GND*
X198002905Y-87900227D03*
G04 #@! TO.P,CARD2,41*
G04 #@! TO.N,CARD2_GPIO1*
X198002905Y-85360227D03*
G04 #@! TO.P,CARD2,39*
G04 #@! TO.N,CARD2_TIM10_CH1*
X198002905Y-82820227D03*
G04 #@! TO.P,CARD2,37*
G04 #@! TO.N,CARD2_TIM3_CH3*
X198002905Y-80280227D03*
G04 #@! TO.P,CARD2,35*
G04 #@! TO.N,CARD2_TIM1_CH3*
X198002905Y-77740227D03*
G04 #@! TO.P,CARD2,33*
G04 #@! TO.N,SPI2_MOSI_PI3*
X198002905Y-75200227D03*
G04 #@! TO.P,CARD2,31*
G04 #@! TO.N,SPI2_SCK_PI1*
X198002905Y-72660227D03*
G04 #@! TO.P,CARD2,29*
G04 #@! TO.N,GND*
X198002905Y-70120227D03*
G04 #@! TO.P,CARD2,27*
G04 #@! TO.N,+3V3*
X198002905Y-67580227D03*
G04 #@! TO.P,CARD2,25*
G04 #@! TO.N,+5V*
X198002905Y-65040227D03*
G04 #@! TO.P,CARD2,23*
G04 #@! TO.N,+24V*
X198002905Y-62500227D03*
G04 #@! TO.P,CARD2,1*
X198002905Y-34560227D03*
G04 #@! TO.P,CARD2,3*
G04 #@! TO.N,+5V*
X198002905Y-37100227D03*
G04 #@! TO.P,CARD2,5*
G04 #@! TO.N,+3V3*
X198002905Y-39640227D03*
G04 #@! TO.P,CARD2,7*
G04 #@! TO.N,GND*
X198002905Y-42180227D03*
G04 #@! TO.P,CARD2,9*
G04 #@! TO.N,IC1_SCL*
X198002905Y-44720227D03*
G04 #@! TO.P,CARD2,11*
G04 #@! TO.N,/CARD2_ADD0*
X198002905Y-47260227D03*
G04 #@! TO.P,CARD2,13*
G04 #@! TO.N,/CARD2_ADD2*
X198002905Y-49800227D03*
G04 #@! TO.P,CARD2,15*
G04 #@! TO.N,CARD2_STATUS*
X198002905Y-52340227D03*
G04 #@! TO.P,CARD2,17*
G04 #@! TO.N,USART3_RX*
X198002905Y-54880227D03*
G04 #@! TO.P,CARD2,19*
G04 #@! TO.N,USART3_RTS*
X198002905Y-57420227D03*
G04 #@! TO.P,CARD2,2*
G04 #@! TO.N,+24V*
X202854305Y-34560227D03*
G04 #@! TO.P,CARD2,4*
G04 #@! TO.N,+5V*
X202854305Y-37100227D03*
G04 #@! TO.P,CARD2,6*
G04 #@! TO.N,+3V3*
X202854305Y-39640227D03*
G04 #@! TO.P,CARD2,8*
G04 #@! TO.N,GND*
X202854305Y-42180227D03*
G04 #@! TO.P,CARD2,10*
G04 #@! TO.N,IC1_SDA*
X202854305Y-44720227D03*
G04 #@! TO.P,CARD2,12*
G04 #@! TO.N,/CARD2_ADD1*
X202854305Y-47260227D03*
G04 #@! TO.P,CARD2,14*
G04 #@! TO.N,CARD2_ENABLE*
X202854305Y-49800227D03*
G04 #@! TO.P,CARD2,16*
G04 #@! TO.N,USART3_TX*
X202854305Y-52340227D03*
G04 #@! TO.P,CARD2,18*
G04 #@! TO.N,USART3_CTS*
X202854305Y-54880227D03*
G04 #@! TO.P,CARD2,20*
G04 #@! TO.N,/CARD2_SENSE_POS*
X202854305Y-57420227D03*
G04 #@! TO.P,CARD2,21*
G04 #@! TO.N,GND*
X198002905Y-59960227D03*
G04 #@! TO.P,CARD2,22*
X202854305Y-59960227D03*
G04 #@! TD*
G04 #@! TO.P,CARD3,22*
G04 #@! TO.N,GND*
X174914305Y-59960227D03*
G04 #@! TO.P,CARD3,21*
X170062905Y-59960227D03*
G04 #@! TO.P,CARD3,20*
G04 #@! TO.N,/CARD3_SENSE_POS*
X174914305Y-57420227D03*
G04 #@! TO.P,CARD3,18*
G04 #@! TO.N,CARD3_GPIO3*
X174914305Y-54880227D03*
G04 #@! TO.P,CARD3,16*
G04 #@! TO.N,UART4_TX*
X174914305Y-52340227D03*
G04 #@! TO.P,CARD3,14*
G04 #@! TO.N,CARD3_ENABLE*
X174914305Y-49800227D03*
G04 #@! TO.P,CARD3,12*
G04 #@! TO.N,/CARD3_ADD1*
X174914305Y-47260227D03*
G04 #@! TO.P,CARD3,10*
G04 #@! TO.N,IC1_SDA*
X174914305Y-44720227D03*
G04 #@! TO.P,CARD3,8*
G04 #@! TO.N,GND*
X174914305Y-42180227D03*
G04 #@! TO.P,CARD3,6*
G04 #@! TO.N,+3V3*
X174914305Y-39640227D03*
G04 #@! TO.P,CARD3,4*
G04 #@! TO.N,+5V*
X174914305Y-37100227D03*
G04 #@! TO.P,CARD3,2*
G04 #@! TO.N,+24V*
X174914305Y-34560227D03*
G04 #@! TO.P,CARD3,19*
G04 #@! TO.N,CARD3_GPIO2*
X170062905Y-57420227D03*
G04 #@! TO.P,CARD3,17*
G04 #@! TO.N,UART4_RX*
X170062905Y-54880227D03*
G04 #@! TO.P,CARD3,15*
G04 #@! TO.N,CARD3_STATUS*
X170062905Y-52340227D03*
G04 #@! TO.P,CARD3,13*
G04 #@! TO.N,/CARD3_ADD2*
X170062905Y-49800227D03*
G04 #@! TO.P,CARD3,11*
G04 #@! TO.N,/CARD3_ADD0*
X170062905Y-47260227D03*
G04 #@! TO.P,CARD3,9*
G04 #@! TO.N,IC1_SCL*
X170062905Y-44720227D03*
G04 #@! TO.P,CARD3,7*
G04 #@! TO.N,GND*
X170062905Y-42180227D03*
G04 #@! TO.P,CARD3,5*
G04 #@! TO.N,+3V3*
X170062905Y-39640227D03*
G04 #@! TO.P,CARD3,3*
G04 #@! TO.N,+5V*
X170062905Y-37100227D03*
G04 #@! TO.P,CARD3,1*
G04 #@! TO.N,+24V*
X170062905Y-34560227D03*
G04 #@! TO.P,CARD3,23*
X170062905Y-62500227D03*
G04 #@! TO.P,CARD3,25*
G04 #@! TO.N,+5V*
X170062905Y-65040227D03*
G04 #@! TO.P,CARD3,27*
G04 #@! TO.N,+3V3*
X170062905Y-67580227D03*
G04 #@! TO.P,CARD3,29*
G04 #@! TO.N,GND*
X170062905Y-70120227D03*
G04 #@! TO.P,CARD3,31*
G04 #@! TO.N,SPI2_SCK_PI1*
X170062905Y-72660227D03*
G04 #@! TO.P,CARD3,33*
G04 #@! TO.N,SPI2_MOSI_PI3*
X170062905Y-75200227D03*
G04 #@! TO.P,CARD3,35*
G04 #@! TO.N,CARD3_TIM1_CH4*
X170062905Y-77740227D03*
G04 #@! TO.P,CARD3,37*
G04 #@! TO.N,CARD3_TIM3_CH4*
X170062905Y-80280227D03*
G04 #@! TO.P,CARD3,39*
G04 #@! TO.N,CARD3_TIM11_CH1*
X170062905Y-82820227D03*
G04 #@! TO.P,CARD3,41*
G04 #@! TO.N,CARD3_GPIO1*
X170062905Y-85360227D03*
G04 #@! TO.P,CARD3,43*
G04 #@! TO.N,GND*
X170062905Y-87900227D03*
G04 #@! TO.P,CARD3,24*
G04 #@! TO.N,+24V*
X174914305Y-62500227D03*
G04 #@! TO.P,CARD3,26*
G04 #@! TO.N,+5V*
X174914305Y-65040227D03*
G04 #@! TO.P,CARD3,28*
G04 #@! TO.N,+3V3*
X174914305Y-67580227D03*
G04 #@! TO.P,CARD3,30*
G04 #@! TO.N,GND*
X174914305Y-70120227D03*
G04 #@! TO.P,CARD3,32*
G04 #@! TO.N,SPI2_MISO_PI2*
X174914305Y-72660227D03*
G04 #@! TO.P,CARD3,34*
G04 #@! TO.N,CARD3_CS*
X174914305Y-75200227D03*
G04 #@! TO.P,CARD3,36*
G04 #@! TO.N,CARD3_GPIO4*
X174914305Y-77740227D03*
G04 #@! TO.P,CARD3,38*
G04 #@! TO.N,CARD3_TIM2_CH4*
X174914305Y-80280227D03*
G04 #@! TO.P,CARD3,40*
G04 #@! TO.N,CARD3_GPIO0*
X174914305Y-82820227D03*
G04 #@! TO.P,CARD3,42*
G04 #@! TO.N,CARD3_SENSE_NEG*
X174914305Y-85360227D03*
G04 #@! TO.P,CARD3,44*
G04 #@! TO.N,GND*
X174914305Y-87900227D03*
G04 #@! TD*
G04 #@! TO.P,CARD4,44*
G04 #@! TO.N,GND*
X146974305Y-87900227D03*
G04 #@! TO.P,CARD4,42*
G04 #@! TO.N,CARD4_SENSE_NEG*
X146974305Y-85360227D03*
G04 #@! TO.P,CARD4,40*
G04 #@! TO.N,CARD4_GPIO0*
X146974305Y-82820227D03*
G04 #@! TO.P,CARD4,38*
G04 #@! TO.N,CARD4_TIM4_CH1*
X146974305Y-80280227D03*
G04 #@! TO.P,CARD4,36*
G04 #@! TO.N,CARD4_TIM8_CH1N*
X146974305Y-77740227D03*
G04 #@! TO.P,CARD4,34*
G04 #@! TO.N,CARD4_CS*
X146974305Y-75200227D03*
G04 #@! TO.P,CARD4,32*
G04 #@! TO.N,SPI2_MISO_PI2*
X146974305Y-72660227D03*
G04 #@! TO.P,CARD4,30*
G04 #@! TO.N,GND*
X146974305Y-70120227D03*
G04 #@! TO.P,CARD4,28*
G04 #@! TO.N,+3V3*
X146974305Y-67580227D03*
G04 #@! TO.P,CARD4,26*
G04 #@! TO.N,+5V*
X146974305Y-65040227D03*
G04 #@! TO.P,CARD4,24*
G04 #@! TO.N,+24V*
X146974305Y-62500227D03*
G04 #@! TO.P,CARD4,43*
G04 #@! TO.N,GND*
X142122905Y-87900227D03*
G04 #@! TO.P,CARD4,41*
G04 #@! TO.N,CARD4_GPIO1*
X142122905Y-85360227D03*
G04 #@! TO.P,CARD4,39*
G04 #@! TO.N,CARD4_TIM12_CH1*
X142122905Y-82820227D03*
G04 #@! TO.P,CARD4,37*
G04 #@! TO.N,CARD4_TIM5_CH1*
X142122905Y-80280227D03*
G04 #@! TO.P,CARD4,35*
G04 #@! TO.N,CARD4_TIM8_CH1*
X142122905Y-77740227D03*
G04 #@! TO.P,CARD4,33*
G04 #@! TO.N,SPI2_MOSI_PI3*
X142122905Y-75200227D03*
G04 #@! TO.P,CARD4,31*
G04 #@! TO.N,SPI2_SCK_PI1*
X142122905Y-72660227D03*
G04 #@! TO.P,CARD4,29*
G04 #@! TO.N,GND*
X142122905Y-70120227D03*
G04 #@! TO.P,CARD4,27*
G04 #@! TO.N,+3V3*
X142122905Y-67580227D03*
G04 #@! TO.P,CARD4,25*
G04 #@! TO.N,+5V*
X142122905Y-65040227D03*
G04 #@! TO.P,CARD4,23*
G04 #@! TO.N,+24V*
X142122905Y-62500227D03*
G04 #@! TO.P,CARD4,1*
X142122905Y-34560227D03*
G04 #@! TO.P,CARD4,3*
G04 #@! TO.N,+5V*
X142122905Y-37100227D03*
G04 #@! TO.P,CARD4,5*
G04 #@! TO.N,+3V3*
X142122905Y-39640227D03*
G04 #@! TO.P,CARD4,7*
G04 #@! TO.N,GND*
X142122905Y-42180227D03*
G04 #@! TO.P,CARD4,9*
G04 #@! TO.N,IC1_SCL*
X142122905Y-44720227D03*
G04 #@! TO.P,CARD4,11*
G04 #@! TO.N,/CARD4_ADD0*
X142122905Y-47260227D03*
G04 #@! TO.P,CARD4,13*
G04 #@! TO.N,/CARD4_ADD2*
X142122905Y-49800227D03*
G04 #@! TO.P,CARD4,15*
G04 #@! TO.N,CARD4_STATUS*
X142122905Y-52340227D03*
G04 #@! TO.P,CARD4,17*
G04 #@! TO.N,CARD4_GPIO4*
X142122905Y-54880227D03*
G04 #@! TO.P,CARD4,19*
G04 #@! TO.N,CARD4_GPIO2*
X142122905Y-57420227D03*
G04 #@! TO.P,CARD4,2*
G04 #@! TO.N,+24V*
X146974305Y-34560227D03*
G04 #@! TO.P,CARD4,4*
G04 #@! TO.N,+5V*
X146974305Y-37100227D03*
G04 #@! TO.P,CARD4,6*
G04 #@! TO.N,+3V3*
X146974305Y-39640227D03*
G04 #@! TO.P,CARD4,8*
G04 #@! TO.N,GND*
X146974305Y-42180227D03*
G04 #@! TO.P,CARD4,10*
G04 #@! TO.N,IC1_SDA*
X146974305Y-44720227D03*
G04 #@! TO.P,CARD4,12*
G04 #@! TO.N,/CARD4_ADD1*
X146974305Y-47260227D03*
G04 #@! TO.P,CARD4,14*
G04 #@! TO.N,CARD4_ENABLE*
X146974305Y-49800227D03*
G04 #@! TO.P,CARD4,16*
G04 #@! TO.N,CARD4_GPIO5*
X146974305Y-52340227D03*
G04 #@! TO.P,CARD4,18*
G04 #@! TO.N,CARD4_GPIO3*
X146974305Y-54880227D03*
G04 #@! TO.P,CARD4,20*
G04 #@! TO.N,/CARD4_SENSE_POS*
X146974305Y-57420227D03*
G04 #@! TO.P,CARD4,21*
G04 #@! TO.N,GND*
X142122905Y-59960227D03*
G04 #@! TO.P,CARD4,22*
X146974305Y-59960227D03*
G04 #@! TD*
G04 #@! TO.P,CARD5,22*
G04 #@! TO.N,GND*
X119034305Y-59960227D03*
G04 #@! TO.P,CARD5,21*
X114182905Y-59960227D03*
G04 #@! TO.P,CARD5,20*
G04 #@! TO.N,/CARD5_SENSE_POS*
X119034305Y-57420227D03*
G04 #@! TO.P,CARD5,18*
G04 #@! TO.N,CARD5_GPIO3*
X119034305Y-54880227D03*
G04 #@! TO.P,CARD5,16*
G04 #@! TO.N,CARD5_GPIO5*
X119034305Y-52340227D03*
G04 #@! TO.P,CARD5,14*
G04 #@! TO.N,CARD5_ENABLE*
X119034305Y-49800227D03*
G04 #@! TO.P,CARD5,12*
G04 #@! TO.N,/CARD5_ADD1*
X119034305Y-47260227D03*
G04 #@! TO.P,CARD5,10*
G04 #@! TO.N,IC1_SDA*
X119034305Y-44720227D03*
G04 #@! TO.P,CARD5,8*
G04 #@! TO.N,GND*
X119034305Y-42180227D03*
G04 #@! TO.P,CARD5,6*
G04 #@! TO.N,+3V3*
X119034305Y-39640227D03*
G04 #@! TO.P,CARD5,4*
G04 #@! TO.N,+5V*
X119034305Y-37100227D03*
G04 #@! TO.P,CARD5,2*
G04 #@! TO.N,+24V*
X119034305Y-34560227D03*
G04 #@! TO.P,CARD5,19*
G04 #@! TO.N,CARD5_GPIO2*
X114182905Y-57420227D03*
G04 #@! TO.P,CARD5,17*
G04 #@! TO.N,CARD5_GPIO4*
X114182905Y-54880227D03*
G04 #@! TO.P,CARD5,15*
G04 #@! TO.N,CARD5_STATUS*
X114182905Y-52340227D03*
G04 #@! TO.P,CARD5,13*
G04 #@! TO.N,/CARD5_ADD2*
X114182905Y-49800227D03*
G04 #@! TO.P,CARD5,11*
G04 #@! TO.N,/CARD5_ADD0*
X114182905Y-47260227D03*
G04 #@! TO.P,CARD5,9*
G04 #@! TO.N,IC1_SCL*
X114182905Y-44720227D03*
G04 #@! TO.P,CARD5,7*
G04 #@! TO.N,GND*
X114182905Y-42180227D03*
G04 #@! TO.P,CARD5,5*
G04 #@! TO.N,+3V3*
X114182905Y-39640227D03*
G04 #@! TO.P,CARD5,3*
G04 #@! TO.N,+5V*
X114182905Y-37100227D03*
G04 #@! TO.P,CARD5,1*
G04 #@! TO.N,+24V*
X114182905Y-34560227D03*
G04 #@! TO.P,CARD5,23*
X114182905Y-62500227D03*
G04 #@! TO.P,CARD5,25*
G04 #@! TO.N,+5V*
X114182905Y-65040227D03*
G04 #@! TO.P,CARD5,27*
G04 #@! TO.N,+3V3*
X114182905Y-67580227D03*
G04 #@! TO.P,CARD5,29*
G04 #@! TO.N,GND*
X114182905Y-70120227D03*
G04 #@! TO.P,CARD5,31*
G04 #@! TO.N,SPI2_SCK_PI1*
X114182905Y-72660227D03*
G04 #@! TO.P,CARD5,33*
G04 #@! TO.N,SPI2_MOSI_PI3*
X114182905Y-75200227D03*
G04 #@! TO.P,CARD5,35*
G04 #@! TO.N,CARD5_TIM8_CH2*
X114182905Y-77740227D03*
G04 #@! TO.P,CARD5,37*
G04 #@! TO.N,CARD5_TIM5_CH2*
X114182905Y-80280227D03*
G04 #@! TO.P,CARD5,39*
G04 #@! TO.N,CARD5_TIM12_CH2*
X114182905Y-82820227D03*
G04 #@! TO.P,CARD5,41*
G04 #@! TO.N,CARD5_GPIO1*
X114182905Y-85360227D03*
G04 #@! TO.P,CARD5,43*
G04 #@! TO.N,GND*
X114182905Y-87900227D03*
G04 #@! TO.P,CARD5,24*
G04 #@! TO.N,+24V*
X119034305Y-62500227D03*
G04 #@! TO.P,CARD5,26*
G04 #@! TO.N,+5V*
X119034305Y-65040227D03*
G04 #@! TO.P,CARD5,28*
G04 #@! TO.N,+3V3*
X119034305Y-67580227D03*
G04 #@! TO.P,CARD5,30*
G04 #@! TO.N,GND*
X119034305Y-70120227D03*
G04 #@! TO.P,CARD5,32*
G04 #@! TO.N,SPI2_MISO_PI2*
X119034305Y-72660227D03*
G04 #@! TO.P,CARD5,34*
G04 #@! TO.N,CARD5_CS*
X119034305Y-75200227D03*
G04 #@! TO.P,CARD5,36*
G04 #@! TO.N,CARD5_TIM8_CH2N*
X119034305Y-77740227D03*
G04 #@! TO.P,CARD5,38*
G04 #@! TO.N,CARD5_TIM4_CH2*
X119034305Y-80280227D03*
G04 #@! TO.P,CARD5,40*
G04 #@! TO.N,CARD5_GPIO0*
X119034305Y-82820227D03*
G04 #@! TO.P,CARD5,42*
G04 #@! TO.N,CARD5_SENSE_NEG*
X119034305Y-85360227D03*
G04 #@! TO.P,CARD5,44*
G04 #@! TO.N,GND*
X119034305Y-87900227D03*
G04 #@! TD*
G04 #@! TO.P,CARD6,44*
G04 #@! TO.N,GND*
X91094305Y-87900227D03*
G04 #@! TO.P,CARD6,42*
G04 #@! TO.N,CARD6_SENSE_NEG*
X91094305Y-85360227D03*
G04 #@! TO.P,CARD6,40*
G04 #@! TO.N,CARD6_GPIO0*
X91094305Y-82820227D03*
G04 #@! TO.P,CARD6,38*
G04 #@! TO.N,CARD6_TIM4_CH3*
X91094305Y-80280227D03*
G04 #@! TO.P,CARD6,36*
G04 #@! TO.N,CARD6_TIM8_CH3N*
X91094305Y-77740227D03*
G04 #@! TO.P,CARD6,34*
G04 #@! TO.N,CARD6_CS*
X91094305Y-75200227D03*
G04 #@! TO.P,CARD6,32*
G04 #@! TO.N,SPI2_MISO_PI2*
X91094305Y-72660227D03*
G04 #@! TO.P,CARD6,30*
G04 #@! TO.N,GND*
X91094305Y-70120227D03*
G04 #@! TO.P,CARD6,28*
G04 #@! TO.N,+3V3*
X91094305Y-67580227D03*
G04 #@! TO.P,CARD6,26*
G04 #@! TO.N,+5V*
X91094305Y-65040227D03*
G04 #@! TO.P,CARD6,24*
G04 #@! TO.N,+24V*
X91094305Y-62500227D03*
G04 #@! TO.P,CARD6,43*
G04 #@! TO.N,GND*
X86242905Y-87900227D03*
G04 #@! TO.P,CARD6,41*
G04 #@! TO.N,CARD6_GPIO1*
X86242905Y-85360227D03*
G04 #@! TO.P,CARD6,39*
G04 #@! TO.N,CARD6_TIM13_CH1*
X86242905Y-82820227D03*
G04 #@! TO.P,CARD6,37*
G04 #@! TO.N,CARD6_TIM5_CH3*
X86242905Y-80280227D03*
G04 #@! TO.P,CARD6,35*
G04 #@! TO.N,CARD6_TIM8_CH3*
X86242905Y-77740227D03*
G04 #@! TO.P,CARD6,33*
G04 #@! TO.N,SPI2_MOSI_PI3*
X86242905Y-75200227D03*
G04 #@! TO.P,CARD6,31*
G04 #@! TO.N,SPI2_SCK_PI1*
X86242905Y-72660227D03*
G04 #@! TO.P,CARD6,29*
G04 #@! TO.N,GND*
X86242905Y-70120227D03*
G04 #@! TO.P,CARD6,27*
G04 #@! TO.N,+3V3*
X86242905Y-67580227D03*
G04 #@! TO.P,CARD6,25*
G04 #@! TO.N,+5V*
X86242905Y-65040227D03*
G04 #@! TO.P,CARD6,23*
G04 #@! TO.N,+24V*
X86242905Y-62500227D03*
G04 #@! TO.P,CARD6,1*
X86242905Y-34560227D03*
G04 #@! TO.P,CARD6,3*
G04 #@! TO.N,+5V*
X86242905Y-37100227D03*
G04 #@! TO.P,CARD6,5*
G04 #@! TO.N,+3V3*
X86242905Y-39640227D03*
G04 #@! TO.P,CARD6,7*
G04 #@! TO.N,GND*
X86242905Y-42180227D03*
G04 #@! TO.P,CARD6,9*
G04 #@! TO.N,IC1_SCL*
X86242905Y-44720227D03*
G04 #@! TO.P,CARD6,11*
G04 #@! TO.N,/CARD6_ADD0*
X86242905Y-47260227D03*
G04 #@! TO.P,CARD6,13*
G04 #@! TO.N,/CARD6_ADD2*
X86242905Y-49800227D03*
G04 #@! TO.P,CARD6,15*
G04 #@! TO.N,CARD6_STATUS*
X86242905Y-52340227D03*
G04 #@! TO.P,CARD6,17*
G04 #@! TO.N,CARD6_GPIO4*
X86242905Y-54880227D03*
G04 #@! TO.P,CARD6,19*
G04 #@! TO.N,CARD6_GPIO2*
X86242905Y-57420227D03*
G04 #@! TO.P,CARD6,2*
G04 #@! TO.N,+24V*
X91094305Y-34560227D03*
G04 #@! TO.P,CARD6,4*
G04 #@! TO.N,+5V*
X91094305Y-37100227D03*
G04 #@! TO.P,CARD6,6*
G04 #@! TO.N,+3V3*
X91094305Y-39640227D03*
G04 #@! TO.P,CARD6,8*
G04 #@! TO.N,GND*
X91094305Y-42180227D03*
G04 #@! TO.P,CARD6,10*
G04 #@! TO.N,IC1_SDA*
X91094305Y-44720227D03*
G04 #@! TO.P,CARD6,12*
G04 #@! TO.N,/CARD6_ADD1*
X91094305Y-47260227D03*
G04 #@! TO.P,CARD6,14*
G04 #@! TO.N,CARD6_ENABLE*
X91094305Y-49800227D03*
G04 #@! TO.P,CARD6,16*
G04 #@! TO.N,CARD6_GPIO5*
X91094305Y-52340227D03*
G04 #@! TO.P,CARD6,18*
G04 #@! TO.N,CARD6_GPIO3*
X91094305Y-54880227D03*
G04 #@! TO.P,CARD6,20*
G04 #@! TO.N,/CARD6_SENSE_POS*
X91094305Y-57420227D03*
G04 #@! TO.P,CARD6,21*
G04 #@! TO.N,GND*
X86242905Y-59960227D03*
G04 #@! TO.P,CARD6,22*
X91094305Y-59960227D03*
G04 #@! TD*
G04 #@! TO.P,CARD7,22*
G04 #@! TO.N,GND*
X63154305Y-59960227D03*
G04 #@! TO.P,CARD7,21*
X58302905Y-59960227D03*
G04 #@! TO.P,CARD7,20*
G04 #@! TO.N,/CARD7_SENSE_POS*
X63154305Y-57420227D03*
G04 #@! TO.P,CARD7,18*
G04 #@! TO.N,CARD7_GPIO3*
X63154305Y-54880227D03*
G04 #@! TO.P,CARD7,16*
G04 #@! TO.N,CARD7_GPIO5*
X63154305Y-52340227D03*
G04 #@! TO.P,CARD7,14*
G04 #@! TO.N,CARD7_ENABLE*
X63154305Y-49800227D03*
G04 #@! TO.P,CARD7,12*
G04 #@! TO.N,/CARD7_ADD1*
X63154305Y-47260227D03*
G04 #@! TO.P,CARD7,10*
G04 #@! TO.N,IC1_SDA*
X63154305Y-44720227D03*
G04 #@! TO.P,CARD7,8*
G04 #@! TO.N,GND*
X63154305Y-42180227D03*
G04 #@! TO.P,CARD7,6*
G04 #@! TO.N,+3V3*
X63154305Y-39640227D03*
G04 #@! TO.P,CARD7,4*
G04 #@! TO.N,+5V*
X63154305Y-37100227D03*
G04 #@! TO.P,CARD7,2*
G04 #@! TO.N,+24V*
X63154305Y-34560227D03*
G04 #@! TO.P,CARD7,19*
G04 #@! TO.N,CARD7_GPIO2*
X58302905Y-57420227D03*
G04 #@! TO.P,CARD7,17*
G04 #@! TO.N,CARD7_GPIO4*
X58302905Y-54880227D03*
G04 #@! TO.P,CARD7,15*
G04 #@! TO.N,CARD7_STATUS*
X58302905Y-52340227D03*
G04 #@! TO.P,CARD7,13*
G04 #@! TO.N,/CARD7_ADD2*
X58302905Y-49800227D03*
G04 #@! TO.P,CARD7,11*
G04 #@! TO.N,/CARD7_ADD0*
X58302905Y-47260227D03*
G04 #@! TO.P,CARD7,9*
G04 #@! TO.N,IC1_SCL*
X58302905Y-44720227D03*
G04 #@! TO.P,CARD7,7*
G04 #@! TO.N,GND*
X58302905Y-42180227D03*
G04 #@! TO.P,CARD7,5*
G04 #@! TO.N,+3V3*
X58302905Y-39640227D03*
G04 #@! TO.P,CARD7,3*
G04 #@! TO.N,+5V*
X58302905Y-37100227D03*
G04 #@! TO.P,CARD7,1*
G04 #@! TO.N,+24V*
X58302905Y-34560227D03*
G04 #@! TO.P,CARD7,23*
X58302905Y-62500227D03*
G04 #@! TO.P,CARD7,25*
G04 #@! TO.N,+5V*
X58302905Y-65040227D03*
G04 #@! TO.P,CARD7,27*
G04 #@! TO.N,+3V3*
X58302905Y-67580227D03*
G04 #@! TO.P,CARD7,29*
G04 #@! TO.N,GND*
X58302905Y-70120227D03*
G04 #@! TO.P,CARD7,31*
G04 #@! TO.N,SPI2_SCK_PI1*
X58302905Y-72660227D03*
G04 #@! TO.P,CARD7,33*
G04 #@! TO.N,SPI2_MOSI_PI3*
X58302905Y-75200227D03*
G04 #@! TO.P,CARD7,35*
G04 #@! TO.N,CARD7_TIM8_CH4*
X58302905Y-77740227D03*
G04 #@! TO.P,CARD7,37*
G04 #@! TO.N,CARD7_TIM5_CH4*
X58302905Y-80280227D03*
G04 #@! TO.P,CARD7,39*
G04 #@! TO.N,CARD7_TIM14_CH1*
X58302905Y-82820227D03*
G04 #@! TO.P,CARD7,41*
G04 #@! TO.N,CARD7_GPIO1*
X58302905Y-85360227D03*
G04 #@! TO.P,CARD7,43*
G04 #@! TO.N,GND*
X58302905Y-87900227D03*
G04 #@! TO.P,CARD7,24*
G04 #@! TO.N,+24V*
X63154305Y-62500227D03*
G04 #@! TO.P,CARD7,26*
G04 #@! TO.N,+5V*
X63154305Y-65040227D03*
G04 #@! TO.P,CARD7,28*
G04 #@! TO.N,+3V3*
X63154305Y-67580227D03*
G04 #@! TO.P,CARD7,30*
G04 #@! TO.N,GND*
X63154305Y-70120227D03*
G04 #@! TO.P,CARD7,32*
G04 #@! TO.N,SPI2_MISO_PI2*
X63154305Y-72660227D03*
G04 #@! TO.P,CARD7,34*
G04 #@! TO.N,CARD7_CS*
X63154305Y-75200227D03*
G04 #@! TO.P,CARD7,36*
G04 #@! TO.N,CARD7_GPIO6*
X63154305Y-77740227D03*
G04 #@! TO.P,CARD7,38*
G04 #@! TO.N,CARD7_TIM4_CH4*
X63154305Y-80280227D03*
G04 #@! TO.P,CARD7,40*
G04 #@! TO.N,CARD7_GPIO0*
X63154305Y-82820227D03*
G04 #@! TO.P,CARD7,42*
G04 #@! TO.N,CARD7_SENSE_NEG*
X63154305Y-85360227D03*
G04 #@! TO.P,CARD7,44*
G04 #@! TO.N,GND*
X63154305Y-87900227D03*
G04 #@! TD*
D18*
G04 #@! TO.P,J4,4*
G04 #@! TO.N,+5V*
X40640000Y-60960000D03*
D19*
G04 #@! TO.P,J4,1*
G04 #@! TO.N,GND*
X40640000Y-45720000D03*
D18*
G04 #@! TO.P,J4,3*
G04 #@! TO.N,+5V*
X40640000Y-55880000D03*
G04 #@! TO.P,J4,2*
G04 #@! TO.N,GND*
X40640000Y-50800000D03*
G04 #@! TD*
G04 #@! TO.P,J7,2*
G04 #@! TO.N,GND*
X40640000Y-73660000D03*
G04 #@! TO.P,J7,3*
G04 #@! TO.N,+3V3*
X40640000Y-78740000D03*
D19*
G04 #@! TO.P,J7,1*
G04 #@! TO.N,GND*
X40640000Y-68580000D03*
D18*
G04 #@! TO.P,J7,4*
G04 #@! TO.N,+3V3*
X40640000Y-83820000D03*
G04 #@! TD*
G04 #@! TO.P,J1,2*
G04 #@! TO.N,GND*
X40640000Y-27940000D03*
G04 #@! TO.P,J1,3*
G04 #@! TO.N,+24V*
X40640000Y-33020000D03*
D19*
G04 #@! TO.P,J1,1*
G04 #@! TO.N,GND*
X40640000Y-22860000D03*
D18*
G04 #@! TO.P,J1,4*
G04 #@! TO.N,+24V*
X40640000Y-38100000D03*
G04 #@! TD*
M02*
