G04 #@! TF.GenerationSoftware,KiCad,Pcbnew,5.0.2-bee76a0~70~ubuntu18.04.1*
G04 #@! TF.CreationDate,2019-07-24T21:10:09-04:00*
G04 #@! TF.ProjectId,Mother Board,4d6f7468-6572-4204-926f-6172642e6b69,rev?*
G04 #@! TF.SameCoordinates,Original*
G04 #@! TF.FileFunction,Legend,Top*
G04 #@! TF.FilePolarity,Positive*
%FSLAX46Y46*%
G04 Gerber Fmt 4.6, Leading zero omitted, Abs format (unit mm)*
G04 Created by KiCad (PCBNEW 5.0.2-bee76a0~70~ubuntu18.04.1) date Wed 24 Jul 2019 09:10:09 PM EDT*
%MOMM*%
%LPD*%
G01*
G04 APERTURE LIST*
%ADD10C,0.150000*%
%ADD11C,0.120000*%
G04 APERTURE END LIST*
D10*
G04 #@! TO.C,TP1*
X243510001Y-136250001D02*
G75*
G03X243510001Y-136250001I-1750000J0D01*
G01*
G04 #@! TO.C,TP2*
X246030001Y-130260001D02*
G75*
G03X246030001Y-130260001I-1750000J0D01*
G01*
G04 #@! TO.C,TP3*
X246860001Y-120270001D02*
G75*
G03X246860001Y-120270001I-1750000J0D01*
G01*
G04 #@! TO.C,TP4*
X242610001Y-123720001D02*
G75*
G03X242610001Y-123720001I-1750000J0D01*
G01*
G04 #@! TO.C,TP5*
X247560001Y-136850001D02*
G75*
G03X247560001Y-136850001I-1750000J0D01*
G01*
G04 #@! TO.C,TP6*
X246660001Y-124320001D02*
G75*
G03X246660001Y-124320001I-1750000J0D01*
G01*
G04 #@! TO.C,TP7*
X251610001Y-136850001D02*
G75*
G03X251610001Y-136850001I-1750000J0D01*
G01*
G04 #@! TO.C,TP8*
X250910001Y-120270001D02*
G75*
G03X250910001Y-120270001I-1750000J0D01*
G01*
G04 #@! TO.C,TP9*
X250580001Y-130910001D02*
G75*
G03X250580001Y-130910001I-1750000J0D01*
G01*
G04 #@! TO.C,TP10*
X250710001Y-124320001D02*
G75*
G03X250710001Y-124320001I-1750000J0D01*
G01*
D11*
G04 #@! TO.C,Y1*
X124535000Y-126835000D02*
X128535000Y-126835000D01*
X124535000Y-123685000D02*
X124535000Y-126835000D01*
D10*
G04 #@! TO.C,U3*
X61205000Y-136825000D02*
X60630000Y-136825000D01*
X61205000Y-142575000D02*
X60555000Y-142575000D01*
X50555000Y-142575000D02*
X51205000Y-142575000D01*
X50555000Y-136825000D02*
X51205000Y-136825000D01*
X61205000Y-136825000D02*
X61205000Y-142575000D01*
X50555000Y-136825000D02*
X50555000Y-142575000D01*
X60630000Y-136825000D02*
X60630000Y-135225000D01*
G04 #@! TO.C,U5*
X73445000Y-141325000D02*
X73445000Y-141225000D01*
X68795000Y-141325000D02*
X68795000Y-141125000D01*
X68795000Y-138075000D02*
X68795000Y-138275000D01*
X73445000Y-138075000D02*
X73445000Y-138275000D01*
X73445000Y-141325000D02*
X68795000Y-141325000D01*
X73445000Y-138075000D02*
X68795000Y-138075000D01*
X73445000Y-141225000D02*
X74795000Y-141225000D01*
D11*
G04 #@! TO.C,C3*
X45895000Y-109500302D02*
X45095000Y-109500302D01*
X45495000Y-109100302D02*
X45495000Y-109900302D01*
X43713000Y-117591000D02*
X42647000Y-117591000D01*
X43948000Y-117551000D02*
X42412000Y-117551000D01*
X44128000Y-117511000D02*
X42232000Y-117511000D01*
X44278000Y-117471000D02*
X42082000Y-117471000D01*
X44409000Y-117431000D02*
X41951000Y-117431000D01*
X44526000Y-117391000D02*
X41834000Y-117391000D01*
X44633000Y-117351000D02*
X41727000Y-117351000D01*
X44732000Y-117311000D02*
X41628000Y-117311000D01*
X44825000Y-117271000D02*
X41535000Y-117271000D01*
X44911000Y-117231000D02*
X41449000Y-117231000D01*
X44993000Y-117191000D02*
X41367000Y-117191000D01*
X45070000Y-117151000D02*
X41290000Y-117151000D01*
X45144000Y-117111000D02*
X41216000Y-117111000D01*
X45214000Y-117071000D02*
X41146000Y-117071000D01*
X45282000Y-117031000D02*
X41078000Y-117031000D01*
X45346000Y-116991000D02*
X41014000Y-116991000D01*
X45408000Y-116951000D02*
X40952000Y-116951000D01*
X45467000Y-116911000D02*
X40893000Y-116911000D01*
X45525000Y-116871000D02*
X40835000Y-116871000D01*
X45580000Y-116831000D02*
X40780000Y-116831000D01*
X45634000Y-116791000D02*
X40726000Y-116791000D01*
X45685000Y-116751000D02*
X40675000Y-116751000D01*
X45736000Y-116711000D02*
X40624000Y-116711000D01*
X45784000Y-116671000D02*
X40576000Y-116671000D01*
X45831000Y-116631000D02*
X40529000Y-116631000D01*
X45877000Y-116591000D02*
X40483000Y-116591000D01*
X45921000Y-116551000D02*
X40439000Y-116551000D01*
X45964000Y-116511000D02*
X40396000Y-116511000D01*
X46006000Y-116471000D02*
X40354000Y-116471000D01*
X46047000Y-116431000D02*
X40313000Y-116431000D01*
X46087000Y-116391000D02*
X40273000Y-116391000D01*
X46125000Y-116351000D02*
X40235000Y-116351000D01*
X46163000Y-116311000D02*
X40197000Y-116311000D01*
X42140000Y-116271000D02*
X40161000Y-116271000D01*
X46199000Y-116271000D02*
X44220000Y-116271000D01*
X42140000Y-116231000D02*
X40125000Y-116231000D01*
X46235000Y-116231000D02*
X44220000Y-116231000D01*
X42140000Y-116191000D02*
X40090000Y-116191000D01*
X46270000Y-116191000D02*
X44220000Y-116191000D01*
X42140000Y-116151000D02*
X40056000Y-116151000D01*
X46304000Y-116151000D02*
X44220000Y-116151000D01*
X42140000Y-116111000D02*
X40024000Y-116111000D01*
X46336000Y-116111000D02*
X44220000Y-116111000D01*
X42140000Y-116071000D02*
X39991000Y-116071000D01*
X46369000Y-116071000D02*
X44220000Y-116071000D01*
X42140000Y-116031000D02*
X39960000Y-116031000D01*
X46400000Y-116031000D02*
X44220000Y-116031000D01*
X42140000Y-115991000D02*
X39930000Y-115991000D01*
X46430000Y-115991000D02*
X44220000Y-115991000D01*
X42140000Y-115951000D02*
X39900000Y-115951000D01*
X46460000Y-115951000D02*
X44220000Y-115951000D01*
X42140000Y-115911000D02*
X39871000Y-115911000D01*
X46489000Y-115911000D02*
X44220000Y-115911000D01*
X42140000Y-115871000D02*
X39842000Y-115871000D01*
X46518000Y-115871000D02*
X44220000Y-115871000D01*
X42140000Y-115831000D02*
X39815000Y-115831000D01*
X46545000Y-115831000D02*
X44220000Y-115831000D01*
X42140000Y-115791000D02*
X39788000Y-115791000D01*
X46572000Y-115791000D02*
X44220000Y-115791000D01*
X42140000Y-115751000D02*
X39762000Y-115751000D01*
X46598000Y-115751000D02*
X44220000Y-115751000D01*
X42140000Y-115711000D02*
X39736000Y-115711000D01*
X46624000Y-115711000D02*
X44220000Y-115711000D01*
X42140000Y-115671000D02*
X39711000Y-115671000D01*
X46649000Y-115671000D02*
X44220000Y-115671000D01*
X42140000Y-115631000D02*
X39687000Y-115631000D01*
X46673000Y-115631000D02*
X44220000Y-115631000D01*
X42140000Y-115591000D02*
X39663000Y-115591000D01*
X46697000Y-115591000D02*
X44220000Y-115591000D01*
X42140000Y-115551000D02*
X39640000Y-115551000D01*
X46720000Y-115551000D02*
X44220000Y-115551000D01*
X42140000Y-115511000D02*
X39618000Y-115511000D01*
X46742000Y-115511000D02*
X44220000Y-115511000D01*
X42140000Y-115471000D02*
X39596000Y-115471000D01*
X46764000Y-115471000D02*
X44220000Y-115471000D01*
X42140000Y-115431000D02*
X39574000Y-115431000D01*
X46786000Y-115431000D02*
X44220000Y-115431000D01*
X42140000Y-115391000D02*
X39553000Y-115391000D01*
X46807000Y-115391000D02*
X44220000Y-115391000D01*
X42140000Y-115351000D02*
X39533000Y-115351000D01*
X46827000Y-115351000D02*
X44220000Y-115351000D01*
X42140000Y-115311000D02*
X39514000Y-115311000D01*
X46846000Y-115311000D02*
X44220000Y-115311000D01*
X42140000Y-115271000D02*
X39494000Y-115271000D01*
X46866000Y-115271000D02*
X44220000Y-115271000D01*
X42140000Y-115231000D02*
X39476000Y-115231000D01*
X46884000Y-115231000D02*
X44220000Y-115231000D01*
X42140000Y-115191000D02*
X39458000Y-115191000D01*
X46902000Y-115191000D02*
X44220000Y-115191000D01*
X42140000Y-115151000D02*
X39440000Y-115151000D01*
X46920000Y-115151000D02*
X44220000Y-115151000D01*
X42140000Y-115111000D02*
X39423000Y-115111000D01*
X46937000Y-115111000D02*
X44220000Y-115111000D01*
X42140000Y-115071000D02*
X39406000Y-115071000D01*
X46954000Y-115071000D02*
X44220000Y-115071000D01*
X42140000Y-115031000D02*
X39390000Y-115031000D01*
X46970000Y-115031000D02*
X44220000Y-115031000D01*
X42140000Y-114991000D02*
X39375000Y-114991000D01*
X46985000Y-114991000D02*
X44220000Y-114991000D01*
X42140000Y-114951000D02*
X39359000Y-114951000D01*
X47001000Y-114951000D02*
X44220000Y-114951000D01*
X42140000Y-114911000D02*
X39345000Y-114911000D01*
X47015000Y-114911000D02*
X44220000Y-114911000D01*
X42140000Y-114871000D02*
X39330000Y-114871000D01*
X47030000Y-114871000D02*
X44220000Y-114871000D01*
X42140000Y-114831000D02*
X39317000Y-114831000D01*
X47043000Y-114831000D02*
X44220000Y-114831000D01*
X42140000Y-114791000D02*
X39303000Y-114791000D01*
X47057000Y-114791000D02*
X44220000Y-114791000D01*
X42140000Y-114751000D02*
X39291000Y-114751000D01*
X47069000Y-114751000D02*
X44220000Y-114751000D01*
X42140000Y-114711000D02*
X39278000Y-114711000D01*
X47082000Y-114711000D02*
X44220000Y-114711000D01*
X42140000Y-114671000D02*
X39266000Y-114671000D01*
X47094000Y-114671000D02*
X44220000Y-114671000D01*
X42140000Y-114631000D02*
X39255000Y-114631000D01*
X47105000Y-114631000D02*
X44220000Y-114631000D01*
X42140000Y-114591000D02*
X39244000Y-114591000D01*
X47116000Y-114591000D02*
X44220000Y-114591000D01*
X42140000Y-114551000D02*
X39233000Y-114551000D01*
X47127000Y-114551000D02*
X44220000Y-114551000D01*
X42140000Y-114511000D02*
X39223000Y-114511000D01*
X47137000Y-114511000D02*
X44220000Y-114511000D01*
X42140000Y-114471000D02*
X39213000Y-114471000D01*
X47147000Y-114471000D02*
X44220000Y-114471000D01*
X42140000Y-114431000D02*
X39204000Y-114431000D01*
X47156000Y-114431000D02*
X44220000Y-114431000D01*
X42140000Y-114391000D02*
X39195000Y-114391000D01*
X47165000Y-114391000D02*
X44220000Y-114391000D01*
X42140000Y-114351000D02*
X39186000Y-114351000D01*
X47174000Y-114351000D02*
X44220000Y-114351000D01*
X42140000Y-114311000D02*
X39178000Y-114311000D01*
X47182000Y-114311000D02*
X44220000Y-114311000D01*
X42140000Y-114271000D02*
X39170000Y-114271000D01*
X47190000Y-114271000D02*
X44220000Y-114271000D01*
X42140000Y-114231000D02*
X39163000Y-114231000D01*
X47197000Y-114231000D02*
X44220000Y-114231000D01*
X47204000Y-114190000D02*
X39156000Y-114190000D01*
X47210000Y-114150000D02*
X39150000Y-114150000D01*
X47217000Y-114110000D02*
X39143000Y-114110000D01*
X47222000Y-114070000D02*
X39138000Y-114070000D01*
X47228000Y-114030000D02*
X39132000Y-114030000D01*
X47232000Y-113990000D02*
X39128000Y-113990000D01*
X47237000Y-113950000D02*
X39123000Y-113950000D01*
X47241000Y-113910000D02*
X39119000Y-113910000D01*
X47245000Y-113870000D02*
X39115000Y-113870000D01*
X47248000Y-113830000D02*
X39112000Y-113830000D01*
X47251000Y-113790000D02*
X39109000Y-113790000D01*
X47254000Y-113750000D02*
X39106000Y-113750000D01*
X47256000Y-113710000D02*
X39104000Y-113710000D01*
X47257000Y-113670000D02*
X39103000Y-113670000D01*
X47259000Y-113630000D02*
X39101000Y-113630000D01*
X47260000Y-113590000D02*
X39100000Y-113590000D01*
X47260000Y-113550000D02*
X39100000Y-113550000D01*
X47260000Y-113510000D02*
X39100000Y-113510000D01*
X47300000Y-113510000D02*
G75*
G03X47300000Y-113510000I-4120000J0D01*
G01*
G04 #@! TO.C,C4*
X47300000Y-93190000D02*
G75*
G03X47300000Y-93190000I-4120000J0D01*
G01*
X47260000Y-93190000D02*
X39100000Y-93190000D01*
X47260000Y-93230000D02*
X39100000Y-93230000D01*
X47260000Y-93270000D02*
X39100000Y-93270000D01*
X47259000Y-93310000D02*
X39101000Y-93310000D01*
X47257000Y-93350000D02*
X39103000Y-93350000D01*
X47256000Y-93390000D02*
X39104000Y-93390000D01*
X47254000Y-93430000D02*
X39106000Y-93430000D01*
X47251000Y-93470000D02*
X39109000Y-93470000D01*
X47248000Y-93510000D02*
X39112000Y-93510000D01*
X47245000Y-93550000D02*
X39115000Y-93550000D01*
X47241000Y-93590000D02*
X39119000Y-93590000D01*
X47237000Y-93630000D02*
X39123000Y-93630000D01*
X47232000Y-93670000D02*
X39128000Y-93670000D01*
X47228000Y-93710000D02*
X39132000Y-93710000D01*
X47222000Y-93750000D02*
X39138000Y-93750000D01*
X47217000Y-93790000D02*
X39143000Y-93790000D01*
X47210000Y-93830000D02*
X39150000Y-93830000D01*
X47204000Y-93870000D02*
X39156000Y-93870000D01*
X47197000Y-93911000D02*
X44220000Y-93911000D01*
X42140000Y-93911000D02*
X39163000Y-93911000D01*
X47190000Y-93951000D02*
X44220000Y-93951000D01*
X42140000Y-93951000D02*
X39170000Y-93951000D01*
X47182000Y-93991000D02*
X44220000Y-93991000D01*
X42140000Y-93991000D02*
X39178000Y-93991000D01*
X47174000Y-94031000D02*
X44220000Y-94031000D01*
X42140000Y-94031000D02*
X39186000Y-94031000D01*
X47165000Y-94071000D02*
X44220000Y-94071000D01*
X42140000Y-94071000D02*
X39195000Y-94071000D01*
X47156000Y-94111000D02*
X44220000Y-94111000D01*
X42140000Y-94111000D02*
X39204000Y-94111000D01*
X47147000Y-94151000D02*
X44220000Y-94151000D01*
X42140000Y-94151000D02*
X39213000Y-94151000D01*
X47137000Y-94191000D02*
X44220000Y-94191000D01*
X42140000Y-94191000D02*
X39223000Y-94191000D01*
X47127000Y-94231000D02*
X44220000Y-94231000D01*
X42140000Y-94231000D02*
X39233000Y-94231000D01*
X47116000Y-94271000D02*
X44220000Y-94271000D01*
X42140000Y-94271000D02*
X39244000Y-94271000D01*
X47105000Y-94311000D02*
X44220000Y-94311000D01*
X42140000Y-94311000D02*
X39255000Y-94311000D01*
X47094000Y-94351000D02*
X44220000Y-94351000D01*
X42140000Y-94351000D02*
X39266000Y-94351000D01*
X47082000Y-94391000D02*
X44220000Y-94391000D01*
X42140000Y-94391000D02*
X39278000Y-94391000D01*
X47069000Y-94431000D02*
X44220000Y-94431000D01*
X42140000Y-94431000D02*
X39291000Y-94431000D01*
X47057000Y-94471000D02*
X44220000Y-94471000D01*
X42140000Y-94471000D02*
X39303000Y-94471000D01*
X47043000Y-94511000D02*
X44220000Y-94511000D01*
X42140000Y-94511000D02*
X39317000Y-94511000D01*
X47030000Y-94551000D02*
X44220000Y-94551000D01*
X42140000Y-94551000D02*
X39330000Y-94551000D01*
X47015000Y-94591000D02*
X44220000Y-94591000D01*
X42140000Y-94591000D02*
X39345000Y-94591000D01*
X47001000Y-94631000D02*
X44220000Y-94631000D01*
X42140000Y-94631000D02*
X39359000Y-94631000D01*
X46985000Y-94671000D02*
X44220000Y-94671000D01*
X42140000Y-94671000D02*
X39375000Y-94671000D01*
X46970000Y-94711000D02*
X44220000Y-94711000D01*
X42140000Y-94711000D02*
X39390000Y-94711000D01*
X46954000Y-94751000D02*
X44220000Y-94751000D01*
X42140000Y-94751000D02*
X39406000Y-94751000D01*
X46937000Y-94791000D02*
X44220000Y-94791000D01*
X42140000Y-94791000D02*
X39423000Y-94791000D01*
X46920000Y-94831000D02*
X44220000Y-94831000D01*
X42140000Y-94831000D02*
X39440000Y-94831000D01*
X46902000Y-94871000D02*
X44220000Y-94871000D01*
X42140000Y-94871000D02*
X39458000Y-94871000D01*
X46884000Y-94911000D02*
X44220000Y-94911000D01*
X42140000Y-94911000D02*
X39476000Y-94911000D01*
X46866000Y-94951000D02*
X44220000Y-94951000D01*
X42140000Y-94951000D02*
X39494000Y-94951000D01*
X46846000Y-94991000D02*
X44220000Y-94991000D01*
X42140000Y-94991000D02*
X39514000Y-94991000D01*
X46827000Y-95031000D02*
X44220000Y-95031000D01*
X42140000Y-95031000D02*
X39533000Y-95031000D01*
X46807000Y-95071000D02*
X44220000Y-95071000D01*
X42140000Y-95071000D02*
X39553000Y-95071000D01*
X46786000Y-95111000D02*
X44220000Y-95111000D01*
X42140000Y-95111000D02*
X39574000Y-95111000D01*
X46764000Y-95151000D02*
X44220000Y-95151000D01*
X42140000Y-95151000D02*
X39596000Y-95151000D01*
X46742000Y-95191000D02*
X44220000Y-95191000D01*
X42140000Y-95191000D02*
X39618000Y-95191000D01*
X46720000Y-95231000D02*
X44220000Y-95231000D01*
X42140000Y-95231000D02*
X39640000Y-95231000D01*
X46697000Y-95271000D02*
X44220000Y-95271000D01*
X42140000Y-95271000D02*
X39663000Y-95271000D01*
X46673000Y-95311000D02*
X44220000Y-95311000D01*
X42140000Y-95311000D02*
X39687000Y-95311000D01*
X46649000Y-95351000D02*
X44220000Y-95351000D01*
X42140000Y-95351000D02*
X39711000Y-95351000D01*
X46624000Y-95391000D02*
X44220000Y-95391000D01*
X42140000Y-95391000D02*
X39736000Y-95391000D01*
X46598000Y-95431000D02*
X44220000Y-95431000D01*
X42140000Y-95431000D02*
X39762000Y-95431000D01*
X46572000Y-95471000D02*
X44220000Y-95471000D01*
X42140000Y-95471000D02*
X39788000Y-95471000D01*
X46545000Y-95511000D02*
X44220000Y-95511000D01*
X42140000Y-95511000D02*
X39815000Y-95511000D01*
X46518000Y-95551000D02*
X44220000Y-95551000D01*
X42140000Y-95551000D02*
X39842000Y-95551000D01*
X46489000Y-95591000D02*
X44220000Y-95591000D01*
X42140000Y-95591000D02*
X39871000Y-95591000D01*
X46460000Y-95631000D02*
X44220000Y-95631000D01*
X42140000Y-95631000D02*
X39900000Y-95631000D01*
X46430000Y-95671000D02*
X44220000Y-95671000D01*
X42140000Y-95671000D02*
X39930000Y-95671000D01*
X46400000Y-95711000D02*
X44220000Y-95711000D01*
X42140000Y-95711000D02*
X39960000Y-95711000D01*
X46369000Y-95751000D02*
X44220000Y-95751000D01*
X42140000Y-95751000D02*
X39991000Y-95751000D01*
X46336000Y-95791000D02*
X44220000Y-95791000D01*
X42140000Y-95791000D02*
X40024000Y-95791000D01*
X46304000Y-95831000D02*
X44220000Y-95831000D01*
X42140000Y-95831000D02*
X40056000Y-95831000D01*
X46270000Y-95871000D02*
X44220000Y-95871000D01*
X42140000Y-95871000D02*
X40090000Y-95871000D01*
X46235000Y-95911000D02*
X44220000Y-95911000D01*
X42140000Y-95911000D02*
X40125000Y-95911000D01*
X46199000Y-95951000D02*
X44220000Y-95951000D01*
X42140000Y-95951000D02*
X40161000Y-95951000D01*
X46163000Y-95991000D02*
X40197000Y-95991000D01*
X46125000Y-96031000D02*
X40235000Y-96031000D01*
X46087000Y-96071000D02*
X40273000Y-96071000D01*
X46047000Y-96111000D02*
X40313000Y-96111000D01*
X46006000Y-96151000D02*
X40354000Y-96151000D01*
X45964000Y-96191000D02*
X40396000Y-96191000D01*
X45921000Y-96231000D02*
X40439000Y-96231000D01*
X45877000Y-96271000D02*
X40483000Y-96271000D01*
X45831000Y-96311000D02*
X40529000Y-96311000D01*
X45784000Y-96351000D02*
X40576000Y-96351000D01*
X45736000Y-96391000D02*
X40624000Y-96391000D01*
X45685000Y-96431000D02*
X40675000Y-96431000D01*
X45634000Y-96471000D02*
X40726000Y-96471000D01*
X45580000Y-96511000D02*
X40780000Y-96511000D01*
X45525000Y-96551000D02*
X40835000Y-96551000D01*
X45467000Y-96591000D02*
X40893000Y-96591000D01*
X45408000Y-96631000D02*
X40952000Y-96631000D01*
X45346000Y-96671000D02*
X41014000Y-96671000D01*
X45282000Y-96711000D02*
X41078000Y-96711000D01*
X45214000Y-96751000D02*
X41146000Y-96751000D01*
X45144000Y-96791000D02*
X41216000Y-96791000D01*
X45070000Y-96831000D02*
X41290000Y-96831000D01*
X44993000Y-96871000D02*
X41367000Y-96871000D01*
X44911000Y-96911000D02*
X41449000Y-96911000D01*
X44825000Y-96951000D02*
X41535000Y-96951000D01*
X44732000Y-96991000D02*
X41628000Y-96991000D01*
X44633000Y-97031000D02*
X41727000Y-97031000D01*
X44526000Y-97071000D02*
X41834000Y-97071000D01*
X44409000Y-97111000D02*
X41951000Y-97111000D01*
X44278000Y-97151000D02*
X42082000Y-97151000D01*
X44128000Y-97191000D02*
X42232000Y-97191000D01*
X43948000Y-97231000D02*
X42412000Y-97231000D01*
X43713000Y-97271000D02*
X42647000Y-97271000D01*
X45495000Y-88780302D02*
X45495000Y-89580302D01*
X45895000Y-89180302D02*
X45095000Y-89180302D01*
G04 #@! TO.C,C17*
X47300000Y-123670000D02*
G75*
G03X47300000Y-123670000I-4120000J0D01*
G01*
X47260000Y-123670000D02*
X39100000Y-123670000D01*
X47260000Y-123710000D02*
X39100000Y-123710000D01*
X47260000Y-123750000D02*
X39100000Y-123750000D01*
X47259000Y-123790000D02*
X39101000Y-123790000D01*
X47257000Y-123830000D02*
X39103000Y-123830000D01*
X47256000Y-123870000D02*
X39104000Y-123870000D01*
X47254000Y-123910000D02*
X39106000Y-123910000D01*
X47251000Y-123950000D02*
X39109000Y-123950000D01*
X47248000Y-123990000D02*
X39112000Y-123990000D01*
X47245000Y-124030000D02*
X39115000Y-124030000D01*
X47241000Y-124070000D02*
X39119000Y-124070000D01*
X47237000Y-124110000D02*
X39123000Y-124110000D01*
X47232000Y-124150000D02*
X39128000Y-124150000D01*
X47228000Y-124190000D02*
X39132000Y-124190000D01*
X47222000Y-124230000D02*
X39138000Y-124230000D01*
X47217000Y-124270000D02*
X39143000Y-124270000D01*
X47210000Y-124310000D02*
X39150000Y-124310000D01*
X47204000Y-124350000D02*
X39156000Y-124350000D01*
X47197000Y-124391000D02*
X44220000Y-124391000D01*
X42140000Y-124391000D02*
X39163000Y-124391000D01*
X47190000Y-124431000D02*
X44220000Y-124431000D01*
X42140000Y-124431000D02*
X39170000Y-124431000D01*
X47182000Y-124471000D02*
X44220000Y-124471000D01*
X42140000Y-124471000D02*
X39178000Y-124471000D01*
X47174000Y-124511000D02*
X44220000Y-124511000D01*
X42140000Y-124511000D02*
X39186000Y-124511000D01*
X47165000Y-124551000D02*
X44220000Y-124551000D01*
X42140000Y-124551000D02*
X39195000Y-124551000D01*
X47156000Y-124591000D02*
X44220000Y-124591000D01*
X42140000Y-124591000D02*
X39204000Y-124591000D01*
X47147000Y-124631000D02*
X44220000Y-124631000D01*
X42140000Y-124631000D02*
X39213000Y-124631000D01*
X47137000Y-124671000D02*
X44220000Y-124671000D01*
X42140000Y-124671000D02*
X39223000Y-124671000D01*
X47127000Y-124711000D02*
X44220000Y-124711000D01*
X42140000Y-124711000D02*
X39233000Y-124711000D01*
X47116000Y-124751000D02*
X44220000Y-124751000D01*
X42140000Y-124751000D02*
X39244000Y-124751000D01*
X47105000Y-124791000D02*
X44220000Y-124791000D01*
X42140000Y-124791000D02*
X39255000Y-124791000D01*
X47094000Y-124831000D02*
X44220000Y-124831000D01*
X42140000Y-124831000D02*
X39266000Y-124831000D01*
X47082000Y-124871000D02*
X44220000Y-124871000D01*
X42140000Y-124871000D02*
X39278000Y-124871000D01*
X47069000Y-124911000D02*
X44220000Y-124911000D01*
X42140000Y-124911000D02*
X39291000Y-124911000D01*
X47057000Y-124951000D02*
X44220000Y-124951000D01*
X42140000Y-124951000D02*
X39303000Y-124951000D01*
X47043000Y-124991000D02*
X44220000Y-124991000D01*
X42140000Y-124991000D02*
X39317000Y-124991000D01*
X47030000Y-125031000D02*
X44220000Y-125031000D01*
X42140000Y-125031000D02*
X39330000Y-125031000D01*
X47015000Y-125071000D02*
X44220000Y-125071000D01*
X42140000Y-125071000D02*
X39345000Y-125071000D01*
X47001000Y-125111000D02*
X44220000Y-125111000D01*
X42140000Y-125111000D02*
X39359000Y-125111000D01*
X46985000Y-125151000D02*
X44220000Y-125151000D01*
X42140000Y-125151000D02*
X39375000Y-125151000D01*
X46970000Y-125191000D02*
X44220000Y-125191000D01*
X42140000Y-125191000D02*
X39390000Y-125191000D01*
X46954000Y-125231000D02*
X44220000Y-125231000D01*
X42140000Y-125231000D02*
X39406000Y-125231000D01*
X46937000Y-125271000D02*
X44220000Y-125271000D01*
X42140000Y-125271000D02*
X39423000Y-125271000D01*
X46920000Y-125311000D02*
X44220000Y-125311000D01*
X42140000Y-125311000D02*
X39440000Y-125311000D01*
X46902000Y-125351000D02*
X44220000Y-125351000D01*
X42140000Y-125351000D02*
X39458000Y-125351000D01*
X46884000Y-125391000D02*
X44220000Y-125391000D01*
X42140000Y-125391000D02*
X39476000Y-125391000D01*
X46866000Y-125431000D02*
X44220000Y-125431000D01*
X42140000Y-125431000D02*
X39494000Y-125431000D01*
X46846000Y-125471000D02*
X44220000Y-125471000D01*
X42140000Y-125471000D02*
X39514000Y-125471000D01*
X46827000Y-125511000D02*
X44220000Y-125511000D01*
X42140000Y-125511000D02*
X39533000Y-125511000D01*
X46807000Y-125551000D02*
X44220000Y-125551000D01*
X42140000Y-125551000D02*
X39553000Y-125551000D01*
X46786000Y-125591000D02*
X44220000Y-125591000D01*
X42140000Y-125591000D02*
X39574000Y-125591000D01*
X46764000Y-125631000D02*
X44220000Y-125631000D01*
X42140000Y-125631000D02*
X39596000Y-125631000D01*
X46742000Y-125671000D02*
X44220000Y-125671000D01*
X42140000Y-125671000D02*
X39618000Y-125671000D01*
X46720000Y-125711000D02*
X44220000Y-125711000D01*
X42140000Y-125711000D02*
X39640000Y-125711000D01*
X46697000Y-125751000D02*
X44220000Y-125751000D01*
X42140000Y-125751000D02*
X39663000Y-125751000D01*
X46673000Y-125791000D02*
X44220000Y-125791000D01*
X42140000Y-125791000D02*
X39687000Y-125791000D01*
X46649000Y-125831000D02*
X44220000Y-125831000D01*
X42140000Y-125831000D02*
X39711000Y-125831000D01*
X46624000Y-125871000D02*
X44220000Y-125871000D01*
X42140000Y-125871000D02*
X39736000Y-125871000D01*
X46598000Y-125911000D02*
X44220000Y-125911000D01*
X42140000Y-125911000D02*
X39762000Y-125911000D01*
X46572000Y-125951000D02*
X44220000Y-125951000D01*
X42140000Y-125951000D02*
X39788000Y-125951000D01*
X46545000Y-125991000D02*
X44220000Y-125991000D01*
X42140000Y-125991000D02*
X39815000Y-125991000D01*
X46518000Y-126031000D02*
X44220000Y-126031000D01*
X42140000Y-126031000D02*
X39842000Y-126031000D01*
X46489000Y-126071000D02*
X44220000Y-126071000D01*
X42140000Y-126071000D02*
X39871000Y-126071000D01*
X46460000Y-126111000D02*
X44220000Y-126111000D01*
X42140000Y-126111000D02*
X39900000Y-126111000D01*
X46430000Y-126151000D02*
X44220000Y-126151000D01*
X42140000Y-126151000D02*
X39930000Y-126151000D01*
X46400000Y-126191000D02*
X44220000Y-126191000D01*
X42140000Y-126191000D02*
X39960000Y-126191000D01*
X46369000Y-126231000D02*
X44220000Y-126231000D01*
X42140000Y-126231000D02*
X39991000Y-126231000D01*
X46336000Y-126271000D02*
X44220000Y-126271000D01*
X42140000Y-126271000D02*
X40024000Y-126271000D01*
X46304000Y-126311000D02*
X44220000Y-126311000D01*
X42140000Y-126311000D02*
X40056000Y-126311000D01*
X46270000Y-126351000D02*
X44220000Y-126351000D01*
X42140000Y-126351000D02*
X40090000Y-126351000D01*
X46235000Y-126391000D02*
X44220000Y-126391000D01*
X42140000Y-126391000D02*
X40125000Y-126391000D01*
X46199000Y-126431000D02*
X44220000Y-126431000D01*
X42140000Y-126431000D02*
X40161000Y-126431000D01*
X46163000Y-126471000D02*
X40197000Y-126471000D01*
X46125000Y-126511000D02*
X40235000Y-126511000D01*
X46087000Y-126551000D02*
X40273000Y-126551000D01*
X46047000Y-126591000D02*
X40313000Y-126591000D01*
X46006000Y-126631000D02*
X40354000Y-126631000D01*
X45964000Y-126671000D02*
X40396000Y-126671000D01*
X45921000Y-126711000D02*
X40439000Y-126711000D01*
X45877000Y-126751000D02*
X40483000Y-126751000D01*
X45831000Y-126791000D02*
X40529000Y-126791000D01*
X45784000Y-126831000D02*
X40576000Y-126831000D01*
X45736000Y-126871000D02*
X40624000Y-126871000D01*
X45685000Y-126911000D02*
X40675000Y-126911000D01*
X45634000Y-126951000D02*
X40726000Y-126951000D01*
X45580000Y-126991000D02*
X40780000Y-126991000D01*
X45525000Y-127031000D02*
X40835000Y-127031000D01*
X45467000Y-127071000D02*
X40893000Y-127071000D01*
X45408000Y-127111000D02*
X40952000Y-127111000D01*
X45346000Y-127151000D02*
X41014000Y-127151000D01*
X45282000Y-127191000D02*
X41078000Y-127191000D01*
X45214000Y-127231000D02*
X41146000Y-127231000D01*
X45144000Y-127271000D02*
X41216000Y-127271000D01*
X45070000Y-127311000D02*
X41290000Y-127311000D01*
X44993000Y-127351000D02*
X41367000Y-127351000D01*
X44911000Y-127391000D02*
X41449000Y-127391000D01*
X44825000Y-127431000D02*
X41535000Y-127431000D01*
X44732000Y-127471000D02*
X41628000Y-127471000D01*
X44633000Y-127511000D02*
X41727000Y-127511000D01*
X44526000Y-127551000D02*
X41834000Y-127551000D01*
X44409000Y-127591000D02*
X41951000Y-127591000D01*
X44278000Y-127631000D02*
X42082000Y-127631000D01*
X44128000Y-127671000D02*
X42232000Y-127671000D01*
X43948000Y-127711000D02*
X42412000Y-127711000D01*
X43713000Y-127751000D02*
X42647000Y-127751000D01*
X45495000Y-119260302D02*
X45495000Y-120060302D01*
X45895000Y-119660302D02*
X45095000Y-119660302D01*
G04 #@! TO.C,C1*
X56055000Y-119660302D02*
X55255000Y-119660302D01*
X55655000Y-119260302D02*
X55655000Y-120060302D01*
X53873000Y-127751000D02*
X52807000Y-127751000D01*
X54108000Y-127711000D02*
X52572000Y-127711000D01*
X54288000Y-127671000D02*
X52392000Y-127671000D01*
X54438000Y-127631000D02*
X52242000Y-127631000D01*
X54569000Y-127591000D02*
X52111000Y-127591000D01*
X54686000Y-127551000D02*
X51994000Y-127551000D01*
X54793000Y-127511000D02*
X51887000Y-127511000D01*
X54892000Y-127471000D02*
X51788000Y-127471000D01*
X54985000Y-127431000D02*
X51695000Y-127431000D01*
X55071000Y-127391000D02*
X51609000Y-127391000D01*
X55153000Y-127351000D02*
X51527000Y-127351000D01*
X55230000Y-127311000D02*
X51450000Y-127311000D01*
X55304000Y-127271000D02*
X51376000Y-127271000D01*
X55374000Y-127231000D02*
X51306000Y-127231000D01*
X55442000Y-127191000D02*
X51238000Y-127191000D01*
X55506000Y-127151000D02*
X51174000Y-127151000D01*
X55568000Y-127111000D02*
X51112000Y-127111000D01*
X55627000Y-127071000D02*
X51053000Y-127071000D01*
X55685000Y-127031000D02*
X50995000Y-127031000D01*
X55740000Y-126991000D02*
X50940000Y-126991000D01*
X55794000Y-126951000D02*
X50886000Y-126951000D01*
X55845000Y-126911000D02*
X50835000Y-126911000D01*
X55896000Y-126871000D02*
X50784000Y-126871000D01*
X55944000Y-126831000D02*
X50736000Y-126831000D01*
X55991000Y-126791000D02*
X50689000Y-126791000D01*
X56037000Y-126751000D02*
X50643000Y-126751000D01*
X56081000Y-126711000D02*
X50599000Y-126711000D01*
X56124000Y-126671000D02*
X50556000Y-126671000D01*
X56166000Y-126631000D02*
X50514000Y-126631000D01*
X56207000Y-126591000D02*
X50473000Y-126591000D01*
X56247000Y-126551000D02*
X50433000Y-126551000D01*
X56285000Y-126511000D02*
X50395000Y-126511000D01*
X56323000Y-126471000D02*
X50357000Y-126471000D01*
X52300000Y-126431000D02*
X50321000Y-126431000D01*
X56359000Y-126431000D02*
X54380000Y-126431000D01*
X52300000Y-126391000D02*
X50285000Y-126391000D01*
X56395000Y-126391000D02*
X54380000Y-126391000D01*
X52300000Y-126351000D02*
X50250000Y-126351000D01*
X56430000Y-126351000D02*
X54380000Y-126351000D01*
X52300000Y-126311000D02*
X50216000Y-126311000D01*
X56464000Y-126311000D02*
X54380000Y-126311000D01*
X52300000Y-126271000D02*
X50184000Y-126271000D01*
X56496000Y-126271000D02*
X54380000Y-126271000D01*
X52300000Y-126231000D02*
X50151000Y-126231000D01*
X56529000Y-126231000D02*
X54380000Y-126231000D01*
X52300000Y-126191000D02*
X50120000Y-126191000D01*
X56560000Y-126191000D02*
X54380000Y-126191000D01*
X52300000Y-126151000D02*
X50090000Y-126151000D01*
X56590000Y-126151000D02*
X54380000Y-126151000D01*
X52300000Y-126111000D02*
X50060000Y-126111000D01*
X56620000Y-126111000D02*
X54380000Y-126111000D01*
X52300000Y-126071000D02*
X50031000Y-126071000D01*
X56649000Y-126071000D02*
X54380000Y-126071000D01*
X52300000Y-126031000D02*
X50002000Y-126031000D01*
X56678000Y-126031000D02*
X54380000Y-126031000D01*
X52300000Y-125991000D02*
X49975000Y-125991000D01*
X56705000Y-125991000D02*
X54380000Y-125991000D01*
X52300000Y-125951000D02*
X49948000Y-125951000D01*
X56732000Y-125951000D02*
X54380000Y-125951000D01*
X52300000Y-125911000D02*
X49922000Y-125911000D01*
X56758000Y-125911000D02*
X54380000Y-125911000D01*
X52300000Y-125871000D02*
X49896000Y-125871000D01*
X56784000Y-125871000D02*
X54380000Y-125871000D01*
X52300000Y-125831000D02*
X49871000Y-125831000D01*
X56809000Y-125831000D02*
X54380000Y-125831000D01*
X52300000Y-125791000D02*
X49847000Y-125791000D01*
X56833000Y-125791000D02*
X54380000Y-125791000D01*
X52300000Y-125751000D02*
X49823000Y-125751000D01*
X56857000Y-125751000D02*
X54380000Y-125751000D01*
X52300000Y-125711000D02*
X49800000Y-125711000D01*
X56880000Y-125711000D02*
X54380000Y-125711000D01*
X52300000Y-125671000D02*
X49778000Y-125671000D01*
X56902000Y-125671000D02*
X54380000Y-125671000D01*
X52300000Y-125631000D02*
X49756000Y-125631000D01*
X56924000Y-125631000D02*
X54380000Y-125631000D01*
X52300000Y-125591000D02*
X49734000Y-125591000D01*
X56946000Y-125591000D02*
X54380000Y-125591000D01*
X52300000Y-125551000D02*
X49713000Y-125551000D01*
X56967000Y-125551000D02*
X54380000Y-125551000D01*
X52300000Y-125511000D02*
X49693000Y-125511000D01*
X56987000Y-125511000D02*
X54380000Y-125511000D01*
X52300000Y-125471000D02*
X49674000Y-125471000D01*
X57006000Y-125471000D02*
X54380000Y-125471000D01*
X52300000Y-125431000D02*
X49654000Y-125431000D01*
X57026000Y-125431000D02*
X54380000Y-125431000D01*
X52300000Y-125391000D02*
X49636000Y-125391000D01*
X57044000Y-125391000D02*
X54380000Y-125391000D01*
X52300000Y-125351000D02*
X49618000Y-125351000D01*
X57062000Y-125351000D02*
X54380000Y-125351000D01*
X52300000Y-125311000D02*
X49600000Y-125311000D01*
X57080000Y-125311000D02*
X54380000Y-125311000D01*
X52300000Y-125271000D02*
X49583000Y-125271000D01*
X57097000Y-125271000D02*
X54380000Y-125271000D01*
X52300000Y-125231000D02*
X49566000Y-125231000D01*
X57114000Y-125231000D02*
X54380000Y-125231000D01*
X52300000Y-125191000D02*
X49550000Y-125191000D01*
X57130000Y-125191000D02*
X54380000Y-125191000D01*
X52300000Y-125151000D02*
X49535000Y-125151000D01*
X57145000Y-125151000D02*
X54380000Y-125151000D01*
X52300000Y-125111000D02*
X49519000Y-125111000D01*
X57161000Y-125111000D02*
X54380000Y-125111000D01*
X52300000Y-125071000D02*
X49505000Y-125071000D01*
X57175000Y-125071000D02*
X54380000Y-125071000D01*
X52300000Y-125031000D02*
X49490000Y-125031000D01*
X57190000Y-125031000D02*
X54380000Y-125031000D01*
X52300000Y-124991000D02*
X49477000Y-124991000D01*
X57203000Y-124991000D02*
X54380000Y-124991000D01*
X52300000Y-124951000D02*
X49463000Y-124951000D01*
X57217000Y-124951000D02*
X54380000Y-124951000D01*
X52300000Y-124911000D02*
X49451000Y-124911000D01*
X57229000Y-124911000D02*
X54380000Y-124911000D01*
X52300000Y-124871000D02*
X49438000Y-124871000D01*
X57242000Y-124871000D02*
X54380000Y-124871000D01*
X52300000Y-124831000D02*
X49426000Y-124831000D01*
X57254000Y-124831000D02*
X54380000Y-124831000D01*
X52300000Y-124791000D02*
X49415000Y-124791000D01*
X57265000Y-124791000D02*
X54380000Y-124791000D01*
X52300000Y-124751000D02*
X49404000Y-124751000D01*
X57276000Y-124751000D02*
X54380000Y-124751000D01*
X52300000Y-124711000D02*
X49393000Y-124711000D01*
X57287000Y-124711000D02*
X54380000Y-124711000D01*
X52300000Y-124671000D02*
X49383000Y-124671000D01*
X57297000Y-124671000D02*
X54380000Y-124671000D01*
X52300000Y-124631000D02*
X49373000Y-124631000D01*
X57307000Y-124631000D02*
X54380000Y-124631000D01*
X52300000Y-124591000D02*
X49364000Y-124591000D01*
X57316000Y-124591000D02*
X54380000Y-124591000D01*
X52300000Y-124551000D02*
X49355000Y-124551000D01*
X57325000Y-124551000D02*
X54380000Y-124551000D01*
X52300000Y-124511000D02*
X49346000Y-124511000D01*
X57334000Y-124511000D02*
X54380000Y-124511000D01*
X52300000Y-124471000D02*
X49338000Y-124471000D01*
X57342000Y-124471000D02*
X54380000Y-124471000D01*
X52300000Y-124431000D02*
X49330000Y-124431000D01*
X57350000Y-124431000D02*
X54380000Y-124431000D01*
X52300000Y-124391000D02*
X49323000Y-124391000D01*
X57357000Y-124391000D02*
X54380000Y-124391000D01*
X57364000Y-124350000D02*
X49316000Y-124350000D01*
X57370000Y-124310000D02*
X49310000Y-124310000D01*
X57377000Y-124270000D02*
X49303000Y-124270000D01*
X57382000Y-124230000D02*
X49298000Y-124230000D01*
X57388000Y-124190000D02*
X49292000Y-124190000D01*
X57392000Y-124150000D02*
X49288000Y-124150000D01*
X57397000Y-124110000D02*
X49283000Y-124110000D01*
X57401000Y-124070000D02*
X49279000Y-124070000D01*
X57405000Y-124030000D02*
X49275000Y-124030000D01*
X57408000Y-123990000D02*
X49272000Y-123990000D01*
X57411000Y-123950000D02*
X49269000Y-123950000D01*
X57414000Y-123910000D02*
X49266000Y-123910000D01*
X57416000Y-123870000D02*
X49264000Y-123870000D01*
X57417000Y-123830000D02*
X49263000Y-123830000D01*
X57419000Y-123790000D02*
X49261000Y-123790000D01*
X57420000Y-123750000D02*
X49260000Y-123750000D01*
X57420000Y-123710000D02*
X49260000Y-123710000D01*
X57420000Y-123670000D02*
X49260000Y-123670000D01*
X57460000Y-123670000D02*
G75*
G03X57460000Y-123670000I-4120000J0D01*
G01*
G04 #@! TO.C,C2*
X45895000Y-99340302D02*
X45095000Y-99340302D01*
X45495000Y-98940302D02*
X45495000Y-99740302D01*
X43713000Y-107431000D02*
X42647000Y-107431000D01*
X43948000Y-107391000D02*
X42412000Y-107391000D01*
X44128000Y-107351000D02*
X42232000Y-107351000D01*
X44278000Y-107311000D02*
X42082000Y-107311000D01*
X44409000Y-107271000D02*
X41951000Y-107271000D01*
X44526000Y-107231000D02*
X41834000Y-107231000D01*
X44633000Y-107191000D02*
X41727000Y-107191000D01*
X44732000Y-107151000D02*
X41628000Y-107151000D01*
X44825000Y-107111000D02*
X41535000Y-107111000D01*
X44911000Y-107071000D02*
X41449000Y-107071000D01*
X44993000Y-107031000D02*
X41367000Y-107031000D01*
X45070000Y-106991000D02*
X41290000Y-106991000D01*
X45144000Y-106951000D02*
X41216000Y-106951000D01*
X45214000Y-106911000D02*
X41146000Y-106911000D01*
X45282000Y-106871000D02*
X41078000Y-106871000D01*
X45346000Y-106831000D02*
X41014000Y-106831000D01*
X45408000Y-106791000D02*
X40952000Y-106791000D01*
X45467000Y-106751000D02*
X40893000Y-106751000D01*
X45525000Y-106711000D02*
X40835000Y-106711000D01*
X45580000Y-106671000D02*
X40780000Y-106671000D01*
X45634000Y-106631000D02*
X40726000Y-106631000D01*
X45685000Y-106591000D02*
X40675000Y-106591000D01*
X45736000Y-106551000D02*
X40624000Y-106551000D01*
X45784000Y-106511000D02*
X40576000Y-106511000D01*
X45831000Y-106471000D02*
X40529000Y-106471000D01*
X45877000Y-106431000D02*
X40483000Y-106431000D01*
X45921000Y-106391000D02*
X40439000Y-106391000D01*
X45964000Y-106351000D02*
X40396000Y-106351000D01*
X46006000Y-106311000D02*
X40354000Y-106311000D01*
X46047000Y-106271000D02*
X40313000Y-106271000D01*
X46087000Y-106231000D02*
X40273000Y-106231000D01*
X46125000Y-106191000D02*
X40235000Y-106191000D01*
X46163000Y-106151000D02*
X40197000Y-106151000D01*
X42140000Y-106111000D02*
X40161000Y-106111000D01*
X46199000Y-106111000D02*
X44220000Y-106111000D01*
X42140000Y-106071000D02*
X40125000Y-106071000D01*
X46235000Y-106071000D02*
X44220000Y-106071000D01*
X42140000Y-106031000D02*
X40090000Y-106031000D01*
X46270000Y-106031000D02*
X44220000Y-106031000D01*
X42140000Y-105991000D02*
X40056000Y-105991000D01*
X46304000Y-105991000D02*
X44220000Y-105991000D01*
X42140000Y-105951000D02*
X40024000Y-105951000D01*
X46336000Y-105951000D02*
X44220000Y-105951000D01*
X42140000Y-105911000D02*
X39991000Y-105911000D01*
X46369000Y-105911000D02*
X44220000Y-105911000D01*
X42140000Y-105871000D02*
X39960000Y-105871000D01*
X46400000Y-105871000D02*
X44220000Y-105871000D01*
X42140000Y-105831000D02*
X39930000Y-105831000D01*
X46430000Y-105831000D02*
X44220000Y-105831000D01*
X42140000Y-105791000D02*
X39900000Y-105791000D01*
X46460000Y-105791000D02*
X44220000Y-105791000D01*
X42140000Y-105751000D02*
X39871000Y-105751000D01*
X46489000Y-105751000D02*
X44220000Y-105751000D01*
X42140000Y-105711000D02*
X39842000Y-105711000D01*
X46518000Y-105711000D02*
X44220000Y-105711000D01*
X42140000Y-105671000D02*
X39815000Y-105671000D01*
X46545000Y-105671000D02*
X44220000Y-105671000D01*
X42140000Y-105631000D02*
X39788000Y-105631000D01*
X46572000Y-105631000D02*
X44220000Y-105631000D01*
X42140000Y-105591000D02*
X39762000Y-105591000D01*
X46598000Y-105591000D02*
X44220000Y-105591000D01*
X42140000Y-105551000D02*
X39736000Y-105551000D01*
X46624000Y-105551000D02*
X44220000Y-105551000D01*
X42140000Y-105511000D02*
X39711000Y-105511000D01*
X46649000Y-105511000D02*
X44220000Y-105511000D01*
X42140000Y-105471000D02*
X39687000Y-105471000D01*
X46673000Y-105471000D02*
X44220000Y-105471000D01*
X42140000Y-105431000D02*
X39663000Y-105431000D01*
X46697000Y-105431000D02*
X44220000Y-105431000D01*
X42140000Y-105391000D02*
X39640000Y-105391000D01*
X46720000Y-105391000D02*
X44220000Y-105391000D01*
X42140000Y-105351000D02*
X39618000Y-105351000D01*
X46742000Y-105351000D02*
X44220000Y-105351000D01*
X42140000Y-105311000D02*
X39596000Y-105311000D01*
X46764000Y-105311000D02*
X44220000Y-105311000D01*
X42140000Y-105271000D02*
X39574000Y-105271000D01*
X46786000Y-105271000D02*
X44220000Y-105271000D01*
X42140000Y-105231000D02*
X39553000Y-105231000D01*
X46807000Y-105231000D02*
X44220000Y-105231000D01*
X42140000Y-105191000D02*
X39533000Y-105191000D01*
X46827000Y-105191000D02*
X44220000Y-105191000D01*
X42140000Y-105151000D02*
X39514000Y-105151000D01*
X46846000Y-105151000D02*
X44220000Y-105151000D01*
X42140000Y-105111000D02*
X39494000Y-105111000D01*
X46866000Y-105111000D02*
X44220000Y-105111000D01*
X42140000Y-105071000D02*
X39476000Y-105071000D01*
X46884000Y-105071000D02*
X44220000Y-105071000D01*
X42140000Y-105031000D02*
X39458000Y-105031000D01*
X46902000Y-105031000D02*
X44220000Y-105031000D01*
X42140000Y-104991000D02*
X39440000Y-104991000D01*
X46920000Y-104991000D02*
X44220000Y-104991000D01*
X42140000Y-104951000D02*
X39423000Y-104951000D01*
X46937000Y-104951000D02*
X44220000Y-104951000D01*
X42140000Y-104911000D02*
X39406000Y-104911000D01*
X46954000Y-104911000D02*
X44220000Y-104911000D01*
X42140000Y-104871000D02*
X39390000Y-104871000D01*
X46970000Y-104871000D02*
X44220000Y-104871000D01*
X42140000Y-104831000D02*
X39375000Y-104831000D01*
X46985000Y-104831000D02*
X44220000Y-104831000D01*
X42140000Y-104791000D02*
X39359000Y-104791000D01*
X47001000Y-104791000D02*
X44220000Y-104791000D01*
X42140000Y-104751000D02*
X39345000Y-104751000D01*
X47015000Y-104751000D02*
X44220000Y-104751000D01*
X42140000Y-104711000D02*
X39330000Y-104711000D01*
X47030000Y-104711000D02*
X44220000Y-104711000D01*
X42140000Y-104671000D02*
X39317000Y-104671000D01*
X47043000Y-104671000D02*
X44220000Y-104671000D01*
X42140000Y-104631000D02*
X39303000Y-104631000D01*
X47057000Y-104631000D02*
X44220000Y-104631000D01*
X42140000Y-104591000D02*
X39291000Y-104591000D01*
X47069000Y-104591000D02*
X44220000Y-104591000D01*
X42140000Y-104551000D02*
X39278000Y-104551000D01*
X47082000Y-104551000D02*
X44220000Y-104551000D01*
X42140000Y-104511000D02*
X39266000Y-104511000D01*
X47094000Y-104511000D02*
X44220000Y-104511000D01*
X42140000Y-104471000D02*
X39255000Y-104471000D01*
X47105000Y-104471000D02*
X44220000Y-104471000D01*
X42140000Y-104431000D02*
X39244000Y-104431000D01*
X47116000Y-104431000D02*
X44220000Y-104431000D01*
X42140000Y-104391000D02*
X39233000Y-104391000D01*
X47127000Y-104391000D02*
X44220000Y-104391000D01*
X42140000Y-104351000D02*
X39223000Y-104351000D01*
X47137000Y-104351000D02*
X44220000Y-104351000D01*
X42140000Y-104311000D02*
X39213000Y-104311000D01*
X47147000Y-104311000D02*
X44220000Y-104311000D01*
X42140000Y-104271000D02*
X39204000Y-104271000D01*
X47156000Y-104271000D02*
X44220000Y-104271000D01*
X42140000Y-104231000D02*
X39195000Y-104231000D01*
X47165000Y-104231000D02*
X44220000Y-104231000D01*
X42140000Y-104191000D02*
X39186000Y-104191000D01*
X47174000Y-104191000D02*
X44220000Y-104191000D01*
X42140000Y-104151000D02*
X39178000Y-104151000D01*
X47182000Y-104151000D02*
X44220000Y-104151000D01*
X42140000Y-104111000D02*
X39170000Y-104111000D01*
X47190000Y-104111000D02*
X44220000Y-104111000D01*
X42140000Y-104071000D02*
X39163000Y-104071000D01*
X47197000Y-104071000D02*
X44220000Y-104071000D01*
X47204000Y-104030000D02*
X39156000Y-104030000D01*
X47210000Y-103990000D02*
X39150000Y-103990000D01*
X47217000Y-103950000D02*
X39143000Y-103950000D01*
X47222000Y-103910000D02*
X39138000Y-103910000D01*
X47228000Y-103870000D02*
X39132000Y-103870000D01*
X47232000Y-103830000D02*
X39128000Y-103830000D01*
X47237000Y-103790000D02*
X39123000Y-103790000D01*
X47241000Y-103750000D02*
X39119000Y-103750000D01*
X47245000Y-103710000D02*
X39115000Y-103710000D01*
X47248000Y-103670000D02*
X39112000Y-103670000D01*
X47251000Y-103630000D02*
X39109000Y-103630000D01*
X47254000Y-103590000D02*
X39106000Y-103590000D01*
X47256000Y-103550000D02*
X39104000Y-103550000D01*
X47257000Y-103510000D02*
X39103000Y-103510000D01*
X47259000Y-103470000D02*
X39101000Y-103470000D01*
X47260000Y-103430000D02*
X39100000Y-103430000D01*
X47260000Y-103390000D02*
X39100000Y-103390000D01*
X47260000Y-103350000D02*
X39100000Y-103350000D01*
X47300000Y-103350000D02*
G75*
G03X47300000Y-103350000I-4120000J0D01*
G01*
G04 #@! TO.C,J2*
X34730000Y-143610000D02*
X34730000Y-135790000D01*
X44050000Y-137590000D02*
X44480000Y-137590000D01*
X34730000Y-143610000D02*
X36680000Y-143610000D01*
X38900000Y-143610000D02*
X42130000Y-143610000D01*
X44050000Y-141810000D02*
X44050000Y-142890000D01*
X44050000Y-136510000D02*
X44050000Y-137590000D01*
X38900000Y-135790000D02*
X42130000Y-135790000D01*
X34730000Y-135790000D02*
X36680000Y-135790000D01*
G04 #@! TO.C,D3*
X71675000Y-130310000D02*
X67615000Y-130310000D01*
X71675000Y-132580000D02*
X71675000Y-130310000D01*
X67615000Y-132580000D02*
X71675000Y-132580000D01*
G04 #@! TO.C,D4*
X71549839Y-120145785D02*
X67489839Y-120145785D01*
X67489839Y-120145785D02*
X67489839Y-122415785D01*
X67489839Y-122415785D02*
X71549839Y-122415785D01*
G04 #@! TO.C,R1*
X69941266Y-128884999D02*
X69598732Y-128884999D01*
X69941266Y-127864999D02*
X69598732Y-127864999D01*
G04 #@! TO.C,R2*
X69973572Y-123450785D02*
X70316106Y-123450785D01*
X69973572Y-124470785D02*
X70316106Y-124470785D01*
G04 #@! TO.C,R3*
X137943710Y-133225000D02*
X138286244Y-133225000D01*
X137943710Y-132205000D02*
X138286244Y-132205000D01*
G04 #@! TO.C,R4*
X138286244Y-130300000D02*
X137943710Y-130300000D01*
X138286244Y-131320000D02*
X137943710Y-131320000D01*
G04 #@! TO.C,R5*
X123065000Y-125506267D02*
X123065000Y-125163733D01*
X122045000Y-125506267D02*
X122045000Y-125163733D01*
G04 #@! TO.C,R6*
X188423733Y-122045000D02*
X188766267Y-122045000D01*
X188423733Y-123065000D02*
X188766267Y-123065000D01*
G04 #@! TO.C,R7*
X202736267Y-123065000D02*
X202393733Y-123065000D01*
X202736267Y-122045000D02*
X202393733Y-122045000D01*
G04 #@! TO.C,R8*
X125798733Y-117350000D02*
X126141267Y-117350000D01*
X125798733Y-116330000D02*
X126141267Y-116330000D01*
G04 #@! TO.C,R9*
X125798733Y-114930001D02*
X126141267Y-114930001D01*
X125798733Y-115950001D02*
X126141267Y-115950001D01*
G04 #@! TO.C,R13*
X264688605Y-44153960D02*
X264688605Y-44496494D01*
X265708605Y-44153960D02*
X265708605Y-44496494D01*
G04 #@! TO.C,R14*
X265708605Y-48358960D02*
X265708605Y-48701494D01*
X264688605Y-48358960D02*
X264688605Y-48701494D01*
G04 #@! TO.C,R15*
X264688605Y-51773960D02*
X264688605Y-52116494D01*
X265708605Y-51773960D02*
X265708605Y-52116494D01*
G04 #@! TO.C,R16*
X237768605Y-53438960D02*
X237768605Y-53781494D01*
X236748605Y-53438960D02*
X236748605Y-53781494D01*
G04 #@! TO.C,R17*
X236748605Y-50023960D02*
X236748605Y-50366494D01*
X237768605Y-50023960D02*
X237768605Y-50366494D01*
G04 #@! TO.C,R18*
X237768605Y-46213960D02*
X237768605Y-46556494D01*
X236748605Y-46213960D02*
X236748605Y-46556494D01*
G04 #@! TO.C,R19*
X210078605Y-49628960D02*
X210078605Y-49971494D01*
X211098605Y-49628960D02*
X211098605Y-49971494D01*
G04 #@! TO.C,R20*
X211098605Y-45818960D02*
X211098605Y-46161494D01*
X210078605Y-45818960D02*
X210078605Y-46161494D01*
G04 #@! TO.C,R21*
X210078605Y-53438960D02*
X210078605Y-53781494D01*
X211098605Y-53438960D02*
X211098605Y-53781494D01*
G04 #@! TO.C,R22*
X181888605Y-45818960D02*
X181888605Y-46161494D01*
X180868605Y-45818960D02*
X180868605Y-46161494D01*
G04 #@! TO.C,R23*
X180868605Y-49628960D02*
X180868605Y-49971494D01*
X181888605Y-49628960D02*
X181888605Y-49971494D01*
G04 #@! TO.C,R24*
X180868605Y-53833960D02*
X180868605Y-54176494D01*
X181888605Y-53833960D02*
X181888605Y-54176494D01*
G04 #@! TO.C,R25*
X59815000Y-130243733D02*
X59815000Y-130586267D01*
X60835000Y-130243733D02*
X60835000Y-130586267D01*
G04 #@! TO.C,R26*
X57025000Y-130243733D02*
X57025000Y-130586267D01*
X56005000Y-130243733D02*
X56005000Y-130586267D01*
G04 #@! TO.C,R27*
X58930000Y-130586267D02*
X58930000Y-130243733D01*
X57910000Y-130586267D02*
X57910000Y-130243733D01*
G04 #@! TO.C,R28*
X54100000Y-130586267D02*
X54100000Y-130243733D01*
X55120000Y-130586267D02*
X55120000Y-130243733D01*
D10*
G04 #@! TO.C,U4*
X150421950Y-124460000D02*
X151111379Y-125149429D01*
X167640000Y-107241950D02*
X168382462Y-107984412D01*
X184858050Y-124460000D02*
X184115588Y-123717538D01*
X167640000Y-141678050D02*
X166897538Y-140935588D01*
X150421950Y-124460000D02*
X151164412Y-123717538D01*
X167640000Y-141678050D02*
X168382462Y-140935588D01*
X184858050Y-124460000D02*
X184115588Y-125202462D01*
X167640000Y-107241950D02*
X166897538Y-107984412D01*
X151111379Y-125149429D02*
X150400737Y-125860071D01*
D11*
G04 #@! TO.C,R29*
X152928605Y-44548960D02*
X152928605Y-44891494D01*
X153948605Y-44548960D02*
X153948605Y-44891494D01*
G04 #@! TO.C,R30*
X152943604Y-48358960D02*
X152943604Y-48701494D01*
X153963604Y-48358960D02*
X153963604Y-48701494D01*
G04 #@! TO.C,R31*
X153963604Y-52168960D02*
X153963604Y-52511494D01*
X152943604Y-52168960D02*
X152943604Y-52511494D01*
G04 #@! TO.C,R32*
X124988605Y-43673960D02*
X124988605Y-44016494D01*
X126008605Y-43673960D02*
X126008605Y-44016494D01*
G04 #@! TO.C,R33*
X126008605Y-47483960D02*
X126008605Y-47826494D01*
X124988605Y-47483960D02*
X124988605Y-47826494D01*
G04 #@! TO.C,R34*
X124988605Y-51443961D02*
X124988605Y-51786495D01*
X126008605Y-51443961D02*
X126008605Y-51786495D01*
G04 #@! TO.C,R35*
X98083604Y-47173961D02*
X98083604Y-47516495D01*
X97063604Y-47173961D02*
X97063604Y-47516495D01*
G04 #@! TO.C,R36*
X97063604Y-50523961D02*
X97063604Y-50866495D01*
X98083604Y-50523961D02*
X98083604Y-50866495D01*
G04 #@! TO.C,R37*
X98083604Y-53873961D02*
X98083604Y-54216495D01*
X97063604Y-53873961D02*
X97063604Y-54216495D01*
G04 #@! TO.C,R38*
X69108605Y-47483960D02*
X69108605Y-47826494D01*
X70128605Y-47483960D02*
X70128605Y-47826494D01*
G04 #@! TO.C,R39*
X70128605Y-51293960D02*
X70128605Y-51636494D01*
X69108605Y-51293960D02*
X69108605Y-51636494D01*
G04 #@! TO.C,R40*
X70128605Y-54708960D02*
X70128605Y-55051494D01*
X69108605Y-54708960D02*
X69108605Y-55051494D01*
G04 #@! TO.C,C5*
X129665000Y-127223733D02*
X129665000Y-127566267D01*
X130685000Y-127223733D02*
X130685000Y-127566267D01*
G04 #@! TO.C,C6*
X129665000Y-123361267D02*
X129665000Y-123018733D01*
X130685000Y-123361267D02*
X130685000Y-123018733D01*
G04 #@! TO.C,C7*
X138286244Y-128369637D02*
X137943710Y-128369637D01*
X138286244Y-129389637D02*
X137943710Y-129389637D01*
G04 #@! TO.C,C8*
X136453734Y-115465001D02*
X136796268Y-115465001D01*
X136453734Y-114445001D02*
X136796268Y-114445001D01*
G04 #@! TO.C,C9*
X136453734Y-115795001D02*
X136796268Y-115795001D01*
X136453734Y-116815001D02*
X136796268Y-116815001D01*
G04 #@! TO.C,C10*
X138258733Y-122430000D02*
X138601267Y-122430000D01*
X138258733Y-121410000D02*
X138601267Y-121410000D01*
G04 #@! TO.C,C11*
X146373734Y-120155001D02*
X146716268Y-120155001D01*
X146373734Y-121175001D02*
X146716268Y-121175001D01*
G04 #@! TO.C,C12*
X136453734Y-118165001D02*
X136796268Y-118165001D01*
X136453734Y-117145001D02*
X136796268Y-117145001D01*
G04 #@! TO.C,C13*
X146373734Y-121505001D02*
X146716268Y-121505001D01*
X146373734Y-122525001D02*
X146716268Y-122525001D01*
G04 #@! TO.C,C14*
X136453734Y-118495001D02*
X136796268Y-118495001D01*
X136453734Y-119515001D02*
X136796268Y-119515001D01*
G04 #@! TO.C,C15*
X142643734Y-120795001D02*
X142986268Y-120795001D01*
X142643734Y-121815001D02*
X142986268Y-121815001D01*
G04 #@! TO.C,C16*
X142643734Y-122145001D02*
X142986268Y-122145001D01*
X142643734Y-123165001D02*
X142986268Y-123165001D01*
G04 #@! TO.C,C18*
X139933734Y-115565001D02*
X140276268Y-115565001D01*
X139933734Y-114545001D02*
X140276268Y-114545001D01*
G04 #@! TO.C,C19*
X139933734Y-116055001D02*
X140276268Y-116055001D01*
X139933734Y-117075001D02*
X140276268Y-117075001D01*
G04 #@! TO.C,C20*
X143283734Y-115565001D02*
X143626268Y-115565001D01*
X143283734Y-114545001D02*
X143626268Y-114545001D01*
G04 #@! TO.C,C21*
X139933734Y-117565001D02*
X140276268Y-117565001D01*
X139933734Y-118585001D02*
X140276268Y-118585001D01*
G04 #@! TO.C,C22*
X143283734Y-117075001D02*
X143626268Y-117075001D01*
X143283734Y-116055001D02*
X143626268Y-116055001D01*
G04 #@! TO.C,C23*
X139933734Y-119075001D02*
X140276268Y-119075001D01*
X139933734Y-120095001D02*
X140276268Y-120095001D01*
G04 #@! TO.C,C24*
X146633734Y-115565001D02*
X146976268Y-115565001D01*
X146633734Y-114545001D02*
X146976268Y-114545001D01*
G04 #@! TO.C,C25*
X143283734Y-117565001D02*
X143626268Y-117565001D01*
X143283734Y-118585001D02*
X143626268Y-118585001D01*
G04 #@! TO.C,C26*
X146633734Y-117075001D02*
X146976268Y-117075001D01*
X146633734Y-116055001D02*
X146976268Y-116055001D01*
G04 #@! TO.C,J3*
X192545000Y-114360000D02*
X193367470Y-114360000D01*
X195252530Y-114360000D02*
X196075000Y-114360000D01*
X193982530Y-114360000D02*
X194637470Y-114360000D01*
X192545000Y-109345000D02*
X192545000Y-114360000D01*
X196075000Y-107890000D02*
X196075000Y-114360000D01*
X192545000Y-109345000D02*
X193111529Y-109345000D01*
X194238471Y-109345000D02*
X194381529Y-109345000D01*
X194435000Y-109291529D02*
X194435000Y-109148471D01*
X194435000Y-108021529D02*
X194435000Y-107890000D01*
X194435000Y-107890000D02*
X194637470Y-107890000D01*
X195252530Y-107890000D02*
X196075000Y-107890000D01*
X192545000Y-108585000D02*
X192545000Y-107825000D01*
X192545000Y-107825000D02*
X193675000Y-107825000D01*
G04 #@! TO.C,J5*
X191075000Y-126480001D02*
X193735000Y-126480001D01*
X191075000Y-121340001D02*
X191075000Y-126480001D01*
X193735000Y-121340001D02*
X193735000Y-126480001D01*
X191075000Y-121340001D02*
X193735000Y-121340001D01*
X191075000Y-120070001D02*
X191075000Y-118740001D01*
X191075000Y-118740001D02*
X192405000Y-118740001D01*
G04 #@! TO.C,J6*
X196890001Y-118740001D02*
X198220001Y-118740001D01*
X196890001Y-120070001D02*
X196890001Y-118740001D01*
X196890001Y-121340001D02*
X199550001Y-121340001D01*
X199550001Y-121340001D02*
X199550001Y-126480001D01*
X196890001Y-121340001D02*
X196890001Y-126480001D01*
X196890001Y-126480001D02*
X199550001Y-126480001D01*
G04 #@! TO.C,R41*
X264688605Y-55978960D02*
X264688605Y-56321494D01*
X265708605Y-55978960D02*
X265708605Y-56321494D01*
G04 #@! TO.C,R42*
X152928605Y-55978960D02*
X152928605Y-56321494D01*
X153948605Y-55978960D02*
X153948605Y-56321494D01*
G04 #@! TO.C,R43*
X237768605Y-57248960D02*
X237768605Y-57591494D01*
X236748605Y-57248960D02*
X236748605Y-57591494D01*
G04 #@! TO.C,R44*
X126008605Y-55103960D02*
X126008605Y-55446494D01*
X124988605Y-55103960D02*
X124988605Y-55446494D01*
G04 #@! TO.C,R45*
X210078605Y-57248960D02*
X210078605Y-57591494D01*
X211098605Y-57248960D02*
X211098605Y-57591494D01*
G04 #@! TO.C,R46*
X97048605Y-57643960D02*
X97048605Y-57986494D01*
X98068605Y-57643960D02*
X98068605Y-57986494D01*
G04 #@! TO.C,R47*
X181888605Y-58123960D02*
X181888605Y-58466494D01*
X180868605Y-58123960D02*
X180868605Y-58466494D01*
G04 #@! TO.C,R48*
X70128605Y-58518960D02*
X70128605Y-58861494D01*
X69108605Y-58518960D02*
X69108605Y-58861494D01*
G04 #@! TO.C,J4*
X36830000Y-43180000D02*
X36830000Y-63500000D01*
X44450000Y-43180000D02*
X44450000Y-63500000D01*
X38100000Y-63500000D02*
X38100000Y-43180000D01*
X36830000Y-63500000D02*
X44450000Y-63500000D01*
X44450000Y-43180000D02*
X36830000Y-43180000D01*
G04 #@! TO.C,J7*
X44450000Y-66040000D02*
X36830000Y-66040000D01*
X36830000Y-86360000D02*
X44450000Y-86360000D01*
X38100000Y-86360000D02*
X38100000Y-66040000D01*
X44450000Y-66040000D02*
X44450000Y-86360000D01*
X36830000Y-66040000D02*
X36830000Y-86360000D01*
G04 #@! TO.C,J1*
X44450000Y-20320000D02*
X36830000Y-20320000D01*
X36830000Y-40640000D02*
X44450000Y-40640000D01*
X38100000Y-40640000D02*
X38100000Y-20320000D01*
X44450000Y-20320000D02*
X44450000Y-40640000D01*
X36830000Y-20320000D02*
X36830000Y-40640000D01*
G04 #@! TO.C,REF\002A\002A*
D10*
X264726666Y-15912380D02*
X264393333Y-15436190D01*
X264155238Y-15912380D02*
X264155238Y-14912380D01*
X264536190Y-14912380D01*
X264631428Y-14960000D01*
X264679047Y-15007619D01*
X264726666Y-15102857D01*
X264726666Y-15245714D01*
X264679047Y-15340952D01*
X264631428Y-15388571D01*
X264536190Y-15436190D01*
X264155238Y-15436190D01*
X265155238Y-15388571D02*
X265488571Y-15388571D01*
X265631428Y-15912380D02*
X265155238Y-15912380D01*
X265155238Y-14912380D01*
X265631428Y-14912380D01*
X266393333Y-15388571D02*
X266060000Y-15388571D01*
X266060000Y-15912380D02*
X266060000Y-14912380D01*
X266536190Y-14912380D01*
X267060000Y-14912380D02*
X267060000Y-15150476D01*
X266821904Y-15055238D02*
X267060000Y-15150476D01*
X267298095Y-15055238D01*
X266917142Y-15340952D02*
X267060000Y-15150476D01*
X267202857Y-15340952D01*
X267821904Y-14912380D02*
X267821904Y-15150476D01*
X267583809Y-15055238D02*
X267821904Y-15150476D01*
X268060000Y-15055238D01*
X267679047Y-15340952D02*
X267821904Y-15150476D01*
X267964761Y-15340952D01*
X236786666Y-15912380D02*
X236453333Y-15436190D01*
X236215238Y-15912380D02*
X236215238Y-14912380D01*
X236596190Y-14912380D01*
X236691428Y-14960000D01*
X236739047Y-15007619D01*
X236786666Y-15102857D01*
X236786666Y-15245714D01*
X236739047Y-15340952D01*
X236691428Y-15388571D01*
X236596190Y-15436190D01*
X236215238Y-15436190D01*
X237215238Y-15388571D02*
X237548571Y-15388571D01*
X237691428Y-15912380D02*
X237215238Y-15912380D01*
X237215238Y-14912380D01*
X237691428Y-14912380D01*
X238453333Y-15388571D02*
X238120000Y-15388571D01*
X238120000Y-15912380D02*
X238120000Y-14912380D01*
X238596190Y-14912380D01*
X239120000Y-14912380D02*
X239120000Y-15150476D01*
X238881904Y-15055238D02*
X239120000Y-15150476D01*
X239358095Y-15055238D01*
X238977142Y-15340952D02*
X239120000Y-15150476D01*
X239262857Y-15340952D01*
X239881904Y-14912380D02*
X239881904Y-15150476D01*
X239643809Y-15055238D02*
X239881904Y-15150476D01*
X240120000Y-15055238D01*
X239739047Y-15340952D02*
X239881904Y-15150476D01*
X240024761Y-15340952D01*
X208846666Y-15912380D02*
X208513333Y-15436190D01*
X208275238Y-15912380D02*
X208275238Y-14912380D01*
X208656190Y-14912380D01*
X208751428Y-14960000D01*
X208799047Y-15007619D01*
X208846666Y-15102857D01*
X208846666Y-15245714D01*
X208799047Y-15340952D01*
X208751428Y-15388571D01*
X208656190Y-15436190D01*
X208275238Y-15436190D01*
X209275238Y-15388571D02*
X209608571Y-15388571D01*
X209751428Y-15912380D02*
X209275238Y-15912380D01*
X209275238Y-14912380D01*
X209751428Y-14912380D01*
X210513333Y-15388571D02*
X210180000Y-15388571D01*
X210180000Y-15912380D02*
X210180000Y-14912380D01*
X210656190Y-14912380D01*
X211180000Y-14912380D02*
X211180000Y-15150476D01*
X210941904Y-15055238D02*
X211180000Y-15150476D01*
X211418095Y-15055238D01*
X211037142Y-15340952D02*
X211180000Y-15150476D01*
X211322857Y-15340952D01*
X211941904Y-14912380D02*
X211941904Y-15150476D01*
X211703809Y-15055238D02*
X211941904Y-15150476D01*
X212180000Y-15055238D01*
X211799047Y-15340952D02*
X211941904Y-15150476D01*
X212084761Y-15340952D01*
X180906666Y-15912380D02*
X180573333Y-15436190D01*
X180335238Y-15912380D02*
X180335238Y-14912380D01*
X180716190Y-14912380D01*
X180811428Y-14960000D01*
X180859047Y-15007619D01*
X180906666Y-15102857D01*
X180906666Y-15245714D01*
X180859047Y-15340952D01*
X180811428Y-15388571D01*
X180716190Y-15436190D01*
X180335238Y-15436190D01*
X181335238Y-15388571D02*
X181668571Y-15388571D01*
X181811428Y-15912380D02*
X181335238Y-15912380D01*
X181335238Y-14912380D01*
X181811428Y-14912380D01*
X182573333Y-15388571D02*
X182240000Y-15388571D01*
X182240000Y-15912380D02*
X182240000Y-14912380D01*
X182716190Y-14912380D01*
X183240000Y-14912380D02*
X183240000Y-15150476D01*
X183001904Y-15055238D02*
X183240000Y-15150476D01*
X183478095Y-15055238D01*
X183097142Y-15340952D02*
X183240000Y-15150476D01*
X183382857Y-15340952D01*
X184001904Y-14912380D02*
X184001904Y-15150476D01*
X183763809Y-15055238D02*
X184001904Y-15150476D01*
X184240000Y-15055238D01*
X183859047Y-15340952D02*
X184001904Y-15150476D01*
X184144761Y-15340952D01*
X152966666Y-15912380D02*
X152633333Y-15436190D01*
X152395238Y-15912380D02*
X152395238Y-14912380D01*
X152776190Y-14912380D01*
X152871428Y-14960000D01*
X152919047Y-15007619D01*
X152966666Y-15102857D01*
X152966666Y-15245714D01*
X152919047Y-15340952D01*
X152871428Y-15388571D01*
X152776190Y-15436190D01*
X152395238Y-15436190D01*
X153395238Y-15388571D02*
X153728571Y-15388571D01*
X153871428Y-15912380D02*
X153395238Y-15912380D01*
X153395238Y-14912380D01*
X153871428Y-14912380D01*
X154633333Y-15388571D02*
X154300000Y-15388571D01*
X154300000Y-15912380D02*
X154300000Y-14912380D01*
X154776190Y-14912380D01*
X155300000Y-14912380D02*
X155300000Y-15150476D01*
X155061904Y-15055238D02*
X155300000Y-15150476D01*
X155538095Y-15055238D01*
X155157142Y-15340952D02*
X155300000Y-15150476D01*
X155442857Y-15340952D01*
X156061904Y-14912380D02*
X156061904Y-15150476D01*
X155823809Y-15055238D02*
X156061904Y-15150476D01*
X156300000Y-15055238D01*
X155919047Y-15340952D02*
X156061904Y-15150476D01*
X156204761Y-15340952D01*
X125026666Y-15912380D02*
X124693333Y-15436190D01*
X124455238Y-15912380D02*
X124455238Y-14912380D01*
X124836190Y-14912380D01*
X124931428Y-14960000D01*
X124979047Y-15007619D01*
X125026666Y-15102857D01*
X125026666Y-15245714D01*
X124979047Y-15340952D01*
X124931428Y-15388571D01*
X124836190Y-15436190D01*
X124455238Y-15436190D01*
X125455238Y-15388571D02*
X125788571Y-15388571D01*
X125931428Y-15912380D02*
X125455238Y-15912380D01*
X125455238Y-14912380D01*
X125931428Y-14912380D01*
X126693333Y-15388571D02*
X126360000Y-15388571D01*
X126360000Y-15912380D02*
X126360000Y-14912380D01*
X126836190Y-14912380D01*
X127360000Y-14912380D02*
X127360000Y-15150476D01*
X127121904Y-15055238D02*
X127360000Y-15150476D01*
X127598095Y-15055238D01*
X127217142Y-15340952D02*
X127360000Y-15150476D01*
X127502857Y-15340952D01*
X128121904Y-14912380D02*
X128121904Y-15150476D01*
X127883809Y-15055238D02*
X128121904Y-15150476D01*
X128360000Y-15055238D01*
X127979047Y-15340952D02*
X128121904Y-15150476D01*
X128264761Y-15340952D01*
X97086666Y-15912380D02*
X96753333Y-15436190D01*
X96515238Y-15912380D02*
X96515238Y-14912380D01*
X96896190Y-14912380D01*
X96991428Y-14960000D01*
X97039047Y-15007619D01*
X97086666Y-15102857D01*
X97086666Y-15245714D01*
X97039047Y-15340952D01*
X96991428Y-15388571D01*
X96896190Y-15436190D01*
X96515238Y-15436190D01*
X97515238Y-15388571D02*
X97848571Y-15388571D01*
X97991428Y-15912380D02*
X97515238Y-15912380D01*
X97515238Y-14912380D01*
X97991428Y-14912380D01*
X98753333Y-15388571D02*
X98420000Y-15388571D01*
X98420000Y-15912380D02*
X98420000Y-14912380D01*
X98896190Y-14912380D01*
X99420000Y-14912380D02*
X99420000Y-15150476D01*
X99181904Y-15055238D02*
X99420000Y-15150476D01*
X99658095Y-15055238D01*
X99277142Y-15340952D02*
X99420000Y-15150476D01*
X99562857Y-15340952D01*
X100181904Y-14912380D02*
X100181904Y-15150476D01*
X99943809Y-15055238D02*
X100181904Y-15150476D01*
X100420000Y-15055238D01*
X100039047Y-15340952D02*
X100181904Y-15150476D01*
X100324761Y-15340952D01*
X264726666Y-95912380D02*
X264393333Y-95436190D01*
X264155238Y-95912380D02*
X264155238Y-94912380D01*
X264536190Y-94912380D01*
X264631428Y-94960000D01*
X264679047Y-95007619D01*
X264726666Y-95102857D01*
X264726666Y-95245714D01*
X264679047Y-95340952D01*
X264631428Y-95388571D01*
X264536190Y-95436190D01*
X264155238Y-95436190D01*
X265155238Y-95388571D02*
X265488571Y-95388571D01*
X265631428Y-95912380D02*
X265155238Y-95912380D01*
X265155238Y-94912380D01*
X265631428Y-94912380D01*
X266393333Y-95388571D02*
X266060000Y-95388571D01*
X266060000Y-95912380D02*
X266060000Y-94912380D01*
X266536190Y-94912380D01*
X267060000Y-94912380D02*
X267060000Y-95150476D01*
X266821904Y-95055238D02*
X267060000Y-95150476D01*
X267298095Y-95055238D01*
X266917142Y-95340952D02*
X267060000Y-95150476D01*
X267202857Y-95340952D01*
X267821904Y-94912380D02*
X267821904Y-95150476D01*
X267583809Y-95055238D02*
X267821904Y-95150476D01*
X268060000Y-95055238D01*
X267679047Y-95340952D02*
X267821904Y-95150476D01*
X267964761Y-95340952D01*
X236786666Y-95912380D02*
X236453333Y-95436190D01*
X236215238Y-95912380D02*
X236215238Y-94912380D01*
X236596190Y-94912380D01*
X236691428Y-94960000D01*
X236739047Y-95007619D01*
X236786666Y-95102857D01*
X236786666Y-95245714D01*
X236739047Y-95340952D01*
X236691428Y-95388571D01*
X236596190Y-95436190D01*
X236215238Y-95436190D01*
X237215238Y-95388571D02*
X237548571Y-95388571D01*
X237691428Y-95912380D02*
X237215238Y-95912380D01*
X237215238Y-94912380D01*
X237691428Y-94912380D01*
X238453333Y-95388571D02*
X238120000Y-95388571D01*
X238120000Y-95912380D02*
X238120000Y-94912380D01*
X238596190Y-94912380D01*
X239120000Y-94912380D02*
X239120000Y-95150476D01*
X238881904Y-95055238D02*
X239120000Y-95150476D01*
X239358095Y-95055238D01*
X238977142Y-95340952D02*
X239120000Y-95150476D01*
X239262857Y-95340952D01*
X239881904Y-94912380D02*
X239881904Y-95150476D01*
X239643809Y-95055238D02*
X239881904Y-95150476D01*
X240120000Y-95055238D01*
X239739047Y-95340952D02*
X239881904Y-95150476D01*
X240024761Y-95340952D01*
X208846666Y-95912380D02*
X208513333Y-95436190D01*
X208275238Y-95912380D02*
X208275238Y-94912380D01*
X208656190Y-94912380D01*
X208751428Y-94960000D01*
X208799047Y-95007619D01*
X208846666Y-95102857D01*
X208846666Y-95245714D01*
X208799047Y-95340952D01*
X208751428Y-95388571D01*
X208656190Y-95436190D01*
X208275238Y-95436190D01*
X209275238Y-95388571D02*
X209608571Y-95388571D01*
X209751428Y-95912380D02*
X209275238Y-95912380D01*
X209275238Y-94912380D01*
X209751428Y-94912380D01*
X210513333Y-95388571D02*
X210180000Y-95388571D01*
X210180000Y-95912380D02*
X210180000Y-94912380D01*
X210656190Y-94912380D01*
X211180000Y-94912380D02*
X211180000Y-95150476D01*
X210941904Y-95055238D02*
X211180000Y-95150476D01*
X211418095Y-95055238D01*
X211037142Y-95340952D02*
X211180000Y-95150476D01*
X211322857Y-95340952D01*
X211941904Y-94912380D02*
X211941904Y-95150476D01*
X211703809Y-95055238D02*
X211941904Y-95150476D01*
X212180000Y-95055238D01*
X211799047Y-95340952D02*
X211941904Y-95150476D01*
X212084761Y-95340952D01*
X180906666Y-95912380D02*
X180573333Y-95436190D01*
X180335238Y-95912380D02*
X180335238Y-94912380D01*
X180716190Y-94912380D01*
X180811428Y-94960000D01*
X180859047Y-95007619D01*
X180906666Y-95102857D01*
X180906666Y-95245714D01*
X180859047Y-95340952D01*
X180811428Y-95388571D01*
X180716190Y-95436190D01*
X180335238Y-95436190D01*
X181335238Y-95388571D02*
X181668571Y-95388571D01*
X181811428Y-95912380D02*
X181335238Y-95912380D01*
X181335238Y-94912380D01*
X181811428Y-94912380D01*
X182573333Y-95388571D02*
X182240000Y-95388571D01*
X182240000Y-95912380D02*
X182240000Y-94912380D01*
X182716190Y-94912380D01*
X183240000Y-94912380D02*
X183240000Y-95150476D01*
X183001904Y-95055238D02*
X183240000Y-95150476D01*
X183478095Y-95055238D01*
X183097142Y-95340952D02*
X183240000Y-95150476D01*
X183382857Y-95340952D01*
X184001904Y-94912380D02*
X184001904Y-95150476D01*
X183763809Y-95055238D02*
X184001904Y-95150476D01*
X184240000Y-95055238D01*
X183859047Y-95340952D02*
X184001904Y-95150476D01*
X184144761Y-95340952D01*
X152966666Y-95912380D02*
X152633333Y-95436190D01*
X152395238Y-95912380D02*
X152395238Y-94912380D01*
X152776190Y-94912380D01*
X152871428Y-94960000D01*
X152919047Y-95007619D01*
X152966666Y-95102857D01*
X152966666Y-95245714D01*
X152919047Y-95340952D01*
X152871428Y-95388571D01*
X152776190Y-95436190D01*
X152395238Y-95436190D01*
X153395238Y-95388571D02*
X153728571Y-95388571D01*
X153871428Y-95912380D02*
X153395238Y-95912380D01*
X153395238Y-94912380D01*
X153871428Y-94912380D01*
X154633333Y-95388571D02*
X154300000Y-95388571D01*
X154300000Y-95912380D02*
X154300000Y-94912380D01*
X154776190Y-94912380D01*
X155300000Y-94912380D02*
X155300000Y-95150476D01*
X155061904Y-95055238D02*
X155300000Y-95150476D01*
X155538095Y-95055238D01*
X155157142Y-95340952D02*
X155300000Y-95150476D01*
X155442857Y-95340952D01*
X156061904Y-94912380D02*
X156061904Y-95150476D01*
X155823809Y-95055238D02*
X156061904Y-95150476D01*
X156300000Y-95055238D01*
X155919047Y-95340952D02*
X156061904Y-95150476D01*
X156204761Y-95340952D01*
X125026666Y-95912380D02*
X124693333Y-95436190D01*
X124455238Y-95912380D02*
X124455238Y-94912380D01*
X124836190Y-94912380D01*
X124931428Y-94960000D01*
X124979047Y-95007619D01*
X125026666Y-95102857D01*
X125026666Y-95245714D01*
X124979047Y-95340952D01*
X124931428Y-95388571D01*
X124836190Y-95436190D01*
X124455238Y-95436190D01*
X125455238Y-95388571D02*
X125788571Y-95388571D01*
X125931428Y-95912380D02*
X125455238Y-95912380D01*
X125455238Y-94912380D01*
X125931428Y-94912380D01*
X126693333Y-95388571D02*
X126360000Y-95388571D01*
X126360000Y-95912380D02*
X126360000Y-94912380D01*
X126836190Y-94912380D01*
X127360000Y-94912380D02*
X127360000Y-95150476D01*
X127121904Y-95055238D02*
X127360000Y-95150476D01*
X127598095Y-95055238D01*
X127217142Y-95340952D02*
X127360000Y-95150476D01*
X127502857Y-95340952D01*
X128121904Y-94912380D02*
X128121904Y-95150476D01*
X127883809Y-95055238D02*
X128121904Y-95150476D01*
X128360000Y-95055238D01*
X127979047Y-95340952D02*
X128121904Y-95150476D01*
X128264761Y-95340952D01*
X97086666Y-95912380D02*
X96753333Y-95436190D01*
X96515238Y-95912380D02*
X96515238Y-94912380D01*
X96896190Y-94912380D01*
X96991428Y-94960000D01*
X97039047Y-95007619D01*
X97086666Y-95102857D01*
X97086666Y-95245714D01*
X97039047Y-95340952D01*
X96991428Y-95388571D01*
X96896190Y-95436190D01*
X96515238Y-95436190D01*
X97515238Y-95388571D02*
X97848571Y-95388571D01*
X97991428Y-95912380D02*
X97515238Y-95912380D01*
X97515238Y-94912380D01*
X97991428Y-94912380D01*
X98753333Y-95388571D02*
X98420000Y-95388571D01*
X98420000Y-95912380D02*
X98420000Y-94912380D01*
X98896190Y-94912380D01*
X99420000Y-94912380D02*
X99420000Y-95150476D01*
X99181904Y-95055238D02*
X99420000Y-95150476D01*
X99658095Y-95055238D01*
X99277142Y-95340952D02*
X99420000Y-95150476D01*
X99562857Y-95340952D01*
X100181904Y-94912380D02*
X100181904Y-95150476D01*
X99943809Y-95055238D02*
X100181904Y-95150476D01*
X100420000Y-95055238D01*
X100039047Y-95340952D02*
X100181904Y-95150476D01*
X100324761Y-95340952D01*
X69146666Y-15912380D02*
X68813333Y-15436190D01*
X68575238Y-15912380D02*
X68575238Y-14912380D01*
X68956190Y-14912380D01*
X69051428Y-14960000D01*
X69099047Y-15007619D01*
X69146666Y-15102857D01*
X69146666Y-15245714D01*
X69099047Y-15340952D01*
X69051428Y-15388571D01*
X68956190Y-15436190D01*
X68575238Y-15436190D01*
X69575238Y-15388571D02*
X69908571Y-15388571D01*
X70051428Y-15912380D02*
X69575238Y-15912380D01*
X69575238Y-14912380D01*
X70051428Y-14912380D01*
X70813333Y-15388571D02*
X70480000Y-15388571D01*
X70480000Y-15912380D02*
X70480000Y-14912380D01*
X70956190Y-14912380D01*
X71480000Y-14912380D02*
X71480000Y-15150476D01*
X71241904Y-15055238D02*
X71480000Y-15150476D01*
X71718095Y-15055238D01*
X71337142Y-15340952D02*
X71480000Y-15150476D01*
X71622857Y-15340952D01*
X72241904Y-14912380D02*
X72241904Y-15150476D01*
X72003809Y-15055238D02*
X72241904Y-15150476D01*
X72480000Y-15055238D01*
X72099047Y-15340952D02*
X72241904Y-15150476D01*
X72384761Y-15340952D01*
G04 #@! TO.C,SW1*
X146644761Y-131648333D02*
X146692380Y-131505476D01*
X146692380Y-131267380D01*
X146644761Y-131172142D01*
X146597142Y-131124523D01*
X146501904Y-131076904D01*
X146406666Y-131076904D01*
X146311428Y-131124523D01*
X146263809Y-131172142D01*
X146216190Y-131267380D01*
X146168571Y-131457857D01*
X146120952Y-131553095D01*
X146073333Y-131600714D01*
X145978095Y-131648333D01*
X145882857Y-131648333D01*
X145787619Y-131600714D01*
X145740000Y-131553095D01*
X145692380Y-131457857D01*
X145692380Y-131219761D01*
X145740000Y-131076904D01*
X145692380Y-130743571D02*
X146692380Y-130505476D01*
X145978095Y-130315000D01*
X146692380Y-130124523D01*
X145692380Y-129886428D01*
X146692380Y-128981666D02*
X146692380Y-129553095D01*
X146692380Y-129267380D02*
X145692380Y-129267380D01*
X145835238Y-129362619D01*
X145930476Y-129457857D01*
X145978095Y-129553095D01*
G04 #@! TO.C,TP1*
X240498096Y-132952381D02*
X241069524Y-132952381D01*
X240783810Y-133952381D02*
X240783810Y-132952381D01*
X241402858Y-133952381D02*
X241402858Y-132952381D01*
X241783810Y-132952381D01*
X241879048Y-133000001D01*
X241926667Y-133047620D01*
X241974286Y-133142858D01*
X241974286Y-133285715D01*
X241926667Y-133380953D01*
X241879048Y-133428572D01*
X241783810Y-133476191D01*
X241402858Y-133476191D01*
X242926667Y-133952381D02*
X242355239Y-133952381D01*
X242640953Y-133952381D02*
X242640953Y-132952381D01*
X242545715Y-133095239D01*
X242450477Y-133190477D01*
X242355239Y-133238096D01*
G04 #@! TO.C,TP2*
X243018096Y-126962381D02*
X243589524Y-126962381D01*
X243303810Y-127962381D02*
X243303810Y-126962381D01*
X243922858Y-127962381D02*
X243922858Y-126962381D01*
X244303810Y-126962381D01*
X244399048Y-127010001D01*
X244446667Y-127057620D01*
X244494286Y-127152858D01*
X244494286Y-127295715D01*
X244446667Y-127390953D01*
X244399048Y-127438572D01*
X244303810Y-127486191D01*
X243922858Y-127486191D01*
X244875239Y-127057620D02*
X244922858Y-127010001D01*
X245018096Y-126962381D01*
X245256191Y-126962381D01*
X245351429Y-127010001D01*
X245399048Y-127057620D01*
X245446667Y-127152858D01*
X245446667Y-127248096D01*
X245399048Y-127390953D01*
X244827620Y-127962381D01*
X245446667Y-127962381D01*
G04 #@! TO.C,TP3*
X243848096Y-116972381D02*
X244419524Y-116972381D01*
X244133810Y-117972381D02*
X244133810Y-116972381D01*
X244752858Y-117972381D02*
X244752858Y-116972381D01*
X245133810Y-116972381D01*
X245229048Y-117020001D01*
X245276667Y-117067620D01*
X245324286Y-117162858D01*
X245324286Y-117305715D01*
X245276667Y-117400953D01*
X245229048Y-117448572D01*
X245133810Y-117496191D01*
X244752858Y-117496191D01*
X245657620Y-116972381D02*
X246276667Y-116972381D01*
X245943334Y-117353334D01*
X246086191Y-117353334D01*
X246181429Y-117400953D01*
X246229048Y-117448572D01*
X246276667Y-117543810D01*
X246276667Y-117781905D01*
X246229048Y-117877143D01*
X246181429Y-117924762D01*
X246086191Y-117972381D01*
X245800477Y-117972381D01*
X245705239Y-117924762D01*
X245657620Y-117877143D01*
G04 #@! TO.C,TP4*
X239598096Y-120422381D02*
X240169524Y-120422381D01*
X239883810Y-121422381D02*
X239883810Y-120422381D01*
X240502858Y-121422381D02*
X240502858Y-120422381D01*
X240883810Y-120422381D01*
X240979048Y-120470001D01*
X241026667Y-120517620D01*
X241074286Y-120612858D01*
X241074286Y-120755715D01*
X241026667Y-120850953D01*
X240979048Y-120898572D01*
X240883810Y-120946191D01*
X240502858Y-120946191D01*
X241931429Y-120755715D02*
X241931429Y-121422381D01*
X241693334Y-120374762D02*
X241455239Y-121089048D01*
X242074286Y-121089048D01*
G04 #@! TO.C,TP5*
X244548096Y-133552381D02*
X245119524Y-133552381D01*
X244833810Y-134552381D02*
X244833810Y-133552381D01*
X245452858Y-134552381D02*
X245452858Y-133552381D01*
X245833810Y-133552381D01*
X245929048Y-133600001D01*
X245976667Y-133647620D01*
X246024286Y-133742858D01*
X246024286Y-133885715D01*
X245976667Y-133980953D01*
X245929048Y-134028572D01*
X245833810Y-134076191D01*
X245452858Y-134076191D01*
X246929048Y-133552381D02*
X246452858Y-133552381D01*
X246405239Y-134028572D01*
X246452858Y-133980953D01*
X246548096Y-133933334D01*
X246786191Y-133933334D01*
X246881429Y-133980953D01*
X246929048Y-134028572D01*
X246976667Y-134123810D01*
X246976667Y-134361905D01*
X246929048Y-134457143D01*
X246881429Y-134504762D01*
X246786191Y-134552381D01*
X246548096Y-134552381D01*
X246452858Y-134504762D01*
X246405239Y-134457143D01*
G04 #@! TO.C,TP6*
X243648096Y-121022381D02*
X244219524Y-121022381D01*
X243933810Y-122022381D02*
X243933810Y-121022381D01*
X244552858Y-122022381D02*
X244552858Y-121022381D01*
X244933810Y-121022381D01*
X245029048Y-121070001D01*
X245076667Y-121117620D01*
X245124286Y-121212858D01*
X245124286Y-121355715D01*
X245076667Y-121450953D01*
X245029048Y-121498572D01*
X244933810Y-121546191D01*
X244552858Y-121546191D01*
X245981429Y-121022381D02*
X245790953Y-121022381D01*
X245695715Y-121070001D01*
X245648096Y-121117620D01*
X245552858Y-121260477D01*
X245505239Y-121450953D01*
X245505239Y-121831905D01*
X245552858Y-121927143D01*
X245600477Y-121974762D01*
X245695715Y-122022381D01*
X245886191Y-122022381D01*
X245981429Y-121974762D01*
X246029048Y-121927143D01*
X246076667Y-121831905D01*
X246076667Y-121593810D01*
X246029048Y-121498572D01*
X245981429Y-121450953D01*
X245886191Y-121403334D01*
X245695715Y-121403334D01*
X245600477Y-121450953D01*
X245552858Y-121498572D01*
X245505239Y-121593810D01*
G04 #@! TO.C,TP7*
X248598096Y-133552381D02*
X249169524Y-133552381D01*
X248883810Y-134552381D02*
X248883810Y-133552381D01*
X249502858Y-134552381D02*
X249502858Y-133552381D01*
X249883810Y-133552381D01*
X249979048Y-133600001D01*
X250026667Y-133647620D01*
X250074286Y-133742858D01*
X250074286Y-133885715D01*
X250026667Y-133980953D01*
X249979048Y-134028572D01*
X249883810Y-134076191D01*
X249502858Y-134076191D01*
X250407620Y-133552381D02*
X251074286Y-133552381D01*
X250645715Y-134552381D01*
G04 #@! TO.C,TP8*
X247898096Y-116972381D02*
X248469524Y-116972381D01*
X248183810Y-117972381D02*
X248183810Y-116972381D01*
X248802858Y-117972381D02*
X248802858Y-116972381D01*
X249183810Y-116972381D01*
X249279048Y-117020001D01*
X249326667Y-117067620D01*
X249374286Y-117162858D01*
X249374286Y-117305715D01*
X249326667Y-117400953D01*
X249279048Y-117448572D01*
X249183810Y-117496191D01*
X248802858Y-117496191D01*
X249945715Y-117400953D02*
X249850477Y-117353334D01*
X249802858Y-117305715D01*
X249755239Y-117210477D01*
X249755239Y-117162858D01*
X249802858Y-117067620D01*
X249850477Y-117020001D01*
X249945715Y-116972381D01*
X250136191Y-116972381D01*
X250231429Y-117020001D01*
X250279048Y-117067620D01*
X250326667Y-117162858D01*
X250326667Y-117210477D01*
X250279048Y-117305715D01*
X250231429Y-117353334D01*
X250136191Y-117400953D01*
X249945715Y-117400953D01*
X249850477Y-117448572D01*
X249802858Y-117496191D01*
X249755239Y-117591429D01*
X249755239Y-117781905D01*
X249802858Y-117877143D01*
X249850477Y-117924762D01*
X249945715Y-117972381D01*
X250136191Y-117972381D01*
X250231429Y-117924762D01*
X250279048Y-117877143D01*
X250326667Y-117781905D01*
X250326667Y-117591429D01*
X250279048Y-117496191D01*
X250231429Y-117448572D01*
X250136191Y-117400953D01*
G04 #@! TO.C,TP9*
X247568096Y-127612381D02*
X248139524Y-127612381D01*
X247853810Y-128612381D02*
X247853810Y-127612381D01*
X248472858Y-128612381D02*
X248472858Y-127612381D01*
X248853810Y-127612381D01*
X248949048Y-127660001D01*
X248996667Y-127707620D01*
X249044286Y-127802858D01*
X249044286Y-127945715D01*
X248996667Y-128040953D01*
X248949048Y-128088572D01*
X248853810Y-128136191D01*
X248472858Y-128136191D01*
X249520477Y-128612381D02*
X249710953Y-128612381D01*
X249806191Y-128564762D01*
X249853810Y-128517143D01*
X249949048Y-128374286D01*
X249996667Y-128183810D01*
X249996667Y-127802858D01*
X249949048Y-127707620D01*
X249901429Y-127660001D01*
X249806191Y-127612381D01*
X249615715Y-127612381D01*
X249520477Y-127660001D01*
X249472858Y-127707620D01*
X249425239Y-127802858D01*
X249425239Y-128040953D01*
X249472858Y-128136191D01*
X249520477Y-128183810D01*
X249615715Y-128231429D01*
X249806191Y-128231429D01*
X249901429Y-128183810D01*
X249949048Y-128136191D01*
X249996667Y-128040953D01*
G04 #@! TO.C,TP10*
X247221905Y-121022381D02*
X247793334Y-121022381D01*
X247507620Y-122022381D02*
X247507620Y-121022381D01*
X248126667Y-122022381D02*
X248126667Y-121022381D01*
X248507620Y-121022381D01*
X248602858Y-121070001D01*
X248650477Y-121117620D01*
X248698096Y-121212858D01*
X248698096Y-121355715D01*
X248650477Y-121450953D01*
X248602858Y-121498572D01*
X248507620Y-121546191D01*
X248126667Y-121546191D01*
X249650477Y-122022381D02*
X249079048Y-122022381D01*
X249364762Y-122022381D02*
X249364762Y-121022381D01*
X249269524Y-121165239D01*
X249174286Y-121260477D01*
X249079048Y-121308096D01*
X250269524Y-121022381D02*
X250364762Y-121022381D01*
X250460001Y-121070001D01*
X250507620Y-121117620D01*
X250555239Y-121212858D01*
X250602858Y-121403334D01*
X250602858Y-121641429D01*
X250555239Y-121831905D01*
X250507620Y-121927143D01*
X250460001Y-121974762D01*
X250364762Y-122022381D01*
X250269524Y-122022381D01*
X250174286Y-121974762D01*
X250126667Y-121927143D01*
X250079048Y-121831905D01*
X250031429Y-121641429D01*
X250031429Y-121403334D01*
X250079048Y-121212858D01*
X250126667Y-121117620D01*
X250174286Y-121070001D01*
X250269524Y-121022381D01*
G04 #@! TO.C,Y1*
X126058809Y-122786190D02*
X126058809Y-123262380D01*
X125725476Y-122262380D02*
X126058809Y-122786190D01*
X126392142Y-122262380D01*
X127249285Y-123262380D02*
X126677857Y-123262380D01*
X126963571Y-123262380D02*
X126963571Y-122262380D01*
X126868333Y-122405238D01*
X126773095Y-122500476D01*
X126677857Y-122548095D01*
G04 #@! TO.C,U3*
X61582380Y-140461904D02*
X62391904Y-140461904D01*
X62487142Y-140414285D01*
X62534761Y-140366666D01*
X62582380Y-140271428D01*
X62582380Y-140080952D01*
X62534761Y-139985714D01*
X62487142Y-139938095D01*
X62391904Y-139890476D01*
X61582380Y-139890476D01*
X61582380Y-139509523D02*
X61582380Y-138890476D01*
X61963333Y-139223809D01*
X61963333Y-139080952D01*
X62010952Y-138985714D01*
X62058571Y-138938095D01*
X62153809Y-138890476D01*
X62391904Y-138890476D01*
X62487142Y-138938095D01*
X62534761Y-138985714D01*
X62582380Y-139080952D01*
X62582380Y-139366666D01*
X62534761Y-139461904D01*
X62487142Y-139509523D01*
G04 #@! TO.C,U5*
X70358095Y-141702380D02*
X70358095Y-142511904D01*
X70405714Y-142607142D01*
X70453333Y-142654761D01*
X70548571Y-142702380D01*
X70739047Y-142702380D01*
X70834285Y-142654761D01*
X70881904Y-142607142D01*
X70929523Y-142511904D01*
X70929523Y-141702380D01*
X71881904Y-141702380D02*
X71405714Y-141702380D01*
X71358095Y-142178571D01*
X71405714Y-142130952D01*
X71500952Y-142083333D01*
X71739047Y-142083333D01*
X71834285Y-142130952D01*
X71881904Y-142178571D01*
X71929523Y-142273809D01*
X71929523Y-142511904D01*
X71881904Y-142607142D01*
X71834285Y-142654761D01*
X71739047Y-142702380D01*
X71500952Y-142702380D01*
X71405714Y-142654761D01*
X71358095Y-142607142D01*
G04 #@! TO.C,C3*
X48847142Y-113676666D02*
X48894761Y-113724285D01*
X48942380Y-113867142D01*
X48942380Y-113962380D01*
X48894761Y-114105238D01*
X48799523Y-114200476D01*
X48704285Y-114248095D01*
X48513809Y-114295714D01*
X48370952Y-114295714D01*
X48180476Y-114248095D01*
X48085238Y-114200476D01*
X47990000Y-114105238D01*
X47942380Y-113962380D01*
X47942380Y-113867142D01*
X47990000Y-113724285D01*
X48037619Y-113676666D01*
X47942380Y-113343333D02*
X47942380Y-112724285D01*
X48323333Y-113057619D01*
X48323333Y-112914761D01*
X48370952Y-112819523D01*
X48418571Y-112771904D01*
X48513809Y-112724285D01*
X48751904Y-112724285D01*
X48847142Y-112771904D01*
X48894761Y-112819523D01*
X48942380Y-112914761D01*
X48942380Y-113200476D01*
X48894761Y-113295714D01*
X48847142Y-113343333D01*
G04 #@! TO.C,C4*
X48847142Y-93356666D02*
X48894761Y-93404285D01*
X48942380Y-93547142D01*
X48942380Y-93642380D01*
X48894761Y-93785238D01*
X48799523Y-93880476D01*
X48704285Y-93928095D01*
X48513809Y-93975714D01*
X48370952Y-93975714D01*
X48180476Y-93928095D01*
X48085238Y-93880476D01*
X47990000Y-93785238D01*
X47942380Y-93642380D01*
X47942380Y-93547142D01*
X47990000Y-93404285D01*
X48037619Y-93356666D01*
X48275714Y-92499523D02*
X48942380Y-92499523D01*
X47894761Y-92737619D02*
X48609047Y-92975714D01*
X48609047Y-92356666D01*
G04 #@! TO.C,C17*
X48787142Y-124312857D02*
X48834761Y-124360476D01*
X48882380Y-124503333D01*
X48882380Y-124598571D01*
X48834761Y-124741428D01*
X48739523Y-124836666D01*
X48644285Y-124884285D01*
X48453809Y-124931904D01*
X48310952Y-124931904D01*
X48120476Y-124884285D01*
X48025238Y-124836666D01*
X47930000Y-124741428D01*
X47882380Y-124598571D01*
X47882380Y-124503333D01*
X47930000Y-124360476D01*
X47977619Y-124312857D01*
X48882380Y-123360476D02*
X48882380Y-123931904D01*
X48882380Y-123646190D02*
X47882380Y-123646190D01*
X48025238Y-123741428D01*
X48120476Y-123836666D01*
X48168095Y-123931904D01*
X47882380Y-123027142D02*
X47882380Y-122360476D01*
X48882380Y-122789047D01*
G04 #@! TO.C,C1*
X59007142Y-123836666D02*
X59054761Y-123884285D01*
X59102380Y-124027142D01*
X59102380Y-124122380D01*
X59054761Y-124265238D01*
X58959523Y-124360476D01*
X58864285Y-124408095D01*
X58673809Y-124455714D01*
X58530952Y-124455714D01*
X58340476Y-124408095D01*
X58245238Y-124360476D01*
X58150000Y-124265238D01*
X58102380Y-124122380D01*
X58102380Y-124027142D01*
X58150000Y-123884285D01*
X58197619Y-123836666D01*
X59102380Y-122884285D02*
X59102380Y-123455714D01*
X59102380Y-123170000D02*
X58102380Y-123170000D01*
X58245238Y-123265238D01*
X58340476Y-123360476D01*
X58388095Y-123455714D01*
G04 #@! TO.C,C2*
X48847142Y-103516666D02*
X48894761Y-103564285D01*
X48942380Y-103707142D01*
X48942380Y-103802380D01*
X48894761Y-103945238D01*
X48799523Y-104040476D01*
X48704285Y-104088095D01*
X48513809Y-104135714D01*
X48370952Y-104135714D01*
X48180476Y-104088095D01*
X48085238Y-104040476D01*
X47990000Y-103945238D01*
X47942380Y-103802380D01*
X47942380Y-103707142D01*
X47990000Y-103564285D01*
X48037619Y-103516666D01*
X48037619Y-103135714D02*
X47990000Y-103088095D01*
X47942380Y-102992857D01*
X47942380Y-102754761D01*
X47990000Y-102659523D01*
X48037619Y-102611904D01*
X48132857Y-102564285D01*
X48228095Y-102564285D01*
X48370952Y-102611904D01*
X48942380Y-103183333D01*
X48942380Y-102564285D01*
G04 #@! TO.C,J2*
X45092380Y-140033333D02*
X45806666Y-140033333D01*
X45949523Y-140080952D01*
X46044761Y-140176190D01*
X46092380Y-140319047D01*
X46092380Y-140414285D01*
X45187619Y-139604761D02*
X45140000Y-139557142D01*
X45092380Y-139461904D01*
X45092380Y-139223809D01*
X45140000Y-139128571D01*
X45187619Y-139080952D01*
X45282857Y-139033333D01*
X45378095Y-139033333D01*
X45520952Y-139080952D01*
X46092380Y-139652380D01*
X46092380Y-139033333D01*
G04 #@! TO.C,D3*
X68476904Y-133717380D02*
X68476904Y-132717380D01*
X68715000Y-132717380D01*
X68857857Y-132765000D01*
X68953095Y-132860238D01*
X69000714Y-132955476D01*
X69048333Y-133145952D01*
X69048333Y-133288809D01*
X69000714Y-133479285D01*
X68953095Y-133574523D01*
X68857857Y-133669761D01*
X68715000Y-133717380D01*
X68476904Y-133717380D01*
X69381666Y-132717380D02*
X70000714Y-132717380D01*
X69667380Y-133098333D01*
X69810238Y-133098333D01*
X69905476Y-133145952D01*
X69953095Y-133193571D01*
X70000714Y-133288809D01*
X70000714Y-133526904D01*
X69953095Y-133622142D01*
X69905476Y-133669761D01*
X69810238Y-133717380D01*
X69524523Y-133717380D01*
X69429285Y-133669761D01*
X69381666Y-133622142D01*
G04 #@! TO.C,D4*
X69211743Y-119913165D02*
X69211743Y-118913165D01*
X69449839Y-118913165D01*
X69592696Y-118960785D01*
X69687934Y-119056023D01*
X69735553Y-119151261D01*
X69783172Y-119341737D01*
X69783172Y-119484594D01*
X69735553Y-119675070D01*
X69687934Y-119770308D01*
X69592696Y-119865546D01*
X69449839Y-119913165D01*
X69211743Y-119913165D01*
X70640315Y-119246499D02*
X70640315Y-119913165D01*
X70402219Y-118865546D02*
X70164124Y-119579832D01*
X70783172Y-119579832D01*
G04 #@! TO.C,R1*
X69603332Y-130257379D02*
X69269999Y-129781189D01*
X69031903Y-130257379D02*
X69031903Y-129257379D01*
X69412856Y-129257379D01*
X69508094Y-129304999D01*
X69555713Y-129352618D01*
X69603332Y-129447856D01*
X69603332Y-129590713D01*
X69555713Y-129685951D01*
X69508094Y-129733570D01*
X69412856Y-129781189D01*
X69031903Y-129781189D01*
X70555713Y-130257379D02*
X69984284Y-130257379D01*
X70269999Y-130257379D02*
X70269999Y-129257379D01*
X70174760Y-129400237D01*
X70079522Y-129495475D01*
X69984284Y-129543094D01*
G04 #@! TO.C,R2*
X69978172Y-122983165D02*
X69644839Y-122506975D01*
X69406743Y-122983165D02*
X69406743Y-121983165D01*
X69787696Y-121983165D01*
X69882934Y-122030785D01*
X69930553Y-122078404D01*
X69978172Y-122173642D01*
X69978172Y-122316499D01*
X69930553Y-122411737D01*
X69882934Y-122459356D01*
X69787696Y-122506975D01*
X69406743Y-122506975D01*
X70359124Y-122078404D02*
X70406743Y-122030785D01*
X70501981Y-121983165D01*
X70740077Y-121983165D01*
X70835315Y-122030785D01*
X70882934Y-122078404D01*
X70930553Y-122173642D01*
X70930553Y-122268880D01*
X70882934Y-122411737D01*
X70311505Y-122983165D01*
X70930553Y-122983165D01*
G04 #@! TO.C,R3*
X137948310Y-131737380D02*
X137614977Y-131261190D01*
X137376881Y-131737380D02*
X137376881Y-130737380D01*
X137757834Y-130737380D01*
X137853072Y-130785000D01*
X137900691Y-130832619D01*
X137948310Y-130927857D01*
X137948310Y-131070714D01*
X137900691Y-131165952D01*
X137853072Y-131213571D01*
X137757834Y-131261190D01*
X137376881Y-131261190D01*
X138281643Y-130737380D02*
X138900691Y-130737380D01*
X138567357Y-131118333D01*
X138710215Y-131118333D01*
X138805453Y-131165952D01*
X138853072Y-131213571D01*
X138900691Y-131308809D01*
X138900691Y-131546904D01*
X138853072Y-131642142D01*
X138805453Y-131689761D01*
X138710215Y-131737380D01*
X138424500Y-131737380D01*
X138329262Y-131689761D01*
X138281643Y-131642142D01*
G04 #@! TO.C,R4*
X137948310Y-132692380D02*
X137614977Y-132216190D01*
X137376881Y-132692380D02*
X137376881Y-131692380D01*
X137757834Y-131692380D01*
X137853072Y-131740000D01*
X137900691Y-131787619D01*
X137948310Y-131882857D01*
X137948310Y-132025714D01*
X137900691Y-132120952D01*
X137853072Y-132168571D01*
X137757834Y-132216190D01*
X137376881Y-132216190D01*
X138805453Y-132025714D02*
X138805453Y-132692380D01*
X138567357Y-131644761D02*
X138329262Y-132359047D01*
X138948310Y-132359047D01*
G04 #@! TO.C,R5*
X121577380Y-125501666D02*
X121101190Y-125835000D01*
X121577380Y-126073095D02*
X120577380Y-126073095D01*
X120577380Y-125692142D01*
X120625000Y-125596904D01*
X120672619Y-125549285D01*
X120767857Y-125501666D01*
X120910714Y-125501666D01*
X121005952Y-125549285D01*
X121053571Y-125596904D01*
X121101190Y-125692142D01*
X121101190Y-126073095D01*
X120577380Y-124596904D02*
X120577380Y-125073095D01*
X121053571Y-125120714D01*
X121005952Y-125073095D01*
X120958333Y-124977857D01*
X120958333Y-124739761D01*
X121005952Y-124644523D01*
X121053571Y-124596904D01*
X121148809Y-124549285D01*
X121386904Y-124549285D01*
X121482142Y-124596904D01*
X121529761Y-124644523D01*
X121577380Y-124739761D01*
X121577380Y-124977857D01*
X121529761Y-125073095D01*
X121482142Y-125120714D01*
G04 #@! TO.C,R6*
X188428333Y-121577380D02*
X188095000Y-121101190D01*
X187856904Y-121577380D02*
X187856904Y-120577380D01*
X188237857Y-120577380D01*
X188333095Y-120625000D01*
X188380714Y-120672619D01*
X188428333Y-120767857D01*
X188428333Y-120910714D01*
X188380714Y-121005952D01*
X188333095Y-121053571D01*
X188237857Y-121101190D01*
X187856904Y-121101190D01*
X189285476Y-120577380D02*
X189095000Y-120577380D01*
X188999761Y-120625000D01*
X188952142Y-120672619D01*
X188856904Y-120815476D01*
X188809285Y-121005952D01*
X188809285Y-121386904D01*
X188856904Y-121482142D01*
X188904523Y-121529761D01*
X188999761Y-121577380D01*
X189190238Y-121577380D01*
X189285476Y-121529761D01*
X189333095Y-121482142D01*
X189380714Y-121386904D01*
X189380714Y-121148809D01*
X189333095Y-121053571D01*
X189285476Y-121005952D01*
X189190238Y-120958333D01*
X188999761Y-120958333D01*
X188904523Y-121005952D01*
X188856904Y-121053571D01*
X188809285Y-121148809D01*
G04 #@! TO.C,R7*
X202398333Y-124437380D02*
X202065000Y-123961190D01*
X201826904Y-124437380D02*
X201826904Y-123437380D01*
X202207857Y-123437380D01*
X202303095Y-123485000D01*
X202350714Y-123532619D01*
X202398333Y-123627857D01*
X202398333Y-123770714D01*
X202350714Y-123865952D01*
X202303095Y-123913571D01*
X202207857Y-123961190D01*
X201826904Y-123961190D01*
X202731666Y-123437380D02*
X203398333Y-123437380D01*
X202969761Y-124437380D01*
G04 #@! TO.C,R8*
X125803333Y-115862380D02*
X125470000Y-115386190D01*
X125231904Y-115862380D02*
X125231904Y-114862380D01*
X125612857Y-114862380D01*
X125708095Y-114910000D01*
X125755714Y-114957619D01*
X125803333Y-115052857D01*
X125803333Y-115195714D01*
X125755714Y-115290952D01*
X125708095Y-115338571D01*
X125612857Y-115386190D01*
X125231904Y-115386190D01*
X126374761Y-115290952D02*
X126279523Y-115243333D01*
X126231904Y-115195714D01*
X126184285Y-115100476D01*
X126184285Y-115052857D01*
X126231904Y-114957619D01*
X126279523Y-114910000D01*
X126374761Y-114862380D01*
X126565238Y-114862380D01*
X126660476Y-114910000D01*
X126708095Y-114957619D01*
X126755714Y-115052857D01*
X126755714Y-115100476D01*
X126708095Y-115195714D01*
X126660476Y-115243333D01*
X126565238Y-115290952D01*
X126374761Y-115290952D01*
X126279523Y-115338571D01*
X126231904Y-115386190D01*
X126184285Y-115481428D01*
X126184285Y-115671904D01*
X126231904Y-115767142D01*
X126279523Y-115814761D01*
X126374761Y-115862380D01*
X126565238Y-115862380D01*
X126660476Y-115814761D01*
X126708095Y-115767142D01*
X126755714Y-115671904D01*
X126755714Y-115481428D01*
X126708095Y-115386190D01*
X126660476Y-115338571D01*
X126565238Y-115290952D01*
G04 #@! TO.C,R9*
X125803333Y-114462381D02*
X125470000Y-113986191D01*
X125231904Y-114462381D02*
X125231904Y-113462381D01*
X125612857Y-113462381D01*
X125708095Y-113510001D01*
X125755714Y-113557620D01*
X125803333Y-113652858D01*
X125803333Y-113795715D01*
X125755714Y-113890953D01*
X125708095Y-113938572D01*
X125612857Y-113986191D01*
X125231904Y-113986191D01*
X126279523Y-114462381D02*
X126470000Y-114462381D01*
X126565238Y-114414762D01*
X126612857Y-114367143D01*
X126708095Y-114224286D01*
X126755714Y-114033810D01*
X126755714Y-113652858D01*
X126708095Y-113557620D01*
X126660476Y-113510001D01*
X126565238Y-113462381D01*
X126374761Y-113462381D01*
X126279523Y-113510001D01*
X126231904Y-113557620D01*
X126184285Y-113652858D01*
X126184285Y-113890953D01*
X126231904Y-113986191D01*
X126279523Y-114033810D01*
X126374761Y-114081429D01*
X126565238Y-114081429D01*
X126660476Y-114033810D01*
X126708095Y-113986191D01*
X126755714Y-113890953D01*
G04 #@! TO.C,R13*
X267080985Y-44968084D02*
X266604795Y-45301417D01*
X267080985Y-45539512D02*
X266080985Y-45539512D01*
X266080985Y-45158560D01*
X266128605Y-45063322D01*
X266176224Y-45015703D01*
X266271462Y-44968084D01*
X266414319Y-44968084D01*
X266509557Y-45015703D01*
X266557176Y-45063322D01*
X266604795Y-45158560D01*
X266604795Y-45539512D01*
X267080985Y-44015703D02*
X267080985Y-44587131D01*
X267080985Y-44301417D02*
X266080985Y-44301417D01*
X266223843Y-44396655D01*
X266319081Y-44491893D01*
X266366700Y-44587131D01*
X266080985Y-43682369D02*
X266080985Y-43063322D01*
X266461938Y-43396655D01*
X266461938Y-43253798D01*
X266509557Y-43158560D01*
X266557176Y-43110941D01*
X266652414Y-43063322D01*
X266890509Y-43063322D01*
X266985747Y-43110941D01*
X267033366Y-43158560D01*
X267080985Y-43253798D01*
X267080985Y-43539512D01*
X267033366Y-43634750D01*
X266985747Y-43682369D01*
G04 #@! TO.C,R14*
X267080985Y-49173084D02*
X266604795Y-49506417D01*
X267080985Y-49744512D02*
X266080985Y-49744512D01*
X266080985Y-49363560D01*
X266128605Y-49268322D01*
X266176224Y-49220703D01*
X266271462Y-49173084D01*
X266414319Y-49173084D01*
X266509557Y-49220703D01*
X266557176Y-49268322D01*
X266604795Y-49363560D01*
X266604795Y-49744512D01*
X267080985Y-48220703D02*
X267080985Y-48792131D01*
X267080985Y-48506417D02*
X266080985Y-48506417D01*
X266223843Y-48601655D01*
X266319081Y-48696893D01*
X266366700Y-48792131D01*
X266414319Y-47363560D02*
X267080985Y-47363560D01*
X266033366Y-47601655D02*
X266747652Y-47839750D01*
X266747652Y-47220703D01*
G04 #@! TO.C,R15*
X267080985Y-52588084D02*
X266604795Y-52921417D01*
X267080985Y-53159512D02*
X266080985Y-53159512D01*
X266080985Y-52778560D01*
X266128605Y-52683322D01*
X266176224Y-52635703D01*
X266271462Y-52588084D01*
X266414319Y-52588084D01*
X266509557Y-52635703D01*
X266557176Y-52683322D01*
X266604795Y-52778560D01*
X266604795Y-53159512D01*
X267080985Y-51635703D02*
X267080985Y-52207131D01*
X267080985Y-51921417D02*
X266080985Y-51921417D01*
X266223843Y-52016655D01*
X266319081Y-52111893D01*
X266366700Y-52207131D01*
X266080985Y-50730941D02*
X266080985Y-51207131D01*
X266557176Y-51254750D01*
X266509557Y-51207131D01*
X266461938Y-51111893D01*
X266461938Y-50873798D01*
X266509557Y-50778560D01*
X266557176Y-50730941D01*
X266652414Y-50683322D01*
X266890509Y-50683322D01*
X266985747Y-50730941D01*
X267033366Y-50778560D01*
X267080985Y-50873798D01*
X267080985Y-51111893D01*
X267033366Y-51207131D01*
X266985747Y-51254750D01*
G04 #@! TO.C,R16*
X239140985Y-54253084D02*
X238664795Y-54586417D01*
X239140985Y-54824512D02*
X238140985Y-54824512D01*
X238140985Y-54443560D01*
X238188605Y-54348322D01*
X238236224Y-54300703D01*
X238331462Y-54253084D01*
X238474319Y-54253084D01*
X238569557Y-54300703D01*
X238617176Y-54348322D01*
X238664795Y-54443560D01*
X238664795Y-54824512D01*
X239140985Y-53300703D02*
X239140985Y-53872131D01*
X239140985Y-53586417D02*
X238140985Y-53586417D01*
X238283843Y-53681655D01*
X238379081Y-53776893D01*
X238426700Y-53872131D01*
X238140985Y-52443560D02*
X238140985Y-52634036D01*
X238188605Y-52729274D01*
X238236224Y-52776893D01*
X238379081Y-52872131D01*
X238569557Y-52919750D01*
X238950509Y-52919750D01*
X239045747Y-52872131D01*
X239093366Y-52824512D01*
X239140985Y-52729274D01*
X239140985Y-52538798D01*
X239093366Y-52443560D01*
X239045747Y-52395941D01*
X238950509Y-52348322D01*
X238712414Y-52348322D01*
X238617176Y-52395941D01*
X238569557Y-52443560D01*
X238521938Y-52538798D01*
X238521938Y-52729274D01*
X238569557Y-52824512D01*
X238617176Y-52872131D01*
X238712414Y-52919750D01*
G04 #@! TO.C,R17*
X239140985Y-50838084D02*
X238664795Y-51171417D01*
X239140985Y-51409512D02*
X238140985Y-51409512D01*
X238140985Y-51028560D01*
X238188605Y-50933322D01*
X238236224Y-50885703D01*
X238331462Y-50838084D01*
X238474319Y-50838084D01*
X238569557Y-50885703D01*
X238617176Y-50933322D01*
X238664795Y-51028560D01*
X238664795Y-51409512D01*
X239140985Y-49885703D02*
X239140985Y-50457131D01*
X239140985Y-50171417D02*
X238140985Y-50171417D01*
X238283843Y-50266655D01*
X238379081Y-50361893D01*
X238426700Y-50457131D01*
X238140985Y-49552369D02*
X238140985Y-48885703D01*
X239140985Y-49314274D01*
G04 #@! TO.C,R18*
X239140985Y-47028084D02*
X238664795Y-47361417D01*
X239140985Y-47599512D02*
X238140985Y-47599512D01*
X238140985Y-47218560D01*
X238188605Y-47123322D01*
X238236224Y-47075703D01*
X238331462Y-47028084D01*
X238474319Y-47028084D01*
X238569557Y-47075703D01*
X238617176Y-47123322D01*
X238664795Y-47218560D01*
X238664795Y-47599512D01*
X239140985Y-46075703D02*
X239140985Y-46647131D01*
X239140985Y-46361417D02*
X238140985Y-46361417D01*
X238283843Y-46456655D01*
X238379081Y-46551893D01*
X238426700Y-46647131D01*
X238569557Y-45504274D02*
X238521938Y-45599512D01*
X238474319Y-45647131D01*
X238379081Y-45694750D01*
X238331462Y-45694750D01*
X238236224Y-45647131D01*
X238188605Y-45599512D01*
X238140985Y-45504274D01*
X238140985Y-45313798D01*
X238188605Y-45218560D01*
X238236224Y-45170941D01*
X238331462Y-45123322D01*
X238379081Y-45123322D01*
X238474319Y-45170941D01*
X238521938Y-45218560D01*
X238569557Y-45313798D01*
X238569557Y-45504274D01*
X238617176Y-45599512D01*
X238664795Y-45647131D01*
X238760033Y-45694750D01*
X238950509Y-45694750D01*
X239045747Y-45647131D01*
X239093366Y-45599512D01*
X239140985Y-45504274D01*
X239140985Y-45313798D01*
X239093366Y-45218560D01*
X239045747Y-45170941D01*
X238950509Y-45123322D01*
X238760033Y-45123322D01*
X238664795Y-45170941D01*
X238617176Y-45218560D01*
X238569557Y-45313798D01*
G04 #@! TO.C,R19*
X212470985Y-50443084D02*
X211994795Y-50776417D01*
X212470985Y-51014512D02*
X211470985Y-51014512D01*
X211470985Y-50633560D01*
X211518605Y-50538322D01*
X211566224Y-50490703D01*
X211661462Y-50443084D01*
X211804319Y-50443084D01*
X211899557Y-50490703D01*
X211947176Y-50538322D01*
X211994795Y-50633560D01*
X211994795Y-51014512D01*
X212470985Y-49490703D02*
X212470985Y-50062131D01*
X212470985Y-49776417D02*
X211470985Y-49776417D01*
X211613843Y-49871655D01*
X211709081Y-49966893D01*
X211756700Y-50062131D01*
X212470985Y-49014512D02*
X212470985Y-48824036D01*
X212423366Y-48728798D01*
X212375747Y-48681179D01*
X212232890Y-48585941D01*
X212042414Y-48538322D01*
X211661462Y-48538322D01*
X211566224Y-48585941D01*
X211518605Y-48633560D01*
X211470985Y-48728798D01*
X211470985Y-48919274D01*
X211518605Y-49014512D01*
X211566224Y-49062131D01*
X211661462Y-49109750D01*
X211899557Y-49109750D01*
X211994795Y-49062131D01*
X212042414Y-49014512D01*
X212090033Y-48919274D01*
X212090033Y-48728798D01*
X212042414Y-48633560D01*
X211994795Y-48585941D01*
X211899557Y-48538322D01*
G04 #@! TO.C,R20*
X212470985Y-46633084D02*
X211994795Y-46966417D01*
X212470985Y-47204512D02*
X211470985Y-47204512D01*
X211470985Y-46823560D01*
X211518605Y-46728322D01*
X211566224Y-46680703D01*
X211661462Y-46633084D01*
X211804319Y-46633084D01*
X211899557Y-46680703D01*
X211947176Y-46728322D01*
X211994795Y-46823560D01*
X211994795Y-47204512D01*
X211566224Y-46252131D02*
X211518605Y-46204512D01*
X211470985Y-46109274D01*
X211470985Y-45871179D01*
X211518605Y-45775941D01*
X211566224Y-45728322D01*
X211661462Y-45680703D01*
X211756700Y-45680703D01*
X211899557Y-45728322D01*
X212470985Y-46299750D01*
X212470985Y-45680703D01*
X211470985Y-45061655D02*
X211470985Y-44966417D01*
X211518605Y-44871179D01*
X211566224Y-44823560D01*
X211661462Y-44775941D01*
X211851938Y-44728322D01*
X212090033Y-44728322D01*
X212280509Y-44775941D01*
X212375747Y-44823560D01*
X212423366Y-44871179D01*
X212470985Y-44966417D01*
X212470985Y-45061655D01*
X212423366Y-45156893D01*
X212375747Y-45204512D01*
X212280509Y-45252131D01*
X212090033Y-45299750D01*
X211851938Y-45299750D01*
X211661462Y-45252131D01*
X211566224Y-45204512D01*
X211518605Y-45156893D01*
X211470985Y-45061655D01*
G04 #@! TO.C,R21*
X212470985Y-54253084D02*
X211994795Y-54586417D01*
X212470985Y-54824512D02*
X211470985Y-54824512D01*
X211470985Y-54443560D01*
X211518605Y-54348322D01*
X211566224Y-54300703D01*
X211661462Y-54253084D01*
X211804319Y-54253084D01*
X211899557Y-54300703D01*
X211947176Y-54348322D01*
X211994795Y-54443560D01*
X211994795Y-54824512D01*
X211566224Y-53872131D02*
X211518605Y-53824512D01*
X211470985Y-53729274D01*
X211470985Y-53491179D01*
X211518605Y-53395941D01*
X211566224Y-53348322D01*
X211661462Y-53300703D01*
X211756700Y-53300703D01*
X211899557Y-53348322D01*
X212470985Y-53919750D01*
X212470985Y-53300703D01*
X212470985Y-52348322D02*
X212470985Y-52919750D01*
X212470985Y-52634036D02*
X211470985Y-52634036D01*
X211613843Y-52729274D01*
X211709081Y-52824512D01*
X211756700Y-52919750D01*
G04 #@! TO.C,R22*
X183260985Y-46633084D02*
X182784795Y-46966417D01*
X183260985Y-47204512D02*
X182260985Y-47204512D01*
X182260985Y-46823560D01*
X182308605Y-46728322D01*
X182356224Y-46680703D01*
X182451462Y-46633084D01*
X182594319Y-46633084D01*
X182689557Y-46680703D01*
X182737176Y-46728322D01*
X182784795Y-46823560D01*
X182784795Y-47204512D01*
X182356224Y-46252131D02*
X182308605Y-46204512D01*
X182260985Y-46109274D01*
X182260985Y-45871179D01*
X182308605Y-45775941D01*
X182356224Y-45728322D01*
X182451462Y-45680703D01*
X182546700Y-45680703D01*
X182689557Y-45728322D01*
X183260985Y-46299750D01*
X183260985Y-45680703D01*
X182356224Y-45299750D02*
X182308605Y-45252131D01*
X182260985Y-45156893D01*
X182260985Y-44918798D01*
X182308605Y-44823560D01*
X182356224Y-44775941D01*
X182451462Y-44728322D01*
X182546700Y-44728322D01*
X182689557Y-44775941D01*
X183260985Y-45347369D01*
X183260985Y-44728322D01*
G04 #@! TO.C,R23*
X183260985Y-50443084D02*
X182784795Y-50776417D01*
X183260985Y-51014512D02*
X182260985Y-51014512D01*
X182260985Y-50633560D01*
X182308605Y-50538322D01*
X182356224Y-50490703D01*
X182451462Y-50443084D01*
X182594319Y-50443084D01*
X182689557Y-50490703D01*
X182737176Y-50538322D01*
X182784795Y-50633560D01*
X182784795Y-51014512D01*
X182356224Y-50062131D02*
X182308605Y-50014512D01*
X182260985Y-49919274D01*
X182260985Y-49681179D01*
X182308605Y-49585941D01*
X182356224Y-49538322D01*
X182451462Y-49490703D01*
X182546700Y-49490703D01*
X182689557Y-49538322D01*
X183260985Y-50109750D01*
X183260985Y-49490703D01*
X182260985Y-49157369D02*
X182260985Y-48538322D01*
X182641938Y-48871655D01*
X182641938Y-48728798D01*
X182689557Y-48633560D01*
X182737176Y-48585941D01*
X182832414Y-48538322D01*
X183070509Y-48538322D01*
X183165747Y-48585941D01*
X183213366Y-48633560D01*
X183260985Y-48728798D01*
X183260985Y-49014512D01*
X183213366Y-49109750D01*
X183165747Y-49157369D01*
G04 #@! TO.C,R24*
X183260985Y-54648084D02*
X182784795Y-54981417D01*
X183260985Y-55219512D02*
X182260985Y-55219512D01*
X182260985Y-54838560D01*
X182308605Y-54743322D01*
X182356224Y-54695703D01*
X182451462Y-54648084D01*
X182594319Y-54648084D01*
X182689557Y-54695703D01*
X182737176Y-54743322D01*
X182784795Y-54838560D01*
X182784795Y-55219512D01*
X182356224Y-54267131D02*
X182308605Y-54219512D01*
X182260985Y-54124274D01*
X182260985Y-53886179D01*
X182308605Y-53790941D01*
X182356224Y-53743322D01*
X182451462Y-53695703D01*
X182546700Y-53695703D01*
X182689557Y-53743322D01*
X183260985Y-54314750D01*
X183260985Y-53695703D01*
X182594319Y-52838560D02*
X183260985Y-52838560D01*
X182213366Y-53076655D02*
X182927652Y-53314750D01*
X182927652Y-52695703D01*
G04 #@! TO.C,R25*
X62207380Y-131057857D02*
X61731190Y-131391190D01*
X62207380Y-131629285D02*
X61207380Y-131629285D01*
X61207380Y-131248333D01*
X61255000Y-131153095D01*
X61302619Y-131105476D01*
X61397857Y-131057857D01*
X61540714Y-131057857D01*
X61635952Y-131105476D01*
X61683571Y-131153095D01*
X61731190Y-131248333D01*
X61731190Y-131629285D01*
X61302619Y-130676904D02*
X61255000Y-130629285D01*
X61207380Y-130534047D01*
X61207380Y-130295952D01*
X61255000Y-130200714D01*
X61302619Y-130153095D01*
X61397857Y-130105476D01*
X61493095Y-130105476D01*
X61635952Y-130153095D01*
X62207380Y-130724523D01*
X62207380Y-130105476D01*
X61207380Y-129200714D02*
X61207380Y-129676904D01*
X61683571Y-129724523D01*
X61635952Y-129676904D01*
X61588333Y-129581666D01*
X61588333Y-129343571D01*
X61635952Y-129248333D01*
X61683571Y-129200714D01*
X61778809Y-129153095D01*
X62016904Y-129153095D01*
X62112142Y-129200714D01*
X62159761Y-129248333D01*
X62207380Y-129343571D01*
X62207380Y-129581666D01*
X62159761Y-129676904D01*
X62112142Y-129724523D01*
G04 #@! TO.C,R26*
X58397380Y-131057857D02*
X57921190Y-131391190D01*
X58397380Y-131629285D02*
X57397380Y-131629285D01*
X57397380Y-131248333D01*
X57445000Y-131153095D01*
X57492619Y-131105476D01*
X57587857Y-131057857D01*
X57730714Y-131057857D01*
X57825952Y-131105476D01*
X57873571Y-131153095D01*
X57921190Y-131248333D01*
X57921190Y-131629285D01*
X57492619Y-130676904D02*
X57445000Y-130629285D01*
X57397380Y-130534047D01*
X57397380Y-130295952D01*
X57445000Y-130200714D01*
X57492619Y-130153095D01*
X57587857Y-130105476D01*
X57683095Y-130105476D01*
X57825952Y-130153095D01*
X58397380Y-130724523D01*
X58397380Y-130105476D01*
X57397380Y-129248333D02*
X57397380Y-129438809D01*
X57445000Y-129534047D01*
X57492619Y-129581666D01*
X57635476Y-129676904D01*
X57825952Y-129724523D01*
X58206904Y-129724523D01*
X58302142Y-129676904D01*
X58349761Y-129629285D01*
X58397380Y-129534047D01*
X58397380Y-129343571D01*
X58349761Y-129248333D01*
X58302142Y-129200714D01*
X58206904Y-129153095D01*
X57968809Y-129153095D01*
X57873571Y-129200714D01*
X57825952Y-129248333D01*
X57778333Y-129343571D01*
X57778333Y-129534047D01*
X57825952Y-129629285D01*
X57873571Y-129676904D01*
X57968809Y-129724523D01*
G04 #@! TO.C,R27*
X57442380Y-131057857D02*
X56966190Y-131391190D01*
X57442380Y-131629285D02*
X56442380Y-131629285D01*
X56442380Y-131248333D01*
X56490000Y-131153095D01*
X56537619Y-131105476D01*
X56632857Y-131057857D01*
X56775714Y-131057857D01*
X56870952Y-131105476D01*
X56918571Y-131153095D01*
X56966190Y-131248333D01*
X56966190Y-131629285D01*
X56537619Y-130676904D02*
X56490000Y-130629285D01*
X56442380Y-130534047D01*
X56442380Y-130295952D01*
X56490000Y-130200714D01*
X56537619Y-130153095D01*
X56632857Y-130105476D01*
X56728095Y-130105476D01*
X56870952Y-130153095D01*
X57442380Y-130724523D01*
X57442380Y-130105476D01*
X56442380Y-129772142D02*
X56442380Y-129105476D01*
X57442380Y-129534047D01*
G04 #@! TO.C,R28*
X53632380Y-131057857D02*
X53156190Y-131391190D01*
X53632380Y-131629285D02*
X52632380Y-131629285D01*
X52632380Y-131248333D01*
X52680000Y-131153095D01*
X52727619Y-131105476D01*
X52822857Y-131057857D01*
X52965714Y-131057857D01*
X53060952Y-131105476D01*
X53108571Y-131153095D01*
X53156190Y-131248333D01*
X53156190Y-131629285D01*
X52727619Y-130676904D02*
X52680000Y-130629285D01*
X52632380Y-130534047D01*
X52632380Y-130295952D01*
X52680000Y-130200714D01*
X52727619Y-130153095D01*
X52822857Y-130105476D01*
X52918095Y-130105476D01*
X53060952Y-130153095D01*
X53632380Y-130724523D01*
X53632380Y-130105476D01*
X53060952Y-129534047D02*
X53013333Y-129629285D01*
X52965714Y-129676904D01*
X52870476Y-129724523D01*
X52822857Y-129724523D01*
X52727619Y-129676904D01*
X52680000Y-129629285D01*
X52632380Y-129534047D01*
X52632380Y-129343571D01*
X52680000Y-129248333D01*
X52727619Y-129200714D01*
X52822857Y-129153095D01*
X52870476Y-129153095D01*
X52965714Y-129200714D01*
X53013333Y-129248333D01*
X53060952Y-129343571D01*
X53060952Y-129534047D01*
X53108571Y-129629285D01*
X53156190Y-129676904D01*
X53251428Y-129724523D01*
X53441904Y-129724523D01*
X53537142Y-129676904D01*
X53584761Y-129629285D01*
X53632380Y-129534047D01*
X53632380Y-129343571D01*
X53584761Y-129248333D01*
X53537142Y-129200714D01*
X53441904Y-129153095D01*
X53251428Y-129153095D01*
X53156190Y-129200714D01*
X53108571Y-129248333D01*
X53060952Y-129343571D01*
G04 #@! TO.C,U4*
X156687252Y-114584748D02*
X157259672Y-115157168D01*
X157360687Y-115190840D01*
X157428031Y-115190840D01*
X157529046Y-115157168D01*
X157663733Y-115022481D01*
X157697405Y-114921466D01*
X157697405Y-114854122D01*
X157663733Y-114753107D01*
X157091313Y-114180687D01*
X157966779Y-113776626D02*
X158438183Y-114248031D01*
X157529046Y-113675611D02*
X157865764Y-114349046D01*
X158303496Y-113911313D01*
G04 #@! TO.C,R29*
X155320985Y-45363084D02*
X154844795Y-45696417D01*
X155320985Y-45934512D02*
X154320985Y-45934512D01*
X154320985Y-45553560D01*
X154368605Y-45458322D01*
X154416224Y-45410703D01*
X154511462Y-45363084D01*
X154654319Y-45363084D01*
X154749557Y-45410703D01*
X154797176Y-45458322D01*
X154844795Y-45553560D01*
X154844795Y-45934512D01*
X154416224Y-44982131D02*
X154368605Y-44934512D01*
X154320985Y-44839274D01*
X154320985Y-44601179D01*
X154368605Y-44505941D01*
X154416224Y-44458322D01*
X154511462Y-44410703D01*
X154606700Y-44410703D01*
X154749557Y-44458322D01*
X155320985Y-45029750D01*
X155320985Y-44410703D01*
X155320985Y-43934512D02*
X155320985Y-43744036D01*
X155273366Y-43648798D01*
X155225747Y-43601179D01*
X155082890Y-43505941D01*
X154892414Y-43458322D01*
X154511462Y-43458322D01*
X154416224Y-43505941D01*
X154368605Y-43553560D01*
X154320985Y-43648798D01*
X154320985Y-43839274D01*
X154368605Y-43934512D01*
X154416224Y-43982131D01*
X154511462Y-44029750D01*
X154749557Y-44029750D01*
X154844795Y-43982131D01*
X154892414Y-43934512D01*
X154940033Y-43839274D01*
X154940033Y-43648798D01*
X154892414Y-43553560D01*
X154844795Y-43505941D01*
X154749557Y-43458322D01*
G04 #@! TO.C,R30*
X155335984Y-49173084D02*
X154859794Y-49506417D01*
X155335984Y-49744512D02*
X154335984Y-49744512D01*
X154335984Y-49363560D01*
X154383604Y-49268322D01*
X154431223Y-49220703D01*
X154526461Y-49173084D01*
X154669318Y-49173084D01*
X154764556Y-49220703D01*
X154812175Y-49268322D01*
X154859794Y-49363560D01*
X154859794Y-49744512D01*
X154335984Y-48839750D02*
X154335984Y-48220703D01*
X154716937Y-48554036D01*
X154716937Y-48411179D01*
X154764556Y-48315941D01*
X154812175Y-48268322D01*
X154907413Y-48220703D01*
X155145508Y-48220703D01*
X155240746Y-48268322D01*
X155288365Y-48315941D01*
X155335984Y-48411179D01*
X155335984Y-48696893D01*
X155288365Y-48792131D01*
X155240746Y-48839750D01*
X154335984Y-47601655D02*
X154335984Y-47506417D01*
X154383604Y-47411179D01*
X154431223Y-47363560D01*
X154526461Y-47315941D01*
X154716937Y-47268322D01*
X154955032Y-47268322D01*
X155145508Y-47315941D01*
X155240746Y-47363560D01*
X155288365Y-47411179D01*
X155335984Y-47506417D01*
X155335984Y-47601655D01*
X155288365Y-47696893D01*
X155240746Y-47744512D01*
X155145508Y-47792131D01*
X154955032Y-47839750D01*
X154716937Y-47839750D01*
X154526461Y-47792131D01*
X154431223Y-47744512D01*
X154383604Y-47696893D01*
X154335984Y-47601655D01*
G04 #@! TO.C,R31*
X155335984Y-52983084D02*
X154859794Y-53316417D01*
X155335984Y-53554512D02*
X154335984Y-53554512D01*
X154335984Y-53173560D01*
X154383604Y-53078322D01*
X154431223Y-53030703D01*
X154526461Y-52983084D01*
X154669318Y-52983084D01*
X154764556Y-53030703D01*
X154812175Y-53078322D01*
X154859794Y-53173560D01*
X154859794Y-53554512D01*
X154335984Y-52649750D02*
X154335984Y-52030703D01*
X154716937Y-52364036D01*
X154716937Y-52221179D01*
X154764556Y-52125941D01*
X154812175Y-52078322D01*
X154907413Y-52030703D01*
X155145508Y-52030703D01*
X155240746Y-52078322D01*
X155288365Y-52125941D01*
X155335984Y-52221179D01*
X155335984Y-52506893D01*
X155288365Y-52602131D01*
X155240746Y-52649750D01*
X155335984Y-51078322D02*
X155335984Y-51649750D01*
X155335984Y-51364036D02*
X154335984Y-51364036D01*
X154478842Y-51459274D01*
X154574080Y-51554512D01*
X154621699Y-51649750D01*
G04 #@! TO.C,R32*
X127380985Y-44488084D02*
X126904795Y-44821417D01*
X127380985Y-45059512D02*
X126380985Y-45059512D01*
X126380985Y-44678560D01*
X126428605Y-44583322D01*
X126476224Y-44535703D01*
X126571462Y-44488084D01*
X126714319Y-44488084D01*
X126809557Y-44535703D01*
X126857176Y-44583322D01*
X126904795Y-44678560D01*
X126904795Y-45059512D01*
X126380985Y-44154750D02*
X126380985Y-43535703D01*
X126761938Y-43869036D01*
X126761938Y-43726179D01*
X126809557Y-43630941D01*
X126857176Y-43583322D01*
X126952414Y-43535703D01*
X127190509Y-43535703D01*
X127285747Y-43583322D01*
X127333366Y-43630941D01*
X127380985Y-43726179D01*
X127380985Y-44011893D01*
X127333366Y-44107131D01*
X127285747Y-44154750D01*
X126476224Y-43154750D02*
X126428605Y-43107131D01*
X126380985Y-43011893D01*
X126380985Y-42773798D01*
X126428605Y-42678560D01*
X126476224Y-42630941D01*
X126571462Y-42583322D01*
X126666700Y-42583322D01*
X126809557Y-42630941D01*
X127380985Y-43202369D01*
X127380985Y-42583322D01*
G04 #@! TO.C,R33*
X127380985Y-48298084D02*
X126904795Y-48631417D01*
X127380985Y-48869512D02*
X126380985Y-48869512D01*
X126380985Y-48488560D01*
X126428605Y-48393322D01*
X126476224Y-48345703D01*
X126571462Y-48298084D01*
X126714319Y-48298084D01*
X126809557Y-48345703D01*
X126857176Y-48393322D01*
X126904795Y-48488560D01*
X126904795Y-48869512D01*
X126380985Y-47964750D02*
X126380985Y-47345703D01*
X126761938Y-47679036D01*
X126761938Y-47536179D01*
X126809557Y-47440941D01*
X126857176Y-47393322D01*
X126952414Y-47345703D01*
X127190509Y-47345703D01*
X127285747Y-47393322D01*
X127333366Y-47440941D01*
X127380985Y-47536179D01*
X127380985Y-47821893D01*
X127333366Y-47917131D01*
X127285747Y-47964750D01*
X126380985Y-47012369D02*
X126380985Y-46393322D01*
X126761938Y-46726655D01*
X126761938Y-46583798D01*
X126809557Y-46488560D01*
X126857176Y-46440941D01*
X126952414Y-46393322D01*
X127190509Y-46393322D01*
X127285747Y-46440941D01*
X127333366Y-46488560D01*
X127380985Y-46583798D01*
X127380985Y-46869512D01*
X127333366Y-46964750D01*
X127285747Y-47012369D01*
G04 #@! TO.C,R34*
X127380985Y-52258085D02*
X126904795Y-52591418D01*
X127380985Y-52829513D02*
X126380985Y-52829513D01*
X126380985Y-52448561D01*
X126428605Y-52353323D01*
X126476224Y-52305704D01*
X126571462Y-52258085D01*
X126714319Y-52258085D01*
X126809557Y-52305704D01*
X126857176Y-52353323D01*
X126904795Y-52448561D01*
X126904795Y-52829513D01*
X126380985Y-51924751D02*
X126380985Y-51305704D01*
X126761938Y-51639037D01*
X126761938Y-51496180D01*
X126809557Y-51400942D01*
X126857176Y-51353323D01*
X126952414Y-51305704D01*
X127190509Y-51305704D01*
X127285747Y-51353323D01*
X127333366Y-51400942D01*
X127380985Y-51496180D01*
X127380985Y-51781894D01*
X127333366Y-51877132D01*
X127285747Y-51924751D01*
X126714319Y-50448561D02*
X127380985Y-50448561D01*
X126333366Y-50686656D02*
X127047652Y-50924751D01*
X127047652Y-50305704D01*
G04 #@! TO.C,R35*
X99455984Y-47988085D02*
X98979794Y-48321418D01*
X99455984Y-48559513D02*
X98455984Y-48559513D01*
X98455984Y-48178561D01*
X98503604Y-48083323D01*
X98551223Y-48035704D01*
X98646461Y-47988085D01*
X98789318Y-47988085D01*
X98884556Y-48035704D01*
X98932175Y-48083323D01*
X98979794Y-48178561D01*
X98979794Y-48559513D01*
X98455984Y-47654751D02*
X98455984Y-47035704D01*
X98836937Y-47369037D01*
X98836937Y-47226180D01*
X98884556Y-47130942D01*
X98932175Y-47083323D01*
X99027413Y-47035704D01*
X99265508Y-47035704D01*
X99360746Y-47083323D01*
X99408365Y-47130942D01*
X99455984Y-47226180D01*
X99455984Y-47511894D01*
X99408365Y-47607132D01*
X99360746Y-47654751D01*
X98455984Y-46130942D02*
X98455984Y-46607132D01*
X98932175Y-46654751D01*
X98884556Y-46607132D01*
X98836937Y-46511894D01*
X98836937Y-46273799D01*
X98884556Y-46178561D01*
X98932175Y-46130942D01*
X99027413Y-46083323D01*
X99265508Y-46083323D01*
X99360746Y-46130942D01*
X99408365Y-46178561D01*
X99455984Y-46273799D01*
X99455984Y-46511894D01*
X99408365Y-46607132D01*
X99360746Y-46654751D01*
G04 #@! TO.C,R36*
X99455984Y-51338085D02*
X98979794Y-51671418D01*
X99455984Y-51909513D02*
X98455984Y-51909513D01*
X98455984Y-51528561D01*
X98503604Y-51433323D01*
X98551223Y-51385704D01*
X98646461Y-51338085D01*
X98789318Y-51338085D01*
X98884556Y-51385704D01*
X98932175Y-51433323D01*
X98979794Y-51528561D01*
X98979794Y-51909513D01*
X98455984Y-51004751D02*
X98455984Y-50385704D01*
X98836937Y-50719037D01*
X98836937Y-50576180D01*
X98884556Y-50480942D01*
X98932175Y-50433323D01*
X99027413Y-50385704D01*
X99265508Y-50385704D01*
X99360746Y-50433323D01*
X99408365Y-50480942D01*
X99455984Y-50576180D01*
X99455984Y-50861894D01*
X99408365Y-50957132D01*
X99360746Y-51004751D01*
X98455984Y-49528561D02*
X98455984Y-49719037D01*
X98503604Y-49814275D01*
X98551223Y-49861894D01*
X98694080Y-49957132D01*
X98884556Y-50004751D01*
X99265508Y-50004751D01*
X99360746Y-49957132D01*
X99408365Y-49909513D01*
X99455984Y-49814275D01*
X99455984Y-49623799D01*
X99408365Y-49528561D01*
X99360746Y-49480942D01*
X99265508Y-49433323D01*
X99027413Y-49433323D01*
X98932175Y-49480942D01*
X98884556Y-49528561D01*
X98836937Y-49623799D01*
X98836937Y-49814275D01*
X98884556Y-49909513D01*
X98932175Y-49957132D01*
X99027413Y-50004751D01*
G04 #@! TO.C,R37*
X99455984Y-54688085D02*
X98979794Y-55021418D01*
X99455984Y-55259513D02*
X98455984Y-55259513D01*
X98455984Y-54878561D01*
X98503604Y-54783323D01*
X98551223Y-54735704D01*
X98646461Y-54688085D01*
X98789318Y-54688085D01*
X98884556Y-54735704D01*
X98932175Y-54783323D01*
X98979794Y-54878561D01*
X98979794Y-55259513D01*
X98455984Y-54354751D02*
X98455984Y-53735704D01*
X98836937Y-54069037D01*
X98836937Y-53926180D01*
X98884556Y-53830942D01*
X98932175Y-53783323D01*
X99027413Y-53735704D01*
X99265508Y-53735704D01*
X99360746Y-53783323D01*
X99408365Y-53830942D01*
X99455984Y-53926180D01*
X99455984Y-54211894D01*
X99408365Y-54307132D01*
X99360746Y-54354751D01*
X98455984Y-53402370D02*
X98455984Y-52735704D01*
X99455984Y-53164275D01*
G04 #@! TO.C,R38*
X71500985Y-48298084D02*
X71024795Y-48631417D01*
X71500985Y-48869512D02*
X70500985Y-48869512D01*
X70500985Y-48488560D01*
X70548605Y-48393322D01*
X70596224Y-48345703D01*
X70691462Y-48298084D01*
X70834319Y-48298084D01*
X70929557Y-48345703D01*
X70977176Y-48393322D01*
X71024795Y-48488560D01*
X71024795Y-48869512D01*
X70500985Y-47964750D02*
X70500985Y-47345703D01*
X70881938Y-47679036D01*
X70881938Y-47536179D01*
X70929557Y-47440941D01*
X70977176Y-47393322D01*
X71072414Y-47345703D01*
X71310509Y-47345703D01*
X71405747Y-47393322D01*
X71453366Y-47440941D01*
X71500985Y-47536179D01*
X71500985Y-47821893D01*
X71453366Y-47917131D01*
X71405747Y-47964750D01*
X70929557Y-46774274D02*
X70881938Y-46869512D01*
X70834319Y-46917131D01*
X70739081Y-46964750D01*
X70691462Y-46964750D01*
X70596224Y-46917131D01*
X70548605Y-46869512D01*
X70500985Y-46774274D01*
X70500985Y-46583798D01*
X70548605Y-46488560D01*
X70596224Y-46440941D01*
X70691462Y-46393322D01*
X70739081Y-46393322D01*
X70834319Y-46440941D01*
X70881938Y-46488560D01*
X70929557Y-46583798D01*
X70929557Y-46774274D01*
X70977176Y-46869512D01*
X71024795Y-46917131D01*
X71120033Y-46964750D01*
X71310509Y-46964750D01*
X71405747Y-46917131D01*
X71453366Y-46869512D01*
X71500985Y-46774274D01*
X71500985Y-46583798D01*
X71453366Y-46488560D01*
X71405747Y-46440941D01*
X71310509Y-46393322D01*
X71120033Y-46393322D01*
X71024795Y-46440941D01*
X70977176Y-46488560D01*
X70929557Y-46583798D01*
G04 #@! TO.C,R39*
X71500985Y-52108084D02*
X71024795Y-52441417D01*
X71500985Y-52679512D02*
X70500985Y-52679512D01*
X70500985Y-52298560D01*
X70548605Y-52203322D01*
X70596224Y-52155703D01*
X70691462Y-52108084D01*
X70834319Y-52108084D01*
X70929557Y-52155703D01*
X70977176Y-52203322D01*
X71024795Y-52298560D01*
X71024795Y-52679512D01*
X70500985Y-51774750D02*
X70500985Y-51155703D01*
X70881938Y-51489036D01*
X70881938Y-51346179D01*
X70929557Y-51250941D01*
X70977176Y-51203322D01*
X71072414Y-51155703D01*
X71310509Y-51155703D01*
X71405747Y-51203322D01*
X71453366Y-51250941D01*
X71500985Y-51346179D01*
X71500985Y-51631893D01*
X71453366Y-51727131D01*
X71405747Y-51774750D01*
X71500985Y-50679512D02*
X71500985Y-50489036D01*
X71453366Y-50393798D01*
X71405747Y-50346179D01*
X71262890Y-50250941D01*
X71072414Y-50203322D01*
X70691462Y-50203322D01*
X70596224Y-50250941D01*
X70548605Y-50298560D01*
X70500985Y-50393798D01*
X70500985Y-50584274D01*
X70548605Y-50679512D01*
X70596224Y-50727131D01*
X70691462Y-50774750D01*
X70929557Y-50774750D01*
X71024795Y-50727131D01*
X71072414Y-50679512D01*
X71120033Y-50584274D01*
X71120033Y-50393798D01*
X71072414Y-50298560D01*
X71024795Y-50250941D01*
X70929557Y-50203322D01*
G04 #@! TO.C,R40*
X71500985Y-55523084D02*
X71024795Y-55856417D01*
X71500985Y-56094512D02*
X70500985Y-56094512D01*
X70500985Y-55713560D01*
X70548605Y-55618322D01*
X70596224Y-55570703D01*
X70691462Y-55523084D01*
X70834319Y-55523084D01*
X70929557Y-55570703D01*
X70977176Y-55618322D01*
X71024795Y-55713560D01*
X71024795Y-56094512D01*
X70834319Y-54665941D02*
X71500985Y-54665941D01*
X70453366Y-54904036D02*
X71167652Y-55142131D01*
X71167652Y-54523084D01*
X70500985Y-53951655D02*
X70500985Y-53856417D01*
X70548605Y-53761179D01*
X70596224Y-53713560D01*
X70691462Y-53665941D01*
X70881938Y-53618322D01*
X71120033Y-53618322D01*
X71310509Y-53665941D01*
X71405747Y-53713560D01*
X71453366Y-53761179D01*
X71500985Y-53856417D01*
X71500985Y-53951655D01*
X71453366Y-54046893D01*
X71405747Y-54094512D01*
X71310509Y-54142131D01*
X71120033Y-54189750D01*
X70881938Y-54189750D01*
X70691462Y-54142131D01*
X70596224Y-54094512D01*
X70548605Y-54046893D01*
X70500985Y-53951655D01*
G04 #@! TO.C,C5*
X131962142Y-127561666D02*
X132009761Y-127609285D01*
X132057380Y-127752142D01*
X132057380Y-127847380D01*
X132009761Y-127990238D01*
X131914523Y-128085476D01*
X131819285Y-128133095D01*
X131628809Y-128180714D01*
X131485952Y-128180714D01*
X131295476Y-128133095D01*
X131200238Y-128085476D01*
X131105000Y-127990238D01*
X131057380Y-127847380D01*
X131057380Y-127752142D01*
X131105000Y-127609285D01*
X131152619Y-127561666D01*
X131057380Y-126656904D02*
X131057380Y-127133095D01*
X131533571Y-127180714D01*
X131485952Y-127133095D01*
X131438333Y-127037857D01*
X131438333Y-126799761D01*
X131485952Y-126704523D01*
X131533571Y-126656904D01*
X131628809Y-126609285D01*
X131866904Y-126609285D01*
X131962142Y-126656904D01*
X132009761Y-126704523D01*
X132057380Y-126799761D01*
X132057380Y-127037857D01*
X132009761Y-127133095D01*
X131962142Y-127180714D01*
G04 #@! TO.C,C6*
X129102142Y-123356666D02*
X129149761Y-123404285D01*
X129197380Y-123547142D01*
X129197380Y-123642380D01*
X129149761Y-123785238D01*
X129054523Y-123880476D01*
X128959285Y-123928095D01*
X128768809Y-123975714D01*
X128625952Y-123975714D01*
X128435476Y-123928095D01*
X128340238Y-123880476D01*
X128245000Y-123785238D01*
X128197380Y-123642380D01*
X128197380Y-123547142D01*
X128245000Y-123404285D01*
X128292619Y-123356666D01*
X128197380Y-122499523D02*
X128197380Y-122690000D01*
X128245000Y-122785238D01*
X128292619Y-122832857D01*
X128435476Y-122928095D01*
X128625952Y-122975714D01*
X129006904Y-122975714D01*
X129102142Y-122928095D01*
X129149761Y-122880476D01*
X129197380Y-122785238D01*
X129197380Y-122594761D01*
X129149761Y-122499523D01*
X129102142Y-122451904D01*
X129006904Y-122404285D01*
X128768809Y-122404285D01*
X128673571Y-122451904D01*
X128625952Y-122499523D01*
X128578333Y-122594761D01*
X128578333Y-122785238D01*
X128625952Y-122880476D01*
X128673571Y-122928095D01*
X128768809Y-122975714D01*
G04 #@! TO.C,C7*
X137948310Y-130666779D02*
X137900691Y-130714398D01*
X137757834Y-130762017D01*
X137662596Y-130762017D01*
X137519738Y-130714398D01*
X137424500Y-130619160D01*
X137376881Y-130523922D01*
X137329262Y-130333446D01*
X137329262Y-130190589D01*
X137376881Y-130000113D01*
X137424500Y-129904875D01*
X137519738Y-129809637D01*
X137662596Y-129762017D01*
X137757834Y-129762017D01*
X137900691Y-129809637D01*
X137948310Y-129857256D01*
X138281643Y-129762017D02*
X138948310Y-129762017D01*
X138519738Y-130762017D01*
G04 #@! TO.C,C8*
X136458334Y-113882143D02*
X136410715Y-113929762D01*
X136267858Y-113977381D01*
X136172620Y-113977381D01*
X136029762Y-113929762D01*
X135934524Y-113834524D01*
X135886905Y-113739286D01*
X135839286Y-113548810D01*
X135839286Y-113405953D01*
X135886905Y-113215477D01*
X135934524Y-113120239D01*
X136029762Y-113025001D01*
X136172620Y-112977381D01*
X136267858Y-112977381D01*
X136410715Y-113025001D01*
X136458334Y-113072620D01*
X137029762Y-113405953D02*
X136934524Y-113358334D01*
X136886905Y-113310715D01*
X136839286Y-113215477D01*
X136839286Y-113167858D01*
X136886905Y-113072620D01*
X136934524Y-113025001D01*
X137029762Y-112977381D01*
X137220239Y-112977381D01*
X137315477Y-113025001D01*
X137363096Y-113072620D01*
X137410715Y-113167858D01*
X137410715Y-113215477D01*
X137363096Y-113310715D01*
X137315477Y-113358334D01*
X137220239Y-113405953D01*
X137029762Y-113405953D01*
X136934524Y-113453572D01*
X136886905Y-113501191D01*
X136839286Y-113596429D01*
X136839286Y-113786905D01*
X136886905Y-113882143D01*
X136934524Y-113929762D01*
X137029762Y-113977381D01*
X137220239Y-113977381D01*
X137315477Y-113929762D01*
X137363096Y-113882143D01*
X137410715Y-113786905D01*
X137410715Y-113596429D01*
X137363096Y-113501191D01*
X137315477Y-113453572D01*
X137220239Y-113405953D01*
G04 #@! TO.C,C9*
X136458334Y-115232143D02*
X136410715Y-115279762D01*
X136267858Y-115327381D01*
X136172620Y-115327381D01*
X136029762Y-115279762D01*
X135934524Y-115184524D01*
X135886905Y-115089286D01*
X135839286Y-114898810D01*
X135839286Y-114755953D01*
X135886905Y-114565477D01*
X135934524Y-114470239D01*
X136029762Y-114375001D01*
X136172620Y-114327381D01*
X136267858Y-114327381D01*
X136410715Y-114375001D01*
X136458334Y-114422620D01*
X136934524Y-115327381D02*
X137125001Y-115327381D01*
X137220239Y-115279762D01*
X137267858Y-115232143D01*
X137363096Y-115089286D01*
X137410715Y-114898810D01*
X137410715Y-114517858D01*
X137363096Y-114422620D01*
X137315477Y-114375001D01*
X137220239Y-114327381D01*
X137029762Y-114327381D01*
X136934524Y-114375001D01*
X136886905Y-114422620D01*
X136839286Y-114517858D01*
X136839286Y-114755953D01*
X136886905Y-114851191D01*
X136934524Y-114898810D01*
X137029762Y-114946429D01*
X137220239Y-114946429D01*
X137315477Y-114898810D01*
X137363096Y-114851191D01*
X137410715Y-114755953D01*
G04 #@! TO.C,C10*
X137787142Y-120847142D02*
X137739523Y-120894761D01*
X137596666Y-120942380D01*
X137501428Y-120942380D01*
X137358571Y-120894761D01*
X137263333Y-120799523D01*
X137215714Y-120704285D01*
X137168095Y-120513809D01*
X137168095Y-120370952D01*
X137215714Y-120180476D01*
X137263333Y-120085238D01*
X137358571Y-119990000D01*
X137501428Y-119942380D01*
X137596666Y-119942380D01*
X137739523Y-119990000D01*
X137787142Y-120037619D01*
X138739523Y-120942380D02*
X138168095Y-120942380D01*
X138453809Y-120942380D02*
X138453809Y-119942380D01*
X138358571Y-120085238D01*
X138263333Y-120180476D01*
X138168095Y-120228095D01*
X139358571Y-119942380D02*
X139453809Y-119942380D01*
X139549047Y-119990000D01*
X139596666Y-120037619D01*
X139644285Y-120132857D01*
X139691904Y-120323333D01*
X139691904Y-120561428D01*
X139644285Y-120751904D01*
X139596666Y-120847142D01*
X139549047Y-120894761D01*
X139453809Y-120942380D01*
X139358571Y-120942380D01*
X139263333Y-120894761D01*
X139215714Y-120847142D01*
X139168095Y-120751904D01*
X139120476Y-120561428D01*
X139120476Y-120323333D01*
X139168095Y-120132857D01*
X139215714Y-120037619D01*
X139263333Y-119990000D01*
X139358571Y-119942380D01*
G04 #@! TO.C,C11*
X145902143Y-119592143D02*
X145854524Y-119639762D01*
X145711667Y-119687381D01*
X145616429Y-119687381D01*
X145473572Y-119639762D01*
X145378334Y-119544524D01*
X145330715Y-119449286D01*
X145283096Y-119258810D01*
X145283096Y-119115953D01*
X145330715Y-118925477D01*
X145378334Y-118830239D01*
X145473572Y-118735001D01*
X145616429Y-118687381D01*
X145711667Y-118687381D01*
X145854524Y-118735001D01*
X145902143Y-118782620D01*
X146854524Y-119687381D02*
X146283096Y-119687381D01*
X146568810Y-119687381D02*
X146568810Y-118687381D01*
X146473572Y-118830239D01*
X146378334Y-118925477D01*
X146283096Y-118973096D01*
X147806905Y-119687381D02*
X147235477Y-119687381D01*
X147521191Y-119687381D02*
X147521191Y-118687381D01*
X147425953Y-118830239D01*
X147330715Y-118925477D01*
X147235477Y-118973096D01*
G04 #@! TO.C,C12*
X135982143Y-116582143D02*
X135934524Y-116629762D01*
X135791667Y-116677381D01*
X135696429Y-116677381D01*
X135553572Y-116629762D01*
X135458334Y-116534524D01*
X135410715Y-116439286D01*
X135363096Y-116248810D01*
X135363096Y-116105953D01*
X135410715Y-115915477D01*
X135458334Y-115820239D01*
X135553572Y-115725001D01*
X135696429Y-115677381D01*
X135791667Y-115677381D01*
X135934524Y-115725001D01*
X135982143Y-115772620D01*
X136934524Y-116677381D02*
X136363096Y-116677381D01*
X136648810Y-116677381D02*
X136648810Y-115677381D01*
X136553572Y-115820239D01*
X136458334Y-115915477D01*
X136363096Y-115963096D01*
X137315477Y-115772620D02*
X137363096Y-115725001D01*
X137458334Y-115677381D01*
X137696429Y-115677381D01*
X137791667Y-115725001D01*
X137839286Y-115772620D01*
X137886905Y-115867858D01*
X137886905Y-115963096D01*
X137839286Y-116105953D01*
X137267858Y-116677381D01*
X137886905Y-116677381D01*
G04 #@! TO.C,C13*
X145902143Y-120942143D02*
X145854524Y-120989762D01*
X145711667Y-121037381D01*
X145616429Y-121037381D01*
X145473572Y-120989762D01*
X145378334Y-120894524D01*
X145330715Y-120799286D01*
X145283096Y-120608810D01*
X145283096Y-120465953D01*
X145330715Y-120275477D01*
X145378334Y-120180239D01*
X145473572Y-120085001D01*
X145616429Y-120037381D01*
X145711667Y-120037381D01*
X145854524Y-120085001D01*
X145902143Y-120132620D01*
X146854524Y-121037381D02*
X146283096Y-121037381D01*
X146568810Y-121037381D02*
X146568810Y-120037381D01*
X146473572Y-120180239D01*
X146378334Y-120275477D01*
X146283096Y-120323096D01*
X147187858Y-120037381D02*
X147806905Y-120037381D01*
X147473572Y-120418334D01*
X147616429Y-120418334D01*
X147711667Y-120465953D01*
X147759286Y-120513572D01*
X147806905Y-120608810D01*
X147806905Y-120846905D01*
X147759286Y-120942143D01*
X147711667Y-120989762D01*
X147616429Y-121037381D01*
X147330715Y-121037381D01*
X147235477Y-120989762D01*
X147187858Y-120942143D01*
G04 #@! TO.C,C14*
X135982143Y-117932143D02*
X135934524Y-117979762D01*
X135791667Y-118027381D01*
X135696429Y-118027381D01*
X135553572Y-117979762D01*
X135458334Y-117884524D01*
X135410715Y-117789286D01*
X135363096Y-117598810D01*
X135363096Y-117455953D01*
X135410715Y-117265477D01*
X135458334Y-117170239D01*
X135553572Y-117075001D01*
X135696429Y-117027381D01*
X135791667Y-117027381D01*
X135934524Y-117075001D01*
X135982143Y-117122620D01*
X136934524Y-118027381D02*
X136363096Y-118027381D01*
X136648810Y-118027381D02*
X136648810Y-117027381D01*
X136553572Y-117170239D01*
X136458334Y-117265477D01*
X136363096Y-117313096D01*
X137791667Y-117360715D02*
X137791667Y-118027381D01*
X137553572Y-116979762D02*
X137315477Y-117694048D01*
X137934524Y-117694048D01*
G04 #@! TO.C,C15*
X142172143Y-120232143D02*
X142124524Y-120279762D01*
X141981667Y-120327381D01*
X141886429Y-120327381D01*
X141743572Y-120279762D01*
X141648334Y-120184524D01*
X141600715Y-120089286D01*
X141553096Y-119898810D01*
X141553096Y-119755953D01*
X141600715Y-119565477D01*
X141648334Y-119470239D01*
X141743572Y-119375001D01*
X141886429Y-119327381D01*
X141981667Y-119327381D01*
X142124524Y-119375001D01*
X142172143Y-119422620D01*
X143124524Y-120327381D02*
X142553096Y-120327381D01*
X142838810Y-120327381D02*
X142838810Y-119327381D01*
X142743572Y-119470239D01*
X142648334Y-119565477D01*
X142553096Y-119613096D01*
X144029286Y-119327381D02*
X143553096Y-119327381D01*
X143505477Y-119803572D01*
X143553096Y-119755953D01*
X143648334Y-119708334D01*
X143886429Y-119708334D01*
X143981667Y-119755953D01*
X144029286Y-119803572D01*
X144076905Y-119898810D01*
X144076905Y-120136905D01*
X144029286Y-120232143D01*
X143981667Y-120279762D01*
X143886429Y-120327381D01*
X143648334Y-120327381D01*
X143553096Y-120279762D01*
X143505477Y-120232143D01*
G04 #@! TO.C,C16*
X142172143Y-121582143D02*
X142124524Y-121629762D01*
X141981667Y-121677381D01*
X141886429Y-121677381D01*
X141743572Y-121629762D01*
X141648334Y-121534524D01*
X141600715Y-121439286D01*
X141553096Y-121248810D01*
X141553096Y-121105953D01*
X141600715Y-120915477D01*
X141648334Y-120820239D01*
X141743572Y-120725001D01*
X141886429Y-120677381D01*
X141981667Y-120677381D01*
X142124524Y-120725001D01*
X142172143Y-120772620D01*
X143124524Y-121677381D02*
X142553096Y-121677381D01*
X142838810Y-121677381D02*
X142838810Y-120677381D01*
X142743572Y-120820239D01*
X142648334Y-120915477D01*
X142553096Y-120963096D01*
X143981667Y-120677381D02*
X143791191Y-120677381D01*
X143695953Y-120725001D01*
X143648334Y-120772620D01*
X143553096Y-120915477D01*
X143505477Y-121105953D01*
X143505477Y-121486905D01*
X143553096Y-121582143D01*
X143600715Y-121629762D01*
X143695953Y-121677381D01*
X143886429Y-121677381D01*
X143981667Y-121629762D01*
X144029286Y-121582143D01*
X144076905Y-121486905D01*
X144076905Y-121248810D01*
X144029286Y-121153572D01*
X143981667Y-121105953D01*
X143886429Y-121058334D01*
X143695953Y-121058334D01*
X143600715Y-121105953D01*
X143553096Y-121153572D01*
X143505477Y-121248810D01*
G04 #@! TO.C,C18*
X139462143Y-113982143D02*
X139414524Y-114029762D01*
X139271667Y-114077381D01*
X139176429Y-114077381D01*
X139033572Y-114029762D01*
X138938334Y-113934524D01*
X138890715Y-113839286D01*
X138843096Y-113648810D01*
X138843096Y-113505953D01*
X138890715Y-113315477D01*
X138938334Y-113220239D01*
X139033572Y-113125001D01*
X139176429Y-113077381D01*
X139271667Y-113077381D01*
X139414524Y-113125001D01*
X139462143Y-113172620D01*
X140414524Y-114077381D02*
X139843096Y-114077381D01*
X140128810Y-114077381D02*
X140128810Y-113077381D01*
X140033572Y-113220239D01*
X139938334Y-113315477D01*
X139843096Y-113363096D01*
X140985953Y-113505953D02*
X140890715Y-113458334D01*
X140843096Y-113410715D01*
X140795477Y-113315477D01*
X140795477Y-113267858D01*
X140843096Y-113172620D01*
X140890715Y-113125001D01*
X140985953Y-113077381D01*
X141176429Y-113077381D01*
X141271667Y-113125001D01*
X141319286Y-113172620D01*
X141366905Y-113267858D01*
X141366905Y-113315477D01*
X141319286Y-113410715D01*
X141271667Y-113458334D01*
X141176429Y-113505953D01*
X140985953Y-113505953D01*
X140890715Y-113553572D01*
X140843096Y-113601191D01*
X140795477Y-113696429D01*
X140795477Y-113886905D01*
X140843096Y-113982143D01*
X140890715Y-114029762D01*
X140985953Y-114077381D01*
X141176429Y-114077381D01*
X141271667Y-114029762D01*
X141319286Y-113982143D01*
X141366905Y-113886905D01*
X141366905Y-113696429D01*
X141319286Y-113601191D01*
X141271667Y-113553572D01*
X141176429Y-113505953D01*
G04 #@! TO.C,C19*
X139462143Y-115492143D02*
X139414524Y-115539762D01*
X139271667Y-115587381D01*
X139176429Y-115587381D01*
X139033572Y-115539762D01*
X138938334Y-115444524D01*
X138890715Y-115349286D01*
X138843096Y-115158810D01*
X138843096Y-115015953D01*
X138890715Y-114825477D01*
X138938334Y-114730239D01*
X139033572Y-114635001D01*
X139176429Y-114587381D01*
X139271667Y-114587381D01*
X139414524Y-114635001D01*
X139462143Y-114682620D01*
X140414524Y-115587381D02*
X139843096Y-115587381D01*
X140128810Y-115587381D02*
X140128810Y-114587381D01*
X140033572Y-114730239D01*
X139938334Y-114825477D01*
X139843096Y-114873096D01*
X140890715Y-115587381D02*
X141081191Y-115587381D01*
X141176429Y-115539762D01*
X141224048Y-115492143D01*
X141319286Y-115349286D01*
X141366905Y-115158810D01*
X141366905Y-114777858D01*
X141319286Y-114682620D01*
X141271667Y-114635001D01*
X141176429Y-114587381D01*
X140985953Y-114587381D01*
X140890715Y-114635001D01*
X140843096Y-114682620D01*
X140795477Y-114777858D01*
X140795477Y-115015953D01*
X140843096Y-115111191D01*
X140890715Y-115158810D01*
X140985953Y-115206429D01*
X141176429Y-115206429D01*
X141271667Y-115158810D01*
X141319286Y-115111191D01*
X141366905Y-115015953D01*
G04 #@! TO.C,C20*
X142812143Y-113982143D02*
X142764524Y-114029762D01*
X142621667Y-114077381D01*
X142526429Y-114077381D01*
X142383572Y-114029762D01*
X142288334Y-113934524D01*
X142240715Y-113839286D01*
X142193096Y-113648810D01*
X142193096Y-113505953D01*
X142240715Y-113315477D01*
X142288334Y-113220239D01*
X142383572Y-113125001D01*
X142526429Y-113077381D01*
X142621667Y-113077381D01*
X142764524Y-113125001D01*
X142812143Y-113172620D01*
X143193096Y-113172620D02*
X143240715Y-113125001D01*
X143335953Y-113077381D01*
X143574048Y-113077381D01*
X143669286Y-113125001D01*
X143716905Y-113172620D01*
X143764524Y-113267858D01*
X143764524Y-113363096D01*
X143716905Y-113505953D01*
X143145477Y-114077381D01*
X143764524Y-114077381D01*
X144383572Y-113077381D02*
X144478810Y-113077381D01*
X144574048Y-113125001D01*
X144621667Y-113172620D01*
X144669286Y-113267858D01*
X144716905Y-113458334D01*
X144716905Y-113696429D01*
X144669286Y-113886905D01*
X144621667Y-113982143D01*
X144574048Y-114029762D01*
X144478810Y-114077381D01*
X144383572Y-114077381D01*
X144288334Y-114029762D01*
X144240715Y-113982143D01*
X144193096Y-113886905D01*
X144145477Y-113696429D01*
X144145477Y-113458334D01*
X144193096Y-113267858D01*
X144240715Y-113172620D01*
X144288334Y-113125001D01*
X144383572Y-113077381D01*
G04 #@! TO.C,C21*
X139462143Y-117002143D02*
X139414524Y-117049762D01*
X139271667Y-117097381D01*
X139176429Y-117097381D01*
X139033572Y-117049762D01*
X138938334Y-116954524D01*
X138890715Y-116859286D01*
X138843096Y-116668810D01*
X138843096Y-116525953D01*
X138890715Y-116335477D01*
X138938334Y-116240239D01*
X139033572Y-116145001D01*
X139176429Y-116097381D01*
X139271667Y-116097381D01*
X139414524Y-116145001D01*
X139462143Y-116192620D01*
X139843096Y-116192620D02*
X139890715Y-116145001D01*
X139985953Y-116097381D01*
X140224048Y-116097381D01*
X140319286Y-116145001D01*
X140366905Y-116192620D01*
X140414524Y-116287858D01*
X140414524Y-116383096D01*
X140366905Y-116525953D01*
X139795477Y-117097381D01*
X140414524Y-117097381D01*
X141366905Y-117097381D02*
X140795477Y-117097381D01*
X141081191Y-117097381D02*
X141081191Y-116097381D01*
X140985953Y-116240239D01*
X140890715Y-116335477D01*
X140795477Y-116383096D01*
G04 #@! TO.C,C22*
X142812143Y-115492143D02*
X142764524Y-115539762D01*
X142621667Y-115587381D01*
X142526429Y-115587381D01*
X142383572Y-115539762D01*
X142288334Y-115444524D01*
X142240715Y-115349286D01*
X142193096Y-115158810D01*
X142193096Y-115015953D01*
X142240715Y-114825477D01*
X142288334Y-114730239D01*
X142383572Y-114635001D01*
X142526429Y-114587381D01*
X142621667Y-114587381D01*
X142764524Y-114635001D01*
X142812143Y-114682620D01*
X143193096Y-114682620D02*
X143240715Y-114635001D01*
X143335953Y-114587381D01*
X143574048Y-114587381D01*
X143669286Y-114635001D01*
X143716905Y-114682620D01*
X143764524Y-114777858D01*
X143764524Y-114873096D01*
X143716905Y-115015953D01*
X143145477Y-115587381D01*
X143764524Y-115587381D01*
X144145477Y-114682620D02*
X144193096Y-114635001D01*
X144288334Y-114587381D01*
X144526429Y-114587381D01*
X144621667Y-114635001D01*
X144669286Y-114682620D01*
X144716905Y-114777858D01*
X144716905Y-114873096D01*
X144669286Y-115015953D01*
X144097858Y-115587381D01*
X144716905Y-115587381D01*
G04 #@! TO.C,C23*
X139462143Y-118512143D02*
X139414524Y-118559762D01*
X139271667Y-118607381D01*
X139176429Y-118607381D01*
X139033572Y-118559762D01*
X138938334Y-118464524D01*
X138890715Y-118369286D01*
X138843096Y-118178810D01*
X138843096Y-118035953D01*
X138890715Y-117845477D01*
X138938334Y-117750239D01*
X139033572Y-117655001D01*
X139176429Y-117607381D01*
X139271667Y-117607381D01*
X139414524Y-117655001D01*
X139462143Y-117702620D01*
X139843096Y-117702620D02*
X139890715Y-117655001D01*
X139985953Y-117607381D01*
X140224048Y-117607381D01*
X140319286Y-117655001D01*
X140366905Y-117702620D01*
X140414524Y-117797858D01*
X140414524Y-117893096D01*
X140366905Y-118035953D01*
X139795477Y-118607381D01*
X140414524Y-118607381D01*
X140747858Y-117607381D02*
X141366905Y-117607381D01*
X141033572Y-117988334D01*
X141176429Y-117988334D01*
X141271667Y-118035953D01*
X141319286Y-118083572D01*
X141366905Y-118178810D01*
X141366905Y-118416905D01*
X141319286Y-118512143D01*
X141271667Y-118559762D01*
X141176429Y-118607381D01*
X140890715Y-118607381D01*
X140795477Y-118559762D01*
X140747858Y-118512143D01*
G04 #@! TO.C,C24*
X146162143Y-113982143D02*
X146114524Y-114029762D01*
X145971667Y-114077381D01*
X145876429Y-114077381D01*
X145733572Y-114029762D01*
X145638334Y-113934524D01*
X145590715Y-113839286D01*
X145543096Y-113648810D01*
X145543096Y-113505953D01*
X145590715Y-113315477D01*
X145638334Y-113220239D01*
X145733572Y-113125001D01*
X145876429Y-113077381D01*
X145971667Y-113077381D01*
X146114524Y-113125001D01*
X146162143Y-113172620D01*
X146543096Y-113172620D02*
X146590715Y-113125001D01*
X146685953Y-113077381D01*
X146924048Y-113077381D01*
X147019286Y-113125001D01*
X147066905Y-113172620D01*
X147114524Y-113267858D01*
X147114524Y-113363096D01*
X147066905Y-113505953D01*
X146495477Y-114077381D01*
X147114524Y-114077381D01*
X147971667Y-113410715D02*
X147971667Y-114077381D01*
X147733572Y-113029762D02*
X147495477Y-113744048D01*
X148114524Y-113744048D01*
G04 #@! TO.C,C25*
X142812143Y-117002143D02*
X142764524Y-117049762D01*
X142621667Y-117097381D01*
X142526429Y-117097381D01*
X142383572Y-117049762D01*
X142288334Y-116954524D01*
X142240715Y-116859286D01*
X142193096Y-116668810D01*
X142193096Y-116525953D01*
X142240715Y-116335477D01*
X142288334Y-116240239D01*
X142383572Y-116145001D01*
X142526429Y-116097381D01*
X142621667Y-116097381D01*
X142764524Y-116145001D01*
X142812143Y-116192620D01*
X143193096Y-116192620D02*
X143240715Y-116145001D01*
X143335953Y-116097381D01*
X143574048Y-116097381D01*
X143669286Y-116145001D01*
X143716905Y-116192620D01*
X143764524Y-116287858D01*
X143764524Y-116383096D01*
X143716905Y-116525953D01*
X143145477Y-117097381D01*
X143764524Y-117097381D01*
X144669286Y-116097381D02*
X144193096Y-116097381D01*
X144145477Y-116573572D01*
X144193096Y-116525953D01*
X144288334Y-116478334D01*
X144526429Y-116478334D01*
X144621667Y-116525953D01*
X144669286Y-116573572D01*
X144716905Y-116668810D01*
X144716905Y-116906905D01*
X144669286Y-117002143D01*
X144621667Y-117049762D01*
X144526429Y-117097381D01*
X144288334Y-117097381D01*
X144193096Y-117049762D01*
X144145477Y-117002143D01*
G04 #@! TO.C,C26*
X146162143Y-115492143D02*
X146114524Y-115539762D01*
X145971667Y-115587381D01*
X145876429Y-115587381D01*
X145733572Y-115539762D01*
X145638334Y-115444524D01*
X145590715Y-115349286D01*
X145543096Y-115158810D01*
X145543096Y-115015953D01*
X145590715Y-114825477D01*
X145638334Y-114730239D01*
X145733572Y-114635001D01*
X145876429Y-114587381D01*
X145971667Y-114587381D01*
X146114524Y-114635001D01*
X146162143Y-114682620D01*
X146543096Y-114682620D02*
X146590715Y-114635001D01*
X146685953Y-114587381D01*
X146924048Y-114587381D01*
X147019286Y-114635001D01*
X147066905Y-114682620D01*
X147114524Y-114777858D01*
X147114524Y-114873096D01*
X147066905Y-115015953D01*
X146495477Y-115587381D01*
X147114524Y-115587381D01*
X147971667Y-114587381D02*
X147781191Y-114587381D01*
X147685953Y-114635001D01*
X147638334Y-114682620D01*
X147543096Y-114825477D01*
X147495477Y-115015953D01*
X147495477Y-115396905D01*
X147543096Y-115492143D01*
X147590715Y-115539762D01*
X147685953Y-115587381D01*
X147876429Y-115587381D01*
X147971667Y-115539762D01*
X148019286Y-115492143D01*
X148066905Y-115396905D01*
X148066905Y-115158810D01*
X148019286Y-115063572D01*
X147971667Y-115015953D01*
X147876429Y-114968334D01*
X147685953Y-114968334D01*
X147590715Y-115015953D01*
X147543096Y-115063572D01*
X147495477Y-115158810D01*
G04 #@! TO.C,J3*
X193976666Y-106342380D02*
X193976666Y-107056666D01*
X193929047Y-107199523D01*
X193833809Y-107294761D01*
X193690952Y-107342380D01*
X193595714Y-107342380D01*
X194357619Y-106342380D02*
X194976666Y-106342380D01*
X194643333Y-106723333D01*
X194786190Y-106723333D01*
X194881428Y-106770952D01*
X194929047Y-106818571D01*
X194976666Y-106913809D01*
X194976666Y-107151904D01*
X194929047Y-107247142D01*
X194881428Y-107294761D01*
X194786190Y-107342380D01*
X194500476Y-107342380D01*
X194405238Y-107294761D01*
X194357619Y-107247142D01*
G04 #@! TO.C,J5*
X192071666Y-117192381D02*
X192071666Y-117906667D01*
X192024047Y-118049524D01*
X191928809Y-118144762D01*
X191785952Y-118192381D01*
X191690714Y-118192381D01*
X193024047Y-117192381D02*
X192547857Y-117192381D01*
X192500238Y-117668572D01*
X192547857Y-117620953D01*
X192643095Y-117573334D01*
X192881190Y-117573334D01*
X192976428Y-117620953D01*
X193024047Y-117668572D01*
X193071666Y-117763810D01*
X193071666Y-118001905D01*
X193024047Y-118097143D01*
X192976428Y-118144762D01*
X192881190Y-118192381D01*
X192643095Y-118192381D01*
X192547857Y-118144762D01*
X192500238Y-118097143D01*
G04 #@! TO.C,J6*
X197886667Y-117192381D02*
X197886667Y-117906667D01*
X197839048Y-118049524D01*
X197743810Y-118144762D01*
X197600953Y-118192381D01*
X197505715Y-118192381D01*
X198791429Y-117192381D02*
X198600953Y-117192381D01*
X198505715Y-117240001D01*
X198458096Y-117287620D01*
X198362858Y-117430477D01*
X198315239Y-117620953D01*
X198315239Y-118001905D01*
X198362858Y-118097143D01*
X198410477Y-118144762D01*
X198505715Y-118192381D01*
X198696191Y-118192381D01*
X198791429Y-118144762D01*
X198839048Y-118097143D01*
X198886667Y-118001905D01*
X198886667Y-117763810D01*
X198839048Y-117668572D01*
X198791429Y-117620953D01*
X198696191Y-117573334D01*
X198505715Y-117573334D01*
X198410477Y-117620953D01*
X198362858Y-117668572D01*
X198315239Y-117763810D01*
G04 #@! TO.C,CARD0*
X261745747Y-62825465D02*
X261793366Y-62873084D01*
X261840985Y-63015941D01*
X261840985Y-63111179D01*
X261793366Y-63254036D01*
X261698128Y-63349274D01*
X261602890Y-63396893D01*
X261412414Y-63444512D01*
X261269557Y-63444512D01*
X261079081Y-63396893D01*
X260983843Y-63349274D01*
X260888605Y-63254036D01*
X260840985Y-63111179D01*
X260840985Y-63015941D01*
X260888605Y-62873084D01*
X260936224Y-62825465D01*
X261555271Y-62444512D02*
X261555271Y-61968322D01*
X261840985Y-62539750D02*
X260840985Y-62206417D01*
X261840985Y-61873084D01*
X261840985Y-60968322D02*
X261364795Y-61301655D01*
X261840985Y-61539750D02*
X260840985Y-61539750D01*
X260840985Y-61158798D01*
X260888605Y-61063560D01*
X260936224Y-61015941D01*
X261031462Y-60968322D01*
X261174319Y-60968322D01*
X261269557Y-61015941D01*
X261317176Y-61063560D01*
X261364795Y-61158798D01*
X261364795Y-61539750D01*
X261840985Y-60539750D02*
X260840985Y-60539750D01*
X260840985Y-60301655D01*
X260888605Y-60158798D01*
X260983843Y-60063560D01*
X261079081Y-60015941D01*
X261269557Y-59968322D01*
X261412414Y-59968322D01*
X261602890Y-60015941D01*
X261698128Y-60063560D01*
X261793366Y-60158798D01*
X261840985Y-60301655D01*
X261840985Y-60539750D01*
X260840985Y-59349274D02*
X260840985Y-59254036D01*
X260888605Y-59158798D01*
X260936224Y-59111179D01*
X261031462Y-59063560D01*
X261221938Y-59015941D01*
X261460033Y-59015941D01*
X261650509Y-59063560D01*
X261745747Y-59111179D01*
X261793366Y-59158798D01*
X261840985Y-59254036D01*
X261840985Y-59349274D01*
X261793366Y-59444512D01*
X261745747Y-59492131D01*
X261650509Y-59539750D01*
X261460033Y-59587369D01*
X261221938Y-59587369D01*
X261031462Y-59539750D01*
X260936224Y-59492131D01*
X260888605Y-59444512D01*
X260840985Y-59349274D01*
G04 #@! TO.C,CARD1*
X233805747Y-62825465D02*
X233853366Y-62873084D01*
X233900985Y-63015941D01*
X233900985Y-63111179D01*
X233853366Y-63254036D01*
X233758128Y-63349274D01*
X233662890Y-63396893D01*
X233472414Y-63444512D01*
X233329557Y-63444512D01*
X233139081Y-63396893D01*
X233043843Y-63349274D01*
X232948605Y-63254036D01*
X232900985Y-63111179D01*
X232900985Y-63015941D01*
X232948605Y-62873084D01*
X232996224Y-62825465D01*
X233615271Y-62444512D02*
X233615271Y-61968322D01*
X233900985Y-62539750D02*
X232900985Y-62206417D01*
X233900985Y-61873084D01*
X233900985Y-60968322D02*
X233424795Y-61301655D01*
X233900985Y-61539750D02*
X232900985Y-61539750D01*
X232900985Y-61158798D01*
X232948605Y-61063560D01*
X232996224Y-61015941D01*
X233091462Y-60968322D01*
X233234319Y-60968322D01*
X233329557Y-61015941D01*
X233377176Y-61063560D01*
X233424795Y-61158798D01*
X233424795Y-61539750D01*
X233900985Y-60539750D02*
X232900985Y-60539750D01*
X232900985Y-60301655D01*
X232948605Y-60158798D01*
X233043843Y-60063560D01*
X233139081Y-60015941D01*
X233329557Y-59968322D01*
X233472414Y-59968322D01*
X233662890Y-60015941D01*
X233758128Y-60063560D01*
X233853366Y-60158798D01*
X233900985Y-60301655D01*
X233900985Y-60539750D01*
X233900985Y-59015941D02*
X233900985Y-59587369D01*
X233900985Y-59301655D02*
X232900985Y-59301655D01*
X233043843Y-59396893D01*
X233139081Y-59492131D01*
X233186700Y-59587369D01*
G04 #@! TO.C,CARD2*
X205865747Y-62825465D02*
X205913366Y-62873084D01*
X205960985Y-63015941D01*
X205960985Y-63111179D01*
X205913366Y-63254036D01*
X205818128Y-63349274D01*
X205722890Y-63396893D01*
X205532414Y-63444512D01*
X205389557Y-63444512D01*
X205199081Y-63396893D01*
X205103843Y-63349274D01*
X205008605Y-63254036D01*
X204960985Y-63111179D01*
X204960985Y-63015941D01*
X205008605Y-62873084D01*
X205056224Y-62825465D01*
X205675271Y-62444512D02*
X205675271Y-61968322D01*
X205960985Y-62539750D02*
X204960985Y-62206417D01*
X205960985Y-61873084D01*
X205960985Y-60968322D02*
X205484795Y-61301655D01*
X205960985Y-61539750D02*
X204960985Y-61539750D01*
X204960985Y-61158798D01*
X205008605Y-61063560D01*
X205056224Y-61015941D01*
X205151462Y-60968322D01*
X205294319Y-60968322D01*
X205389557Y-61015941D01*
X205437176Y-61063560D01*
X205484795Y-61158798D01*
X205484795Y-61539750D01*
X205960985Y-60539750D02*
X204960985Y-60539750D01*
X204960985Y-60301655D01*
X205008605Y-60158798D01*
X205103843Y-60063560D01*
X205199081Y-60015941D01*
X205389557Y-59968322D01*
X205532414Y-59968322D01*
X205722890Y-60015941D01*
X205818128Y-60063560D01*
X205913366Y-60158798D01*
X205960985Y-60301655D01*
X205960985Y-60539750D01*
X205056224Y-59587369D02*
X205008605Y-59539750D01*
X204960985Y-59444512D01*
X204960985Y-59206417D01*
X205008605Y-59111179D01*
X205056224Y-59063560D01*
X205151462Y-59015941D01*
X205246700Y-59015941D01*
X205389557Y-59063560D01*
X205960985Y-59634988D01*
X205960985Y-59015941D01*
G04 #@! TO.C,CARD3*
X177925747Y-62825465D02*
X177973366Y-62873084D01*
X178020985Y-63015941D01*
X178020985Y-63111179D01*
X177973366Y-63254036D01*
X177878128Y-63349274D01*
X177782890Y-63396893D01*
X177592414Y-63444512D01*
X177449557Y-63444512D01*
X177259081Y-63396893D01*
X177163843Y-63349274D01*
X177068605Y-63254036D01*
X177020985Y-63111179D01*
X177020985Y-63015941D01*
X177068605Y-62873084D01*
X177116224Y-62825465D01*
X177735271Y-62444512D02*
X177735271Y-61968322D01*
X178020985Y-62539750D02*
X177020985Y-62206417D01*
X178020985Y-61873084D01*
X178020985Y-60968322D02*
X177544795Y-61301655D01*
X178020985Y-61539750D02*
X177020985Y-61539750D01*
X177020985Y-61158798D01*
X177068605Y-61063560D01*
X177116224Y-61015941D01*
X177211462Y-60968322D01*
X177354319Y-60968322D01*
X177449557Y-61015941D01*
X177497176Y-61063560D01*
X177544795Y-61158798D01*
X177544795Y-61539750D01*
X178020985Y-60539750D02*
X177020985Y-60539750D01*
X177020985Y-60301655D01*
X177068605Y-60158798D01*
X177163843Y-60063560D01*
X177259081Y-60015941D01*
X177449557Y-59968322D01*
X177592414Y-59968322D01*
X177782890Y-60015941D01*
X177878128Y-60063560D01*
X177973366Y-60158798D01*
X178020985Y-60301655D01*
X178020985Y-60539750D01*
X177020985Y-59634988D02*
X177020985Y-59015941D01*
X177401938Y-59349274D01*
X177401938Y-59206417D01*
X177449557Y-59111179D01*
X177497176Y-59063560D01*
X177592414Y-59015941D01*
X177830509Y-59015941D01*
X177925747Y-59063560D01*
X177973366Y-59111179D01*
X178020985Y-59206417D01*
X178020985Y-59492131D01*
X177973366Y-59587369D01*
X177925747Y-59634988D01*
G04 #@! TO.C,CARD4*
X149985747Y-62825465D02*
X150033366Y-62873084D01*
X150080985Y-63015941D01*
X150080985Y-63111179D01*
X150033366Y-63254036D01*
X149938128Y-63349274D01*
X149842890Y-63396893D01*
X149652414Y-63444512D01*
X149509557Y-63444512D01*
X149319081Y-63396893D01*
X149223843Y-63349274D01*
X149128605Y-63254036D01*
X149080985Y-63111179D01*
X149080985Y-63015941D01*
X149128605Y-62873084D01*
X149176224Y-62825465D01*
X149795271Y-62444512D02*
X149795271Y-61968322D01*
X150080985Y-62539750D02*
X149080985Y-62206417D01*
X150080985Y-61873084D01*
X150080985Y-60968322D02*
X149604795Y-61301655D01*
X150080985Y-61539750D02*
X149080985Y-61539750D01*
X149080985Y-61158798D01*
X149128605Y-61063560D01*
X149176224Y-61015941D01*
X149271462Y-60968322D01*
X149414319Y-60968322D01*
X149509557Y-61015941D01*
X149557176Y-61063560D01*
X149604795Y-61158798D01*
X149604795Y-61539750D01*
X150080985Y-60539750D02*
X149080985Y-60539750D01*
X149080985Y-60301655D01*
X149128605Y-60158798D01*
X149223843Y-60063560D01*
X149319081Y-60015941D01*
X149509557Y-59968322D01*
X149652414Y-59968322D01*
X149842890Y-60015941D01*
X149938128Y-60063560D01*
X150033366Y-60158798D01*
X150080985Y-60301655D01*
X150080985Y-60539750D01*
X149414319Y-59111179D02*
X150080985Y-59111179D01*
X149033366Y-59349274D02*
X149747652Y-59587369D01*
X149747652Y-58968322D01*
G04 #@! TO.C,CARD5*
X122045747Y-62825465D02*
X122093366Y-62873084D01*
X122140985Y-63015941D01*
X122140985Y-63111179D01*
X122093366Y-63254036D01*
X121998128Y-63349274D01*
X121902890Y-63396893D01*
X121712414Y-63444512D01*
X121569557Y-63444512D01*
X121379081Y-63396893D01*
X121283843Y-63349274D01*
X121188605Y-63254036D01*
X121140985Y-63111179D01*
X121140985Y-63015941D01*
X121188605Y-62873084D01*
X121236224Y-62825465D01*
X121855271Y-62444512D02*
X121855271Y-61968322D01*
X122140985Y-62539750D02*
X121140985Y-62206417D01*
X122140985Y-61873084D01*
X122140985Y-60968322D02*
X121664795Y-61301655D01*
X122140985Y-61539750D02*
X121140985Y-61539750D01*
X121140985Y-61158798D01*
X121188605Y-61063560D01*
X121236224Y-61015941D01*
X121331462Y-60968322D01*
X121474319Y-60968322D01*
X121569557Y-61015941D01*
X121617176Y-61063560D01*
X121664795Y-61158798D01*
X121664795Y-61539750D01*
X122140985Y-60539750D02*
X121140985Y-60539750D01*
X121140985Y-60301655D01*
X121188605Y-60158798D01*
X121283843Y-60063560D01*
X121379081Y-60015941D01*
X121569557Y-59968322D01*
X121712414Y-59968322D01*
X121902890Y-60015941D01*
X121998128Y-60063560D01*
X122093366Y-60158798D01*
X122140985Y-60301655D01*
X122140985Y-60539750D01*
X121140985Y-59063560D02*
X121140985Y-59539750D01*
X121617176Y-59587369D01*
X121569557Y-59539750D01*
X121521938Y-59444512D01*
X121521938Y-59206417D01*
X121569557Y-59111179D01*
X121617176Y-59063560D01*
X121712414Y-59015941D01*
X121950509Y-59015941D01*
X122045747Y-59063560D01*
X122093366Y-59111179D01*
X122140985Y-59206417D01*
X122140985Y-59444512D01*
X122093366Y-59539750D01*
X122045747Y-59587369D01*
G04 #@! TO.C,CARD6*
X94105747Y-62825465D02*
X94153366Y-62873084D01*
X94200985Y-63015941D01*
X94200985Y-63111179D01*
X94153366Y-63254036D01*
X94058128Y-63349274D01*
X93962890Y-63396893D01*
X93772414Y-63444512D01*
X93629557Y-63444512D01*
X93439081Y-63396893D01*
X93343843Y-63349274D01*
X93248605Y-63254036D01*
X93200985Y-63111179D01*
X93200985Y-63015941D01*
X93248605Y-62873084D01*
X93296224Y-62825465D01*
X93915271Y-62444512D02*
X93915271Y-61968322D01*
X94200985Y-62539750D02*
X93200985Y-62206417D01*
X94200985Y-61873084D01*
X94200985Y-60968322D02*
X93724795Y-61301655D01*
X94200985Y-61539750D02*
X93200985Y-61539750D01*
X93200985Y-61158798D01*
X93248605Y-61063560D01*
X93296224Y-61015941D01*
X93391462Y-60968322D01*
X93534319Y-60968322D01*
X93629557Y-61015941D01*
X93677176Y-61063560D01*
X93724795Y-61158798D01*
X93724795Y-61539750D01*
X94200985Y-60539750D02*
X93200985Y-60539750D01*
X93200985Y-60301655D01*
X93248605Y-60158798D01*
X93343843Y-60063560D01*
X93439081Y-60015941D01*
X93629557Y-59968322D01*
X93772414Y-59968322D01*
X93962890Y-60015941D01*
X94058128Y-60063560D01*
X94153366Y-60158798D01*
X94200985Y-60301655D01*
X94200985Y-60539750D01*
X93200985Y-59111179D02*
X93200985Y-59301655D01*
X93248605Y-59396893D01*
X93296224Y-59444512D01*
X93439081Y-59539750D01*
X93629557Y-59587369D01*
X94010509Y-59587369D01*
X94105747Y-59539750D01*
X94153366Y-59492131D01*
X94200985Y-59396893D01*
X94200985Y-59206417D01*
X94153366Y-59111179D01*
X94105747Y-59063560D01*
X94010509Y-59015941D01*
X93772414Y-59015941D01*
X93677176Y-59063560D01*
X93629557Y-59111179D01*
X93581938Y-59206417D01*
X93581938Y-59396893D01*
X93629557Y-59492131D01*
X93677176Y-59539750D01*
X93772414Y-59587369D01*
G04 #@! TO.C,CARD7*
X66165747Y-62825465D02*
X66213366Y-62873084D01*
X66260985Y-63015941D01*
X66260985Y-63111179D01*
X66213366Y-63254036D01*
X66118128Y-63349274D01*
X66022890Y-63396893D01*
X65832414Y-63444512D01*
X65689557Y-63444512D01*
X65499081Y-63396893D01*
X65403843Y-63349274D01*
X65308605Y-63254036D01*
X65260985Y-63111179D01*
X65260985Y-63015941D01*
X65308605Y-62873084D01*
X65356224Y-62825465D01*
X65975271Y-62444512D02*
X65975271Y-61968322D01*
X66260985Y-62539750D02*
X65260985Y-62206417D01*
X66260985Y-61873084D01*
X66260985Y-60968322D02*
X65784795Y-61301655D01*
X66260985Y-61539750D02*
X65260985Y-61539750D01*
X65260985Y-61158798D01*
X65308605Y-61063560D01*
X65356224Y-61015941D01*
X65451462Y-60968322D01*
X65594319Y-60968322D01*
X65689557Y-61015941D01*
X65737176Y-61063560D01*
X65784795Y-61158798D01*
X65784795Y-61539750D01*
X66260985Y-60539750D02*
X65260985Y-60539750D01*
X65260985Y-60301655D01*
X65308605Y-60158798D01*
X65403843Y-60063560D01*
X65499081Y-60015941D01*
X65689557Y-59968322D01*
X65832414Y-59968322D01*
X66022890Y-60015941D01*
X66118128Y-60063560D01*
X66213366Y-60158798D01*
X66260985Y-60301655D01*
X66260985Y-60539750D01*
X65260985Y-59634988D02*
X65260985Y-58968322D01*
X66260985Y-59396893D01*
G04 #@! TO.C,R41*
X267080985Y-56793084D02*
X266604795Y-57126417D01*
X267080985Y-57364512D02*
X266080985Y-57364512D01*
X266080985Y-56983560D01*
X266128605Y-56888322D01*
X266176224Y-56840703D01*
X266271462Y-56793084D01*
X266414319Y-56793084D01*
X266509557Y-56840703D01*
X266557176Y-56888322D01*
X266604795Y-56983560D01*
X266604795Y-57364512D01*
X266414319Y-55935941D02*
X267080985Y-55935941D01*
X266033366Y-56174036D02*
X266747652Y-56412131D01*
X266747652Y-55793084D01*
X267080985Y-54888322D02*
X267080985Y-55459750D01*
X267080985Y-55174036D02*
X266080985Y-55174036D01*
X266223843Y-55269274D01*
X266319081Y-55364512D01*
X266366700Y-55459750D01*
G04 #@! TO.C,R42*
X155320985Y-56793084D02*
X154844795Y-57126417D01*
X155320985Y-57364512D02*
X154320985Y-57364512D01*
X154320985Y-56983560D01*
X154368605Y-56888322D01*
X154416224Y-56840703D01*
X154511462Y-56793084D01*
X154654319Y-56793084D01*
X154749557Y-56840703D01*
X154797176Y-56888322D01*
X154844795Y-56983560D01*
X154844795Y-57364512D01*
X154654319Y-55935941D02*
X155320985Y-55935941D01*
X154273366Y-56174036D02*
X154987652Y-56412131D01*
X154987652Y-55793084D01*
X154416224Y-55459750D02*
X154368605Y-55412131D01*
X154320985Y-55316893D01*
X154320985Y-55078798D01*
X154368605Y-54983560D01*
X154416224Y-54935941D01*
X154511462Y-54888322D01*
X154606700Y-54888322D01*
X154749557Y-54935941D01*
X155320985Y-55507369D01*
X155320985Y-54888322D01*
G04 #@! TO.C,R43*
X239140985Y-58063084D02*
X238664795Y-58396417D01*
X239140985Y-58634512D02*
X238140985Y-58634512D01*
X238140985Y-58253560D01*
X238188605Y-58158322D01*
X238236224Y-58110703D01*
X238331462Y-58063084D01*
X238474319Y-58063084D01*
X238569557Y-58110703D01*
X238617176Y-58158322D01*
X238664795Y-58253560D01*
X238664795Y-58634512D01*
X238474319Y-57205941D02*
X239140985Y-57205941D01*
X238093366Y-57444036D02*
X238807652Y-57682131D01*
X238807652Y-57063084D01*
X238140985Y-56777369D02*
X238140985Y-56158322D01*
X238521938Y-56491655D01*
X238521938Y-56348798D01*
X238569557Y-56253560D01*
X238617176Y-56205941D01*
X238712414Y-56158322D01*
X238950509Y-56158322D01*
X239045747Y-56205941D01*
X239093366Y-56253560D01*
X239140985Y-56348798D01*
X239140985Y-56634512D01*
X239093366Y-56729750D01*
X239045747Y-56777369D01*
G04 #@! TO.C,R44*
X127380985Y-55918084D02*
X126904795Y-56251417D01*
X127380985Y-56489512D02*
X126380985Y-56489512D01*
X126380985Y-56108560D01*
X126428605Y-56013322D01*
X126476224Y-55965703D01*
X126571462Y-55918084D01*
X126714319Y-55918084D01*
X126809557Y-55965703D01*
X126857176Y-56013322D01*
X126904795Y-56108560D01*
X126904795Y-56489512D01*
X126714319Y-55060941D02*
X127380985Y-55060941D01*
X126333366Y-55299036D02*
X127047652Y-55537131D01*
X127047652Y-54918084D01*
X126714319Y-54108560D02*
X127380985Y-54108560D01*
X126333366Y-54346655D02*
X127047652Y-54584750D01*
X127047652Y-53965703D01*
G04 #@! TO.C,R45*
X212470985Y-58063084D02*
X211994795Y-58396417D01*
X212470985Y-58634512D02*
X211470985Y-58634512D01*
X211470985Y-58253560D01*
X211518605Y-58158322D01*
X211566224Y-58110703D01*
X211661462Y-58063084D01*
X211804319Y-58063084D01*
X211899557Y-58110703D01*
X211947176Y-58158322D01*
X211994795Y-58253560D01*
X211994795Y-58634512D01*
X211804319Y-57205941D02*
X212470985Y-57205941D01*
X211423366Y-57444036D02*
X212137652Y-57682131D01*
X212137652Y-57063084D01*
X211470985Y-56205941D02*
X211470985Y-56682131D01*
X211947176Y-56729750D01*
X211899557Y-56682131D01*
X211851938Y-56586893D01*
X211851938Y-56348798D01*
X211899557Y-56253560D01*
X211947176Y-56205941D01*
X212042414Y-56158322D01*
X212280509Y-56158322D01*
X212375747Y-56205941D01*
X212423366Y-56253560D01*
X212470985Y-56348798D01*
X212470985Y-56586893D01*
X212423366Y-56682131D01*
X212375747Y-56729750D01*
G04 #@! TO.C,R46*
X99440985Y-58458084D02*
X98964795Y-58791417D01*
X99440985Y-59029512D02*
X98440985Y-59029512D01*
X98440985Y-58648560D01*
X98488605Y-58553322D01*
X98536224Y-58505703D01*
X98631462Y-58458084D01*
X98774319Y-58458084D01*
X98869557Y-58505703D01*
X98917176Y-58553322D01*
X98964795Y-58648560D01*
X98964795Y-59029512D01*
X98774319Y-57600941D02*
X99440985Y-57600941D01*
X98393366Y-57839036D02*
X99107652Y-58077131D01*
X99107652Y-57458084D01*
X98440985Y-56648560D02*
X98440985Y-56839036D01*
X98488605Y-56934274D01*
X98536224Y-56981893D01*
X98679081Y-57077131D01*
X98869557Y-57124750D01*
X99250509Y-57124750D01*
X99345747Y-57077131D01*
X99393366Y-57029512D01*
X99440985Y-56934274D01*
X99440985Y-56743798D01*
X99393366Y-56648560D01*
X99345747Y-56600941D01*
X99250509Y-56553322D01*
X99012414Y-56553322D01*
X98917176Y-56600941D01*
X98869557Y-56648560D01*
X98821938Y-56743798D01*
X98821938Y-56934274D01*
X98869557Y-57029512D01*
X98917176Y-57077131D01*
X99012414Y-57124750D01*
G04 #@! TO.C,R47*
X183260985Y-58938084D02*
X182784795Y-59271417D01*
X183260985Y-59509512D02*
X182260985Y-59509512D01*
X182260985Y-59128560D01*
X182308605Y-59033322D01*
X182356224Y-58985703D01*
X182451462Y-58938084D01*
X182594319Y-58938084D01*
X182689557Y-58985703D01*
X182737176Y-59033322D01*
X182784795Y-59128560D01*
X182784795Y-59509512D01*
X182594319Y-58080941D02*
X183260985Y-58080941D01*
X182213366Y-58319036D02*
X182927652Y-58557131D01*
X182927652Y-57938084D01*
X182260985Y-57652369D02*
X182260985Y-56985703D01*
X183260985Y-57414274D01*
G04 #@! TO.C,R48*
X71500985Y-59333084D02*
X71024795Y-59666417D01*
X71500985Y-59904512D02*
X70500985Y-59904512D01*
X70500985Y-59523560D01*
X70548605Y-59428322D01*
X70596224Y-59380703D01*
X70691462Y-59333084D01*
X70834319Y-59333084D01*
X70929557Y-59380703D01*
X70977176Y-59428322D01*
X71024795Y-59523560D01*
X71024795Y-59904512D01*
X70834319Y-58475941D02*
X71500985Y-58475941D01*
X70453366Y-58714036D02*
X71167652Y-58952131D01*
X71167652Y-58333084D01*
X70929557Y-57809274D02*
X70881938Y-57904512D01*
X70834319Y-57952131D01*
X70739081Y-57999750D01*
X70691462Y-57999750D01*
X70596224Y-57952131D01*
X70548605Y-57904512D01*
X70500985Y-57809274D01*
X70500985Y-57618798D01*
X70548605Y-57523560D01*
X70596224Y-57475941D01*
X70691462Y-57428322D01*
X70739081Y-57428322D01*
X70834319Y-57475941D01*
X70881938Y-57523560D01*
X70929557Y-57618798D01*
X70929557Y-57809274D01*
X70977176Y-57904512D01*
X71024795Y-57952131D01*
X71120033Y-57999750D01*
X71310509Y-57999750D01*
X71405747Y-57952131D01*
X71453366Y-57904512D01*
X71500985Y-57809274D01*
X71500985Y-57618798D01*
X71453366Y-57523560D01*
X71405747Y-57475941D01*
X71310509Y-57428322D01*
X71120033Y-57428322D01*
X71024795Y-57475941D01*
X70977176Y-57523560D01*
X70929557Y-57618798D01*
G04 #@! TO.C,J4*
X44892380Y-53653333D02*
X45606666Y-53653333D01*
X45749523Y-53700952D01*
X45844761Y-53796190D01*
X45892380Y-53939047D01*
X45892380Y-54034285D01*
X45225714Y-52748571D02*
X45892380Y-52748571D01*
X44844761Y-52986666D02*
X45559047Y-53224761D01*
X45559047Y-52605714D01*
G04 #@! TO.C,J7*
X44892380Y-76513333D02*
X45606666Y-76513333D01*
X45749523Y-76560952D01*
X45844761Y-76656190D01*
X45892380Y-76799047D01*
X45892380Y-76894285D01*
X44892380Y-76132380D02*
X44892380Y-75465714D01*
X45892380Y-75894285D01*
G04 #@! TO.C,J1*
X44892380Y-30793333D02*
X45606666Y-30793333D01*
X45749523Y-30840952D01*
X45844761Y-30936190D01*
X45892380Y-31079047D01*
X45892380Y-31174285D01*
X45892380Y-29793333D02*
X45892380Y-30364761D01*
X45892380Y-30079047D02*
X44892380Y-30079047D01*
X45035238Y-30174285D01*
X45130476Y-30269523D01*
X45178095Y-30364761D01*
G04 #@! TO.C,REF\002A\002A*
X69146666Y-95912380D02*
X68813333Y-95436190D01*
X68575238Y-95912380D02*
X68575238Y-94912380D01*
X68956190Y-94912380D01*
X69051428Y-94960000D01*
X69099047Y-95007619D01*
X69146666Y-95102857D01*
X69146666Y-95245714D01*
X69099047Y-95340952D01*
X69051428Y-95388571D01*
X68956190Y-95436190D01*
X68575238Y-95436190D01*
X69575238Y-95388571D02*
X69908571Y-95388571D01*
X70051428Y-95912380D02*
X69575238Y-95912380D01*
X69575238Y-94912380D01*
X70051428Y-94912380D01*
X70813333Y-95388571D02*
X70480000Y-95388571D01*
X70480000Y-95912380D02*
X70480000Y-94912380D01*
X70956190Y-94912380D01*
X71480000Y-94912380D02*
X71480000Y-95150476D01*
X71241904Y-95055238D02*
X71480000Y-95150476D01*
X71718095Y-95055238D01*
X71337142Y-95340952D02*
X71480000Y-95150476D01*
X71622857Y-95340952D01*
X72241904Y-94912380D02*
X72241904Y-95150476D01*
X72003809Y-95055238D02*
X72241904Y-95150476D01*
X72480000Y-95055238D01*
X72099047Y-95340952D02*
X72241904Y-95150476D01*
X72384761Y-95340952D01*
G04 #@! TD*
M02*
